<?xml version="1.0" encoding="UTF-8"?>
<!--
/*******************************************************************************
* Copyright (c) 2010-2016 ITER Organization.
* All rights reserved. This program and the accompanying materials
* are made available under the terms of the Eclipse Public License v1.0
* which accompanies this distribution, and is available at
* http://www.eclipse.org/legal/epl-v10.html
******************************************************************************/
-->
<svg xmlns="http://www.w3.org/2000/svg" xmlns:xlink="http://www.w3.org/1999/xlink" width="51pt" height="51pt" viewBox="0 0 51 51" version="1.1">
<g id="surface1">
<path style=" stroke:none;fill-rule:evenodd;fill:rgb(100%,100%,100%);fill-opacity:1;" d="M 49.183594 25.265625 C 49.183594 12.058594 38.476563 1.351563 25.265625 1.351563 C 12.058594 1.351563 1.351563 12.058594 1.351563 25.265625 C 1.351563 38.476563 12.058594 49.183594 25.265625 49.183594 C 38.476563 49.183594 49.183594 38.476563 49.183594 25.265625 Z "/>
<path style="fill-rule:evenodd;fill:rgb(100%,100%,100%);fill-opacity:1;stroke-width:0.72;stroke-linecap:round;stroke-linejoin:round;stroke:rgb(0%,0%,0%);stroke-opacity:1;stroke-miterlimit:3;" d="M 12.759151 26.949136 C 8.746655 23.940806 6.382075 19.217895 6.379992 14.199151 C 6.379992 9.180407 8.742489 4.451246 12.759151 1.440832 L 25.509136 14.199151 Z M 12.759151 26.949136 C 19.800809 26.947052 25.507052 21.240809 25.509136 14.199151 C 25.513302 7.155409 19.804976 1.442916 12.759151 1.440832 C 5.711242 1.438749 -0.00125085 7.151242 0.000832477 14.199151 C 0.00291581 21.244976 5.715409 26.953302 12.759151 26.949136 Z " transform="matrix(1.875002,0,0,1.875002,1.350002,-1.350002)"/>
</g>
</svg>
