<?xml version="1.0" encoding="UTF-8"?>
<!--
/*******************************************************************************
* Copyright (c) 2010-2016 ITER Organization.
* All rights reserved. This program and the accompanying materials
* are made available under the terms of the Eclipse Public License v1.0
* which accompanies this distribution, and is available at
* http://www.eclipse.org/legal/epl-v10.html
******************************************************************************/
-->
<svg xmlns="http://www.w3.org/2000/svg" xmlns:xlink="http://www.w3.org/1999/xlink" width="51pt" height="51pt" viewBox="0 0 51 51" version="1.1">
<g id="surface1">
<path style=" stroke:none;fill-rule:evenodd;fill:rgb(100%,100%,100%);fill-opacity:1;" d="M 25.273438 19.292969 C 25.273438 15.992188 22.597656 13.3125 19.292969 13.3125 C 15.992188 13.3125 13.3125 15.992188 13.3125 19.292969 C 13.3125 22.597656 15.992188 25.273438 19.292969 25.273438 C 22.597656 25.273438 25.273438 22.597656 25.273438 19.292969 Z M 25.273438 31.238281 C 25.273438 27.933594 22.597656 25.257813 19.292969 25.257813 C 15.992188 25.257813 13.3125 27.933594 13.3125 31.238281 C 13.3125 34.539063 15.992188 37.21875 19.292969 37.21875 C 22.597656 37.21875 25.273438 34.539063 25.273438 31.238281 Z M 49.179688 25.273438 C 49.285156 16.664063 44.746094 8.660156 37.304688 4.324219 C 29.863281 -0.0117188 20.667969 -0.0117188 13.226563 4.324219 C 5.785156 8.660156 1.246094 16.664063 1.351563 25.273438 C 1.246094 33.886719 5.785156 41.890625 13.226563 46.226563 C 20.667969 50.558594 29.863281 50.558594 37.304688 46.226563 C 44.746094 41.890625 49.285156 33.886719 49.179688 25.273438 Z M 25.273438 31.238281 C 25.273438 27.933594 22.597656 25.257813 19.292969 25.257813 C 15.992188 25.257813 13.3125 27.933594 13.3125 31.238281 C 13.3125 34.539063 15.992188 37.21875 19.292969 37.21875 C 22.597656 37.21875 25.273438 34.539063 25.273438 31.238281 Z M 25.273438 19.292969 C 25.273438 15.992188 22.597656 13.3125 19.292969 13.3125 C 15.992188 13.3125 13.3125 15.992188 13.3125 19.292969 C 13.3125 22.597656 15.992188 25.273438 19.292969 25.273438 C 22.597656 25.273438 25.273438 22.597656 25.273438 19.292969 Z "/>
<path style="fill:none;stroke-width:0.72;stroke-linecap:round;stroke-linejoin:round;stroke:rgb(0%,0%,0%);stroke-opacity:1;stroke-miterlimit:3;" d="M 12.759151 11.009571 C 12.759151 9.249157 11.332069 7.819992 9.569571 7.819992 C 7.809157 7.819992 6.379992 9.249157 6.379992 11.009571 C 6.379992 12.772069 7.809157 14.199151 9.569571 14.199151 C 11.332069 14.199151 12.759151 12.772069 12.759151 11.009571 " transform="matrix(1.875002,0,0,1.875002,1.350002,-1.350002)"/>
<path style="fill:none;stroke-width:0.72;stroke-linecap:round;stroke-linejoin:round;stroke:rgb(0%,0%,0%);stroke-opacity:1;stroke-miterlimit:3;" d="M 12.759151 17.380397 C 12.759151 15.617899 11.332069 14.190817 9.569571 14.190817 C 7.809157 14.190817 6.379992 15.617899 6.379992 17.380397 C 6.379992 19.140811 7.809157 20.569976 9.569571 20.569976 C 11.332069 20.569976 12.759151 19.140811 12.759151 17.380397 " transform="matrix(1.875002,0,0,1.875002,1.350002,-1.350002)"/>
<path style="fill:none;stroke-width:0.72;stroke-linecap:round;stroke-linejoin:round;stroke:rgb(0%,0%,0%);stroke-opacity:1;stroke-miterlimit:3;" d="M 25.509136 14.199151 C 25.565385 9.607489 23.144555 5.338745 19.17581 3.026247 C 15.207064 0.71375 10.302904 0.71375 6.334158 3.026247 C 2.365413 5.338745 -0.0554175 9.607489 0.000832477 14.199151 C -0.0554175 18.792895 2.365413 23.06164 6.334158 25.374137 C 10.302904 27.684551 15.207064 27.684551 19.17581 25.374137 C 23.144555 23.06164 25.565385 18.792895 25.509136 14.199151 " transform="matrix(1.875002,0,0,1.875002,1.350002,-1.350002)"/>
<path style="fill:none;stroke-width:0.72;stroke-linecap:round;stroke-linejoin:round;stroke:rgb(0%,0%,0%);stroke-opacity:1;stroke-miterlimit:3;" d="M 12.759151 17.380397 C 12.759151 15.617899 11.332069 14.190817 9.569571 14.190817 C 7.809157 14.190817 6.379992 15.617899 6.379992 17.380397 C 6.379992 19.140811 7.809157 20.569976 9.569571 20.569976 C 11.332069 20.569976 12.759151 19.140811 12.759151 17.380397 " transform="matrix(1.875002,0,0,1.875002,1.350002,-1.350002)"/>
<path style="fill:none;stroke-width:0.72;stroke-linecap:round;stroke-linejoin:round;stroke:rgb(0%,0%,0%);stroke-opacity:1;stroke-miterlimit:3;" d="M 12.759151 11.009571 C 12.759151 9.249157 11.332069 7.819992 9.569571 7.819992 C 7.809157 7.819992 6.379992 9.249157 6.379992 11.009571 C 6.379992 12.772069 7.809157 14.199151 9.569571 14.199151 C 11.332069 14.199151 12.759151 12.772069 12.759151 11.009571 " transform="matrix(1.875002,0,0,1.875002,1.350002,-1.350002)"/>
<path style="fill:none;stroke-width:0.72;stroke-linecap:round;stroke-linejoin:round;stroke:rgb(0%,0%,0%);stroke-opacity:1;stroke-miterlimit:3;" d="M 12.759151 1.440832 L 25.509136 14.199151 " transform="matrix(1.875002,0,0,1.875002,1.350002,-1.350002)"/>
<path style="fill:none;stroke-width:0.72;stroke-linecap:round;stroke-linejoin:round;stroke:rgb(0%,0%,0%);stroke-opacity:1;stroke-miterlimit:3;" d="M 12.759151 26.949136 L 25.509136 14.199151 " transform="matrix(1.875002,0,0,1.875002,1.350002,-1.350002)"/>
</g>
</svg>
