<?xml version="1.0" encoding="UTF-8"?>
<!--
/*******************************************************************************
* Copyright (c) 2010-2016 ITER Organization.
* All rights reserved. This program and the accompanying materials
* are made available under the terms of the Eclipse Public License v1.0
* which accompanies this distribution, and is available at
* http://www.eclipse.org/legal/epl-v10.html
******************************************************************************/
-->
<svg xmlns="http://www.w3.org/2000/svg" xmlns:xlink="http://www.w3.org/1999/xlink" width="51pt" height="51pt" viewBox="0 0 51 51" version="1.1">
<g id="surface1">
<path style=" stroke:none;fill-rule:evenodd;fill:rgb(65.098039%,65.098039%,65.098039%);fill-opacity:1;" d="M 25.257813 49.179688 C 33.871094 49.285156 41.875 44.746094 46.210938 37.304688 C 50.546875 29.863281 50.546875 20.667969 46.210938 13.226563 C 41.875 5.785156 33.871094 1.246094 25.257813 1.351563 C 16.648438 1.246094 8.644531 5.785156 4.308594 13.226563 C -0.0273438 20.667969 -0.0273438 29.863281 4.308594 37.304688 C 8.644531 44.746094 16.648438 49.285156 25.257813 49.179688 Z "/>
<path style="fill:none;stroke-width:0.72;stroke-linecap:round;stroke-linejoin:round;stroke:rgb(0%,0%,0%);stroke-opacity:1;stroke-miterlimit:3;" d="M 13.470817 0.720832 L 26.231219 13.479151 L 13.470817 26.229136 " transform="matrix(1.875002,0,0,1.875002,0,0)"/>
<path style="fill:none;stroke-width:0.72;stroke-linecap:round;stroke-linejoin:round;stroke:rgb(0%,0%,0%);stroke-opacity:1;stroke-miterlimit:3;" d="M 17.731229 13.479151 C 17.733312 12.914568 17.508313 12.372902 17.108313 11.972902 C 16.710397 11.572903 16.166647 11.347903 15.602065 11.349987 C 15.037482 11.347903 14.493733 11.572903 14.093733 11.972902 C 13.695817 12.372902 13.470817 12.914568 13.470817 13.479151 C 13.468734 14.649983 12.520818 15.595815 11.35207 15.599981 C 10.179155 15.602065 9.224989 14.654149 9.220822 13.479151 C 9.224989 12.306235 8.27499 11.354153 7.102075 11.349987 C 6.537492 11.347903 5.993743 11.572903 5.593743 11.972902 C 5.195827 12.372902 4.970827 12.914568 4.970827 13.479151 " transform="matrix(1.875002,0,0,1.875002,0,0)"/>
<path style="fill:none;stroke-width:0.72;stroke-linecap:round;stroke-linejoin:round;stroke:rgb(0%,0%,0%);stroke-opacity:1;stroke-miterlimit:3;" d="M 13.470817 26.229136 C 18.064562 26.285385 22.333307 23.864555 24.645804 19.89581 C 26.958301 15.927064 26.958301 11.022904 24.645804 7.054158 C 22.333307 3.085413 18.064562 0.664583 13.470817 0.720832 C 8.879156 0.664583 4.610411 3.085413 2.297914 7.054158 C -0.0145833 11.022904 -0.0145833 15.927064 2.297914 19.89581 C 4.610411 23.864555 8.879156 26.285385 13.470817 26.229136 " transform="matrix(1.875002,0,0,1.875002,0,0)"/>
</g>
</svg>
