<?xml version="1.0" encoding="UTF-8"?>
<!--
/*******************************************************************************
* Copyright (c) 2010-2016 ITER Organization.
* All rights reserved. This program and the accompanying materials
* are made available under the terms of the Eclipse Public License v1.0
* which accompanies this distribution, and is available at
* http://www.eclipse.org/legal/epl-v10.html
******************************************************************************/
-->
<svg xmlns="http://www.w3.org/2000/svg" xmlns:xlink="http://www.w3.org/1999/xlink" width="51pt" height="51pt" viewBox="0 0 51 51" version="1.1">
<g id="surface1">
<path style=" stroke:none;fill-rule:evenodd;fill:rgb(100%,100%,100%);fill-opacity:1;" d="M 25.257813 49.179688 C 33.871094 49.285156 41.875 44.746094 46.210938 37.304688 C 50.546875 29.863281 50.546875 20.667969 46.210938 13.226563 C 41.875 5.785156 33.871094 1.246094 25.257813 1.351563 C 16.648438 1.246094 8.644531 5.785156 4.308594 13.226563 C -0.0273438 20.667969 -0.0273438 29.863281 4.308594 37.304688 C 8.644531 44.746094 16.648438 49.285156 25.257813 49.179688 Z "/>
<path style="fill:none;stroke-width:0.72;stroke-linecap:round;stroke-linejoin:round;stroke:rgb(0%,0%,0%);stroke-opacity:1;stroke-miterlimit:3;" d="M 0.000832477 14.200983 L 12.759151 1.440581 L 25.509136 14.200983 " transform="matrix(0.000000000000000115,1.875002,-1.875002,0.000000000000000115,51.884687,1.350002)"/>
<path style="fill:none;stroke-width:0.72;stroke-linecap:round;stroke-linejoin:round;stroke:rgb(0%,0%,0%);stroke-opacity:1;stroke-miterlimit:3;" d="M 12.759151 9.940571 C 12.194568 9.938488 11.652902 10.163487 11.252902 10.563487 C 10.852903 10.961403 10.627903 11.505153 10.629987 12.069735 C 10.627903 12.634318 10.852903 13.178067 11.252902 13.578067 C 11.652902 13.975983 12.194568 14.200983 12.759151 14.200983 C 13.929983 14.203066 14.875815 15.150982 14.879981 16.31973 C 14.882065 17.492645 13.934149 18.446811 12.759151 18.450978 C 11.586235 18.446811 10.634153 19.39681 10.629987 20.569725 C 10.627903 21.134308 10.852903 21.678057 11.252902 22.078057 C 11.652902 22.475973 12.194568 22.700973 12.759151 22.700973 " transform="matrix(0.000000000000000115,1.875002,-1.875002,0.000000000000000115,51.884687,1.350002)"/>
<path style="fill:none;stroke-width:0.72;stroke-linecap:round;stroke-linejoin:round;stroke:rgb(0%,0%,0%);stroke-opacity:1;stroke-miterlimit:3;" d="M 25.509136 14.200983 C 25.565385 9.607238 23.144555 5.338493 19.17581 3.025996 C 15.207064 0.713499 10.302904 0.713499 6.334158 3.025996 C 2.365413 5.338493 -0.0554175 9.607238 0.000832477 14.200983 C -0.0554175 18.792644 2.365413 23.061389 6.334158 25.373886 C 10.302904 27.686383 15.207064 27.686383 19.17581 25.373886 C 23.144555 23.061389 25.565385 18.792644 25.509136 14.200983 " transform="matrix(0.000000000000000115,1.875002,-1.875002,0.000000000000000115,51.884687,1.350002)"/>
</g>
</svg>
