<?xml version="1.0" encoding="UTF-8"?>
<!--
/*******************************************************************************
* Copyright (c) 2010-2016 ITER Organization.
* All rights reserved. This program and the accompanying materials
* are made available under the terms of the Eclipse Public License v1.0
* which accompanies this distribution, and is available at
* http://www.eclipse.org/legal/epl-v10.html
******************************************************************************/
-->
<svg xmlns="http://www.w3.org/2000/svg" xmlns:xlink="http://www.w3.org/1999/xlink" width="51pt" height="51pt" viewBox="0 0 51 51" version="1.1">
<g id="surface1">
<path style=" stroke:none;fill-rule:evenodd;fill:rgb(65.098039%,65.098039%,65.098039%);fill-opacity:1;" d="M 49.183594 25.265625 C 49.183594 12.058594 38.476563 1.351563 25.265625 1.351563 C 12.058594 1.351563 1.351563 12.058594 1.351563 25.265625 C 1.351563 38.476563 12.058594 49.183594 25.265625 49.183594 C 38.476563 49.183594 49.183594 38.476563 49.183594 25.265625 Z "/>
<path style="fill:none;stroke-width:0.72;stroke-linecap:round;stroke-linejoin:round;stroke:rgb(0%,0%,0%);stroke-opacity:1;stroke-miterlimit:3;" d="M 19.849976 19.849976 C 14.658316 16.072898 7.622908 16.072898 2.429164 19.849976 " transform="matrix(1.875002,0,0,1.875002,0,0)"/>
<path style="fill:none;stroke-width:0.72;stroke-linecap:round;stroke-linejoin:round;stroke:rgb(0%,0%,0%);stroke-opacity:1;stroke-miterlimit:3;" d="M 19.849976 7.099992 C 14.658316 10.87707 7.622908 10.87707 2.429164 7.099992 " transform="matrix(1.875002,0,0,1.875002,0,0)"/>
<path style="fill:none;stroke-width:0.72;stroke-linecap:round;stroke-linejoin:round;stroke:rgb(0%,0%,0%);stroke-opacity:1;stroke-miterlimit:3;" d="M 13.479151 26.229136 C 20.520809 26.227052 26.227052 20.520809 26.229136 13.479151 C 26.233302 6.435409 20.524976 0.722916 13.479151 0.720832 C 8.920823 0.718749 4.708328 3.15208 2.429164 7.099992 C 1.310415 9.039573 0.720832 11.23957 0.720832 13.479151 C 0.720832 15.716648 1.310415 17.912479 2.429164 19.849976 C 4.708328 23.797888 8.920823 26.231219 13.479151 26.229136 L 19.849976 19.849976 L 26.229136 13.479151 L 19.849976 7.099992 L 13.479151 0.720832 " transform="matrix(1.875002,0,0,1.875002,0,0)"/>
</g>
</svg>
