<?xml version="1.0" encoding="UTF-8"?>
<!--
/*******************************************************************************
* Copyright (c) 2010-2016 ITER Organization.
* All rights reserved. This program and the accompanying materials
* are made available under the terms of the Eclipse Public License v1.0
* which accompanies this distribution, and is available at
* http://www.eclipse.org/legal/epl-v10.html
******************************************************************************/
-->
<svg xmlns="http://www.w3.org/2000/svg" xmlns:xlink="http://www.w3.org/1999/xlink" width="51pt" height="51pt" viewBox="0 0 51 51" version="1.1">
<g id="surface1">
<path style=" stroke:none;fill-rule:evenodd;fill:rgb(100%,100%,100%);fill-opacity:1;" d="M 49.183594 25.265625 C 49.183594 12.058594 38.476563 1.351563 25.265625 1.351563 C 12.058594 1.351563 1.351563 12.058594 1.351563 25.265625 C 1.351563 38.476563 12.058594 49.183594 25.265625 49.183594 C 38.476563 49.183594 49.183594 38.476563 49.183594 25.265625 Z "/>
<path style="fill:none;stroke-width:0.72;stroke-linecap:round;stroke-linejoin:round;stroke:rgb(0%,0%,0%);stroke-opacity:1;stroke-miterlimit:3;" d="M 19.129976 20.569976 C 13.938316 16.792898 6.902908 16.792898 1.709164 20.569976 " transform="matrix(1.875002,0,0,1.875002,1.350002,-1.350002)"/>
<path style="fill:none;stroke-width:0.72;stroke-linecap:round;stroke-linejoin:round;stroke:rgb(0%,0%,0%);stroke-opacity:1;stroke-miterlimit:3;" d="M 19.129976 7.819992 C 13.938316 11.59707 6.902908 11.59707 1.709164 7.819992 " transform="matrix(1.875002,0,0,1.875002,1.350002,-1.350002)"/>
<path style="fill:none;stroke-width:0.72;stroke-linecap:round;stroke-linejoin:round;stroke:rgb(0%,0%,0%);stroke-opacity:1;stroke-miterlimit:3;" d="M 12.759151 26.949136 C 19.800809 26.947052 25.507052 21.240809 25.509136 14.199151 C 25.513302 7.155409 19.804976 1.442916 12.759151 1.440832 C 8.200823 1.438749 3.988328 3.87208 1.709164 7.819992 C 0.590415 9.759573 0.000832477 11.95957 0.000832477 14.199151 C 0.000832477 16.436648 0.590415 18.632479 1.709164 20.569976 C 3.988328 24.517888 8.200823 26.951219 12.759151 26.949136 L 19.129976 20.569976 L 25.509136 14.199151 L 19.129976 7.819992 L 12.759151 1.440832 " transform="matrix(1.875002,0,0,1.875002,1.350002,-1.350002)"/>
</g>
</svg>
