<?xml version="1.0" encoding="UTF-8"?>
<!--
/*******************************************************************************
* Copyright (c) 2010-2016 ITER Organization.
* All rights reserved. This program and the accompanying materials
* are made available under the terms of the Eclipse Public License v1.0
* which accompanies this distribution, and is available at
* http://www.eclipse.org/legal/epl-v10.html
******************************************************************************/
-->
<svg xmlns="http://www.w3.org/2000/svg" xmlns:xlink="http://www.w3.org/1999/xlink" width="51pt" height="66pt" viewBox="0 0 51 66" version="1.1">
<g id="surface1">
<path style=" stroke:none;fill-rule:evenodd;fill:rgb(100%,100%,100%);fill-opacity:1;" d="M 1.851563 1.351563 L 1.902344 1.351563 L 1.902344 1.402344 L 1.851563 1.402344 Z "/>
<path style=" stroke:none;fill-rule:evenodd;fill:rgb(100%,100%,100%);fill-opacity:1;" d="M 49.683594 64.96875 L 49.738281 64.96875 L 49.738281 65.023438 L 49.683594 65.023438 Z "/>
<path style="fill-rule:evenodd;fill:rgb(65.098039%,65.098039%,65.098039%);fill-opacity:1;stroke-width:0.719996;stroke-linecap:round;stroke-linejoin:round;stroke:rgb(0%,0%,0%);stroke-opacity:1;stroke-miterlimit:3;" d="M 26.51044 17.720833 C 26.564607 13.127079 24.145854 8.860409 20.177101 6.547907 C 16.208347 4.235405 11.302093 4.235405 7.33334 6.547907 C 3.364586 8.860409 0.945834 13.127079 1.000001 17.720833 C 0.945834 22.312504 3.364586 26.581258 7.33334 28.89376 C 11.302093 31.206262 16.208347 31.206262 20.177101 28.89376 C 24.145854 26.581258 26.564607 22.312504 26.51044 17.720833 Z " transform="matrix(1.874998,0,0,1.874998,0,0.0000289502)"/>
<path style="fill:none;stroke-width:0.719996;stroke-linecap:round;stroke-linejoin:round;stroke:rgb(0%,0%,0%);stroke-opacity:1;stroke-miterlimit:3;" d="M 0.000402439 35.399139 L 17.419168 30.730385 " transform="matrix(1.874998,0,0,1.874998,13.839089,-12.416296)"/>
<path style="fill:none;stroke-width:0.719996;stroke-linecap:round;stroke-linejoin:round;stroke:rgb(0%,0%,0%);stroke-opacity:1;stroke-miterlimit:3;" d="M 0.000402439 30.729476 L 17.419168 35.400314 " transform="matrix(1.874998,0,0,1.874998,13.839089,-45.078655)"/>
<path style="fill:none;stroke-width:0.749999;stroke-linecap:butt;stroke-linejoin:miter;stroke:rgb(0%,0%,0%);stroke-opacity:1;stroke-miterlimit:3;" d="M 13.545845 18.11875 C 13.577095 18.11875 13.595845 18.139584 13.627095 18.139584 C 13.656262 18.15 13.666679 18.16875 13.695845 18.179167 C 13.716679 18.2 13.727095 18.229167 13.745845 18.260417 C 13.766679 18.289584 13.777095 18.318751 13.777095 18.350001 C 13.777095 18.379167 13.777095 18.429167 13.766679 18.460417 C 13.766679 18.500001 13.745845 18.529167 13.727095 18.568751 C 13.716679 18.610417 13.687512 18.639584 13.656262 18.668751 C 13.627095 18.718751 13.577095 18.750001 13.545845 18.760418 C 13.506262 18.789584 13.456262 18.818751 13.406262 18.839584 C 13.345845 18.850001 13.287512 18.868751 13.245845 18.868751 C 13.187512 18.868751 13.106261 18.868751 13.056261 18.850001 C 12.987511 18.850001 12.927095 18.818751 12.866678 18.810418 C 12.806261 18.779168 12.727094 18.750001 12.677094 18.700001 C 12.616678 18.668751 12.556261 18.610417 12.516678 18.550001 C 12.445844 18.500001 12.406261 18.429167 12.356261 18.368751 C 12.327094 18.289584 12.287511 18.2 12.256261 18.11875 C 12.237511 18.05 12.206261 17.939584 12.206261 17.860417 C 12.195844 17.76875 12.195844 17.66875 12.206261 17.56875 C 12.227094 17.479166 12.237511 17.360416 12.266677 17.26875 C 12.316677 17.179166 12.356261 17.068749 12.406261 16.999999 C 12.466678 16.899999 12.545844 16.799999 12.606261 16.718749 C 12.677094 16.639582 12.766678 16.549999 12.866678 16.489582 C 12.966678 16.418749 13.077095 16.360415 13.187512 16.310415 C 13.287512 16.260415 13.427095 16.218749 13.545845 16.199999 C 13.666679 16.168749 13.806262 16.160415 13.945845 16.160415 C 14.066679 16.160415 14.216679 16.168749 14.337513 16.189582 C 14.477096 16.218749 14.627096 16.260415 14.756263 16.318749 C 14.877096 16.368749 15.027096 16.449999 15.137513 16.539582 C 15.256263 16.610416 15.377097 16.718749 15.487514 16.829166 C 15.587514 16.929166 15.695847 17.068749 15.777097 17.210416 C 15.845847 17.329166 15.937514 17.5 15.987514 17.639583 C 16.045847 17.789583 16.095847 17.96875 16.127097 18.11875 C 16.137514 18.289584 16.156264 18.468751 16.156264 18.639584 C 16.137514 18.810418 16.106264 19.010418 16.077097 19.168751 C 16.037514 19.339585 15.956264 19.529168 15.877097 19.689585 C 15.806264 19.850002 15.695847 20.029169 15.587514 20.168752 C 15.487514 20.318752 15.327097 20.468752 15.195847 20.589586 C 15.056263 20.729169 14.877096 20.850003 14.727096 20.939586 C 14.537513 21.050003 14.337513 21.139586 14.156262 21.200003 C 13.977096 21.26042 13.745845 21.318753 13.545845 21.339587 C 13.337512 21.368753 13.106261 21.368753 12.906261 21.350003 C 12.695844 21.339587 12.445844 21.31042 12.256261 21.250003 C 12.037511 21.189586 11.80626 21.089586 11.627093 21.000003 C 11.427093 20.900003 11.216676 20.760419 11.045843 20.618753 C 10.866676 20.489586 10.687509 20.300002 10.527093 20.129169 C 10.395842 19.968752 10.237509 19.739585 10.137509 19.539585 C 10.016675 19.339585 9.906259 19.079168 9.845842 18.868751 C 9.766675 18.639584 9.706258 18.368751 9.695842 18.11875 C 9.666675 17.879167 9.666675 17.6 9.677092 17.360416 C 9.706258 17.099999 9.756259 16.829166 9.827092 16.579166 C 9.906259 16.339582 10.016675 16.068749 10.137509 15.849998 C 10.256259 15.618748 10.427092 15.360415 10.595843 15.168748 C 10.756259 14.968748 10.977093 14.749997 11.166676 14.589581 C 11.38751 14.399997 11.645843 14.23958 11.88751 14.110414 C 12.127094 13.979163 12.416677 13.868747 12.677094 13.78958 C 12.956261 13.699997 13.277095 13.63958 13.545845 13.629163 C 13.827095 13.599996 14.156262 13.599996 14.445846 13.629163 C 14.727096 13.660413 15.056263 13.729163 15.327097 13.810413 C 15.606264 13.899997 15.927097 14.03958 16.187514 14.179164 C 16.445848 14.329164 16.737515 14.529164 16.966681 14.710414 C 17.187515 14.910414 17.437515 15.168748 17.616682 15.399998 C 17.816682 15.639582 18.016682 15.939582 18.145849 16.218749 C 18.306266 16.489582 18.427099 16.829166 18.516683 17.129166 C 18.606266 17.439583 18.666683 17.8 18.69585 18.11875 C 18.716683 18.439584 18.716683 18.818751 18.666683 19.139585 C 18.637516 19.479168 18.54585 19.850002 18.456266 20.150002 C 18.345849 20.468752 18.195849 20.818753 18.027099 21.12917 C 17.856266 21.41042 17.637515 21.72917 17.416682 21.989587 C 17.187515 22.250004 16.895848 22.529171 16.627098 22.739588 C 16.356264 22.950005 16.016681 23.168755 15.695847 23.318755 C 15.377097 23.489588 14.995846 23.618755 14.656263 23.729172 C 14.306262 23.818755 13.895845 23.879172 13.545845 23.910422 C 13.187512 23.939589 12.756261 23.929172 12.406261 23.879172 C 12.037511 23.839589 11.616677 23.750005 11.266676 23.618755 C 10.916676 23.500005 10.516676 23.318755 10.195842 23.139588 C 9.856259 22.950005 9.506258 22.700004 9.216675 22.450004 C 8.927091 22.189587 8.627091 21.868754 8.395841 21.568753 C 8.156257 21.26042 7.92709 20.879169 7.756257 20.529169 C 7.57709 20.168752 7.42709 19.739585 7.316673 19.360418 C 7.206256 18.979168 7.137506 18.518751 7.116673 18.11875 C 7.087506 17.729167 7.106256 17.25 7.166673 16.860416 C 7.206256 16.449999 7.316673 15.989582 7.456257 15.610415 C 7.587507 15.210414 7.787507 14.768747 7.99584 14.418747 C 8.216674 14.049997 8.487507 13.660413 8.766674 13.349996 C 9.056258 13.029163 9.406258 12.699996 9.756259 12.439579 C 10.087509 12.179162 10.516676 11.918745 10.895843 11.739578 C 11.295843 11.539578 11.766677 11.368744 12.177094 11.268744 C 12.606261 11.160411 13.106261 11.068744 13.545845 11.049994 C 13.987512 11.018744 14.506263 11.039578 14.937513 11.110411 C 15.395847 11.168744 15.895847 11.299994 16.327098 11.429161 C 16.745848 11.589578 17.216682 11.810412 17.616682 12.039578 C 18.016682 12.268745 18.437516 12.589579 18.7771 12.899996 C 19.1271 13.199996 19.49585 13.599996 19.766684 13.979163 C 20.037517 14.33958 20.327101 14.818747 20.527101 15.229165 C 20.745851 15.649998 20.927102 16.168749 21.027102 16.629166 C 21.156268 17.099999 21.245852 17.65 21.256269 18.11875 " transform="matrix(1.874998,0,0,1.874998,0,0.0000289502)"/>
</g>
</svg>
