<?xml version="1.0" encoding="UTF-8"?>
<!--
/*******************************************************************************
* Copyright (c) 2010-2016 ITER Organization.
* All rights reserved. This program and the accompanying materials
* are made available under the terms of the Eclipse Public License v1.0
* which accompanies this distribution, and is available at
* http://www.eclipse.org/legal/epl-v10.html
******************************************************************************/
-->
<svg xmlns="http://www.w3.org/2000/svg" xmlns:xlink="http://www.w3.org/1999/xlink" width="51pt" height="66pt" viewBox="0 0 51 66" version="1.1">
<g id="surface1">
<path style=" stroke:none;fill-rule:evenodd;fill:rgb(100%,100%,100%);fill-opacity:1;" d="M 1.851563 1.351563 L 1.902344 1.351563 L 1.902344 1.402344 L 1.851563 1.402344 Z "/>
<path style=" stroke:none;fill-rule:evenodd;fill:rgb(100%,100%,100%);fill-opacity:1;" d="M 49.683594 64.96875 L 49.738281 64.96875 L 49.738281 65.023438 L 49.683594 65.023438 Z "/>
<path style="fill-rule:evenodd;fill:rgb(100%,100%,100%);fill-opacity:1;stroke-width:0.719996;stroke-linecap:round;stroke-linejoin:round;stroke:rgb(0%,0%,0%);stroke-opacity:1;stroke-miterlimit:3;" d="M 25.509546 22.490619 C 25.563713 17.896865 23.14496 13.630195 19.176207 11.317693 C 15.207453 9.005191 10.301199 9.005191 6.332446 11.317693 C 2.363692 13.630195 -0.0550598 17.896865 -0.000893128 22.490619 C -0.0550598 27.08229 2.363692 31.351044 6.332446 33.663546 C 10.301199 35.976048 15.207453 35.976048 19.176207 33.663546 C 23.14496 31.351044 25.563713 27.08229 25.509546 22.490619 Z " transform="matrix(1.874998,0,0,1.874998,1.876675,-8.943312)"/>
<path style="fill:none;stroke-width:0.719996;stroke-linecap:round;stroke-linejoin:round;stroke:rgb(0%,0%,0%);stroke-opacity:1;stroke-miterlimit:3;" d="M 0.000402439 35.399139 L 17.419168 30.730385 " transform="matrix(1.874998,0,0,1.874998,13.839089,-12.416296)"/>
<path style="fill:none;stroke-width:0.719996;stroke-linecap:round;stroke-linejoin:round;stroke:rgb(0%,0%,0%);stroke-opacity:1;stroke-miterlimit:3;" d="M 0.000402439 30.729476 L 17.419168 35.400314 " transform="matrix(1.874998,0,0,1.874998,13.839089,-45.078655)"/>
<path style="fill:none;stroke-width:0.749999;stroke-linecap:butt;stroke-linejoin:miter;stroke:rgb(0%,0%,0%);stroke-opacity:1;stroke-miterlimit:3;" d="M 6.459232 28.300994 C 6.490482 28.300994 6.509232 28.28016 6.540482 28.28016 C 6.569649 28.269744 6.580066 28.250994 6.609232 28.240577 C 6.630066 28.219744 6.640482 28.190577 6.659232 28.159327 C 6.680066 28.13016 6.690482 28.100993 6.690482 28.069743 C 6.690482 28.040577 6.690482 27.990577 6.680066 27.959327 C 6.680066 27.919743 6.659232 27.890577 6.640482 27.850993 C 6.630066 27.809327 6.600899 27.78016 6.569649 27.750993 C 6.540482 27.700993 6.490482 27.669743 6.459232 27.659326 C 6.419649 27.63016 6.369649 27.600993 6.319649 27.58016 C 6.259232 27.569743 6.200899 27.550993 6.159232 27.550993 C 6.100899 27.550993 6.019648 27.550993 5.969648 27.569743 C 5.900898 27.569743 5.840482 27.600993 5.780065 27.609326 C 5.719648 27.640576 5.640481 27.669743 5.590481 27.719743 C 5.530065 27.750993 5.469648 27.809327 5.430065 27.869743 C 5.359231 27.919743 5.319648 27.990577 5.269648 28.050993 C 5.240481 28.13016 5.200898 28.219744 5.169648 28.300994 C 5.150898 28.369744 5.119648 28.48016 5.119648 28.559327 C 5.109231 28.650994 5.109231 28.750994 5.119648 28.850994 C 5.140481 28.940578 5.150898 29.059328 5.180064 29.150994 C 5.230064 29.240578 5.269648 29.350995 5.319648 29.419745 C 5.380065 29.519745 5.459231 29.619745 5.519648 29.700995 C 5.590481 29.780162 5.680065 29.869745 5.780065 29.930162 C 5.880065 30.000995 5.990482 30.059329 6.100899 30.109329 C 6.200899 30.159329 6.340482 30.200995 6.459232 30.219745 C 6.580066 30.250995 6.719649 30.259329 6.859232 30.259329 C 6.980066 30.259329 7.130066 30.250995 7.2509 30.230162 C 7.390483 30.200995 7.540483 30.159329 7.66965 30.100995 C 7.790483 30.050995 7.940483 29.969745 8.0509 29.880162 C 8.16965 29.809328 8.290484 29.700995 8.400901 29.590578 C 8.500901 29.490578 8.609234 29.350995 8.690484 29.209328 C 8.759234 29.090578 8.850901 28.919744 8.900901 28.780161 C 8.959234 28.630161 9.009234 28.450994 9.040484 28.300994 C 9.050901 28.13016 9.069651 27.950993 9.069651 27.78016 C 9.050901 27.609326 9.019651 27.409326 8.990484 27.250993 C 8.950901 27.080159 8.869651 26.890576 8.790484 26.730159 C 8.719651 26.569742 8.609234 26.390575 8.500901 26.250992 C 8.400901 26.100992 8.240484 25.950992 8.109234 25.830158 C 7.96965 25.690575 7.790483 25.569741 7.640483 25.480158 C 7.4509 25.369741 7.2509 25.280158 7.069649 25.219741 C 6.890483 25.159324 6.659232 25.100991 6.459232 25.080157 C 6.250899 25.050991 6.019648 25.050991 5.819648 25.069741 C 5.609231 25.080157 5.359231 25.109324 5.169648 25.169741 C 4.950898 25.230158 4.719647 25.330158 4.54048 25.419741 C 4.34048 25.519741 4.130063 25.659325 3.95923 25.800991 C 3.780063 25.930158 3.600896 26.119742 3.44048 26.290575 C 3.309229 26.450992 3.150896 26.680159 3.050896 26.880159 C 2.930062 27.080159 2.819646 27.340576 2.759229 27.550993 C 2.680062 27.78016 2.619645 28.050993 2.609229 28.300994 C 2.580062 28.540577 2.580062 28.819744 2.590479 29.059328 C 2.619645 29.319745 2.669646 29.590578 2.740479 29.840578 C 2.819646 30.080162 2.930062 30.350995 3.050896 30.569746 C 3.169646 30.800996 3.340479 31.059329 3.50923 31.250996 C 3.669646 31.450996 3.89048 31.669747 4.080063 31.830163 C 4.300897 32.019747 4.55923 32.180164 4.800897 32.30933 C 5.040481 32.440581 5.330064 32.550997 5.590481 32.630164 C 5.869648 32.719747 6.190482 32.780164 6.459232 32.790581 C 6.740482 32.819748 7.069649 32.819748 7.359233 32.790581 C 7.640483 32.759331 7.96965 32.690581 8.240484 32.609331 C 8.519651 32.519747 8.840484 32.380164 9.100901 32.24058 C 9.359235 32.09058 9.650902 31.89058 9.880068 31.70933 C 10.100902 31.50933 10.350902 31.250996 10.530069 31.019746 C 10.730069 30.780162 10.930069 30.480162 11.059236 30.200995 C 11.219653 29.930162 11.340486 29.590578 11.43007 29.290578 C 11.519653 28.980161 11.58007 28.619744 11.609237 28.300994 C 11.63007 27.98016 11.63007 27.600993 11.58007 27.280159 C 11.550903 26.940576 11.459237 26.569742 11.369653 26.269742 C 11.259236 25.950992 11.109236 25.600991 10.940486 25.290574 C 10.769653 25.009324 10.550902 24.690574 10.330069 24.430157 C 10.100902 24.16974 9.809235 23.890573 9.540485 23.680156 C 9.269651 23.469739 8.930068 23.250989 8.609234 23.100989 C 8.290484 22.930156 7.909233 22.800989 7.56965 22.690572 C 7.219649 22.600989 6.809232 22.540572 6.459232 22.509322 C 6.100899 22.480155 5.669648 22.490572 5.319648 22.540572 C 4.950898 22.580155 4.530064 22.669739 4.180063 22.800989 C 3.830063 22.919739 3.430063 23.100989 3.109229 23.280156 C 2.769646 23.469739 2.419645 23.71974 2.130062 23.96974 C 1.840478 24.230157 1.540478 24.55099 1.309228 24.850991 C 1.069644 25.159324 0.840477 25.540575 0.669644 25.890575 C 0.490477 26.250992 0.340477 26.680159 0.23006 27.059326 C 0.119643 27.440576 0.0508932 27.900993 0.0300599 28.300994 C 0.000893183 28.690577 0.0196432 29.169744 0.0800599 29.559328 C 0.119643 29.969745 0.23006 30.430162 0.369644 30.809329 C 0.500894 31.20933 0.700894 31.650997 0.909227 32.000997 C 1.130061 32.369747 1.400894 32.759331 1.680061 33.069748 C 1.969645 33.390581 2.319645 33.719748 2.669646 33.980165 C 3.000896 34.240582 3.430063 34.500999 3.80923 34.680166 C 4.20923 34.880166 4.680064 35.051 5.090481 35.151 C 5.519648 35.259333 6.019648 35.351 6.459232 35.36975 C 6.900899 35.401 7.41965 35.380166 7.8509 35.309333 C 8.309234 35.251 8.809234 35.11975 9.240485 34.990583 C 9.659235 34.830166 10.130069 34.609332 10.530069 34.380166 C 10.930069 34.150999 11.350903 33.830165 11.690487 33.519748 C 12.040487 33.219748 12.409237 32.819748 12.680071 32.440581 C 12.950904 32.080164 13.240488 31.600997 13.440488 31.190579 C 13.659238 30.769746 13.840489 30.250995 13.940489 29.790578 C 14.069655 29.319745 14.159239 28.769744 14.169656 28.300994 " transform="matrix(1.874998,0,0,-1.874998,13.287388,87.036973)"/>
</g>
</svg>
