<?xml version="1.0" encoding="UTF-8"?>
<!--
/*******************************************************************************
* Copyright (c) 2010-2016 ITER Organization.
* All rights reserved. This program and the accompanying materials
* are made available under the terms of the Eclipse Public License v1.0
* which accompanies this distribution, and is available at
* http://www.eclipse.org/legal/epl-v10.html
******************************************************************************/
-->
<svg xmlns="http://www.w3.org/2000/svg" xmlns:xlink="http://www.w3.org/1999/xlink" width="51pt" height="66pt" viewBox="0 0 51 66" version="1.1">
<g id="surface1">
<path style=" stroke:none;fill-rule:evenodd;fill:rgb(100%,100%,100%);fill-opacity:1;" d="M 1.851563 1.351563 L 1.902344 1.351563 L 1.902344 1.402344 L 1.851563 1.402344 Z "/>
<path style=" stroke:none;fill-rule:evenodd;fill:rgb(100%,100%,100%);fill-opacity:1;" d="M 49.683594 64.96875 L 49.738281 64.96875 L 49.738281 65.023438 L 49.683594 65.023438 Z "/>
<path style=" stroke:none;fill-rule:evenodd;fill:rgb(100%,100%,100%);fill-opacity:1;" d="M 49.707031 33.226563 C 49.808594 24.617188 45.273438 16.613281 37.832031 12.277344 C 30.390625 7.941406 21.191406 7.941406 13.75 12.277344 C 6.308594 16.613281 1.773438 24.617188 1.875 33.226563 C 1.773438 41.839844 6.308594 49.84375 13.75 54.175781 C 21.191406 58.511719 30.390625 58.511719 37.832031 54.175781 C 45.273438 49.84375 49.808594 41.839844 49.707031 33.226563 Z M 37.746094 33.226563 C 37.878906 28.871094 35.628906 24.789063 31.875 22.570313 C 28.125 20.351563 23.460938 20.351563 19.707031 22.570313 C 15.957031 24.789063 13.707031 28.871094 13.839844 33.226563 C 13.707031 37.585938 15.957031 41.667969 19.707031 43.886719 C 23.460938 46.101563 28.125 46.101563 31.875 43.886719 C 35.628906 41.667969 37.878906 37.585938 37.746094 33.226563 Z M 37.746094 33.226563 C 37.878906 28.871094 35.628906 24.789063 31.875 22.570313 C 28.125 20.351563 23.460938 20.351563 19.707031 22.570313 C 15.957031 24.789063 13.707031 28.871094 13.839844 33.226563 C 13.707031 37.585938 15.957031 41.667969 19.707031 43.886719 C 23.460938 46.101563 28.125 46.101563 31.875 43.886719 C 35.628906 41.667969 37.878906 37.585938 37.746094 33.226563 Z "/>
<path style="fill:none;stroke-width:0.719997;stroke-linecap:round;stroke-linejoin:round;stroke:rgb(0%,0%,0%);stroke-opacity:1;stroke-miterlimit:3;" d="M 0.000391439 30.730671 L 17.419157 35.399425 " transform="matrix(1.874998,0,0,1.874998,13.83911,-45.080896)"/>
<path style="fill:none;stroke-width:0.719997;stroke-linecap:round;stroke-linejoin:round;stroke:rgb(0%,0%,0%);stroke-opacity:1;stroke-miterlimit:3;" d="M 25.509545 22.489214 C 25.563712 17.897544 23.144959 13.62879 19.176206 11.316288 C 15.207452 9.003786 10.301198 9.003786 6.332445 11.316288 C 2.363691 13.62879 -0.0550608 17.897544 -0.000894128 22.489214 C -0.0550608 27.082968 2.363691 31.351722 6.332445 33.662141 C 10.301198 35.974643 15.207452 35.974643 19.176206 33.662141 C 23.144959 31.351722 25.563712 27.082968 25.509545 22.489214 Z " transform="matrix(1.874998,0,0,1.874998,1.876676,-8.940678)"/>
<path style="fill:none;stroke-width:0.719997;stroke-linecap:round;stroke-linejoin:round;stroke:rgb(0%,0%,0%);stroke-opacity:1;stroke-miterlimit:3;" d="M 12.750403 28.829228 C 12.821236 26.506309 11.621235 24.329224 9.61915 23.145889 C 7.619148 21.962555 5.131646 21.962555 3.129561 23.145889 C 1.129559 24.329224 -0.070442 26.506309 0.000391439 28.829228 C -0.070442 31.15423 1.129559 33.331315 3.129561 34.514649 C 5.131646 35.6959 7.619148 35.6959 9.61915 34.514649 C 11.621235 33.331315 12.821236 31.15423 12.750403 28.829228 Z " transform="matrix(1.874998,0,0,1.874998,13.83911,-20.812567)"/>
<path style="fill:none;stroke-width:0.719997;stroke-linecap:round;stroke-linejoin:round;stroke:rgb(0%,0%,0%);stroke-opacity:1;stroke-miterlimit:3;" d="M 0.000391439 35.400314 L 17.419157 30.729477 " transform="matrix(1.874998,0,0,1.874998,13.83911,-12.4185)"/>
<path style="fill:none;stroke-width:0.719997;stroke-linecap:round;stroke-linejoin:round;stroke:rgb(0%,0%,0%);stroke-opacity:1;stroke-miterlimit:3;" d="M 12.750403 28.829228 C 12.821236 26.506309 11.621235 24.329224 9.61915 23.145889 C 7.619148 21.962555 5.131646 21.962555 3.129561 23.145889 C 1.129559 24.329224 -0.070442 26.506309 0.000391439 28.829228 C -0.070442 31.15423 1.129559 33.331315 3.129561 34.514649 C 5.131646 35.6959 7.619148 35.6959 9.61915 34.514649 C 11.621235 33.331315 12.821236 31.15423 12.750403 28.829228 Z " transform="matrix(1.874998,0,0,1.874998,13.83911,-20.812567)"/>
<path style="fill-rule:evenodd;fill:rgb(100%,100%,100%);fill-opacity:1;stroke-width:0.719999;stroke-linecap:round;stroke-linejoin:round;stroke:rgb(0%,0%,0%);stroke-opacity:1;stroke-miterlimit:3;" d="M 6.47417 32.162331 C 6.47417 30.374829 5.024169 28.924828 3.236667 28.924828 C 1.449165 28.924828 -0.000835824 30.374829 -0.000835824 32.162331 C -0.000835824 33.949833 1.449165 35.399834 3.236667 35.399834 C 5.024169 35.399834 6.47417 33.949833 6.47417 32.162331 Z " transform="matrix(1.874998,0,0,1.874998,19.724223,-27.116818)"/>
</g>
</svg>
