<?xml version="1.0" encoding="UTF-8"?>
<!--
/*******************************************************************************
* Copyright (c) 2010-2016 ITER Organization.
* All rights reserved. This program and the accompanying materials
* are made available under the terms of the Eclipse Public License v1.0
* which accompanies this distribution, and is available at
* http://www.eclipse.org/legal/epl-v10.html
******************************************************************************/
-->
<svg xmlns="http://www.w3.org/2000/svg" xmlns:xlink="http://www.w3.org/1999/xlink" width="66pt" height="99pt" viewBox="0 0 66 99" version="1.1">
<g id="surface1">
<path style="fill-rule:evenodd;fill:rgb(100%,100%,100%);fill-opacity:1;stroke-width:0.72;stroke-linecap:round;stroke-linejoin:round;stroke:rgb(0%,0%,0%);stroke-opacity:1;stroke-miterlimit:3;" d="M 27.569559 15.809586 C 27.242476 15.749169 26.907059 15.749169 26.579975 15.809586 Z M 6.340389 21.070003 L 7.529973 21.070003 C 8.773723 20.788753 9.648723 19.67417 9.623723 18.399169 C 9.600806 17.124169 8.684139 16.042919 7.429973 15.809586 C 5.977889 15.509586 4.554972 16.442919 4.254972 17.895003 C 3.954972 19.347086 4.888305 20.770003 6.340389 21.070003 Z M 6.340389 21.070003 C 6.732056 21.159586 7.138306 21.159586 7.529973 21.070003 Z M 26.579975 15.809586 L 7.429973 15.809586 C 8.684139 16.042919 9.600806 17.124169 9.623723 18.399169 C 9.648723 19.67417 8.773723 20.788753 7.529973 21.070003 L 26.479975 21.070003 C 25.236225 20.788753 24.361225 19.67417 24.386225 18.399169 C 24.409142 17.124169 25.325809 16.042919 26.579975 15.809586 Z M 27.569559 15.809586 L 26.579975 15.809586 C 25.325809 16.042919 24.409142 17.124169 24.386225 18.399169 C 24.361225 19.67417 25.236225 20.788753 26.479975 21.070003 L 27.669559 21.070003 C 28.913309 20.788753 29.788309 19.67417 29.765393 18.399169 C 29.740393 17.124169 28.823726 16.042919 27.569559 15.809586 Z M 26.479975 21.070003 C 26.871642 21.159586 27.277892 21.159586 27.669559 21.070003 Z M 34.01956 9.940835 L 29.759143 1.440833 L 4.250805 1.440833 L 0.00080474 9.940835 L 0.00080474 52.459591 L 34.01956 52.459591 Z M 27.569559 15.809586 C 28.823726 16.042919 29.740393 17.124169 29.765393 18.399169 C 29.788309 19.67417 28.913309 20.788753 27.669559 21.070003 C 27.277892 21.159586 26.871642 21.159586 26.479975 21.070003 L 7.529973 21.070003 C 7.138306 21.159586 6.732056 21.159586 6.340389 21.070003 C 4.888305 20.770003 3.954972 19.347086 4.254972 17.895003 C 4.554972 16.442919 5.977889 15.509586 7.429973 15.809586 L 26.579975 15.809586 C 26.907059 15.749169 27.242476 15.749169 27.569559 15.809586 Z " transform="matrix(1.875,0,0,1.875,1.350054,-1.35)"/>
</g>
</svg>
