<?xml version="1.0" encoding="UTF-8"?>
<!--
/*******************************************************************************
* Copyright (c) 2010-2016 ITER Organization.
* All rights reserved. This program and the accompanying materials
* are made available under the terms of the Eclipse Public License v1.0
* which accompanies this distribution, and is available at
* http://www.eclipse.org/legal/epl-v10.html
******************************************************************************/
-->
<svg xmlns="http://www.w3.org/2000/svg" xmlns:xlink="http://www.w3.org/1999/xlink" width="66pt" height="99pt" viewBox="0 0 66 99" version="1.1">
<g id="surface1">
<path style=" stroke:none;fill-rule:evenodd;fill:rgb(100%,100%,100%);fill-opacity:1;" d="M 65.136719 17.289063 L 57.148438 1.351563 L 9.320313 1.351563 L 1.351563 17.289063 L 1.351563 97.011719 L 65.136719 97.011719 Z "/>
<path style="fill:none;stroke-width:0.72;stroke-linecap:round;stroke-linejoin:round;stroke:rgb(0%,0%,0%);stroke-opacity:1;stroke-miterlimit:3;" d="M 8.500806 14.199169 L 25.509142 14.199169 " transform="matrix(1.875,0,0,1.875,1.350054,-1.35)"/>
<path style="fill:none;stroke-width:0.72;stroke-linecap:round;stroke-linejoin:round;stroke:rgb(0%,0%,0%);stroke-opacity:1;stroke-miterlimit:3;" d="M 8.500806 18.449169 L 25.509142 18.449169 " transform="matrix(1.875,0,0,1.875,1.350054,-1.35)"/>
<path style="fill:none;stroke-width:0.72;stroke-linecap:round;stroke-linejoin:round;stroke:rgb(0%,0%,0%);stroke-opacity:1;stroke-miterlimit:3;" d="M 25.509142 22.69917 L 8.500806 22.69917 " transform="matrix(1.875,0,0,1.875,1.350054,-1.35)"/>
<path style="fill:none;stroke-width:0.72;stroke-linecap:round;stroke-linejoin:round;stroke:rgb(0%,0%,0%);stroke-opacity:1;stroke-miterlimit:3;" d="M 34.01956 9.940835 L 29.759143 1.440833 L 4.250805 1.440833 L 0.00080474 9.940835 L 0.00080474 52.459591 L 34.01956 52.459591 L 34.01956 9.940835 " transform="matrix(1.875,0,0,1.875,1.350054,-1.35)"/>
</g>
</svg>
