<?xml version="1.0" encoding="UTF-8"?>
<!--
/*******************************************************************************
* Copyright (c) 2010-2016 ITER Organization.
* All rights reserved. This program and the accompanying materials
* are made available under the terms of the Eclipse Public License v1.0
* which accompanies this distribution, and is available at
* http://www.eclipse.org/legal/epl-v10.html
******************************************************************************/
-->
<svg xmlns="http://www.w3.org/2000/svg" xmlns:xlink="http://www.w3.org/1999/xlink" width="66pt" height="99pt" viewBox="0 0 66 99" version="1.1">
<g id="surface1">
<path style="fill-rule:evenodd;fill:rgb(100%,100%,100%);fill-opacity:1;stroke-width:0.72;stroke-linecap:round;stroke-linejoin:round;stroke:rgb(0%,0%,0%);stroke-opacity:1;stroke-miterlimit:3;" d="M 0.00080474 14.199169 L 34.01956 14.199169 L 34.01956 9.940835 L 29.759143 1.440833 L 4.250805 1.440833 L 0.00080474 9.940835 Z M 0.00080474 26.949171 L 34.01956 26.949171 L 34.01956 14.199169 L 0.00080474 14.199169 Z M 0.00080474 26.949171 L 0.00080474 52.459591 L 34.01956 52.459591 L 34.01956 26.949171 Z " transform="matrix(1.875,0,0,1.875,1.350054,-1.35)"/>
<path style="fill-rule:evenodd;fill:rgb(0%,0%,0%);fill-opacity:1;stroke-width:0.72;stroke-linecap:round;stroke-linejoin:round;stroke:rgb(0%,0%,0%);stroke-opacity:1;stroke-miterlimit:3;" d="M 0.910769 52.007286 C 0.910769 51.757286 0.706603 51.553119 0.456603 51.553119 C 0.204519 51.553119 0.000352634 51.757286 0.000352634 52.007286 C 0.000352634 52.259369 0.204519 52.463536 0.456603 52.463536 C 0.706603 52.463536 0.910769 52.259369 0.910769 52.007286 Z " transform="matrix(1.875,0,0,1.875,16.440745,-64.275365)"/>
<path style="fill-rule:evenodd;fill:rgb(0%,0%,0%);fill-opacity:1;stroke-width:0.72;stroke-linecap:round;stroke-linejoin:round;stroke:rgb(0%,0%,0%);stroke-opacity:1;stroke-miterlimit:3;" d="M 0.910923 52.00737 C 0.910923 51.75737 0.706757 51.553203 0.454673 51.553203 C 0.204673 51.553203 0.000506616 51.75737 0.000506616 52.00737 C 0.000506616 52.259453 0.204673 52.46362 0.454673 52.46362 C 0.706757 52.46362 0.910923 52.259453 0.910923 52.00737 Z " transform="matrix(1.875,0,0,1.875,24.413113,-56.302866)"/>
<path style="fill-rule:evenodd;fill:rgb(0%,0%,0%);fill-opacity:1;stroke-width:0.72;stroke-linecap:round;stroke-linejoin:round;stroke:rgb(0%,0%,0%);stroke-opacity:1;stroke-miterlimit:3;" d="M 0.911275 52.007286 C 0.911275 51.757286 0.707109 51.553119 0.455025 51.553119 C 0.202942 51.553119 0.000858561 51.757286 0.000858561 52.007286 C 0.000858561 52.259369 0.202942 52.463536 0.455025 52.463536 C 0.707109 52.463536 0.911275 52.259369 0.911275 52.007286 Z " transform="matrix(1.875,0,0,1.875,48.330421,-64.275365)"/>
<path style="fill-rule:evenodd;fill:rgb(0%,0%,0%);fill-opacity:1;stroke-width:0.72;stroke-linecap:round;stroke-linejoin:round;stroke:rgb(0%,0%,0%);stroke-opacity:1;stroke-miterlimit:3;" d="M 0.910655 52.00737 C 0.910655 51.75737 0.706489 51.553203 0.456489 51.553203 C 0.204405 51.553203 0.000238652 51.75737 0.000238652 52.00737 C 0.000238652 52.259453 0.204405 52.46362 0.456489 52.46362 C 0.706489 52.46362 0.910655 52.259453 0.910655 52.00737 Z " transform="matrix(1.875,0,0,1.875,8.468303,-56.302866)"/>
<path style="fill-rule:evenodd;fill:rgb(0%,0%,0%);fill-opacity:1;stroke-width:0.72;stroke-linecap:round;stroke-linejoin:round;stroke:rgb(0%,0%,0%);stroke-opacity:1;stroke-miterlimit:3;" d="M 0.911091 52.00737 C 0.911091 51.75737 0.706925 51.553203 0.454841 51.553203 C 0.204841 51.553203 0.000674579 51.75737 0.000674579 52.00737 C 0.000674579 52.259453 0.204841 52.46362 0.454841 52.46362 C 0.706925 52.46362 0.911091 52.259453 0.911091 52.00737 Z " transform="matrix(1.875,0,0,1.875,40.35811,-56.302866)"/>
<path style="fill-rule:evenodd;fill:rgb(0%,0%,0%);fill-opacity:1;stroke-width:0.72;stroke-linecap:round;stroke-linejoin:round;stroke:rgb(0%,0%,0%);stroke-opacity:1;stroke-miterlimit:3;" d="M 0.911007 52.007286 C 0.911007 51.757286 0.706841 51.553119 0.454757 51.553119 C 0.204757 51.553119 0.000590597 51.757286 0.000590597 52.007286 C 0.000590597 52.259369 0.204757 52.463536 0.454757 52.463536 C 0.706841 52.463536 0.911007 52.259369 0.911007 52.007286 Z " transform="matrix(1.875,0,0,1.875,32.385611,-64.275365)"/>
<path style="fill-rule:evenodd;fill:rgb(0%,0%,0%);fill-opacity:1;stroke-width:0.72;stroke-linecap:round;stroke-linejoin:round;stroke:rgb(0%,0%,0%);stroke-opacity:1;stroke-miterlimit:3;" d="M 0.911359 52.00737 C 0.911359 51.75737 0.707193 51.553203 0.455109 51.553203 C 0.203026 51.553203 0.000942542 51.75737 0.000942542 52.00737 C 0.000942542 52.259453 0.203026 52.46362 0.455109 52.46362 C 0.707193 52.46362 0.911359 52.259453 0.911359 52.00737 Z " transform="matrix(1.875,0,0,1.875,56.30292,-56.302866)"/>
</g>
</svg>
