<?xml version="1.0" encoding="UTF-8"?>
<!--
/*******************************************************************************
* Copyright (c) 2010-2016 ITER Organization.
* All rights reserved. This program and the accompanying materials
* are made available under the terms of the Eclipse Public License v1.0
* which accompanies this distribution, and is available at
* http://www.eclipse.org/legal/epl-v10.html
******************************************************************************/
-->
<svg xmlns="http://www.w3.org/2000/svg" xmlns:xlink="http://www.w3.org/1999/xlink" width="68pt" height="68pt" viewBox="0 0 68 68" version="1.1">
<g id="surface1">
<path style="fill-rule:evenodd;fill:rgb(100%,100%,100%);fill-opacity:1;stroke-width:1;stroke-linecap:round;stroke-linejoin:round;stroke:rgb(0%,0%,0%);stroke-opacity:1;stroke-miterlimit:3;" d="M 34.019695 19.010306 L 17.010306 36.019695 L 0.000917228 19.010306 L 17.010306 2.000917 Z " transform="matrix(1.888892,0,0,1.888892,1.888892,-1.888892)"/>
<path style="fill:none;stroke-width:1;stroke-linecap:round;stroke-linejoin:round;stroke:rgb(0%,0%,0%);stroke-opacity:1;stroke-miterlimit:3;" d="M 0.000637643 36.020226 L 17.010026 36.020226 " transform="matrix(0.000000000000000116,1.888892,-1.888892,0.000000000000000116,100.706301,17.951921)"/>
<path style="fill:none;stroke-width:1;stroke-linecap:round;stroke-linejoin:round;stroke:rgb(0%,0%,0%);stroke-opacity:1;stroke-miterlimit:3;" d="M 0.00030326 36.020344 L 8.499828 36.020344 " transform="matrix(1.888892,0,0,1.888892,24.323646,-42.046368)"/>
<path style="fill:none;stroke-width:1;stroke-linecap:round;stroke-linejoin:round;stroke:rgb(0%,0%,0%);stroke-opacity:1;stroke-miterlimit:3;" d="M -0.000119854 36.020817 L 8.499405 36.020817 " transform="matrix(1.888892,0,0,1.888892,24.644758,-28.660543)"/>
<path style="fill:none;stroke-width:1;stroke-linecap:round;stroke-linejoin:round;stroke:rgb(0%,0%,0%);stroke-opacity:1;stroke-miterlimit:3;" d="M 0.000570987 36.020603 L 8.019849 34.028944 " transform="matrix(1.335649,-1.335649,1.335649,1.335649,-15.428039,-8.735108)"/>
<path style="fill:none;stroke-width:1;stroke-linecap:round;stroke-linejoin:round;stroke:rgb(0%,0%,0%);stroke-opacity:1;stroke-miterlimit:3;" d="M -0.000715123 36.020721 L 8.640042 37.721381 " transform="matrix(-1.335649,-1.335649,1.335649,-1.335649,-15.045576,87.856166)"/>
</g>
</svg>
