<?xml version="1.0" encoding="UTF-8"?>
<!--
/*******************************************************************************
* Copyright (c) 2010-2016 ITER Organization.
* All rights reserved. This program and the accompanying materials
* are made available under the terms of the Eclipse Public License v1.0
* which accompanies this distribution, and is available at
* http://www.eclipse.org/legal/epl-v10.html
******************************************************************************/
-->
<svg xmlns="http://www.w3.org/2000/svg" xmlns:xlink="http://www.w3.org/1999/xlink" width="68pt" height="68pt" viewBox="0 0 68 68" version="1.1">
<g id="surface1">
<path style="fill-rule:evenodd;fill:rgb(100%,100%,100%);fill-opacity:1;stroke-width:1;stroke-linecap:round;stroke-linejoin:round;stroke:rgb(0%,0%,0%);stroke-opacity:1;stroke-miterlimit:3;" d="M 0.000917228 2.000917 L 34.015559 2.000917 L 34.015559 36.015559 L 0.000917228 36.015559 Z " transform="matrix(1.888892,0,0,1.888892,1.888892,-1.888892)"/>
<path style="fill:none;stroke-width:1;stroke-linecap:round;stroke-linejoin:round;stroke:rgb(0%,0%,0%);stroke-opacity:1;stroke-miterlimit:3;" d="M -0.000664448 36.020663 L 48.110615 36.019201 " transform="matrix(1.335649,-1.335649,1.335649,1.335649,-46.215532,18.0366)"/>
<path style="fill:none;stroke-width:1;stroke-linecap:round;stroke-linejoin:round;stroke:rgb(0%,0%,0%);stroke-opacity:1;stroke-miterlimit:3;" d="M -0.000204751 36.019349 L 17.009184 36.019349 " transform="matrix(1.888892,0,0,1.888892,28.660543,-21.298396)"/>
<path style="fill:none;stroke-width:1;stroke-linecap:round;stroke-linejoin:round;stroke:rgb(0%,0%,0%);stroke-opacity:1;stroke-dasharray:1,2;stroke-miterlimit:3;" d="M -0.000204751 36.020642 L 17.009184 36.020642 " transform="matrix(1.888892,0,0,1.888892,28.660543,-16.613338)"/>
<path style="fill:none;stroke-width:1;stroke-linecap:round;stroke-linejoin:round;stroke:rgb(0%,0%,0%);stroke-opacity:1;stroke-miterlimit:3;" d="M -0.000557974 36.019928 L 17.010899 36.019928 " transform="matrix(1.888892,0,0,1.888892,7.243241,-53.42449)"/>
<path style="fill:none;stroke-width:1;stroke-linecap:round;stroke-linejoin:round;stroke:rgb(0%,0%,0%);stroke-opacity:1;stroke-dasharray:1,2;stroke-miterlimit:3;" d="M -0.000557974 36.019073 L 17.010899 36.019073 " transform="matrix(1.888892,0,0,1.888892,7.243241,-48.739281)"/>
</g>
</svg>
