<?xml version="1.0" encoding="UTF-8"?>
<!--
/*******************************************************************************
* Copyright (c) 2010-2016 ITER Organization.
* All rights reserved. This program and the accompanying materials
* are made available under the terms of the Eclipse Public License v1.0
* which accompanies this distribution, and is available at
* http://www.eclipse.org/legal/epl-v10.html
******************************************************************************/
-->
<svg xmlns="http://www.w3.org/2000/svg" xmlns:xlink="http://www.w3.org/1999/xlink" width="68pt" height="68pt" viewBox="0 0 68 68" version="1.1">
<g id="surface1">
<path style="fill-rule:evenodd;fill:rgb(100%,100%,100%);fill-opacity:1;stroke-width:1;stroke-linecap:round;stroke-linejoin:round;stroke:rgb(0%,0%,0%);stroke-opacity:1;stroke-miterlimit:3;" d="M 0.000917228 2.000917 L 34.015559 2.000917 L 34.015559 36.015559 L 0.000917228 36.015559 Z " transform="matrix(1.888892,0,0,1.888892,1.888892,-1.888892)"/>
<path style="fill:none;stroke-width:1;stroke-linecap:round;stroke-linejoin:round;stroke:rgb(0%,0%,0%);stroke-opacity:1;stroke-miterlimit:3;" d="M -0.000664448 36.020663 L 48.110615 36.019201 " transform="matrix(1.335649,-1.335649,1.335649,1.335649,-46.215532,18.0366)"/>
<path style="fill:none;stroke-width:1;stroke-linecap:round;stroke-linejoin:round;stroke:rgb(0%,0%,0%);stroke-opacity:1;stroke-miterlimit:3;" d="M 0.000507851 36.020747 L 17.009897 36.020747 " transform="matrix(1.888892,0,0,1.888892,25.983416,-20.629161)"/>
<path style="fill:none;stroke-width:1;stroke-linecap:round;stroke-linejoin:round;stroke:rgb(0%,0%,0%);stroke-opacity:1;stroke-dasharray:1,2;stroke-miterlimit:3;" d="M 0.000507851 36.019932 L 17.009897 36.019932 " transform="matrix(1.888892,0,0,1.888892,25.983416,-15.944028)"/>
<path style="fill:none;stroke-width:1;stroke-linecap:round;stroke-linejoin:round;stroke:rgb(0%,0%,0%);stroke-opacity:1;stroke-miterlimit:3;" d="M 0.000507851 33.888991 C 1.086214 35.568216 3.071504 36.366468 4.972006 35.890825 C 6.872508 35.413115 8.282891 33.762842 8.500032 31.761008 " transform="matrix(1.888892,0,0,1.888892,25.983416,-49.895472)"/>
<path style="fill:none;stroke-width:1;stroke-linecap:round;stroke-linejoin:round;stroke:rgb(0%,0%,0%);stroke-opacity:1;stroke-miterlimit:3;" d="M 0.000777435 36.020514 C 0.0855659 34.062107 1.481473 32.389087 3.435743 31.898968 C 5.392082 31.410918 7.447684 32.217442 8.500302 33.890463 " transform="matrix(1.888892,0,0,1.888892,9.920407,-50.077939)"/>
</g>
</svg>
