<?xml version="1.0" encoding="UTF-8"?>
<!--
/*******************************************************************************
* Copyright (c) 2010-2016 ITER Organization.
* All rights reserved. This program and the accompanying materials
* are made available under the terms of the Eclipse Public License v1.0
* which accompanies this distribution, and is available at
* http://www.eclipse.org/legal/epl-v10.html
******************************************************************************/
-->
<svg xmlns="http://www.w3.org/2000/svg" xmlns:xlink="http://www.w3.org/1999/xlink" width="642pt" height="194pt" viewBox="0 0 642 194" version="1.1">
<g id="surface1">
<path style="fill-rule:evenodd;fill:rgb(100%,100%,100%);fill-opacity:1;stroke-width:0.72;stroke-linecap:round;stroke-linejoin:round;stroke:rgb(0%,0%,0%);stroke-opacity:1;stroke-miterlimit:3;" d="M 0.000631814 1.439256 L 0.000631814 103.490103 L 68.030867 69.469691 L 68.030867 35.459668 Z " transform="matrix(-1.879392,0.00000000000000023,-0.00000000000000023,-1.879846,640.641812,195.89308)"/>
<path style="fill-rule:evenodd;fill:rgb(100%,100%,100%);fill-opacity:1;stroke-width:0.72;stroke-linecap:round;stroke-linejoin:round;stroke:rgb(0%,0%,0%);stroke-opacity:1;stroke-miterlimit:3;" d="M 0.00103335 1.438975 L 0.00103335 103.489822 L 68.02919 69.46941 L 68.02919 35.459387 Z " transform="matrix(1.879392,0,0,1.879846,1.353527,-1.353489)"/>
<path style="fill:none;stroke-width:0.72;stroke-linecap:round;stroke-linejoin:round;stroke:rgb(0%,0%,0%);stroke-opacity:1;stroke-miterlimit:3;" d="M 68.030368 1.438975 L 68.030368 103.489822 L 0.000132605 69.46941 L 0.000132605 35.459387 L 68.030368 1.438975 " transform="matrix(1.879392,0,0,1.879846,512.784907,-1.353489)"/>
<path style="fill:none;stroke-width:0.72;stroke-linecap:round;stroke-linejoin:round;stroke:rgb(0%,0%,0%);stroke-opacity:1;stroke-miterlimit:3;" d="M 68.030368 1.438975 L 0.000132605 69.46941 " transform="matrix(1.879392,0,0,1.879846,512.784907,-1.353489)"/>
<path style="fill:none;stroke-width:0.72;stroke-linecap:round;stroke-linejoin:round;stroke:rgb(0%,0%,0%);stroke-opacity:1;stroke-miterlimit:3;" d="M 68.030368 103.489822 L 0.000132605 35.459387 " transform="matrix(1.879392,0,0,1.879846,512.784907,-1.353489)"/>
<path style="fill:none;stroke-width:0.72;stroke-linecap:round;stroke-linejoin:round;stroke:rgb(0%,0%,0%);stroke-opacity:1;stroke-miterlimit:3;" d="M 68.030467 1.439256 L 68.030467 103.490103 L 0.000231071 69.469691 L 0.000231071 35.459668 L 68.030467 1.439256 " transform="matrix(-1.879392,0.00000000000000023,-0.00000000000000023,-1.879846,129.211372,195.89308)"/>
<path style="fill:none;stroke-width:0.72;stroke-linecap:round;stroke-linejoin:round;stroke:rgb(0%,0%,0%);stroke-opacity:1;stroke-miterlimit:3;" d="M 68.030467 1.439256 L 0.000231071 69.469691 " transform="matrix(-1.879392,0.00000000000000023,-0.00000000000000023,-1.879846,129.211372,195.89308)"/>
<path style="fill:none;stroke-width:0.72;stroke-linecap:round;stroke-linejoin:round;stroke:rgb(0%,0%,0%);stroke-opacity:1;stroke-miterlimit:3;" d="M 68.030467 103.490103 L 0.000231071 35.459668 " transform="matrix(-1.879392,0.00000000000000023,-0.00000000000000023,-1.879846,129.211372,195.89308)"/>
<path style="fill-rule:evenodd;fill:rgb(100%,100%,100%);fill-opacity:1;stroke-width:0.72;stroke-linecap:round;stroke-linejoin:round;stroke:rgb(0%,0%,0%);stroke-opacity:1;stroke-miterlimit:3;" d="M 0.000582976 1.438975 L 68.030819 1.438975 L 68.030819 103.487744 L 0.000582976 103.487744 Z " transform="matrix(1.879392,0,0,1.879846,257.069217,-1.353489)"/>
<path style=" stroke:none;fill-rule:evenodd;fill:rgb(100%,100%,100%);fill-opacity:1;" d="M 385.050781 81.722656 L 512.679688 81.722656 L 512.679688 112.796875 L 385.050781 112.796875 Z "/>
<path style="fill:none;stroke-width:0.96;stroke-linecap:round;stroke-linejoin:round;stroke:rgb(0%,0%,0%);stroke-opacity:1;stroke-miterlimit:3;" d="M 1.981307 27.492288 L 92.689375 27.492288 L 92.689375 1.979088 L 1.981307 1.979088 Z " transform="matrix(1.407029,0,0,1.217966,382.263024,79.312193)"/>
<path style=" stroke:none;fill-rule:evenodd;fill:rgb(100%,100%,100%);fill-opacity:1;" d="M 502.042969 88.410156 L 512.589844 88.410156 L 512.589844 106.46875 L 502.042969 106.46875 Z "/>
<path style="fill:none;stroke-width:0.96;stroke-linecap:round;stroke-linejoin:round;stroke:rgb(0%,0%,0%);stroke-opacity:1;stroke-miterlimit:3;" d="M 92.625522 7.469798 L 85.129675 7.469798 L 85.129675 22.296639 L 92.625522 22.296639 Z " transform="matrix(1.407029,0,0,1.217966,382.263024,79.312193)"/>
<path style=" stroke:none;fill-rule:evenodd;fill:rgb(100%,100%,100%);fill-opacity:1;" d="M 385.050781 88.109375 L 395.683594 88.109375 L 395.683594 106.167969 L 385.050781 106.167969 Z "/>
<path style="fill:none;stroke-width:0.96;stroke-linecap:round;stroke-linejoin:round;stroke:rgb(0%,0%,0%);stroke-opacity:1;stroke-miterlimit:3;" d="M 9.538231 7.222844 L 1.981307 7.222844 L 1.981307 22.049686 L 9.538231 22.049686 Z " transform="matrix(1.407029,0,0,1.217966,382.263024,79.312193)"/>
<path style="fill:none;stroke-width:0.96;stroke-linecap:round;stroke-linejoin:round;stroke:rgb(0%,0%,0%);stroke-opacity:1;stroke-miterlimit:3;" d="M 85.129675 14.637869 L 70.010276 14.609004 " transform="matrix(1.407029,0,0,1.217966,382.263024,79.312193)"/>
<path style="fill:none;stroke-width:0.96;stroke-linecap:round;stroke-linejoin:round;stroke:rgb(0%,0%,0%);stroke-opacity:1;stroke-miterlimit:3;" d="M 24.65763 14.637869 L 9.538231 14.637869 " transform="matrix(1.407029,0,0,1.217966,382.263024,79.312193)"/>
<path style="fill:none;stroke-width:0.96;stroke-linecap:round;stroke-linejoin:round;stroke:rgb(0%,0%,0%);stroke-opacity:1;stroke-miterlimit:3;" d="M 58.577722 14.609004 L 36.090184 14.637869 " transform="matrix(1.407029,0,0,1.217966,382.263024,79.312193)"/>
<path style="fill:none;stroke-width:0.96;stroke-linecap:round;stroke-linejoin:round;stroke:rgb(0%,0%,0%);stroke-opacity:1;stroke-miterlimit:3;" d="M 47.333953 14.637869 L 47.333953 27.492288 " transform="matrix(1.407029,0,0,1.217966,382.263024,79.312193)"/>
<path style="fill:none;stroke-width:0.96;stroke-linecap:square;stroke-linejoin:miter;stroke:rgb(0%,0%,0%);stroke-opacity:1;stroke-miterlimit:2;" d="M 17.09793 1.979088 L 17.09793 8.35819 " transform="matrix(1.407029,0,0,1.217966,382.263024,79.312193)"/>
<path style="fill:none;stroke-width:0.96;stroke-linecap:square;stroke-linejoin:miter;stroke:rgb(0%,0%,0%);stroke-opacity:1;stroke-miterlimit:2;" d="M 17.09793 21.113186 L 17.09793 27.492288 " transform="matrix(1.407029,0,0,1.217966,382.263024,79.312193)"/>
<path style=" stroke:none;fill-rule:evenodd;fill:rgb(100%,100%,100%);fill-opacity:1;" d="M 416.957031 89.269531 L 433.042969 89.269531 L 433.042969 104.804688 L 416.957031 104.804688 Z "/>
<path style="fill:none;stroke-width:0.96;stroke-linecap:round;stroke-linejoin:round;stroke:rgb(0%,0%,0%);stroke-opacity:1;stroke-miterlimit:3;" d="M 36.090184 8.17538 L 24.65763 8.17538 L 24.65763 20.930376 L 36.090184 20.930376 Z " transform="matrix(1.407029,0,0,1.217966,382.263024,79.312193)"/>
<path style=" stroke:none;fill-rule:evenodd;fill:rgb(100%,100%,100%);fill-opacity:1;" d="M 464.683594 89.234375 L 480.769531 89.234375 L 480.769531 104.769531 L 464.683594 104.769531 Z "/>
<path style="fill:none;stroke-width:0.96;stroke-linecap:round;stroke-linejoin:round;stroke:rgb(0%,0%,0%);stroke-opacity:1;stroke-miterlimit:3;" d="M 70.010276 8.146515 L 58.577722 8.146515 L 58.577722 20.901512 L 70.010276 20.901512 Z " transform="matrix(1.407029,0,0,1.217966,382.263024,79.312193)"/>
<path style="fill:none;stroke-width:0.96;stroke-linecap:square;stroke-linejoin:miter;stroke:rgb(0%,0%,0%);stroke-opacity:1;stroke-miterlimit:2;" d="M 47.333953 1.979088 L 47.333953 8.35819 " transform="matrix(1.407029,0,0,1.217966,382.263024,79.312193)"/>
<path style="fill:none;stroke-width:0.96;stroke-linecap:square;stroke-linejoin:miter;stroke:rgb(0%,0%,0%);stroke-opacity:1;stroke-miterlimit:2;" d="M 77.569976 1.979088 L 77.569976 8.271596 " transform="matrix(1.407029,0,0,1.217966,382.263024,79.312193)"/>
<path style="fill:none;stroke-width:0.96;stroke-linecap:square;stroke-linejoin:miter;stroke:rgb(0%,0%,0%);stroke-opacity:1;stroke-miterlimit:2;" d="M 77.569976 21.183744 L 77.569976 27.492288 " transform="matrix(1.407029,0,0,1.217966,382.263024,79.312193)"/>
<path style=" stroke:none;fill-rule:evenodd;fill:rgb(100%,100%,100%);fill-opacity:1;" d="M 129.441406 81.671875 L 257.070313 81.671875 L 257.070313 112.742188 L 129.441406 112.742188 Z "/>
<path style="fill:none;stroke-width:0.96;stroke-linecap:round;stroke-linejoin:round;stroke:rgb(0%,0%,0%);stroke-opacity:1;stroke-miterlimit:3;" d="M 1.980865 27.491066 L 92.688933 27.491066 L 92.688933 1.981074 L 1.980865 1.981074 Z " transform="matrix(1.407029,0,0,1.217966,126.654271,79.258994)"/>
<path style=" stroke:none;fill-rule:evenodd;fill:rgb(100%,100%,100%);fill-opacity:1;" d="M 246.433594 88.359375 L 256.980469 88.359375 L 256.980469 106.417969 L 246.433594 106.417969 Z "/>
<path style="fill:none;stroke-width:0.96;stroke-linecap:round;stroke-linejoin:round;stroke:rgb(0%,0%,0%);stroke-opacity:1;stroke-miterlimit:3;" d="M 92.625079 7.471784 L 85.129233 7.471784 L 85.129233 22.298625 L 92.625079 22.298625 Z " transform="matrix(1.407029,0,0,1.217966,126.654271,79.258994)"/>
<path style=" stroke:none;fill-rule:evenodd;fill:rgb(100%,100%,100%);fill-opacity:1;" d="M 129.441406 88.058594 L 140.074219 88.058594 L 140.074219 106.117188 L 129.441406 106.117188 Z "/>
<path style="fill:none;stroke-width:0.96;stroke-linecap:round;stroke-linejoin:round;stroke:rgb(0%,0%,0%);stroke-opacity:1;stroke-miterlimit:3;" d="M 9.537788 7.22483 L 1.980865 7.22483 L 1.980865 22.051671 L 9.537788 22.051671 Z " transform="matrix(1.407029,0,0,1.217966,126.654271,79.258994)"/>
<path style="fill:none;stroke-width:0.96;stroke-linecap:round;stroke-linejoin:round;stroke:rgb(0%,0%,0%);stroke-opacity:1;stroke-miterlimit:3;" d="M 85.129233 14.636647 L 70.009834 14.607782 " transform="matrix(1.407029,0,0,1.217966,126.654271,79.258994)"/>
<path style="fill:none;stroke-width:0.96;stroke-linecap:round;stroke-linejoin:round;stroke:rgb(0%,0%,0%);stroke-opacity:1;stroke-miterlimit:3;" d="M 24.657188 14.636647 L 9.537788 14.636647 " transform="matrix(1.407029,0,0,1.217966,126.654271,79.258994)"/>
<path style="fill:none;stroke-width:0.96;stroke-linecap:round;stroke-linejoin:round;stroke:rgb(0%,0%,0%);stroke-opacity:1;stroke-miterlimit:3;" d="M 58.57728 14.607782 L 36.089742 14.636647 " transform="matrix(1.407029,0,0,1.217966,126.654271,79.258994)"/>
<path style="fill:none;stroke-width:0.96;stroke-linecap:round;stroke-linejoin:round;stroke:rgb(0%,0%,0%);stroke-opacity:1;stroke-miterlimit:3;" d="M 47.333511 14.636647 L 47.333511 27.491066 " transform="matrix(1.407029,0,0,1.217966,126.654271,79.258994)"/>
<path style="fill:none;stroke-width:0.96;stroke-linecap:square;stroke-linejoin:miter;stroke:rgb(0%,0%,0%);stroke-opacity:1;stroke-miterlimit:2;" d="M 17.097488 1.981074 L 17.097488 8.356968 " transform="matrix(1.407029,0,0,1.217966,126.654271,79.258994)"/>
<path style="fill:none;stroke-width:0.96;stroke-linecap:square;stroke-linejoin:miter;stroke:rgb(0%,0%,0%);stroke-opacity:1;stroke-miterlimit:2;" d="M 17.097488 21.115172 L 17.097488 27.491066 " transform="matrix(1.407029,0,0,1.217966,126.654271,79.258994)"/>
<path style=" stroke:none;fill-rule:evenodd;fill:rgb(100%,100%,100%);fill-opacity:1;" d="M 161.347656 89.214844 L 177.433594 89.214844 L 177.433594 104.75 L 161.347656 104.75 Z "/>
<path style="fill:none;stroke-width:0.96;stroke-linecap:round;stroke-linejoin:round;stroke:rgb(0%,0%,0%);stroke-opacity:1;stroke-miterlimit:3;" d="M 36.089742 8.174158 L 24.657188 8.174158 L 24.657188 20.929155 L 36.089742 20.929155 Z " transform="matrix(1.407029,0,0,1.217966,126.654271,79.258994)"/>
<path style=" stroke:none;fill-rule:evenodd;fill:rgb(100%,100%,100%);fill-opacity:1;" d="M 209.074219 89.179688 L 225.160156 89.179688 L 225.160156 104.714844 L 209.074219 104.714844 Z "/>
<path style="fill:none;stroke-width:0.96;stroke-linecap:round;stroke-linejoin:round;stroke:rgb(0%,0%,0%);stroke-opacity:1;stroke-miterlimit:3;" d="M 70.009834 8.145294 L 58.57728 8.145294 L 58.57728 20.90029 L 70.009834 20.90029 Z " transform="matrix(1.407029,0,0,1.217966,126.654271,79.258994)"/>
<path style="fill:none;stroke-width:0.96;stroke-linecap:square;stroke-linejoin:miter;stroke:rgb(0%,0%,0%);stroke-opacity:1;stroke-miterlimit:2;" d="M 47.333511 1.981074 L 47.333511 8.356968 " transform="matrix(1.407029,0,0,1.217966,126.654271,79.258994)"/>
<path style="fill:none;stroke-width:0.96;stroke-linecap:square;stroke-linejoin:miter;stroke:rgb(0%,0%,0%);stroke-opacity:1;stroke-miterlimit:2;" d="M 77.57231 1.981074 L 77.57231 8.273581 " transform="matrix(1.407029,0,0,1.217966,126.654271,79.258994)"/>
<path style="fill:none;stroke-width:0.96;stroke-linecap:square;stroke-linejoin:miter;stroke:rgb(0%,0%,0%);stroke-opacity:1;stroke-miterlimit:2;" d="M 77.57231 21.18573 L 77.57231 27.491066 " transform="matrix(1.407029,0,0,1.217966,126.654271,79.258994)"/>
</g>
</svg>
