<?xml version="1.0" encoding="UTF-8" standalone="no"?>
<!DOCTYPE svg PUBLIC "-//W3C//DTD SVG 1.0//EN" "C:\SeeVisioDTD\svg10.dtd">
<!-- Generated by Microsoft Visio 11.0, SVG Export, v1.0 FL_EF0433.svg Page-1 -->
<!--
/*******************************************************************************
* Copyright (c) 2010-2014 ITER Organization.
* All rights reserved. This program and the accompanying materials
* are made available under the terms of the Eclipse Public License v1.0
* which accompanies this distribution, and is available at
* http://www.eclipse.org/legal/epl-v10.html
******************************************************************************/
-->
<svg xmlns="http://www.w3.org/2000/svg" xmlns:v="http://schemas.microsoft.com/visio/2003/SVGExtensions/" width="0.374331in"
		height="0.610551in" viewBox="0 0 26.9518 43.9597" xml:space="preserve" color-interpolation-filters="sRGB" class="st4">
	<v:documentProperties v:langID="2057" v:metric="true" v:viewMarkup="false"/>

	<style type="text/css">
	<![CDATA[
		.st1 {fill:none;stroke:none;stroke-linecap:round;stroke-linejoin:round;stroke-width:0.72}
		.st2 {stroke:#000000;stroke-linecap:round;stroke-linejoin:round;stroke-width:0.72}
		.st3 {fill:#ffffff}
		.st4 {fill:none;fill-rule:evenodd;font-size:12;overflow:visible;stroke-linecap:square;stroke-miterlimit:3}
	]]>
	</style>

	<g v:mID="0" v:index="1" v:groupContext="foregroundPage">
		<title>Page-1</title>
		<v:pageProperties v:drawingScale="0.0393701" v:pageScale="0.0393701" v:drawingUnits="24" v:shadowOffsetX="8.50394"
				v:shadowOffsetY="-8.50394"/>
		<g id="shape7-1" v:mID="7" v:groupContext="shape" transform="translate(0.72,-0.72)">
			<title>Sheet.7</title>
			<rect x="0" y="1.44" width="25.5118" height="42.5197" class="st1"/>
		</g>
		<g id="group1-3" transform="translate(0.72,-0.72)" v:mID="1" v:groupContext="group">
			<title>Sheet.1</title>
		</g>
		<g id="shape4-4" v:mID="4" v:groupContext="shape" transform="translate(10.3392,-39.7687)">
			<title>Sheet.4</title>
			<path d="M0 43.96 L6.27 43.96" class="st2"/>
		</g>
		<g id="shape6-7" v:mID="6" v:groupContext="shape" transform="translate(0.72,-0.72)">
			<title>Sheet.6</title>
			<path d="M9.62 4.91 L3.35 4.91 L3.35 11.42 L0 11.42 L0 17.93 L3.35 17.93 L3.35 43.96 L22.17 43.96 L22.17 17.93 L25.51
						 17.93 L25.51 11.42 L22.17 11.42 L22.17 4.91 L15.89 4.91 L15.89 1.44 L9.62 1.44 L9.62 4.91 Z" class="st3"/>
			<path d="M3.35 7.68 L22.17 7.68" class="st2"/>
			<path d="M9.62 4.91 L3.35 4.91 L3.35 11.42 L0 11.42 L0 17.93 L3.35 17.93 L3.35 43.96 L22.17 43.96 L22.17 17.93 L25.51
						 17.93 L25.51 11.42 L22.17 11.42 L22.17 4.91 L15.89 4.91 L15.89 1.44 L9.62 1.44 L9.62 4.91" class="st2"/>
			<path d="M3.35 11.42 L3.35 17.93" class="st2"/>
			<path d="M22.17 11.42 L22.17 17.93" class="st2"/>
		</g>
	</g>
</svg>
