<?xml version="1.0" encoding="UTF-8" standalone="no"?>
<!DOCTYPE svg PUBLIC "-//W3C//DTD SVG 1.0//EN" "C:\SeeVisioDTD\svg10.dtd">
<!-- Generated by Microsoft Visio 11.0, SVG Export, v1.0 FL_EF0428.svg Page-1 -->
<!--
/*******************************************************************************
* Copyright (c) 2010-2014 ITER Organization.
* All rights reserved. This program and the accompanying materials
* are made available under the terms of the Eclipse Public License v1.0
* which accompanies this distribution, and is available at
* http://www.eclipse.org/legal/epl-v10.html
******************************************************************************/
-->
<svg xmlns="http://www.w3.org/2000/svg" xmlns:v="http://schemas.microsoft.com/visio/2003/SVGExtensions/" width="0.856772in"
		height="0.964882in" viewBox="0 0 61.6876 69.4715" xml:space="preserve" color-interpolation-filters="sRGB" class="st6">
	<v:documentProperties v:langID="2057" v:metric="true" v:viewMarkup="false"/>

	<style type="text/css">
	<![CDATA[
		.st1 {fill:none;stroke:none;stroke-linecap:round;stroke-linejoin:round;stroke-width:0.72}
		.st2 {fill:none;stroke:none;stroke-width:1}
		.st3 {fill:none;stroke:#000000;stroke-linecap:butt;stroke-width:0.72}
		.st4 {fill:none}
		.st5 {stroke:#000000;stroke-linecap:butt;stroke-width:0.72}
		.st6 {fill:none;fill-rule:evenodd;font-size:12;overflow:visible;stroke-linecap:square;stroke-miterlimit:3}
	]]>
	</style>

	<g v:mID="0" v:index="1" v:groupContext="foregroundPage">
		<title>Page-1</title>
		<v:pageProperties v:drawingScale="0.0393701" v:pageScale="0.0393701" v:drawingUnits="24" v:shadowOffsetX="8.50394"
				v:shadowOffsetY="-8.50394"/>
		<g id="shape1-1" v:mID="1" v:groupContext="shape" transform="translate(0.72,-0.72)">
			<title>Sheet.1</title>
			<rect x="0" y="1.44" width="60.2476" height="68.0315" class="st1"/>
		</g>
		<g id="group2-3" transform="translate(1.44,-0.72)" v:mID="2" v:groupContext="group">
			<title>Sheet.2</title>
			<g id="group3-4" v:mID="3" v:groupContext="group">
				<title>Sheet.3</title>
				<g id="shape4-5" v:mID="4" v:groupContext="shape" transform="translate(26.804,-26.5505)">
					<title>Sheet.4</title>
					<path d="M20.1 44.55 L12.05 44.55 L16.08 42.78 L20.1 44.55 Z M5.36 66.44 A2.95793 2.6802 -90 1 0 -0 66.44 A2.95793
								 2.6802 -90 1 0 5.36 66.44 Z" class="st2"/>
				</g>
				<g id="shape5-7" v:mID="5" v:groupContext="shape" transform="translate(38.8589,-51.4707)">
					<title>Sheet.5</title>
					<path d="M8.04 69.47 L0 69.47 L4.02 67.7 L8.04 69.47 Z" class="st3"/>
				</g>
				<g id="shape6-9" v:mID="6" v:groupContext="shape" transform="translate(26.804,-26.5505)">
					<title>Sheet.6</title>
					<path d="M5.36 66.44 A2.95793 2.6802 -90 1 0 0 66.44 A2.95793 2.6802 -90 1 0 5.36 66.44 Z" class="st3"/>
				</g>
				<g id="shape7-11" v:mID="7" v:groupContext="shape">
					<title>Sheet.7</title>
					<path d="M32.16 69.47 L0 69.47 L32.16 69.47 Z" class="st4"/>
					<path d="M32.16 69.47 L0 69.47" class="st5"/>
				</g>
				<g id="shape8-14" v:mID="8" v:groupContext="shape" transform="translate(16.0765,0)">
					<title>Sheet.8</title>
					<path d="M26.8 16.23 A14.7908 13.402 -90 1 0 -0 16.23 L0 69.47 L26.8 16.23 Z" class="st4"/>
					<path d="M26.8 16.23 A14.7908 13.402 -90 1 0 -0 16.23 L0 69.47" class="st5"/>
				</g>
				<g id="shape9-17" v:mID="9" v:groupContext="shape" transform="translate(16.0765,-32.3404)">
					<title>Sheet.9</title>
					<path d="M0 60.4 L13.42 60.4 L13.42 69.47 L0 60.4 Z" class="st4"/>
					<path d="M0 60.4 L13.42 60.4 L13.42 69.47" class="st5"/>
				</g>
			</g>
		</g>
	</g>
</svg>
