<?xml version="1.0" encoding="UTF-8" standalone="no"?>
<!DOCTYPE svg PUBLIC "-//W3C//DTD SVG 1.0//EN" "C:\SeeVisioDTD\svg10.dtd">
<!-- Generated by Microsoft Visio 11.0, SVG Export, v1.0 FL_EF0429.svg Page-1 -->
<!--
/*******************************************************************************
* Copyright (c) 2010-2013 ITER Organization.
* All rights reserved. This program and the accompanying materials
* are made available under the terms of the Eclipse Public License v1.0
* which accompanies this distribution, and is available at
* http://www.eclipse.org/legal/epl-v10.html
******************************************************************************/
-->
<svg xmlns="http://www.w3.org/2000/svg" xmlns:v="http://schemas.microsoft.com/visio/2003/SVGExtensions/" width="0.850661in"
		height="0.964882in" viewBox="0 0 61.2476 69.4715" xml:space="preserve" color-interpolation-filters="sRGB" class="st8">
	<v:documentProperties v:langID="2057" v:metric="true" v:viewMarkup="false"/>

	<style type="text/css">
	<![CDATA[
		.st1 {fill:none;stroke:none;stroke-linecap:round;stroke-linejoin:round;stroke-width:0.72}
		.st2 {fill:none;stroke:none;stroke-width:1}
		.st3 {fill:none;stroke:#000000;stroke-linecap:butt;stroke-width:0.72}
		.st4 {fill:none}
		.st5 {stroke:#000000;stroke-linecap:butt;stroke-width:0.72}
		.st6 {stroke:#000000;stroke-linecap:round;stroke-linejoin:round;stroke-width:0.72}
		.st7 {fill:none;stroke:#000000;stroke-linecap:round;stroke-linejoin:round;stroke-width:0.72}
		.st8 {fill:none;fill-rule:evenodd;font-size:12;overflow:visible;stroke-linecap:square;stroke-miterlimit:3}
	]]>
	</style>

	<g v:mID="0" v:index="1" v:groupContext="foregroundPage">
		<title>Page-1</title>
		<v:pageProperties v:drawingScale="0.0393701" v:pageScale="0.0393701" v:drawingUnits="24" v:shadowOffsetX="8.50394"
				v:shadowOffsetY="-8.50394"/>
		<g id="shape1-1" v:mID="1" v:groupContext="shape" transform="translate(0.72,-0.72)">
			<title>Sheet.1</title>
			<rect x="0" y="1.44" width="59.5276" height="68.0315" class="st1"/>
		</g>
		<g id="group2-3" transform="translate(1.44,-0.72)" v:mID="2" v:groupContext="group">
			<title>Sheet.2</title>
			<g id="group3-4" v:mID="3" v:groupContext="group">
				<title>Sheet.3</title>
				<g id="shape4-5" v:mID="4" v:groupContext="shape" transform="translate(26.7339,-26.5505)">
					<title>Sheet.4</title>
					<path d="M20.05 44.55 L12.02 44.55 L16.03 42.78 L20.05 44.55 Z M5.34 66.44 A2.95793 2.6732 -90 1 0 0 66.44 A2.95793
								 2.6732 -90 1 0 5.34 66.44 Z" class="st2"/>
				</g>
				<g id="shape5-7" v:mID="5" v:groupContext="shape" transform="translate(38.7573,-51.4707)">
					<title>Sheet.5</title>
					<path d="M8.02 69.47 L0 69.47 L4.01 67.7 L8.02 69.47 Z" class="st3"/>
				</g>
				<g id="shape6-9" v:mID="6" v:groupContext="shape" transform="translate(26.7339,-26.5505)">
					<title>Sheet.6</title>
					<path d="M5.34 66.44 A2.95793 2.6732 -90 1 0 0 66.44 A2.95793 2.6732 -90 1 0 5.34 66.44 Z" class="st3"/>
				</g>
				<g id="shape7-11" v:mID="7" v:groupContext="shape">
					<title>Sheet.7</title>
					<path d="M32.08 69.47 L0 69.47 L32.08 69.47 Z" class="st4"/>
					<path d="M32.08 69.47 L0 69.47" class="st5"/>
				</g>
				<g id="shape8-14" v:mID="8" v:groupContext="shape" transform="translate(16.0344,0)">
					<title>Sheet.8</title>
					<path d="M26.73 16.23 A14.7908 13.367 -90 1 0 -0 16.23 L0 69.47 L26.73 16.23 Z" class="st4"/>
					<path d="M26.73 16.23 A14.7908 13.367 -90 1 0 -0 16.23 L0 69.47" class="st5"/>
				</g>
				<g id="shape9-17" v:mID="9" v:groupContext="shape" transform="translate(16.0344,-32.3404)">
					<title>Sheet.9</title>
					<path d="M0 60.4 L13.39 60.4 L13.39 69.47 L0 60.4 Z" class="st4"/>
					<path d="M0 60.4 L13.39 60.4 L13.39 69.47" class="st5"/>
				</g>
			</g>
			<g id="group10-20" transform="translate(16.0392,-11.8318)" v:mID="10" v:groupContext="group">
				<title>Sheet.10</title>
				<g id="shape11-21" v:mID="11" v:groupContext="shape" transform="translate(21.3891,-5.91008)">
					<title>Sheet.11</title>
					<path d="M0 69.47 L0 57.63 L21.38 57.63 L21.38 69.47 L0 69.47 Z" class="st2"/>
				</g>
				<g id="shape12-23" v:mID="12" v:groupContext="shape">
					<title>Sheet.12</title>
					<path d="M32.08 63.56 L32.08 69.47 L0 69.47 L32.08 63.56 Z" class="st4"/>
					<path d="M32.08 63.56 L32.08 69.47 L0 69.47" class="st6"/>
				</g>
				<g id="shape13-26" v:mID="13" v:groupContext="shape" transform="translate(21.3891,-5.91008)">
					<title>Sheet.13</title>
					<path d="M21.38 57.63 L21.38 69.47 L0 69.47 L0 57.63 L21.38 57.63 L16.03 51.72 L21.38 57.63 Z" class="st4"/>
					<path d="M21.38 57.63 L21.38 69.47 L0 69.47 L0 57.63 L21.38 57.63 L16.03 51.72" class="st6"/>
				</g>
				<g id="shape14-29" v:mID="14" v:groupContext="shape" transform="translate(21.3891,-5.91008)">
					<title>Sheet.14</title>
					<rect x="0" y="57.6313" width="21.3793" height="11.8402" class="st7"/>
				</g>
				<g id="shape15-31" v:mID="15" v:groupContext="shape" transform="translate(26.0226,-22.8703)">
					<title>Sheet.15</title>
					<path d="M0 67.89 L1.42 69.47 L0 67.89 Z" class="st4"/>
					<path d="M0 67.89 L1.42 69.47" class="st6"/>
				</g>
				<g id="shape16-34" v:mID="16" v:groupContext="shape" transform="translate(21.3891,-17.7502)">
					<title>Sheet.16</title>
					<path d="M0 69.47 L5.34 63.56 L0 69.47 Z" class="st4"/>
					<path d="M0 69.47 L5.34 63.56" class="st6"/>
				</g>
				<g id="shape17-37" v:mID="17" v:groupContext="shape" transform="translate(36.7122,-22.8703)">
					<title>Sheet.17</title>
					<path d="M1.42 67.89 L0 69.47 L1.42 67.89 Z" class="st4"/>
					<path d="M1.42 67.89 L0 69.47" class="st6"/>
				</g>
			</g>
		</g>
	</g>
</svg>
