<?xml version="1.0" encoding="UTF-8"?>
<!--
/*******************************************************************************
* Copyright (c) 2010-2016 ITER Organization.
* All rights reserved. This program and the accompanying materials
* are made available under the terms of the Eclipse Public License v1.0
* which accompanies this distribution, and is available at
* http://www.eclipse.org/legal/epl-v10.html
******************************************************************************/
-->
<svg xmlns="http://www.w3.org/2000/svg" xmlns:xlink="http://www.w3.org/1999/xlink" width="51pt" height="82pt" viewBox="0 0 51 82" version="1.1">
<g id="surface1">
<path style="fill-rule:evenodd;fill:rgb(100%,100%,100%);fill-opacity:1;stroke-width:0.999999;stroke-linecap:round;stroke-linejoin:round;stroke:rgb(0%,0%,0%);stroke-opacity:1;stroke-miterlimit:3;" d="M 0.00000187235 2.003992 L 25.512524 2.003992 L 25.512524 44.239166 L 0.00000187235 44.239166 Z " transform="matrix(1.874998,0,0,1.863635,1.874996,-1.863616)"/>
<path style=" stroke:none;fill-rule:evenodd;fill:rgb(100%,100%,100%);fill-opacity:1;" d="M 1.875 1.34375 L 1.90625 1.34375 L 1.90625 1.390625 L 1.875 1.390625 Z "/>
<path style=" stroke:none;fill-rule:evenodd;fill:rgb(100%,100%,100%);fill-opacity:1;" d="M 49.679688 80.535156 L 49.710938 80.535156 L 49.710938 80.582031 L 49.679688 80.582031 Z "/>
<path style="fill:none;stroke-width:0.999999;stroke-linecap:round;stroke-linejoin:round;stroke:rgb(0%,0%,0%);stroke-opacity:1;stroke-miterlimit:3;" d="M 0.000552822 44.239415 L 43.391229 44.240199 " transform="matrix(0.96468,-1.598053,1.607797,0.958833,-66.359005,33.551406)"/>
<path style="fill-rule:evenodd;fill:rgb(0%,0%,0%);fill-opacity:1;stroke-width:0.719999;stroke-linecap:round;stroke-linejoin:round;stroke:rgb(0%,0%,0%);stroke-opacity:1;stroke-miterlimit:3;" d="M 4.251364 42.11368 C 4.251364 40.939899 3.29928 39.988297 2.126362 39.988297 C 0.951361 39.988297 -0.000723189 40.939899 -0.000723189 42.11368 C -0.000723189 43.287462 0.951361 44.239063 2.126362 44.239063 C 3.29928 44.239063 4.251364 43.287462 4.251364 42.11368 Z " transform="matrix(1.874998,0,0,1.863635,21.806043,-37.257955)"/>
<path style="fill:none;stroke-width:0.72;stroke-linecap:round;stroke-linejoin:round;stroke:rgb(0%,0%,0%);stroke-opacity:1;stroke-miterlimit:3;" d="M 0.000155211 44.240131 L 7.680283 44.239501 " transform="matrix(1.730767,0.716784,-0.721154,1.720278,67.794316,-74.234332)"/>
<path style="fill:none;stroke-width:0.72;stroke-linecap:round;stroke-linejoin:round;stroke:rgb(0%,0%,0%);stroke-opacity:1;stroke-miterlimit:3;" d="M 0.000476738 44.240597 L 7.680605 44.239967 " transform="matrix(1.730767,0.716784,-0.721154,1.720278,33.778471,-1.024426)"/>
</g>
</svg>
