<?xml version="1.0" encoding="UTF-8"?>
<!--
/*******************************************************************************
* Copyright (c) 2010-2016 ITER Organization.
* All rights reserved. This program and the accompanying materials
* are made available under the terms of the Eclipse Public License v1.0
* which accompanies this distribution, and is available at
* http://www.eclipse.org/legal/epl-v10.html
******************************************************************************/
-->
<svg xmlns="http://www.w3.org/2000/svg" xmlns:xlink="http://www.w3.org/1999/xlink" width="51pt" height="84pt" viewBox="0 0 51 84" version="1.1">
<g id="surface1">
<path style="fill-rule:evenodd;fill:rgb(100%,100%,100%);fill-opacity:1;stroke-width:1;stroke-linecap:round;stroke-linejoin:round;stroke:rgb(0%,0%,0%);stroke-opacity:1;stroke-miterlimit:3;" d="M 0.000000872354 1.999987 L 25.512523 1.999987 L 25.512523 44.518775 L 0.000000872354 44.518775 Z " transform="matrix(1.874998,0,0,1.874998,1.874998,-1.874973)"/>
<path style="fill-rule:evenodd;fill:rgb(0%,0%,0%);fill-opacity:1;stroke-width:0.72;stroke-linecap:round;stroke-linejoin:round;stroke:rgb(0%,0%,0%);stroke-opacity:1;stroke-miterlimit:3;" d="M 4.251364 42.392963 C 4.251364 41.220046 3.29928 40.267962 2.126362 40.267962 C 0.951361 40.267962 -0.000723189 41.220046 -0.000723189 42.392963 C -0.000723189 43.567964 0.951361 44.520049 2.126362 44.520049 C 3.29928 44.520049 4.251364 43.567964 4.251364 42.392963 Z " transform="matrix(1.874998,0,0,1.874998,21.806043,-57.68205)"/>
<path style="fill-rule:evenodd;fill:rgb(0%,0%,0%);fill-opacity:1;stroke-width:0.72;stroke-linecap:round;stroke-linejoin:round;stroke:rgb(0%,0%,0%);stroke-opacity:1;stroke-miterlimit:3;" d="M 4.251364 42.393539 C 4.251364 41.218538 3.29928 40.268537 2.126362 40.268537 C 0.951361 40.268537 -0.000723189 41.218538 -0.000723189 42.393539 C -0.000723189 43.56854 0.951361 44.520624 2.126362 44.520624 C 3.29928 44.520624 4.251364 43.56854 4.251364 42.393539 Z " transform="matrix(1.874998,0,0,1.874998,21.806043,-17.819847)"/>
<path style="fill:none;stroke-width:1;stroke-linecap:round;stroke-linejoin:round;stroke:rgb(0%,0%,0%);stroke-opacity:1;stroke-miterlimit:3;" d="M 0.950382 44.520102 L 8.560473 44.519177 " transform="matrix(1.677049,-0.838526,0.838526,1.677049,-19.511045,-48.86937)"/>
<path style="fill:none;stroke-width:1;stroke-linecap:round;stroke-linejoin:round;stroke:rgb(0%,0%,0%);stroke-opacity:1;stroke-miterlimit:3;" d="M 0.950988 44.520291 L 8.560147 44.519353 " transform="matrix(1.677049,0.838526,-0.838526,1.677049,55.150639,-16.97966)"/>
</g>
</svg>
