<?xml version="1.0" encoding="UTF-8" standalone="no"?>
<!DOCTYPE svg PUBLIC "-//W3C//DTD SVG 1.0//EN" "C:\SeeVisioDTD\svg10.dtd">
<!-- Generated by Microsoft Visio 11.0, SVG Export, v1.0 FL_EI0203.svg Page-1 -->
<!--
/*******************************************************************************
* Copyright (c) 2010-2014 ITER Organization.
* All rights reserved. This program and the accompanying materials
* are made available under the terms of the Eclipse Public License v1.0
* which accompanies this distribution, and is available at
* http://www.eclipse.org/legal/epl-v10.html
******************************************************************************/
-->
<svg xmlns="http://www.w3.org/2000/svg" xmlns:v="http://schemas.microsoft.com/visio/2003/SVGExtensions/" width="0.382107in"
		height="0.382131in" viewBox="0 0 27.5117 27.5135" xml:space="preserve" color-interpolation-filters="sRGB" class="st7">
	<v:documentProperties v:langID="1036" v:metric="true" v:viewMarkup="false"/>
	<style type="text/css">
	<![CDATA[
		.st1 {fill:#ffffff;stroke:none;stroke-linecap:round;stroke-linejoin:round;stroke-width:0.720001}
		.st2 {fill:none;stroke:none;stroke-width:0.999999}
		.st3 {fill:none;stroke:#000000;stroke-linecap:round;stroke-linejoin:round;stroke-width:0.72}
		.st4 {fill:none;stroke:none;stroke-width:1}
		.st5 {fill:none}
		.st6 {stroke:#000000;stroke-linecap:round;stroke-linejoin:round;stroke-width:0.72}
		.st7 {fill:none;fill-rule:evenodd;font-size:12;overflow:visible;stroke-linecap:square;stroke-miterlimit:3}
	]]>
	</style>
	<g v:mID="0" v:index="1" v:groupContext="foregroundPage">
		<title>Page-1</title>
		<v:pageProperties v:drawingScale="0.0393701" v:pageScale="0.0393701" v:drawingUnits="24" v:shadowOffsetX="8.50395"
				v:shadowOffsetY="-8.50395"/>
		<g id="group1-1" transform="translate(1.03261,-0.977179)" v:mID="1" v:groupContext="group">
			<title>format_img</title>
			<g id="shape2-2" v:mID="2" v:groupContext="shape" transform="translate(0,-25.4959)">
				<title>point1</title>
				<rect x="0" y="27.4975" width="0.0159449" height="0.0159449" class="st1"/>
			</g>
			<g id="shape3-4" v:mID="3" v:groupContext="shape" transform="translate(25.4959,0)">
				<title>point2</title>
				<rect x="0" y="27.4975" width="0.0159449" height="0.0159449" class="st1"/>
			</g>
		</g>
		<g id="group4-6" transform="translate(1,-1.00004)" v:mID="4" v:groupContext="group">
			<v:userDefs>
				<v:ud v:nameU="guid" v:prompt="" v:val="VT4({A3DA2D24-6611-47DB-86F7-183F06163D35})"/>
				<v:ud v:nameU="GUID_M" v:prompt="" v:val="VT4({A3DA2D24-6611-47DB-86F7-183F06163D35})"/>
				<v:ud v:nameU="Bob_Guid" v:prompt="" v:val="VT4()"/>
			</v:userDefs>
			<title>Sheet.4</title>
			<g id="shape5-7" v:mID="5" v:groupContext="shape" transform="translate(0.023341,0)">
				<title>Sheet.5</title>
				<path d="M12.72 27.51 A12.7559 12.7459 90 0 1 3.72 23.77 A12.7559 12.7459 90 0 1 0.03 15.6 A12.7559 12.7459 90 0
							 1 0.03 13.9 A12.7559 12.7459 90 0 1 3.72 5.74 A12.7559 12.7459 90 0 1 21.76 5.74 A12.7559 12.7459 90
							 0 1 25.46 13.9 L25.49 14.76 L25.49 15.6 A12.9915 12.9813 90 0 1 21.76 23.78 A12.7559 12.7459 90 0 1
							 12.72 27.51 Z M25.49 27.5 L25.49 27.51 L25.49 27.5 Z" class="st2"/>
			</g>
			<g id="shape6-9" v:mID="6" v:groupContext="shape" transform="translate(0.023341,0)">
				<title>Sheet.6</title>
				<path d="M12.72 27.51 A12.7559 12.7459 90 0 1 3.72 23.77 A12.7559 12.7459 90 0 1 0.03 15.6 A12.7559 12.7459 90 0
							 1 0.03 13.9 A12.7559 12.7459 90 0 1 3.72 5.74 A12.7559 12.7459 90 0 1 21.76 5.74 A12.7559 12.7459 90
							 0 1 25.46 13.9 L25.49 14.76 L25.49 15.6 A12.9915 12.9813 90 0 1 21.76 23.78 A12.7559 12.7459 90 0 1
							 12.72 27.51 Z" class="st3"/>
			</g>
			<g id="group7-11" v:mID="7" v:groupContext="group">
				<title>Sheet.7</title>
				<g id="shape8-12" v:mID="8" v:groupContext="shape">
					<title>Sheet.8</title>
					<path d="M3.74 23.78 L0 27.51 L3.74 23.78 Z" class="st4"/>
				</g>
				<g id="shape9-14" v:mID="9" v:groupContext="shape">
					<title>Sheet.9</title>
					<path d="M3.74 23.78 L0 27.51 L3.74 23.78 Z" class="st5"/>
					<path d="M3.74 23.78 L0 27.51" class="st6"/>
				</g>
			</g>
			<g id="group10-17" transform="translate(21.78,-5.32907E-014)" v:mID="10" v:groupContext="group">
				<title>Sheet.10</title>
				<g id="shape11-18" v:mID="11" v:groupContext="shape">
					<title>Sheet.11</title>
					<path d="M3.73 27.51 L0 23.77 L3.73 27.51 Z" class="st4"/>
				</g>
				<g id="shape12-20" v:mID="12" v:groupContext="shape">
					<title>Sheet.12</title>
					<path d="M3.73 27.51 L0 23.77 L3.73 27.51 Z" class="st5"/>
					<path d="M3.73 27.51 L0 23.77" class="st6"/>
				</g>
			</g>
			<g id="group13-23" transform="translate(25.51,0)" v:mID="13" v:groupContext="group">
				<title>Sheet.13</title>
				<g id="shape14-24" v:mID="14" v:groupContext="shape">
					<title>Sheet.14</title>
					<path d="M0 27.5 L0 27.51 L0 27.5 Z" class="st4"/>
				</g>
				<g id="shape15-26" v:mID="15" v:groupContext="shape">
					<title>Sheet.15</title>
					<path d="M0 27.5 L0 27.51 L0 27.5 Z" class="st5"/>
					<path d="M0 27.5 L0 27.51" class="st6"/>
				</g>
			</g>
			<g id="group16-29" transform="translate(0.02,-11.91)" v:mID="16" v:groupContext="group">
				<title>Sheet.16</title>
				<g id="shape17-30" v:mID="17" v:groupContext="shape">
					<title>Sheet.17</title>
					<path d="M25.49 27.51 L22.27 27.51 L3.21 27.51 L0 27.51 L0.03 27.51 L25.49 27.51 Z" class="st4"/>
				</g>
				<g id="shape18-32" v:mID="18" v:groupContext="shape">
					<title>Sheet.18</title>
					<path d="M25.49 27.51 L22.27 27.51 L3.21 27.51 L0 27.51 L0.03 27.51 L25.49 27.51 Z" class="st5"/>
					<path d="M25.49 27.51 L22.27 27.51 L3.21 27.51 L0 27.51 L0.03 27.51" class="st6"/>
				</g>
			</g>
			<g id="group19-35" transform="translate(0,-13.61)" v:mID="19" v:groupContext="group">
				<title>Sheet.19</title>
				<g id="shape20-36" v:mID="20" v:groupContext="shape">
					<title>Sheet.20</title>
					<path d="M0 27.51 L3.23 27.51 L22.28 27.51 L25.49 27.51 L0 27.51 Z" class="st4"/>
				</g>
				<g id="shape21-38" v:mID="21" v:groupContext="shape">
					<title>Sheet.21</title>
					<path d="M0 27.51 L3.23 27.51 L22.28 27.51 L25.49 27.51 L0 27.51 Z" class="st5"/>
					<path d="M0 27.51 L3.23 27.51 L22.28 27.51 L25.49 27.51" class="st6"/>
				</g>
			</g>
			<g id="group22-41" transform="translate(21.78,-21.77)" v:mID="22" v:groupContext="group">
				<title>Sheet.22</title>
				<g id="shape23-42" v:mID="23" v:groupContext="shape">
					<title>Sheet.23</title>
					<path d="M0 27.51 L3.73 23.77 L0 27.51 Z" class="st4"/>
				</g>
				<g id="shape24-44" v:mID="24" v:groupContext="shape">
					<title>Sheet.24</title>
					<path d="M0 27.51 L3.73 23.77 L0 27.51 Z" class="st5"/>
					<path d="M0 27.51 L3.73 23.77" class="st6"/>
				</g>
			</g>
			<g id="group25-47" transform="translate(0.02,-21.77)" v:mID="25" v:groupContext="group">
				<title>Sheet.25</title>
				<g id="shape26-48" v:mID="26" v:groupContext="shape">
					<title>Sheet.26</title>
					<path d="M3.72 27.51 L0 23.79 L0.01 23.77 L3.72 27.51 Z" class="st4"/>
				</g>
				<g id="shape27-50" v:mID="27" v:groupContext="shape">
					<title>Sheet.27</title>
					<path d="M3.72 27.51 L0 23.79 L0.01 23.77 L3.72 27.51 Z" class="st5"/>
					<path d="M3.72 27.51 L0 23.79 L0.01 23.77" class="st6"/>
				</g>
			</g>
		</g>
	</g>
</svg>
