<?xml version="1.0" encoding="UTF-8" standalone="no"?>
<!DOCTYPE svg PUBLIC "-//W3C//DTD SVG 1.0//EN" "C:\SeeVisioDTD\svg10.dtd">
<!-- Generated by Microsoft Visio 11.0, SVG Export, v1.0 FL_EI0202.svg Page-1 -->
<!--
/*******************************************************************************
* Copyright (c) 2010-2014 ITER Organization.
* All rights reserved. This program and the accompanying materials
* are made available under the terms of the Eclipse Public License v1.0
* which accompanies this distribution, and is available at
* http://www.eclipse.org/legal/epl-v10.html
******************************************************************************/
-->
<svg xmlns="http://www.w3.org/2000/svg" xmlns:v="http://schemas.microsoft.com/visio/2003/SVGExtensions/" width="0.382083in"
		height="0.382083in" viewBox="0 0 27.51 27.51" xml:space="preserve" color-interpolation-filters="sRGB" class="st6">
	<v:documentProperties v:langID="1036" v:metric="true" v:viewMarkup="false"/>
	<style type="text/css">
	<![CDATA[
		.st1 {fill:#ffffff;stroke:none;stroke-linecap:round;stroke-linejoin:round;stroke-width:0.72}
		.st2 {fill:none;stroke:none;stroke-width:0.999998}
		.st3 {fill:none;stroke:none;stroke-width:0.999999}
		.st4 {fill:none}
		.st5 {stroke:#000000;stroke-linecap:round;stroke-linejoin:round;stroke-width:0.719999}
		.st6 {fill:none;fill-rule:evenodd;font-size:12;overflow:visible;stroke-linecap:square;stroke-miterlimit:3}
	]]>
	</style>
	<g v:mID="0" v:index="1" v:groupContext="foregroundPage">
		<title>Page-1</title>
		<v:pageProperties v:drawingScale="0.0393701" v:pageScale="0.0393701" v:drawingUnits="24" v:shadowOffsetX="8.50394"
				v:shadowOffsetY="-8.50394"/>
		<g id="group1-1" transform="translate(1.16178,-0.838974)" v:mID="1" v:groupContext="group">
			<title>format_img</title>
			<g id="shape2-2" v:mID="2" v:groupContext="shape" transform="translate(0,-25.4959)">
				<title>point1</title>
				<rect x="0" y="27.4941" width="0.0159449" height="0.0159449" class="st1"/>
			</g>
			<g id="shape3-4" v:mID="3" v:groupContext="shape" transform="translate(25.4959,0)">
				<title>point2</title>
				<rect x="0" y="27.4941" width="0.0159449" height="0.0159449" class="st1"/>
			</g>
		</g>
		<g id="group4-6" transform="translate(1.00001,-1.00003)" v:mID="4" v:groupContext="group">
			<v:userDefs>
				<v:ud v:nameU="guid" v:prompt="" v:val="VT4({48F66299-7E23-4369-9A20-43FE00072E58})"/>
				<v:ud v:nameU="GUID_M" v:prompt="" v:val="VT4({48F66299-7E23-4369-9A20-43FE00072E58})"/>
				<v:ud v:nameU="Bob_Guid" v:prompt="" v:val="VT4()"/>
			</v:userDefs>
			<title>Sheet.4</title>
			<g id="shape5-7" v:mID="5" v:groupContext="shape" transform="translate(25.51,0)">
				<title>Sheet.5</title>
				<path d="M0 27.5 L0 27.51 L0 27.5 Z" class="st2"/>
			</g>
			<g id="group6-9" transform="translate(25.51,0)" v:mID="6" v:groupContext="group">
				<title>Sheet.6</title>
				<g id="shape7-10" v:mID="7" v:groupContext="shape">
					<title>Sheet.7</title>
					<path d="M0 27.5 L0 27.51 L0 27.5 Z" class="st3"/>
				</g>
				<g id="shape8-12" v:mID="8" v:groupContext="shape">
					<title>Sheet.8</title>
					<path d="M0 27.5 L0 27.51 L0 27.5 Z" class="st4"/>
					<path d="M0 27.5 L0 27.51" class="st5"/>
				</g>
			</g>
			<g id="group9-15" v:mID="9" v:groupContext="group">
				<title>Sheet.9</title>
				<g id="shape10-16" v:mID="10" v:groupContext="shape">
					<title>Sheet.10</title>
					<path d="M25.51 27.51 L21.78 23.77 A12.7559 12.7551 -90 0 0 25.51 14.76 A12.7559 12.7551 -90 0 0 21.78 5.74 A12.7559
								 12.7551 -90 0 0 3.74 5.74 A12.7559 12.7551 -90 0 0 0 14.78 A12.7559 12.7551 -90 0 0 3.74 23.78 A12.7559
								 12.7551 -90 0 0 12.78 27.51 A12.7559 12.7551 -90 0 0 21.78 23.77 L25.51 27.51 Z" class="st3"/>
				</g>
				<g id="shape11-18" v:mID="11" v:groupContext="shape">
					<title>Sheet.11</title>
					<path d="M25.51 27.51 L21.78 23.77 A12.7559 12.7551 -90 0 0 25.51 14.76 A12.7559 12.7551 -90 0 0 21.78 5.74 A12.7559
								 12.7551 -90 0 0 3.74 5.74 A12.7559 12.7551 -90 0 0 0 14.78 A12.7559 12.7551 -90 0 0 3.74 23.78 A12.7559
								 12.7551 -90 0 0 12.78 27.51 A12.7559 12.7551 -90 0 0 21.78 23.77 L25.51 27.51 Z" class="st4"/>
					<path d="M25.51 27.51 L21.78 23.77 A12.7559 12.7551 -90 0 0 25.51 14.76 A12.7559 12.7551 -90 0 0 21.78 5.74 A12.7559
								 12.7551 -90 0 0 3.74 5.74 A12.7559 12.7551 -90 0 0 0 14.78 A12.7559 12.7551 -90 0 0 3.74 23.78 A12.7559
								 12.7551 -90 0 0 12.78 27.51 A12.7559 12.7551 -90 0 0 21.78 23.77" class="st5"/>
				</g>
			</g>
			<g id="group12-21" transform="translate(21.78,-21.77)" v:mID="12" v:groupContext="group">
				<title>Sheet.12</title>
				<g id="shape13-22" v:mID="13" v:groupContext="shape">
					<title>Sheet.13</title>
					<path d="M0 27.51 L3.73 23.77 L0 27.51 Z" class="st3"/>
				</g>
				<g id="shape14-24" v:mID="14" v:groupContext="shape">
					<title>Sheet.14</title>
					<path d="M0 27.51 L3.73 23.77 L0 27.51 Z" class="st4"/>
					<path d="M0 27.51 L3.73 23.77" class="st5"/>
				</g>
			</g>
			<g id="group15-27" transform="translate(7.69385E-014,-21.77)" v:mID="15" v:groupContext="group">
				<title>Sheet.15</title>
				<g id="shape16-28" v:mID="16" v:groupContext="shape">
					<title>Sheet.16</title>
					<path d="M3.74 27.51 L0 23.77 L0.02 23.77 L3.74 27.51 Z" class="st3"/>
				</g>
				<g id="shape17-30" v:mID="17" v:groupContext="shape">
					<title>Sheet.17</title>
					<path d="M3.74 27.51 L0 23.77 L0.02 23.77 L3.74 27.51 Z" class="st4"/>
					<path d="M3.74 27.51 L0 23.77 L0.02 23.77" class="st5"/>
				</g>
			</g>
			<g id="group18-33" v:mID="18" v:groupContext="group">
				<title>Sheet.18</title>
				<g id="shape19-34" v:mID="19" v:groupContext="shape">
					<title>Sheet.19</title>
					<path d="M3.74 23.78 L0 27.51 L3.74 23.78 Z" class="st3"/>
				</g>
				<g id="shape20-36" v:mID="20" v:groupContext="shape">
					<title>Sheet.20</title>
					<path d="M3.74 23.78 L0 27.51 L3.74 23.78 Z" class="st4"/>
					<path d="M3.74 23.78 L0 27.51" class="st5"/>
				</g>
			</g>
		</g>
	</g>
</svg>
