<?xml version="1.0" encoding="UTF-8" standalone="no"?>
<!DOCTYPE svg PUBLIC "-//W3C//DTD SVG 1.0//EN" "C:\SeeVisioDTD\svg10.dtd">
<!-- Generated by Microsoft Visio 11.0, SVG Export, v1.0 OL_EE0310.svg Page-1 -->
<!--
/*******************************************************************************
* Copyright (c) 2010-2013 ITER Organization.
* All rights reserved. This program and the accompanying materials
* are made available under the terms of the Eclipse Public License v1.0
* which accompanies this distribution, and is available at
* http://www.eclipse.org/legal/epl-v10.html
******************************************************************************/
-->
<svg xmlns="http://www.w3.org/2000/svg" xmlns:v="http://schemas.microsoft.com/visio/2003/SVGExtensions/" width="0.736439in"
		height="1.4451in" viewBox="0 0 53.0236 104.047" xml:space="preserve" color-interpolation-filters="sRGB" class="st4">
	<v:documentProperties v:langID="1036" v:metric="true" v:viewMarkup="false"/>

	<style type="text/css">
	<![CDATA[
		.st1 {fill:#ffffff;stroke:none;stroke-linecap:round;stroke-linejoin:round;stroke-width:0.72}
		.st2 {stroke:#000000;stroke-dasharray:3.99999,2;stroke-linecap:butt;stroke-width:0.999998}
		.st3 {stroke:#000000;stroke-linecap:butt;stroke-width:0.999998}
		.st4 {fill:none;fill-rule:evenodd;font-size:12;overflow:visible;stroke-linecap:square;stroke-miterlimit:3}
	]]>
	</style>

	<g v:mID="0" v:index="1" v:groupContext="foregroundPage">
		<title>Page-1</title>
		<v:pageProperties v:drawingScale="0.0393701" v:pageScale="0.0393701" v:drawingUnits="24" v:shadowOffsetX="8.50393"
				v:shadowOffsetY="-8.50393"/>
		<g id="shape2-1" v:mID="2" v:groupContext="shape" transform="translate(0.999998,-0.999998)">
			<title>Sheet.2</title>
			<rect x="0" y="2" width="51.0236" height="102.047" class="st1"/>
		</g>
		<g id="shape4-3" v:mID="4" v:groupContext="shape" transform="translate(113.551,35.0157) rotate(90)">
			<title>Sheet.4</title>
			<path d="M0 104.05 L34.02 104.05" class="st2"/>
		</g>
		<g id="shape9-6" v:mID="9" v:groupContext="shape" transform="translate(-60.5276,69.0315) rotate(-90)">
			<title>Sheet.9</title>
			<path d="M0 104.05 L34.02 104.05" class="st2"/>
		</g>
		<g id="shape1-9" v:mID="1" v:groupContext="shape" transform="translate(0.999998,-0.999998)">
			<title>Sheet.1</title>
			<path d="M0 36.02 L17.01 36.02" class="st3"/>
			<path d="M0 44.52 L8.5 36.02 L0 19.01 L17.01 19.01 L8.5 36.02 L8.5 19.01 L8.5 10.5 L42.52 10.5 L42.52 19.01"
					class="st3"/>
			<path d="M0 87.04 L17.01 87.04" class="st3"/>
			<path d="M8.5 70.03 L8.5 87.04 L17.01 70.03 L0 70.03 L8.5 87.04 L0 95.54" class="st3"/>
			<path d="M51.02 19.01 L34.02 19.01" class="st3"/>
			<path d="M42.52 36.02 L42.52 19.01 L34.02 36.02 L51.02 36.02 L42.52 19.01 L51.02 10.5" class="st3"/>
			<path d="M51.02 70.03 L34.02 70.03" class="st3"/>
			<path d="M51.02 61.53 L42.52 70.03 L51.02 87.04 L34.02 87.04 L42.52 70.03 L42.52 87.04 L42.52 95.54 L25.51 95.54"
					class="st3"/>
			<path d="M8.5 87.04 L8.5 95.54 L25.51 95.54 L25.51 104.05" class="st3"/>
			<path d="M25.51 2 L25.51 10.5" class="st3"/>
		</g>
	</g>
</svg>
