<?xml version="1.0" encoding="UTF-8" standalone="no"?>
<!DOCTYPE svg PUBLIC "-//W3C//DTD SVG 1.0//EN" "C:\SeeVisioDTD\svg10.dtd">
<!-- Généré par Microsoft Visio 11.0, SVG Export, v1.0 FL_EF1707.svg Page-1 -->
<!--
/*******************************************************************************
* Copyright (c) 2010-2014 ITER Organization.
* All rights reserved. This program and the accompanying materials
* are made available under the terms of the Eclipse Public License v1.0
* which accompanies this distribution, and is available at
* http://www.eclipse.org/legal/epl-v10.html
******************************************************************************/
-->
<svg xmlns="http://www.w3.org/2000/svg" xmlns:v="http://schemas.microsoft.com/visio/2003/SVGExtensions/" width="1.43754in"
		height="1.43805in" viewBox="0 0 103.503 103.539" xml:space="preserve" color-interpolation-filters="sRGB" class="st2">
	<v:documentProperties v:langID="1036" v:metric="true" v:viewMarkup="false"/>
	<style type="text/css">
	<![CDATA[
		.st1 {fill:#ffffff;stroke:none;stroke-linecap:round;stroke-linejoin:round;stroke-width:0.72}
		.st2 {fill:none;fill-rule:evenodd;font-size:12;overflow:visible;stroke-linecap:square;stroke-miterlimit:3}
		.st3 {fill:#ffffff;stroke:#000000;stroke-linecap:round;stroke-linejoin:round;stroke-width:0.72}
	]]>
	</style>
	<defs id="Masters">
		<symbol id="master0" v:mID="0" class="st2">
			<title>FL_EF1707</title>
			<g id="master-shape5-7" v:mID="5" v:groupContext="shape">
				<title>Feuille.5</title>
				<path d="M8.5 52.52 L8.5 35.51 A8.50394 8.50394 -180 1 0 8.5 52.52 Z M76.54 35.51 A8.50394 8.50394 -180 0 0 76.54
							 18.5 L76.54 35.51 Z M8.5 86.53 L8.5 69.52 A8.50394 8.50394 -180 1 0 8.5 86.53 Z M8.5 103.54 L76.54 103.54
							 L76.54 1.49 L8.5 1.49 L8.5 103.54 Z M76.54 69.52 A8.50394 8.50394 -180 0 0 76.54 52.52 L76.54 69.52
							 Z" class="st3"/>
			</g>
		</symbol>
	</defs>
	<g v:mID="0" v:index="1" v:groupContext="foregroundPage">
		<title>Page-1</title>
		<v:pageProperties v:drawingScale="0.0393701" v:pageScale="0.0393701" v:drawingUnits="24" v:shadowOffsetX="8.50394"
				v:shadowOffsetY="-8.50394"/>
		<g id="group3-1" transform="translate(0.72,-0.72)" v:mID="3" v:groupContext="group">
			<title>Feuille.3</title>
			<g id="shape1-2" v:mID="1" v:groupContext="shape" transform="translate(2.18575E-015,-102.083)">
				<title>Feuille.1</title>
				<rect x="0" y="103.523" width="0.0159449" height="0.0159449" class="st1"/>
			</g>
			<g id="shape2-4" v:mID="2" v:groupContext="shape" transform="translate(102.047,1.42109E-014)">
				<title>Feuille.2</title>
				<rect x="0" y="103.523" width="0.0159449" height="0.0159449" class="st1"/>
			</g>
		</g>
		<use id="shape4-6" v:mID="4" xlink:href="#master0" transform="translate(9.23988,-0.735945)">
			<title>FL_EF1707</title>
		</use>
	</g>
</svg>
