<?xml version="1.0" encoding="UTF-8" standalone="no"?>
<!DOCTYPE svg PUBLIC "-//W3C//DTD SVG 1.0//EN" "C:\SeeVisioDTD\svg10.dtd">
<!-- Généré par Microsoft Visio 11.0, SVG Export, v1.0 FL_EF1009.svg Page 1 -->
<!--
/*******************************************************************************
* Copyright (c) 2010-2014 ITER Organization.
* All rights reserved. This program and the accompanying materials
* are made available under the terms of the Eclipse Public License v1.0
* which accompanies this distribution, and is available at
* http://www.eclipse.org/legal/epl-v10.html
******************************************************************************/
-->
<svg xmlns="http://www.w3.org/2000/svg" xmlns:v="http://schemas.microsoft.com/visio/2003/SVGExtensions/" width="0.382108in"
		height="0.618333in" viewBox="0 0 27.5118 44.52" xml:space="preserve" color-interpolation-filters="sRGB" class="st7">
	<v:documentProperties v:langID="1036" v:metric="true" v:viewMarkup="false"/>
	<style type="text/css">
	<![CDATA[
		.st1 {fill:#ffffff;stroke:none;stroke-width:0.999998}
		.st2 {fill:none;stroke:none;stroke-width:0.999999}
		.st3 {fill:none}
		.st4 {stroke:#000000;stroke-linecap:round;stroke-linejoin:round;stroke-width:0.719999}
		.st5 {fill:none;stroke:#000000;stroke-linecap:round;stroke-linejoin:round;stroke-width:0.719999}
		.st6 {fill:#000000;stroke:#000000;stroke-linecap:round;stroke-linejoin:round;stroke-width:0.719999}
		.st7 {fill:none;fill-rule:evenodd;font-size:12;overflow:visible;stroke-linecap:square;stroke-miterlimit:3}
	]]>
	</style>
	<g v:mID="0" v:index="1" v:groupContext="foregroundPage">
		<title>Page 1</title>
		<v:pageProperties v:drawingScale="0.0393701" v:pageScale="0.0393701" v:drawingUnits="24" v:shadowOffsetX="8.50393"
				v:shadowOffsetY="-8.50393"/>
		<g id="group1-1" transform="translate(0.999999,-0.999999)" v:mID="1" v:groupContext="group">
			<title>Feuille.1</title>
			<g id="group2-2" v:mID="2" v:groupContext="group">
				<title>FL_EF1005.133</title>
				<g id="shape3-3" v:mID="3" v:groupContext="shape">
					<title>Feuille.3</title>
					<path d="M25.51 2 L0 2 L0 31.76 L12.76 44.52 L25.51 31.76 L25.51 2 Z" class="st1"/>
				</g>
				<g id="group4-5" transform="translate(0,-42.5197)" v:mID="4" v:groupContext="group">
					<title>Feuille.4</title>
					<g id="shape5-6" v:mID="5" v:groupContext="shape">
						<title>Feuille.5</title>
						<path d="M0 44.52 L25.51 44.52 L0 44.52 Z" class="st2"/>
					</g>
					<g id="shape6-8" v:mID="6" v:groupContext="shape">
						<title>Feuille.6</title>
						<path d="M0 44.52 L25.51 44.52 L0 44.52 Z" class="st3"/>
						<path d="M0 44.52 L25.51 44.52" class="st4"/>
					</g>
				</g>
				<g id="shape7-11" v:mID="7" v:groupContext="shape">
					<title>Feuille.7</title>
					<path d="M25.51 2 L0 2 L0 31.76 L12.76 44.52 L25.51 31.76 L25.51 2 Z" class="st5"/>
				</g>
				<g id="group8-13" v:mID="8" v:groupContext="group">
					<title>Feuille.8</title>
					<g id="shape9-14" v:mID="9" v:groupContext="shape">
						<title>Feuille.9</title>
						<path d="M0 2 L0 31.76 L12.76 44.52 L25.51 31.76 L0 2 Z" class="st2"/>
					</g>
					<g id="shape10-16" v:mID="10" v:groupContext="shape">
						<title>Feuille.10</title>
						<path d="M0 2 L0 31.76 L12.76 44.52 L25.51 31.76 L0 2 Z" class="st3"/>
						<path d="M0 2 L0 31.76 L12.76 44.52 L25.51 31.76" class="st4"/>
					</g>
				</g>
				<g id="group11-19" transform="translate(25.5118,-12.7599)" v:mID="11" v:groupContext="group">
					<title>Feuille.11</title>
					<g id="shape12-20" v:mID="12" v:groupContext="shape">
						<title>Feuille.12</title>
						<path d="M0 14.76 L0 44.52 L0 14.76 Z" class="st2"/>
					</g>
					<g id="shape13-22" v:mID="13" v:groupContext="shape">
						<title>Feuille.13</title>
						<path d="M0 14.76 L0 44.52 L0 14.76 Z" class="st3"/>
						<path d="M0 14.76 L0 44.52" class="st4"/>
					</g>
				</g>
			</g>
			<g id="shape14-25" v:mID="14" v:groupContext="shape" transform="translate(10.6299,-6.37826)">
				<title>Feuille.14</title>
				<ellipse cx="2.12598" cy="42.394" rx="2.12598" ry="2.12598" class="st6"/>
			</g>
			<g id="group15-27" transform="translate(8.50393,-18.4252)" v:mID="15" v:groupContext="group">
				<title>Feuille.15</title>
				<g id="shape16-28" v:mID="16" v:groupContext="shape">
					<title>Feuille.16</title>
					<path d="M4.25 44.52 L0 34.6 L4.25 44.52 Z" class="st3"/>
					<path d="M4.25 44.52 L0 34.6" class="st4"/>
				</g>
				<g id="shape17-31" v:mID="17" v:groupContext="shape" transform="translate(4.25,7.10543E-015)">
					<title>Feuille.17</title>
					<path d="M0 24.68 L0 44.52 L4.25 34.6 L0 24.68 Z" class="st3"/>
					<path d="M0 24.68 L0 44.52 L4.25 34.6" class="st4"/>
				</g>
			</g>
		</g>
	</g>
</svg>
