<?xml version="1.0" encoding="UTF-8" standalone="no"?>
<!DOCTYPE svg PUBLIC "-//W3C//DTD SVG 1.0//EN" "C:\SeeVisioDTD\svg10.dtd">
<!-- Généré par Microsoft Visio 11.0, SVG Export, v1.0 FL_EF1012.svg Page 1 -->
<!--
/*******************************************************************************
* Copyright (c) 2010-2014 ITER Organization.
* All rights reserved. This program and the accompanying materials
* are made available under the terms of the Eclipse Public License v1.0
* which accompanies this distribution, and is available at
* http://www.eclipse.org/legal/epl-v10.html
******************************************************************************/
-->
<svg xmlns="http://www.w3.org/2000/svg" xmlns:v="http://schemas.microsoft.com/visio/2003/SVGExtensions/" width="0.382108in"
		height="0.732499in" viewBox="0 0 27.5118 52.74" xml:space="preserve" color-interpolation-filters="sRGB" class="st8">
	<v:documentProperties v:langID="1036" v:metric="true" v:viewMarkup="false"/>
	<style type="text/css">
	<![CDATA[
		.st1 {fill:#ffffff;stroke:none;stroke-width:0.999998}
		.st2 {fill:none;stroke:none;stroke-width:0.999999}
		.st3 {fill:none}
		.st4 {stroke:#000000;stroke-linecap:round;stroke-linejoin:round;stroke-width:0.719999}
		.st5 {fill:none;stroke:#000000;stroke-linecap:round;stroke-linejoin:round;stroke-width:0.719999}
		.st6 {stroke:#000000;stroke-linecap:butt;stroke-width:0.719999}
		.st7 {fill:#000000;stroke:#000000;stroke-linecap:round;stroke-linejoin:round;stroke-width:0.719999}
		.st8 {fill:none;fill-rule:evenodd;font-size:12;overflow:visible;stroke-linecap:square;stroke-miterlimit:3}
	]]>
	</style>
	<g v:mID="0" v:index="1" v:groupContext="foregroundPage">
		<title>Page 1</title>
		<v:pageProperties v:drawingScale="0.0393701" v:pageScale="0.0393701" v:drawingUnits="24" v:shadowOffsetX="8.99998"
				v:shadowOffsetY="-8.99998"/>
		<g id="group1-1" transform="translate(0.999999,-0.999999)" v:mID="1" v:groupContext="group">
			<title>Feuille.1</title>
			<g id="group2-2" v:mID="2" v:groupContext="group">
				<title>FL_EF1005.139</title>
				<g id="shape3-3" v:mID="3" v:groupContext="shape">
					<title>Feuille.3</title>
					<path d="M25.51 10.22 L0 10.22 L0 39.98 L12.76 52.74 L25.51 39.98 L25.51 10.22 Z" class="st1"/>
				</g>
				<g id="group4-5" transform="translate(0,-42.5197)" v:mID="4" v:groupContext="group">
					<title>Feuille.4</title>
					<g id="shape5-6" v:mID="5" v:groupContext="shape">
						<title>Feuille.5</title>
						<path d="M0 52.74 L25.51 52.74 L0 52.74 Z" class="st2"/>
					</g>
					<g id="shape6-8" v:mID="6" v:groupContext="shape">
						<title>Feuille.6</title>
						<path d="M0 52.74 L25.51 52.74 L0 52.74 Z" class="st3"/>
						<path d="M0 52.74 L25.51 52.74" class="st4"/>
					</g>
				</g>
				<g id="shape7-11" v:mID="7" v:groupContext="shape">
					<title>Feuille.7</title>
					<path d="M25.51 10.22 L0 10.22 L0 39.98 L12.76 52.74 L25.51 39.98 L25.51 10.22 Z" class="st5"/>
				</g>
				<g id="group8-13" v:mID="8" v:groupContext="group">
					<title>Feuille.8</title>
					<g id="shape9-14" v:mID="9" v:groupContext="shape">
						<title>Feuille.9</title>
						<path d="M0 10.22 L0 39.98 L12.76 52.74 L25.51 39.98 L0 10.22 Z" class="st2"/>
					</g>
					<g id="shape10-16" v:mID="10" v:groupContext="shape">
						<title>Feuille.10</title>
						<path d="M0 10.22 L0 39.98 L12.76 52.74 L25.51 39.98 L0 10.22 Z" class="st3"/>
						<path d="M0 10.22 L0 39.98 L12.76 52.74 L25.51 39.98" class="st4"/>
					</g>
				</g>
				<g id="group11-19" transform="translate(25.5118,-12.7599)" v:mID="11" v:groupContext="group">
					<title>Feuille.11</title>
					<g id="shape12-20" v:mID="12" v:groupContext="shape">
						<title>Feuille.12</title>
						<path d="M0 22.98 L0 52.74 L0 22.98 Z" class="st2"/>
					</g>
					<g id="shape13-22" v:mID="13" v:groupContext="shape">
						<title>Feuille.13</title>
						<path d="M0 22.98 L0 52.74 L0 22.98 Z" class="st3"/>
						<path d="M0 22.98 L0 52.74" class="st4"/>
					</g>
				</g>
			</g>
			<g id="shape14-25" v:mID="14" v:groupContext="shape" transform="translate(65.4994,1.72) rotate(90)">
				<title>Feuille.14</title>
				<path d="M0 52.74 L17.57 52.74 L0 52.74 Z" class="st3"/>
				<path d="M0 52.74 L17.57 52.74" class="st6"/>
			</g>
			<g id="shape15-28" v:mID="15" v:groupContext="shape" transform="translate(46.928,-30.4679) rotate(45)">
				<title>Feuille.15</title>
				<path d="M0 52.74 L17.64 52.74 L0 52.74 Z" class="st3"/>
				<path d="M0 52.74 L17.64 52.74" class="st4"/>
			</g>
			<g id="group16-31" transform="translate(3.89764,-8.49393)" v:mID="16" v:groupContext="group">
				<title>Feuille.16</title>
				<g id="shape17-32" v:mID="17" v:groupContext="shape">
					<title>Feuille.17</title>
					<path d="M17.72 43.88 A8.85999 8.85999 0 1 1 0 43.88 A8.85999 8.85999 0 0 1 17.72 43.88 Z" class="st2"/>
				</g>
				<g id="shape18-34" v:mID="18" v:groupContext="shape" transform="translate(0.17,-7.08999)">
					<title>Feuille.18</title>
					<path d="M17.42 49.45 L8.1 52.74 L8.1 49.19 L0 52.7 L17.42 49.45 Z" class="st3"/>
					<path d="M17.42 49.45 L8.1 52.74 L8.1 49.19 L0 52.7" class="st4"/>
				</g>
				<g id="shape19-37" v:mID="19" v:groupContext="shape">
					<title>Feuille.19</title>
					<path d="M17.72 43.88 A8.85999 8.85999 0 1 1 0 43.88 A8.85999 8.85999 0 0 1 17.72 43.88 Z" class="st5"/>
				</g>
			</g>
			<g id="shape20-39" v:mID="20" v:groupContext="shape" transform="translate(10.9843,-40.7443)">
				<title>Feuille.20</title>
				<ellipse cx="1.77165" cy="50.9683" rx="1.77165" ry="1.77165" class="st7"/>
			</g>
			<g id="shape21-41" v:mID="21" v:groupContext="shape" transform="translate(53.4529,44.1177) rotate(135)">
				<title>Feuille.21</title>
				<path d="M0 52.74 L17.64 52.74 L0 52.74 Z" class="st3"/>
				<path d="M0 52.74 L17.64 52.74" class="st4"/>
			</g>
		</g>
	</g>
</svg>
