<?xml version='1.0' encoding='UTF-8'?>
<!DOCTYPE svg PUBLIC "-//W3C//DTD SVG 1.0//EN" "C:\SeeVisioDTD\svg10.dtd">
<!--
/*******************************************************************************
* Copyright (c) 2010-2014 ITER Organization.
* All rights reserved. This program and the accompanying materials
* are made available under the terms of the Eclipse Public License v1.0
* which accompanies this distribution, and is available at
* http://www.eclipse.org/legal/epl-v10.html
******************************************************************************/
-->
<svg xmlns="http://www.w3.org/2000/svg" xmlns:xlink="http://www.w3.org/1999/xlink" width="69pt" height="132pt" viewBox="0 0 69 132" version="1.1">
<g id="surface1">
<path style=" stroke:none;fill-rule:evenodd;fill:rgb(100%,100%,100%);fill-opacity:1;" d="M 1.875 3.773438 L 1.914062 3.773438 L 1.914062 3.851562 L 1.875 3.851562 Z M 1.875 3.773438 "/>
<path style=" stroke:none;fill-rule:evenodd;fill:rgb(100%,100%,100%);fill-opacity:1;" d="M 65.613281 131.253906 L 65.65625 131.253906 L 65.65625 131.332031 L 65.613281 131.332031 Z M 65.613281 131.253906 "/>
<path style="fill-rule:evenodd;fill:rgb(100%,100%,100%);fill-opacity:1;stroke-width:0.999999;stroke-linecap:round;stroke-linejoin:round;stroke:rgb(0%,0%,0%);stroke-opacity:1;stroke-miterlimit:3;" d="M -0.0000139699 36.748737 L 34.016658 36.748737 L 34.016658 70.763326 L -0.0000139699 70.763326 Z M -0.0000139699 36.748737 " transform="matrix(1.875,0,0,1.875,1.875026,-33.239807)"/>
<path style="fill:none;stroke-width:0.999999;stroke-linecap:round;stroke-linejoin:round;stroke:rgb(0%,0%,0%);stroke-opacity:1;stroke-miterlimit:3;" d="M 34.020825 62.261037 L 17.010406 70.761038 L -0.0000139699 62.261037 " transform="matrix(1.875,0,0,1.875,1.875026,-81.075361)"/>
<path style="fill:none;stroke-width:0.999999;stroke-linecap:round;stroke-linejoin:round;stroke:rgb(0%,0%,0%);stroke-opacity:1;stroke-miterlimit:3;" d="M -0.000530704 70.759133 L 24.469787 70.760606 L 30.070663 70.760606 " transform="matrix(1.325825,-1.325825,1.325825,1.325825,-76.001023,-42.213368)"/>
<path style=" stroke:none;fill-rule:evenodd;fill:rgb(0%,0%,0%);fill-opacity:1;" d="M 46.546875 15.445312 L 57.683594 11.734375 L 53.96875 22.871094 L 46.546875 15.445312 "/>
</g>
</svg>
