<?xml version="1.0" encoding="UTF-8"?>
<!--
/*******************************************************************************
* Copyright (c) 2010-2016 ITER Organization.
* All rights reserved. This program and the accompanying materials
* are made available under the terms of the Eclipse Public License v1.0
* which accompanies this distribution, and is available at
* http://www.eclipse.org/legal/epl-v10.html
******************************************************************************/
-->
<svg xmlns="http://www.w3.org/2000/svg" xmlns:xlink="http://www.w3.org/1999/xlink" width="99pt" height="147pt" viewBox="0 0 99 147" version="1.1">
<g id="surface1">
<path style="fill-rule:evenodd;fill:rgb(0%,0%,0%);fill-opacity:1;stroke-width:0.72;stroke-linecap:round;stroke-linejoin:round;stroke:rgb(0%,0%,0%);stroke-opacity:1;stroke-miterlimit:3;" d="M 1.417287 77.295861 C 1.417287 76.904194 1.10062 76.585444 0.708953 76.585444 C 0.317286 76.585444 0.00061946 76.904194 0.00061946 77.295861 C 0.00061946 77.685444 0.317286 78.004195 0.708953 78.004195 C 1.10062 78.004195 1.417287 77.685444 1.417287 77.295861 Z " transform="matrix(1.874999,0,0,1.874999,47.881651,-108.464785)"/>
<path style="fill-rule:evenodd;fill:rgb(0%,0%,0%);fill-opacity:1;stroke-width:0.72;stroke-linecap:round;stroke-linejoin:round;stroke:rgb(0%,0%,0%);stroke-opacity:1;stroke-miterlimit:3;" d="M 1.418752 77.295861 C 1.418752 76.904194 1.100002 76.585444 0.708335 76.585444 C 0.316668 76.585444 0.00000124657 76.904194 0.00000124657 77.295861 C 0.00000124657 77.685444 0.316668 78.004195 0.708335 78.004195 C 1.100002 78.004195 1.418752 77.685444 1.418752 77.295861 Z " transform="matrix(1.874999,0,0,1.874999,85.085935,-108.464785)"/>
<path style="fill-rule:evenodd;fill:rgb(0%,0%,0%);fill-opacity:1;stroke-width:0.72;stroke-linecap:round;stroke-linejoin:round;stroke:rgb(0%,0%,0%);stroke-opacity:1;stroke-miterlimit:3;" d="M 1.418739 77.293908 C 1.418739 76.904324 1.099989 76.585574 0.708322 76.585574 C 0.316655 76.585574 -0.0000123358 76.904324 -0.0000123358 77.293908 C -0.0000123358 77.685575 0.316655 78.004325 0.708322 78.004325 C 1.099989 78.004325 1.418739 77.685575 1.418739 77.293908 Z " transform="matrix(1.874999,0,0,1.874999,10.656273,-34.027529)"/>
<path style="fill-rule:evenodd;fill:rgb(0%,0%,0%);fill-opacity:1;stroke-width:0.72;stroke-linecap:round;stroke-linejoin:round;stroke:rgb(0%,0%,0%);stroke-opacity:1;stroke-miterlimit:3;" d="M 1.418387 77.293908 C 1.418387 76.904324 1.099637 76.585574 0.710053 76.585574 C 0.318386 76.585574 -0.000363865 76.904324 -0.000363865 77.293908 C -0.000363865 77.685575 0.318386 78.004325 0.710053 78.004325 C 1.099637 78.004325 1.418387 77.685575 1.418387 77.293908 Z " transform="matrix(1.874999,0,0,1.874999,47.903026,-34.027529)"/>
<path style="fill-rule:evenodd;fill:rgb(0%,0%,0%);fill-opacity:1;stroke-width:0.72;stroke-linecap:round;stroke-linejoin:round;stroke:rgb(0%,0%,0%);stroke-opacity:1;stroke-miterlimit:3;" d="M 1.417869 77.293908 C 1.417869 76.904324 1.101202 76.585574 0.709535 76.585574 C 0.317868 76.585574 -0.000882079 76.904324 -0.000882079 77.293908 C -0.000882079 77.685575 0.317868 78.004325 0.709535 78.004325 C 1.101202 78.004325 1.417869 77.685575 1.417869 77.293908 Z " transform="matrix(1.874999,0,0,1.874999,85.107123,-34.027529)"/>
<path style="fill-rule:evenodd;fill:rgb(0%,0%,0%);fill-opacity:1;stroke-width:0.72;stroke-linecap:round;stroke-linejoin:round;stroke:rgb(0%,0%,0%);stroke-opacity:1;stroke-miterlimit:3;" d="M 1.418739 77.294942 C 1.418739 76.903275 1.099989 76.586608 0.708322 76.586608 C 0.316655 76.586608 -0.0000123358 76.903275 -0.0000123358 77.294942 C -0.0000123358 77.686609 0.316655 78.003276 0.708322 78.003276 C 1.099989 78.003276 1.418739 77.686609 1.418739 77.294942 Z " transform="matrix(1.874999,0,0,1.874999,10.656273,-71.799)"/>
<path style="fill-rule:evenodd;fill:rgb(0%,0%,0%);fill-opacity:1;stroke-width:0.72;stroke-linecap:round;stroke-linejoin:round;stroke:rgb(0%,0%,0%);stroke-opacity:1;stroke-miterlimit:3;" d="M 1.418387 77.294942 C 1.418387 76.903275 1.099637 76.586608 0.710053 76.586608 C 0.318386 76.586608 -0.000363865 76.903275 -0.000363865 77.294942 C -0.000363865 77.686609 0.318386 78.003276 0.710053 78.003276 C 1.099637 78.003276 1.418387 77.686609 1.418387 77.294942 Z " transform="matrix(1.874999,0,0,1.874999,47.903026,-71.799)"/>
<path style="fill-rule:evenodd;fill:rgb(0%,0%,0%);fill-opacity:1;stroke-width:0.72;stroke-linecap:round;stroke-linejoin:round;stroke:rgb(0%,0%,0%);stroke-opacity:1;stroke-miterlimit:3;" d="M 1.417869 77.294942 C 1.417869 76.903275 1.101202 76.586608 0.709535 76.586608 C 0.317868 76.586608 -0.000882079 76.903275 -0.000882079 77.294942 C -0.000882079 77.686609 0.317868 78.003276 0.709535 78.003276 C 1.101202 78.003276 1.417869 77.686609 1.417869 77.294942 Z " transform="matrix(1.874999,0,0,1.874999,85.107123,-71.799)"/>
<path style="fill-rule:evenodd;fill:rgb(0%,0%,0%);fill-opacity:1;stroke-width:0.72;stroke-linecap:round;stroke-linejoin:round;stroke:rgb(0%,0%,0%);stroke-opacity:1;stroke-miterlimit:3;" d="M 1.41843 77.294051 C 1.41843 76.902384 1.099679 76.585718 0.710096 76.585718 C 0.318429 76.585718 -0.000321443 76.902384 -0.000321443 77.294051 C -0.000321443 77.685718 0.318429 78.004469 0.710096 78.004469 C 1.099679 78.004469 1.41843 77.685718 1.41843 77.294051 Z " transform="matrix(1.874999,0,0,1.874999,29.258415,-90.387174)"/>
<path style="fill-rule:evenodd;fill:rgb(0%,0%,0%);fill-opacity:1;stroke-width:0.72;stroke-linecap:round;stroke-linejoin:round;stroke:rgb(0%,0%,0%);stroke-opacity:1;stroke-miterlimit:3;" d="M 1.418128 77.294051 C 1.418128 76.902384 1.101461 76.585718 0.709794 76.585718 C 0.318127 76.585718 -0.000622972 76.902384 -0.000622972 77.294051 C -0.000622972 77.685718 0.318127 78.004469 0.709794 78.004469 C 1.101461 78.004469 1.418128 77.685718 1.418128 77.294051 Z " transform="matrix(1.874999,0,0,1.874999,66.505074,-90.387174)"/>
<path style="fill-rule:evenodd;fill:rgb(0%,0%,0%);fill-opacity:1;stroke-width:0.72;stroke-linecap:round;stroke-linejoin:round;stroke:rgb(0%,0%,0%);stroke-opacity:1;stroke-miterlimit:3;" d="M 1.41843 77.294167 C 1.41843 76.9025 1.099679 76.585833 0.710096 76.585833 C 0.318429 76.585833 -0.000321443 76.9025 -0.000321443 77.294167 C -0.000321443 77.685834 0.318429 78.004584 0.710096 78.004584 C 1.099679 78.004584 1.41843 77.685834 1.41843 77.294167 Z " transform="matrix(1.874999,0,0,1.874999,29.258415,-53.168639)"/>
<path style="fill-rule:evenodd;fill:rgb(0%,0%,0%);fill-opacity:1;stroke-width:0.72;stroke-linecap:round;stroke-linejoin:round;stroke:rgb(0%,0%,0%);stroke-opacity:1;stroke-miterlimit:3;" d="M 1.418128 77.294167 C 1.418128 76.9025 1.101461 76.585833 0.709794 76.585833 C 0.318127 76.585833 -0.000622972 76.9025 -0.000622972 77.294167 C -0.000622972 77.685834 0.318127 78.004584 0.709794 78.004584 C 1.101461 78.004584 1.418128 77.685834 1.418128 77.294167 Z " transform="matrix(1.874999,0,0,1.874999,66.505074,-53.168639)"/>
<path style="fill:none;stroke-width:0.72;stroke-linecap:round;stroke-linejoin:round;stroke:rgb(0%,0%,0%);stroke-opacity:1;stroke-miterlimit:3;" d="M 0.000833883 78.000223 L 51.050873 78.000223 " transform="matrix(1.874999,0,0,1.874999,1.349999,-119.621401)"/>
<path style="fill:none;stroke-width:0.72;stroke-linecap:round;stroke-linejoin:round;stroke:rgb(0%,0%,0%);stroke-opacity:1;stroke-miterlimit:3;" d="M 0.000833883 78.000461 L 51.050873 78.000461 " transform="matrix(1.874999,0,0,1.874999,1.349999,-26.574972)"/>
<path style="fill:none;stroke-width:0.719999;stroke-linecap:round;stroke-linejoin:round;stroke:rgb(0%,0%,0%);stroke-opacity:1;stroke-miterlimit:3;" d="M 0.000833883 1.440663 L 51.052956 1.440663 L 51.052956 78.003222 L 0.000833883 78.003222 Z " transform="matrix(1.874999,0,0,1.874999,1.349999,-1.349679)"/>
<path style="fill-rule:evenodd;fill:rgb(0%,0%,0%);fill-opacity:1;stroke-width:0.72;stroke-linecap:round;stroke-linejoin:round;stroke:rgb(0%,0%,0%);stroke-opacity:1;stroke-miterlimit:3;" d="M 1.417609 77.295861 C 1.417609 76.904194 1.100942 76.585444 0.709275 76.585444 C 0.317608 76.585444 0.00094099 76.904194 0.00094099 77.295861 C 0.00094099 77.685444 0.317608 78.004195 0.709275 78.004195 C 1.100942 78.004195 1.417609 77.685444 1.417609 77.295861 Z " transform="matrix(1.874999,0,0,1.874999,10.634954,-108.464785)"/>
</g>
</svg>
