<?xml version="1.0" encoding="UTF-8"?>
<!--
/*******************************************************************************
* Copyright (c) 2010-2016 ITER Organization.
* All rights reserved. This program and the accompanying materials
* are made available under the terms of the Eclipse Public License v1.0
* which accompanies this distribution, and is available at
* http://www.eclipse.org/legal/epl-v10.html
******************************************************************************/
-->
<svg xmlns="http://www.w3.org/2000/svg" xmlns:xlink="http://www.w3.org/1999/xlink" width="99pt" height="145pt" viewBox="0 0 99 145" version="1.1">
<g id="surface1">
<path style=" stroke:none;fill-rule:evenodd;fill:rgb(100%,100%,100%);fill-opacity:1;" d="M 1.351563 1.34375 L 1.378906 1.34375 L 1.378906 1.375 L 1.351563 1.375 Z "/>
<path style=" stroke:none;fill-rule:evenodd;fill:rgb(100%,100%,100%);fill-opacity:1;" d="M 97.019531 144.324219 L 97.050781 144.324219 L 97.050781 144.355469 L 97.019531 144.355469 Z "/>
<path style="fill-rule:evenodd;fill:rgb(100%,100%,100%);fill-opacity:1;stroke-width:0.72;stroke-linecap:round;stroke-linejoin:round;stroke:rgb(0%,0%,0%);stroke-opacity:1;stroke-miterlimit:3;" d="M -0.000915929 44.900762 L -0.000915929 77.979067 L 6.380344 77.979067 L 6.380344 62.400509 C 2.269921 57.567226 0.00116741 51.343746 -0.000915929 44.900762 Z M 51.019996 44.900762 C 51.128329 35.37426 46.290822 26.522997 38.35331 21.725252 C 30.415798 16.929598 20.605366 16.929598 12.66577 21.725252 C 4.728258 26.522997 -0.109249 35.37426 -0.000915929 44.900762 C -0.109249 54.427264 4.728258 63.278527 12.66577 68.074181 C 20.605366 72.869835 30.415798 72.869835 38.35331 68.074181 C 46.290822 63.278527 51.128329 54.427264 51.019996 44.900762 Z M 44.649153 62.400509 L 44.649153 77.979067 L 51.019996 77.979067 L 51.019996 44.900762 C 51.022079 51.343746 48.757492 57.565135 44.649153 62.400509 Z " transform="matrix(1.874997,0,0,1.868554,1.364999,-17.235428)"/>
</g>
</svg>
