<?xml version="1.0" encoding="UTF-8"?>
<!--
/*******************************************************************************
* Copyright (c) 2010-2016 ITER Organization.
* All rights reserved. This program and the accompanying materials
* are made available under the terms of the Eclipse Public License v1.0
* which accompanies this distribution, and is available at
* http://www.eclipse.org/legal/epl-v10.html
******************************************************************************/
-->
<svg xmlns="http://www.w3.org/2000/svg" xmlns:xlink="http://www.w3.org/1999/xlink" width="65pt" height="81pt" viewBox="0 0 65 81" version="1.1">
<g id="surface1">
<path style="fill:none;stroke-width:0.01;stroke-linecap:round;stroke-linejoin:round;stroke:rgb(100%,100%,100%);stroke-opacity:1;stroke-miterlimit:3;" d="M 0.000294674 43.221709 L 0.029237 43.221709 L 0.029237 43.248792 L 0.000294674 43.248792 Z " transform="matrix(1.889534,0,0,1.874999,0.0189745,-81.021135)"/>
<path style="fill:none;stroke-width:0.01;stroke-linecap:round;stroke-linejoin:round;stroke:rgb(100%,100%,100%);stroke-opacity:1;stroke-miterlimit:3;" d="M -0.000551148 43.220512 L 0.0283912 43.220512 L 0.0283912 43.249678 L -0.000551148 43.249678 Z " transform="matrix(1.889534,0,0,1.874999,64.239323,-1.468109)"/>
<path style=" stroke:none;fill-rule:evenodd;fill:rgb(100%,100%,100%);fill-opacity:1;" d="M 46.074219 55.820313 L 18.238281 55.820313 C 21.109375 60.753906 26.414063 63.792969 32.15625 63.792969 C 37.898438 63.792969 43.203125 60.753906 46.074219 55.820313 Z M 46.074219 55.820313 C 43.203125 50.882813 37.898438 47.84375 32.15625 47.84375 C 26.414063 47.84375 21.109375 50.882813 18.238281 55.820313 Z "/>
<path style="fill:none;stroke-width:0.72;stroke-linecap:round;stroke-linejoin:round;stroke:rgb(0%,0%,0%);stroke-opacity:1;stroke-miterlimit:3;" d="M 14.730614 30.490847 L -0.00102779 30.490847 C 1.518444 33.122098 4.325849 34.742932 7.364793 34.742932 C 10.403737 34.742932 13.211142 33.122098 14.730614 30.490847 " transform="matrix(1.889534,0,0,1.874999,18.240223,-1.349999)"/>
<path style="fill:none;stroke-width:0.72;stroke-linecap:round;stroke-linejoin:round;stroke:rgb(0%,0%,0%);stroke-opacity:1;stroke-miterlimit:3;" d="M 14.730614 30.490847 C 13.211142 27.857513 10.403737 26.236678 7.364793 26.236678 C 4.325849 26.236678 1.518444 27.857513 -0.00102779 30.490847 L 14.730614 30.490847 " transform="matrix(1.889534,0,0,1.874999,18.240223,-1.349999)"/>
<path style="fill:none;stroke-width:0.72;stroke-linecap:round;stroke-linejoin:round;stroke:rgb(0%,0%,0%);stroke-opacity:1;stroke-miterlimit:3;" d="M 7.360658 43.249186 L 7.360658 34.749182 " transform="matrix(1.889534,0,0,1.874999,18.240223,-1.349999)"/>
</g>
</svg>
