<?xml version="1.0" encoding="UTF-8"?>
<!--
/*******************************************************************************
* Copyright (c) 2010-2016 ITER Organization.
* All rights reserved. This program and the accompanying materials
* are made available under the terms of the Eclipse Public License v1.0
* which accompanies this distribution, and is available at
* http://www.eclipse.org/legal/epl-v10.html
******************************************************************************/
-->
<svg xmlns="http://www.w3.org/2000/svg" xmlns:xlink="http://www.w3.org/1999/xlink" width="68pt" height="68pt" viewBox="0 0 68 68" version="1.1">
<g id="surface1">
<path style="fill-rule:evenodd;fill:rgb(100%,100%,100%);fill-opacity:1;stroke-width:1;stroke-linecap:round;stroke-linejoin:round;stroke:rgb(0%,0%,0%);stroke-opacity:1;stroke-miterlimit:3;" d="M 34.015656 19.008288 C 34.015656 9.615357 26.401219 2.00092 17.008288 2.00092 C 7.615357 2.00092 0.000920007 9.615357 0.000920007 19.008288 C 0.000920007 28.401219 7.615357 36.015656 17.008288 36.015656 C 26.401219 36.015656 34.015656 28.401219 34.015656 19.008288 Z " transform="matrix(1.888887,0,0,1.888887,1.888887,-1.888887)"/>
<path style="fill:none;stroke-width:0.750001;stroke-linecap:round;stroke-linejoin:round;stroke:rgb(0%,0%,0%);stroke-opacity:1;stroke-miterlimit:3;" d="M 2.180783 36.020357 L 2.180783 29.489561 L 2.199395 29.379956 L 2.199395 29.369616 L 2.220075 29.291031 L 2.240756 29.249671 L 2.259368 29.169018 L 2.259368 29.140066 L 2.300728 29.059413 L 2.34002 29.049073 L 2.399993 28.970489 L 2.420673 28.939468 L 2.480646 28.889836 L 2.499258 28.889836 L 2.55923 28.850544 L 2.57991 28.850544 L 2.639883 28.809183 L 2.660563 28.809183 L 2.720536 28.780231 L 2.8198 28.780231 L 2.859093 28.769891 L 3.020398 28.769891 L 3.03901 28.780231 L 3.140343 28.780231 L 3.200315 28.809183 L 3.220996 28.809183 L 3.29958 28.819523 L 3.32026 28.819523 L 3.380233 28.850544 L 3.419525 28.860884 L 3.489838 28.900176 L 3.500178 28.929128 L 3.57049 28.970489 L 3.58083 28.970489 L 3.649075 29.020121 L 3.659415 29.049073 L 3.729728 29.100774 L 3.740068 29.129726 L 3.82072 29.210379 L 3.891033 29.260011 L 4.01925 29.450269 L 4.130923 29.609506 L 4.219847 29.739791 L 4.29016 29.899028 L 4.339792 30.060333 L 4.420445 30.250591 L 4.459737 30.409828 L 4.49903 30.579406 L 4.54039 30.769663 L 4.579682 30.930968 L 4.579682 31.489333 L 4.569342 31.660978 L 4.54039 31.849168 L 4.49903 32.020813 L 4.459737 32.209003 L 4.410105 32.370308 L 4.339792 32.529545 L 4.25914 32.69085 L 4.180555 32.850088 L 4.099903 33.009325 L 4.010978 33.12927 L 3.899305 33.269895 L 3.81038 33.41052 L 3.659415 33.509785 L 3.57049 33.60905 L 3.419525 33.710383 L 3.29958 33.809647 L 3.161023 33.86962 L 2.879773 33.989565 L 2.720536 34.030925 L 2.57991 34.049537 L 2.420673 34.070217 L 2.280048 34.090898 L 2.139423 34.070217 L 1.980186 34.049537 L 1.83956 34.030925 L 1.701003 33.989565 L 1.539698 33.929592 L 1.419753 33.86962 L 1.260516 33.788967 L 1.130231 33.710383 L 1.010286 33.60905 L 0.890341 33.489105 L 0.770396 33.38984 L 0.650451 33.249215 L 0.569798 33.12927 L 0.480874 32.980373 L 0.369201 32.850088 L 0.290616 32.69085 L 0.240984 32.529545 L 0.170671 32.339288 L 0.118971 32.18005 L 0.0796784 32.010473 L 0.0403861 31.820215 L 0.00936581 31.650638 L -0.000974271 31.460381 L -0.000974271 31.100546 L 0.00936581 30.930968 L 0.0403861 30.740711 L 0.0796784 30.569065 L 0.118971 30.380876 L 0.170671 30.209231 L 0.209963 30.049993 L 0.290616 29.890756 L 0.369201 29.729451 " transform="matrix(1.888887,0,0,1.888887,29.68934,-27.167298)"/>
</g>
</svg>
