<?xml version="1.0" encoding="UTF-8" standalone="no"?>
<!DOCTYPE svg PUBLIC "-//W3C//DTD SVG 1.0//EN" "C:\SeeVisioDTD\svg10.dtd">
<!-- Generated by Microsoft Visio 11.0, SVG Export, v1.0 OL_EE0122.svg Page-1 -->
<!--
/*******************************************************************************
* Copyright (c) 2010-2014 ITER Organization.
* All rights reserved. This program and the accompanying materials
* are made available under the terms of the Eclipse Public License v1.0
* which accompanies this distribution, and is available at
* http://www.eclipse.org/legal/epl-v10.html
******************************************************************************/
-->
<svg xmlns="http://www.w3.org/2000/svg" xmlns:v="http://schemas.microsoft.com/visio/2003/SVGExtensions/" width="0.374331in"
		height="1.09072in" viewBox="0 0 26.9518 78.5318" xml:space="preserve" color-interpolation-filters="sRGB" class="st13">
	<v:documentProperties v:langID="1036" v:metric="true" v:viewMarkup="false"/>

	<style type="text/css">
	<![CDATA[
		.st1 {fill:#ffffff;stroke:none;stroke-linecap:butt;stroke-width:0.72}
		.st2 {fill:none;stroke:none;stroke-linecap:butt;stroke-width:1}
		.st3 {fill:none}
		.st4 {stroke:#000000;stroke-linecap:butt;stroke-width:1}
		.st5 {stroke:#000000;stroke-dasharray:2.88,1.44;stroke-linecap:butt;stroke-width:0.72}
		.st6 {fill:none;stroke:#000000;stroke-linecap:butt;stroke-width:0.72}
		.st7 {stroke:#000000;stroke-linecap:round;stroke-linejoin:round;stroke-width:0.999997}
		.st8 {fill:none;stroke:none;stroke-width:0.999994}
		.st9 {fill:none;stroke:none;stroke-width:0.999997}
		.st10 {stroke:#000000;stroke-linecap:butt;stroke-width:0.999994}
		.st11 {stroke:#000000;stroke-linecap:round;stroke-linejoin:round;stroke-width:0.999994}
		.st12 {fill:none;stroke:none;stroke-linecap:round;stroke-linejoin:round;stroke-width:0.999997}
		.st13 {fill:none;fill-rule:evenodd;font-size:12;overflow:visible;stroke-linecap:square;stroke-miterlimit:3}
	]]>
	</style>

	<g v:mID="0" v:index="1" v:groupContext="foregroundPage">
		<title>Page-1</title>
		<v:pageProperties v:drawingScale="0.0393701" v:pageScale="0.0393701" v:drawingUnits="24" v:shadowOffsetX="8.50394"
				v:shadowOffsetY="-8.50394"/>
		<v:layer v:name="EQ" v:index="0"/>
		<g id="group1-1" transform="translate(0.72,-1.05488)" v:mID="1" v:groupContext="group">
			<title>Feuille.1</title>
			<g id="shape2-2" v:mID="2" v:groupContext="shape" transform="translate(0,-76.4876)">
				<title>Feuille.2</title>
				<rect x="0" y="78.484" width="0.0159449" height="0.0478347" class="st1"/>
			</g>
			<g id="shape3-4" v:mID="3" v:groupContext="shape" transform="translate(25.4959,0)">
				<title>Feuille.3</title>
				<rect x="0" y="78.484" width="0.0159449" height="0.0478347" class="st1"/>
			</g>
		</g>
		<g id="group4-6" transform="translate(4.97399,-0.999997)" v:mID="4" v:groupContext="group">
			<title>Sheet.4</title>
			<g id="group5-7" transform="translate(87.0358,2) rotate(90)" v:mID="5" v:groupContext="group">
				<title>Feuille.4</title>
				<g id="shape6-8" v:mID="6" v:groupContext="shape">
					<title>Sheet.6</title>
					<path d="M0 78.53 L17.01 78.53 L0 78.53 Z" class="st2"/>
				</g>
				<g id="shape7-10" v:mID="7" v:groupContext="shape">
					<title>Sheet.7</title>
					<path d="M0 78.53 L17.01 78.53 L0 78.53 Z" class="st3"/>
					<path d="M0 78.53 L17.01 78.53" class="st4"/>
				</g>
			</g>
			<g id="shape8-13" v:mID="8" v:groupContext="shape" transform="translate(-9.99201E-016,-25.5118)">
				<title>Sheet.8</title>
				<path d="M0 44.52 L8.5 61.53 L8.5 78.53 L0 44.52 Z" class="st2"/>
			</g>
			<g id="group9-15" transform="translate(59.7823,-40.7807) rotate(45)" v:mID="9" v:groupContext="group">
				<title>Feuille.6</title>
				<g id="shape10-16" v:mID="10" v:groupContext="shape">
					<title>Sheet.10</title>
					<path d="M0 78.53 L12.03 78.53 L0 78.53 Z" class="st2"/>
				</g>
				<g id="shape11-18" v:mID="11" v:groupContext="shape">
					<title>Sheet.11</title>
					<path d="M0 78.53 L12.03 78.53 L0 78.53 Z" class="st3"/>
					<path d="M0 78.53 L12.03 78.53" class="st4"/>
				</g>
			</g>
			<g id="group12-21" transform="translate(68.2863,70.2827) rotate(135)" v:mID="12" v:groupContext="group">
				<title>Feuille.7</title>
				<g id="shape13-22" v:mID="13" v:groupContext="shape">
					<title>Sheet.13</title>
					<path d="M0 78.53 L12.03 78.53 L0 78.53 Z" class="st2"/>
				</g>
				<g id="shape14-24" v:mID="14" v:groupContext="shape">
					<title>Sheet.14</title>
					<path d="M0 78.53 L12.03 78.53 L0 78.53 Z" class="st3"/>
					<path d="M0 78.53 L12.03 78.53" class="st4"/>
				</g>
			</g>
			<g id="shape15-27" v:mID="15" v:groupContext="shape" transform="translate(2.11463,-9.94961)">
				<title>Sheet.15</title>
				<path d="M1.42 78.53 L0 78.53 L0 38.4 L2.6 38.4 L1.42 78.53 Z" class="st3"/>
				<path d="M1.42 78.53 L0 78.53 L0 38.4 L2.6 38.4" class="st5"/>
			</g>
			<g id="shape16-30" v:mID="16" v:groupContext="shape" transform="translate(3.53894,-7.0859)">
				<title>Sheet.16</title>
				<path d="M7.1 72.86 L2.84 72.86 A2.835 2.835 -180 0 0 2.84 78.53 L7.1 78.53 A2.835 2.835 -180 0 0 7.1 72.86 Z"
						class="st6"/>
			</g>
			<g id="shape17-32" v:mID="17" v:groupContext="shape" transform="translate(-4.996E-016,-38.2677)">
				<title>Sheet.17</title>
				<path d="M0 57.28 L8.5 74.29 L8.5 78.53" class="st4"/>
			</g>
			<g id="shape18-35" v:mID="18" v:groupContext="shape" transform="translate(8.50394,-29.7638)">
				<title>Sheet.18</title>
				<path d="M0 70.02 L8.5 70.02 L8.5 78.53 L0 78.53 L0 70.02 Z" class="st3"/>
				<path d="M0 70.02 L8.5 70.02 L8.5 78.53 L0 78.53" class="st7"/>
			</g>
			<g id="group19-38" transform="translate(12.7559,131.55) rotate(180)" v:mID="19" v:groupContext="group"
					v:layerMember="0">
				<title>Feuille.1401</title>
				<g id="shape20-39" v:mID="20" v:groupContext="shape" v:layerMember="0">
					<title>Feuille.7</title>
					<path d="M4.25 70.02 A4.25499 4.25197 -90 1 0 4.25 78.53 L4.25 70.02 Z" class="st8"/>
				</g>
				<g id="group21-41" v:mID="21" v:groupContext="group">
					<title>Feuille.8</title>
					<g id="shape22-42" v:mID="22" v:groupContext="shape" v:layerMember="0">
						<title>Feuille.7</title>
						<path d="M4.25 70.02 A4.25499 4.25197 -90 1 0 4.25 78.53 L4.25 70.02 Z" class="st8"/>
					</g>
					<g id="group23-44" v:mID="23" v:groupContext="group">
						<title>Feuille.8</title>
						<g id="shape24-45" v:mID="24" v:groupContext="shape" v:layerMember="0">
							<title>Sheet.24</title>
							<path d="M4.25 70.02 A4.25499 4.25197 -90 1 0 4.25 78.53 L4.25 70.02 Z" class="st9"/>
						</g>
						<g id="shape25-47" v:mID="25" v:groupContext="shape" v:layerMember="0">
							<title>Sheet.25</title>
							<path d="M4.25 70.02 A4.25499 4.25197 -90 1 0 4.25 78.53 L4.25 70.02 Z" class="st3"/>
							<path d="M4.25 70.02 A4.25499 4.25197 -90 1 0 4.25 78.53" class="st10"/>
						</g>
					</g>
				</g>
			</g>
			<g id="group26-50" transform="translate(86.9741,48.768) rotate(90)" v:mID="26" v:groupContext="group">
				<title>Feuille.25</title>
				<g id="shape27-51" v:mID="27" v:groupContext="shape">
					<title>Sheet.27</title>
					<path d="M0 78.53 L4.25 78.53 L0 78.53 Z" class="st9"/>
				</g>
				<g id="shape28-53" v:mID="28" v:groupContext="shape">
					<title>Sheet.28</title>
					<path d="M0 78.53 L4.25 78.53 L0 78.53 Z" class="st3"/>
					<path d="M0 78.53 L4.25 78.53" class="st11"/>
				</g>
			</g>
			<g id="group29-56" transform="translate(87.0358,61.5239) rotate(90)" v:mID="29" v:groupContext="group">
				<title>Feuille.10</title>
				<g id="shape30-57" v:mID="30" v:groupContext="shape">
					<title>Sheet.30</title>
					<path d="M0 78.53 L17.01 78.53 L0 78.53 Z" class="st12"/>
				</g>
				<g id="shape31-59" v:mID="31" v:groupContext="shape">
					<title>Sheet.31</title>
					<path d="M0 78.53 L17.01 78.53 L0 78.53 Z" class="st3"/>
					<path d="M0 78.53 L17.01 78.53" class="st11"/>
				</g>
			</g>
		</g>
	</g>
</svg>
