<?xml version="1.0" encoding="UTF-8"?>
<!--
/*******************************************************************************
* Copyright (c) 2010-2016 ITER Organization.
* All rights reserved. This program and the accompanying materials
* are made available under the terms of the Eclipse Public License v1.0
* which accompanies this distribution, and is available at
* http://www.eclipse.org/legal/epl-v10.html
******************************************************************************/
-->
<svg xmlns="http://www.w3.org/2000/svg" xmlns:xlink="http://www.w3.org/1999/xlink" width="51pt" height="51pt" viewBox="0 0 51 51" version="1.1">
<g id="surface1">
<path style=" stroke:none;fill-rule:evenodd;fill:rgb(100%,100%,100%);fill-opacity:1;" d="M 49.179688 25.273438 C 49.285156 16.664063 44.746094 8.660156 37.304688 4.324219 C 29.863281 -0.0117188 20.667969 -0.0117188 13.226563 4.324219 C 5.785156 8.660156 1.246094 16.664063 1.351563 25.273438 C 1.246094 33.886719 5.785156 41.890625 13.226563 46.226563 C 20.667969 50.558594 29.863281 50.558594 37.304688 46.226563 C 44.746094 41.890625 49.285156 33.886719 49.179688 25.273438 Z "/>
<path style="fill:none;stroke-width:0.72;stroke-linecap:round;stroke-linejoin:round;stroke:rgb(0%,0%,0%);stroke-opacity:1;stroke-miterlimit:3;" d="M 6.379992 3.149164 L 23.800804 7.819992 " transform="matrix(1.875002,0,0,1.875002,1.350002,-1.350002)"/>
<path style="fill:none;stroke-width:0.72;stroke-linecap:round;stroke-linejoin:round;stroke:rgb(0%,0%,0%);stroke-opacity:1;stroke-miterlimit:3;" d="M 21.259141 14.199151 C 18.63831 15.863732 15.534147 16.094982 12.975817 14.815817 C 10.41957 13.536651 8.740405 10.915821 8.500822 7.819992 " transform="matrix(1.875002,0,0,1.875002,1.350002,-1.350002)"/>
<path style="fill:none;stroke-width:0.72;stroke-linecap:round;stroke-linejoin:round;stroke:rgb(0%,0%,0%);stroke-opacity:1;stroke-miterlimit:3;" d="M 25.509136 14.199151 C 25.565385 9.607489 23.144555 5.338745 19.17581 3.026247 C 15.207064 0.71375 10.302904 0.71375 6.334158 3.026247 C 2.365413 5.338745 -0.0554175 9.607489 0.000832477 14.199151 C -0.0554175 18.792895 2.365413 23.06164 6.334158 25.374137 C 10.302904 27.684551 15.207064 27.684551 19.17581 25.374137 C 23.144555 23.06164 25.565385 18.792895 25.509136 14.199151 " transform="matrix(1.875002,0,0,1.875002,1.350002,-1.350002)"/>
<path style="fill:none;stroke-width:0.72;stroke-linecap:round;stroke-linejoin:round;stroke:rgb(0%,0%,0%);stroke-opacity:1;stroke-miterlimit:3;" d="M 6.379992 25.240804 L 23.800804 20.569976 " transform="matrix(1.875002,0,0,1.875002,1.350002,-1.350002)"/>
<path style="fill:none;stroke-width:0.72;stroke-linecap:round;stroke-linejoin:round;stroke:rgb(0%,0%,0%);stroke-opacity:1;stroke-miterlimit:3;" d="M 8.500822 20.569976 C 9.667488 13.651235 15.023731 10.976238 21.259141 14.199151 " transform="matrix(1.875002,0,0,1.875002,1.350002,-1.350002)"/>
<path style="fill:none;stroke-width:0.72;stroke-linecap:round;stroke-linejoin:round;stroke:rgb(0%,0%,0%);stroke-opacity:1;stroke-miterlimit:3;" d="M 8.500822 20.569976 C 10.90707 20.219977 12.732067 17.46998 12.732067 14.194984 C 12.732067 10.919988 10.90707 8.169991 8.500822 7.819992 " transform="matrix(1.875002,0,0,1.875002,1.350002,-1.350002)"/>
<path style="fill:none;stroke-width:0.72;stroke-linecap:round;stroke-linejoin:round;stroke:rgb(0%,0%,0%);stroke-opacity:1;stroke-miterlimit:3;" d="M 3.829995 7.819992 L 3.829995 20.569976 " transform="matrix(1.875002,0,0,1.875002,1.350002,-1.350002)"/>
</g>
</svg>
