/* XPM */
static char *noname[] = {
/* width height ncolors chars_per_pixel */
"48 48 24 1",
/* colors */
"  c #413982",
". c #453A7C",
"X c #E9E9F5",
"o c #DAD8F0",
"O c #4D468A",
"+ c #EEEDE9",
"@ c #302774",
"# c #696498",
"$ c #A19CC5",
"% c #CBCBD7",
"& c #9491AE",
"* c #A4A2B7",
"= c #322968",
"- c #E3E3E7",
"; c #8984B3",
": c #50468B",
"> c #827EA4",
", c #2F2A6D",
"< c #B2AECC",
"1 c #B4B5CA",
"2 c #EDEBF8",
"3 c #312E6A",
"4 c white",
"5 c None",
/* pixels */
"444444444444444444444444444444444444444444444444",
"444444444444444444444444444444444444444444444444",
"444444444444444444444444444444444444444444444444",
"444444444444444444444444444444444444444444444444",
"444444444444444444444444444444444444444444444444",
"444444444444444444444444444444444444444444444444",
"444444444444444444444444444444444444444444444444",
"444444444444444444444444444444444444444444444444",
"444444444444444444444444444444444444444444444444",
"444444444444444444444444444444444444444444444444",
"444444444444444444444444444444444444444444444444",
"444444444444444444444444444444444444444444444444",
"444444444444244444444444444444444444444444444444",
"444444444444444444444+4444444+444444444444444444",
"444444444444444444444444444444444444444444444444",
"444444444444444444444444444444444444444444444444",
"4444444X242X444X4444444X242444442444442X2444444X",
"44444+X+4-X+444444444-X-4-X+444444444-X-4-X44444",
"44444X2X2X2X2X4444444X2X2X2X444444442X2X2X2X4444",
"444>;&444444o>$-44X>;+44444-$>X4441>o444444&;<44",
"44>@=%44444423=;44<@:444444X:@&44o3@2444444$=344",
"4- 3144444444<O%441=#4444+44o.;44-O@4444444+##X4",
"41= -444444444444423=$-44444444444>,#12444444444",
"4&3.444444444444444<,= .#%X4444444X3,3O.1%444444",
"4$=O44444444444444442#. =@=,;X442444;33,=@=O-444",
"4&,.4444444444444+4444X%$>#=,.X4444444X$$# =3*44",
"41= 24444444444444444444442%:,>4444444444X2>= 24",
"4% =144444444-3#X4@=X4444444X3 -4#@>44444444#=14",
"44&#<44444444%>;24>#244444442>>X41#$44444444<#<4",
"444444444444444444444+444+44444444444+4444444444",
"442X4X4X4X-X4X4>442X4X2X2X2X4X2X442X%X244$<o4X44",
"4$1&1&o&1&1&1&o*4%$&1&1&1&1&1&$&4+$%;<o<%&1%1$14",
"2#%1<$<$>1<$<1&$2%>1;$<#<$>1<1&$2X>$;$<;<$>$>o#X",
"4-1-o<X%o-1<4&X<4-1+$-X<4%o%o%X%X+1-o%1%o*1%4&X4",
"44444444444444444444<444444444444444444444444444",
"44444444444444444444444+444444444444444444444444",
"444444444444444444444444444444444444444444444444",
"444444444444444444444444444444444444444444444444",
"444444444444444444444444444444444444444444444444",
"444444444444444444444444444444444444444444444444",
"444444444444444444444444444444444444444444444444",
"444444444444444444444444444444444444444444444444",
"444444444444444444444444444444444444444444444444",
"444444444444444444444444444444444444444444444444",
"444444444444444444444444444444444444444444444444",
"444444444444444444444444444444444444444444444444",
"444444444444444444444444444444444444444444444444",
"444444444444444444444444444444444444444444444444"
};
