<?xml version="1.0" encoding="UTF-8"?>
<!--
/*******************************************************************************
* Copyright (c) 2010-2016 ITER Organization.
* All rights reserved. This program and the accompanying materials
* are made available under the terms of the Eclipse Public License v1.0
* which accompanies this distribution, and is available at
* http://www.eclipse.org/legal/epl-v10.html
******************************************************************************/
-->
<svg xmlns="http://www.w3.org/2000/svg" xmlns:xlink="http://www.w3.org/1999/xlink" width="51pt" height="99pt" viewBox="0 0 51 99" version="1.1">
<g id="surface1">
<path style=" stroke:none;fill-rule:evenodd;fill:rgb(100%,100%,100%);fill-opacity:1;" d="M 1.351563 1.875 L 1.378906 1.875 L 1.378906 1.933594 L 1.351563 1.933594 Z "/>
<path style=" stroke:none;fill-rule:evenodd;fill:rgb(100%,100%,100%);fill-opacity:1;" d="M 49.15625 97.484375 L 49.183594 97.484375 L 49.183594 97.542969 L 49.15625 97.542969 Z "/>
<path style="fill:none;stroke-width:1;stroke-linecap:round;stroke-linejoin:round;stroke:rgb(0%,0%,0%);stroke-opacity:1;stroke-miterlimit:3;" d="M -0.000000150886 53.020033 L 17.010414 53.020033 " transform="matrix(0.000000000000000115,1.875,-1.875,0.000000000000000115,124.65867,1.875)"/>
<path style="fill:none;stroke-width:1;stroke-linecap:round;stroke-linejoin:round;stroke:rgb(0%,0%,0%);stroke-opacity:1;stroke-miterlimit:3;" d="M -0.0000947154 19.010414 L 8.499904 36.020828 L 8.499904 53.020825 " transform="matrix(1.875,0,0,1.875,9.304865,-1.875)"/>
<path style="fill:none;stroke-width:1;stroke-linecap:round;stroke-linejoin:round;stroke:rgb(0%,0%,0%);stroke-opacity:1;stroke-miterlimit:3;" d="M 0.000930005 53.020114 L 8.500929 53.020114 " transform="matrix(0.000000000000000115,1.875,-1.875,0.000000000000000115,101.756479,41.357631)"/>
<path style="fill:none;stroke-width:1;stroke-linecap:round;stroke-linejoin:round;stroke:rgb(0%,0%,0%);stroke-opacity:1;stroke-miterlimit:3;" d="M 0.00042913 53.020129 L 4.250428 53.020129 " transform="matrix(1.875,0,0,1.875,2.944508,-49.709633)"/>
</g>
</svg>
