<?xml version="1.0" encoding="UTF-8"?>
<!--
/*******************************************************************************
* Copyright (c) 2010-2016 ITER Organization.
* All rights reserved. This program and the accompanying materials
* are made available under the terms of the Eclipse Public License v1.0
* which accompanies this distribution, and is available at
* http://www.eclipse.org/legal/epl-v10.html
******************************************************************************/
-->
<svg xmlns="http://www.w3.org/2000/svg" xmlns:xlink="http://www.w3.org/1999/xlink" width="51pt" height="99pt" viewBox="0 0 51 99" version="1.1">
<g id="surface1">
<path style=" stroke:none;fill-rule:evenodd;fill:rgb(100%,100%,100%);fill-opacity:1;" d="M 1.351563 1.875 L 1.378906 1.875 L 1.378906 1.933594 L 1.351563 1.933594 Z "/>
<path style=" stroke:none;fill-rule:evenodd;fill:rgb(100%,100%,100%);fill-opacity:1;" d="M 49.15625 97.484375 L 49.183594 97.484375 L 49.183594 97.542969 L 49.15625 97.542969 Z "/>
<path style="fill:none;stroke-width:1;stroke-linecap:round;stroke-linejoin:round;stroke:rgb(0%,0%,0%);stroke-opacity:1;stroke-miterlimit:3;" d="M -0.000000150886 53.020319 L 17.010414 53.020319 " transform="matrix(0.000000000000000115,1.875,-1.875,0.000000000000000115,124.686551,1.875)"/>
<path style="fill:none;stroke-width:1;stroke-linecap:round;stroke-linejoin:round;stroke:rgb(0%,0%,0%);stroke-opacity:1;stroke-miterlimit:3;" d="M 8.509264 18.533331 L 8.500931 36.020828 L 8.500931 53.020825 " transform="matrix(1.875,0,0,1.875,9.322471,-1.875)"/>
<path style="fill:none;stroke-width:1;stroke-linecap:round;stroke-linejoin:round;stroke:rgb(0%,0%,0%);stroke-opacity:1;stroke-miterlimit:3;" d="M 0.00103419 53.020186 L 12.030686 53.020186 " transform="matrix(1.325825,1.325825,-1.325825,1.325825,87.594921,-44.507819)"/>
<path style="fill:none;stroke-width:1;stroke-linecap:round;stroke-linejoin:round;stroke:rgb(0%,0%,0%);stroke-opacity:1;stroke-miterlimit:3;" d="M -0.000729805 53.019507 L 12.030396 53.02098 " transform="matrix(-1.325825,1.325825,-1.325825,-1.325825,103.539736,96.092452)"/>
<path style="fill:none;stroke-width:0.72;stroke-linecap:round;stroke-linejoin:round;stroke:rgb(0%,0%,0%);stroke-opacity:1;stroke-dasharray:2.16,2.16;stroke-miterlimit:3;" d="M 1.419635 53.019594 L 0.000884964 53.019594 L 0.000884964 41.619596 L 6.502967 41.648763 " transform="matrix(1.875,0,0,1.875,13.287403,-26.568004)"/>
<path style="fill:none;stroke-width:0.72;stroke-linecap:round;stroke-linejoin:round;stroke:rgb(0%,0%,0%);stroke-opacity:1;stroke-miterlimit:3;" d="M 7.089814 47.349578 L 2.829398 47.349578 C 1.264815 47.349578 -0.00601858 48.618328 -0.00601858 50.184994 C -0.00601858 51.751661 1.264815 53.02041 2.829398 53.02041 L 7.089814 53.02041 C 8.65648 53.02041 9.92523 51.751661 9.92523 50.184994 C 9.92523 48.618328 8.65648 47.349578 7.089814 47.349578 Z " transform="matrix(1.875,0,0,1.875,15.944879,-21.253128)"/>
</g>
</svg>
