<?xml version="1.0" encoding="UTF-8"?>
<!--
/*******************************************************************************
* Copyright (c) 2010-2016 ITER Organization.
* All rights reserved. This program and the accompanying materials
* are made available under the terms of the Eclipse Public License v1.0
* which accompanies this distribution, and is available at
* http://www.eclipse.org/legal/epl-v10.html
******************************************************************************/
-->
<svg xmlns="http://www.w3.org/2000/svg" xmlns:xlink="http://www.w3.org/1999/xlink" width="51pt" height="99pt" viewBox="0 0 51 99" version="1.1">
<g id="surface1">
<path style="fill:none;stroke-width:1;stroke-linecap:butt;stroke-linejoin:miter;stroke:rgb(0%,0%,0%);stroke-opacity:1;stroke-miterlimit:3;" d="M -0.000414099 53.019691 L 17.01 53.019691 Z " transform="matrix(0.000000000000000115,-1.875,1.875,0.000000000000000115,-74.173654,33.768755)"/>
<path style="fill:none;stroke-width:1;stroke-linecap:round;stroke-linejoin:round;stroke:rgb(0%,0%,0%);stroke-opacity:1;stroke-miterlimit:3;" d="M 0.000299376 53.01925 L 4.810098 53.020723 " transform="matrix(1.325825,1.325825,-1.325825,1.325825,95.520434,-60.704822)"/>
<path style="fill:none;stroke-width:1;stroke-linecap:round;stroke-linejoin:round;stroke:rgb(0%,0%,0%);stroke-opacity:1;stroke-miterlimit:3;" d="M 0.000371496 53.020959 L 4.81017 53.019486 " transform="matrix(-1.325825,1.325825,-1.325825,-1.325825,95.519684,79.885887)"/>
<path style="fill:none;stroke-width:1;stroke-linecap:butt;stroke-linejoin:miter;stroke:rgb(0%,0%,0%);stroke-opacity:1;stroke-miterlimit:3;" d="M 4.120036 44.520505 C 1.82212 44.589255 -0.00288008 46.472588 -0.00288008 48.770505 C -0.00288008 51.068421 1.82212 52.949671 4.120036 53.020504 " transform="matrix(1.875,0,0,1.875,18.044463,-66.182992)"/>
<path style="fill:none;stroke-width:1;stroke-linecap:round;stroke-linejoin:round;stroke:rgb(0%,0%,0%);stroke-opacity:1;stroke-miterlimit:3;" d="M -0.0002048 53.018746 L 4.809594 53.020219 " transform="matrix(1.325825,1.325825,-1.325825,1.325825,95.520434,-64.691766)"/>
<path style="fill:none;stroke-width:1;stroke-linecap:round;stroke-linejoin:round;stroke:rgb(0%,0%,0%);stroke-opacity:1;stroke-miterlimit:3;" d="M 0.00105524 53.020276 L 4.809381 53.020276 " transform="matrix(-1.325825,1.325825,-1.325825,-1.325825,95.519684,76.165324)"/>
<path style="fill-rule:evenodd;fill:rgb(100%,100%,100%);fill-opacity:1;stroke-width:0.999999;stroke-linecap:butt;stroke-linejoin:miter;stroke:rgb(0%,0%,0%);stroke-opacity:1;stroke-miterlimit:3;" d="M 0.000121854 53.019889 L 4.818959 52.409856 L 4.680424 41.939048 L -0.000447899 42.539879 Z " transform="matrix(1.670637,-0.851232,0.851232,1.670637,-26.90979,-27.080817)"/>
<path style="fill:none;stroke-width:1;stroke-linecap:butt;stroke-linejoin:miter;stroke:rgb(0%,0%,0%);stroke-opacity:1;stroke-miterlimit:3;" d="M 8.499963 53.020826 L 8.499963 36.020828 L -0.0000360485 19.010414 " transform="matrix(1.875,0,0,1.875,9.300849,-1.875001)"/>
<path style="fill:none;stroke-width:1;stroke-linecap:round;stroke-linejoin:round;stroke:rgb(0%,0%,0%);stroke-opacity:1;stroke-miterlimit:3;" d="M 0.0011595 53.019791 L 4.809485 53.019791 " transform="matrix(-1.325825,-1.325825,1.325825,-1.325825,-44.805168,160.405899)"/>
<path style="fill:none;stroke-width:1;stroke-linecap:round;stroke-linejoin:round;stroke:rgb(0%,0%,0%);stroke-opacity:1;stroke-miterlimit:3;" d="M 0.000983644 53.020029 L 4.809309 53.020029 " transform="matrix(1.325825,-1.325825,1.325825,1.325825,-44.804418,19.815378)"/>
<path style="fill:none;stroke-width:1;stroke-linecap:round;stroke-linejoin:round;stroke:rgb(0%,0%,0%);stroke-opacity:1;stroke-miterlimit:3;" d="M 0.000676541 53.019308 L 4.810475 53.020781 " transform="matrix(-1.325825,-1.325825,1.325825,-1.325825,-44.805168,164.3929)"/>
<path style="fill:none;stroke-width:1;stroke-linecap:round;stroke-linejoin:round;stroke:rgb(0%,0%,0%);stroke-opacity:1;stroke-miterlimit:3;" d="M 0.000123543 53.020889 L 4.809922 53.019416 " transform="matrix(1.325825,-1.325825,1.325825,1.325825,-44.804418,23.535753)"/>
</g>
</svg>
