<?xml version="1.0" encoding="UTF-8"?>
<!--
/*******************************************************************************
* Copyright (c) 2010-2016 ITER Organization.
* All rights reserved. This program and the accompanying materials
* are made available under the terms of the Eclipse Public License v1.0
* which accompanies this distribution, and is available at
* http://www.eclipse.org/legal/epl-v10.html
******************************************************************************/
-->
<svg xmlns="http://www.w3.org/2000/svg" xmlns:xlink="http://www.w3.org/1999/xlink" width="51pt" height="99pt" viewBox="0 0 51 99" version="1.1">
<g id="surface1">
<path style=" stroke:none;fill-rule:evenodd;fill:rgb(100%,100%,100%);fill-opacity:1;" d="M 1.351563 1.875 L 1.378906 1.875 L 1.378906 1.933594 L 1.351563 1.933594 Z "/>
<path style=" stroke:none;fill-rule:evenodd;fill:rgb(100%,100%,100%);fill-opacity:1;" d="M 49.15625 97.484375 L 49.183594 97.484375 L 49.183594 97.542969 L 49.15625 97.542969 Z "/>
<path style="fill:none;stroke-width:1;stroke-linecap:square;stroke-linejoin:miter;stroke:rgb(0%,0%,0%);stroke-opacity:1;stroke-miterlimit:3;" d="M -0.000443949 53.020601 L 17.00997 53.020601 Z " transform="matrix(0.000000000000000115,-1.875,1.875,0.000000000000000115,-74.151923,33.768699)"/>
<path style="fill:none;stroke-width:1;stroke-linecap:square;stroke-linejoin:miter;stroke:rgb(0%,0%,0%);stroke-opacity:1;stroke-miterlimit:3;" d="M 0.000363166 53.02069 L 4.810162 53.019217 Z " transform="matrix(1.325825,1.325825,-1.325825,1.325825,95.776166,-65.472441)"/>
<path style="fill:none;stroke-width:1;stroke-linecap:round;stroke-linejoin:round;stroke:rgb(0%,0%,0%);stroke-opacity:1;stroke-miterlimit:3;" d="M 0.000363166 53.02069 L 4.810162 53.019217 " transform="matrix(1.325825,1.325825,-1.325825,1.325825,95.776166,-65.472441)"/>
<path style="fill:none;stroke-width:1;stroke-linecap:square;stroke-linejoin:miter;stroke:rgb(0%,0%,0%);stroke-opacity:1;stroke-miterlimit:3;" d="M 0.000221521 53.020996 L 4.81002 53.019523 Z " transform="matrix(1.325825,1.325825,-1.325825,1.325825,95.757228,-61.515628)"/>
<path style="fill:none;stroke-width:1;stroke-linecap:round;stroke-linejoin:round;stroke:rgb(0%,0%,0%);stroke-opacity:1;stroke-miterlimit:3;" d="M 0.000221521 53.020996 L 4.81002 53.019523 " transform="matrix(1.325825,1.325825,-1.325825,1.325825,95.757228,-61.515628)"/>
<path style="fill:none;stroke-width:1;stroke-linecap:square;stroke-linejoin:miter;stroke:rgb(0%,0%,0%);stroke-opacity:1;stroke-miterlimit:3;" d="M 0.00032668 53.020754 L 4.810125 53.019281 Z " transform="matrix(-1.325825,1.325825,-1.325825,-1.325825,95.480291,78.553643)"/>
<path style="fill:none;stroke-width:1;stroke-linecap:round;stroke-linejoin:round;stroke:rgb(0%,0%,0%);stroke-opacity:1;stroke-miterlimit:3;" d="M 0.00032668 53.020754 L 4.810125 53.019281 " transform="matrix(-1.325825,1.325825,-1.325825,-1.325825,95.480291,78.553643)"/>
<path style="fill:none;stroke-width:1;stroke-linecap:square;stroke-linejoin:miter;stroke:rgb(0%,0%,0%);stroke-opacity:1;stroke-miterlimit:3;" d="M 0.000715794 53.019917 L 4.809041 53.019917 Z " transform="matrix(-1.325825,1.325825,-1.325825,-1.325825,95.358603,74.833268)"/>
<path style="fill:none;stroke-width:1;stroke-linecap:round;stroke-linejoin:round;stroke:rgb(0%,0%,0%);stroke-opacity:1;stroke-miterlimit:3;" d="M -0.000360098 53.018929 L 4.809438 53.020402 " transform="matrix(1.325825,1.325825,-1.325825,1.325825,88.970102,18.167571)"/>
<path style="fill:none;stroke-width:1;stroke-linecap:round;stroke-linejoin:round;stroke:rgb(0%,0%,0%);stroke-opacity:1;stroke-miterlimit:3;" d="M 0.00100719 53.020084 L 4.809333 53.020084 " transform="matrix(1.325825,1.325825,-1.325825,1.325825,89.004977,14.371258)"/>
<path style="fill:none;stroke-width:1;stroke-linecap:round;stroke-linejoin:round;stroke:rgb(0%,0%,0%);stroke-opacity:1;stroke-miterlimit:3;" d="M 0.000110339 53.019628 L 4.809909 53.021101 " transform="matrix(-1.325825,1.325825,-1.325825,-1.325825,101.724604,158.76728)"/>
<path style="fill:none;stroke-width:1;stroke-linecap:round;stroke-linejoin:round;stroke:rgb(0%,0%,0%);stroke-opacity:1;stroke-miterlimit:3;" d="M -0.000195812 53.018921 L 4.809603 53.020394 " transform="matrix(-1.325825,1.325825,-1.325825,-1.325825,102.164667,154.59878)"/>
<path style="fill:none;stroke-width:1;stroke-linecap:round;stroke-linejoin:round;stroke:rgb(0%,0%,0%);stroke-opacity:1;stroke-miterlimit:3;" d="M 8.500931 53.020825 L 8.500931 36.020828 L 0.00093195 19.010414 " transform="matrix(1.875,0,0,1.875,9.322471,-1.875)"/>
<path style="fill:none;stroke-width:1;stroke-linecap:round;stroke-linejoin:round;stroke:rgb(0%,0%,0%);stroke-opacity:1;stroke-miterlimit:3;" d="M 0.000721306 44.510095 L 8.509053 53.010093 M 0.000721306 53.02051 L 8.509053 44.510095 M 4.229887 31.760097 L 4.229887 48.770511 M 0.719471 36.580929 L 4.129887 33.18093 " transform="matrix(1.875,0,0,1.875,17.326773,-57.667377)"/>
</g>
</svg>
