<?xml version="1.0" encoding="UTF-8"?>
<!--
/*******************************************************************************
* Copyright (c) 2010-2016 ITER Organization.
* All rights reserved. This program and the accompanying materials
* are made available under the terms of the Eclipse Public License v1.0
* which accompanies this distribution, and is available at
* http://www.eclipse.org/legal/epl-v10.html
******************************************************************************/
-->
<svg xmlns="http://www.w3.org/2000/svg" xmlns:xlink="http://www.w3.org/1999/xlink" width="51pt" height="99pt" viewBox="0 0 51 99" version="1.1">
<g id="surface1">
<path style=" stroke:none;fill-rule:evenodd;fill:rgb(100%,100%,100%);fill-opacity:1;" d="M 1.351563 1.875 L 1.378906 1.875 L 1.378906 1.933594 L 1.351563 1.933594 Z "/>
<path style=" stroke:none;fill-rule:evenodd;fill:rgb(100%,100%,100%);fill-opacity:1;" d="M 49.15625 97.484375 L 49.183594 97.484375 L 49.183594 97.542969 L 49.15625 97.542969 Z "/>
<path style="fill:none;stroke-width:1;stroke-linecap:round;stroke-linejoin:round;stroke:rgb(0%,0%,0%);stroke-opacity:1;stroke-miterlimit:3;" d="M 0.00000060348 53.030883 L 17.010428 53.030883 " transform="matrix(0,1.874999,-1.874999,0,124.690658,1.874999)"/>
<path style="fill:none;stroke-width:1;stroke-linecap:round;stroke-linejoin:round;stroke:rgb(0%,0%,0%);stroke-opacity:1;stroke-miterlimit:3;" d="M 0.000987799 53.030883 L 17.009331 53.030883 " transform="matrix(0,1.874999,-1.874999,0,124.690658,65.654398)"/>
<path style="fill-rule:evenodd;fill:rgb(100%,100%,100%);fill-opacity:1;stroke-width:1;stroke-linecap:butt;stroke-linejoin:miter;stroke:rgb(0%,0%,0%);stroke-opacity:1;stroke-miterlimit:3;" d="M 1.345038 52.915507 L 6.024298 52.322616 L 4.679841 41.951032 L -0.000693828 42.550387 Z " transform="matrix(1.859918,0.237333,-0.237333,1.859918,30.78739,-40.42521)"/>
<path style="fill:none;stroke-width:1;stroke-linecap:round;stroke-linejoin:round;stroke:rgb(0%,0%,0%);stroke-opacity:1;stroke-miterlimit:3;" d="M 0.00113867 53.029961 L 16.597439 61.316446 " transform="matrix(-0.838523,-1.677051,1.677051,-0.838523,-63.659541,109.792996)"/>
</g>
</svg>
