<?xml version="1.0" encoding="UTF-8"?>
<!--
/*******************************************************************************
* Copyright (c) 2010-2016 ITER Organization.
* All rights reserved. This program and the accompanying materials
* are made available under the terms of the Eclipse Public License v1.0
* which accompanies this distribution, and is available at
* http://www.eclipse.org/legal/epl-v10.html
******************************************************************************/
-->
<svg xmlns="http://www.w3.org/2000/svg" xmlns:xlink="http://www.w3.org/1999/xlink" width="51pt" height="99pt" viewBox="0 0 51 99" version="1.1">
<g id="surface1">
<path style=" stroke:none;fill-rule:evenodd;fill:rgb(100%,100%,100%);fill-opacity:1;" d="M 1.351563 1.875 L 1.378906 1.875 L 1.378906 1.933594 L 1.351563 1.933594 Z "/>
<path style=" stroke:none;fill-rule:evenodd;fill:rgb(100%,100%,100%);fill-opacity:1;" d="M 49.15625 97.484375 L 49.183594 97.484375 L 49.183594 97.542969 L 49.15625 97.542969 Z "/>
<path style="fill:none;stroke-width:1;stroke-linecap:square;stroke-linejoin:miter;stroke:rgb(0%,0%,0%);stroke-opacity:1;stroke-miterlimit:3;" d="M -0.000413949 53.020601 L 17.01 53.020601 Z " transform="matrix(0.000000000000000115,-1.875,1.875,0.000000000000000115,-74.151922,33.768755)"/>
<path style="fill:none;stroke-width:1;stroke-linecap:round;stroke-linejoin:round;stroke:rgb(0%,0%,0%);stroke-opacity:1;stroke-miterlimit:3;" d="M -0.000413949 53.020601 L 17.01 53.020601 " transform="matrix(0.000000000000000115,-1.875,1.875,0.000000000000000115,-74.151922,33.768755)"/>
<path style="fill:none;stroke-width:1;stroke-linecap:square;stroke-linejoin:miter;stroke:rgb(0%,0%,0%);stroke-opacity:1;stroke-miterlimit:3;" d="M -0.000988713 53.019864 L 8.49901 53.019864 Z " transform="matrix(1.875,0,0,1.875,17.564354,-65.654447)"/>
<path style="fill:none;stroke-width:1;stroke-linecap:round;stroke-linejoin:round;stroke:rgb(0%,0%,0%);stroke-opacity:1;stroke-miterlimit:3;" d="M -0.000988713 53.019864 L 8.49901 53.019864 " transform="matrix(1.875,0,0,1.875,17.564354,-65.654447)"/>
<path style="fill:none;stroke-width:1;stroke-linecap:square;stroke-linejoin:miter;stroke:rgb(0%,0%,0%);stroke-opacity:1;stroke-miterlimit:3;" d="M 0.000341953 53.020669 L 4.81014 53.019196 Z " transform="matrix(1.325825,1.325825,-1.325825,1.325825,95.776166,-65.472385)"/>
<path style="fill:none;stroke-width:1;stroke-linecap:round;stroke-linejoin:round;stroke:rgb(0%,0%,0%);stroke-opacity:1;stroke-miterlimit:3;" d="M 0.000341953 53.020669 L 4.81014 53.019196 " transform="matrix(1.325825,1.325825,-1.325825,1.325825,95.776166,-65.472385)"/>
<path style="fill:none;stroke-width:1;stroke-linecap:square;stroke-linejoin:miter;stroke:rgb(0%,0%,0%);stroke-opacity:1;stroke-miterlimit:3;" d="M 0.000200308 53.020975 L 4.809999 53.019502 Z " transform="matrix(1.325825,1.325825,-1.325825,1.325825,95.757228,-61.515572)"/>
<path style="fill:none;stroke-width:1;stroke-linecap:round;stroke-linejoin:round;stroke:rgb(0%,0%,0%);stroke-opacity:1;stroke-miterlimit:3;" d="M 0.000200308 53.020975 L 4.809999 53.019502 " transform="matrix(1.325825,1.325825,-1.325825,1.325825,95.757228,-61.515572)"/>
<path style="fill:none;stroke-width:1;stroke-linecap:square;stroke-linejoin:miter;stroke:rgb(0%,0%,0%);stroke-opacity:1;stroke-miterlimit:3;" d="M 0.000305467 53.020776 L 4.810104 53.019302 Z " transform="matrix(-1.325825,1.325825,-1.325825,-1.325825,95.480291,78.553699)"/>
<path style="fill:none;stroke-width:1;stroke-linecap:round;stroke-linejoin:round;stroke:rgb(0%,0%,0%);stroke-opacity:1;stroke-miterlimit:3;" d="M 0.000305467 53.020776 L 4.810104 53.019302 " transform="matrix(-1.325825,1.325825,-1.325825,-1.325825,95.480291,78.553699)"/>
<path style="fill:none;stroke-width:1;stroke-linecap:square;stroke-linejoin:miter;stroke:rgb(0%,0%,0%);stroke-opacity:1;stroke-miterlimit:3;" d="M 0.00069458 53.019939 L 4.80902 53.019939 Z " transform="matrix(-1.325825,1.325825,-1.325825,-1.325825,95.358603,74.833324)"/>
<path style="fill:none;stroke-width:1;stroke-linecap:round;stroke-linejoin:round;stroke:rgb(0%,0%,0%);stroke-opacity:1;stroke-miterlimit:3;" d="M 0.00069458 53.019939 L 4.80902 53.019939 " transform="matrix(-1.325825,1.325825,-1.325825,-1.325825,95.358603,74.833324)"/>
<path style="fill:none;stroke-width:1;stroke-linecap:round;stroke-linejoin:round;stroke:rgb(0%,0%,0%);stroke-opacity:1;stroke-miterlimit:3;" d="M 0.00108476 53.020374 L 4.80941 53.020374 " transform="matrix(1.325825,1.325825,-1.325825,1.325825,88.970102,18.167646)"/>
<path style="fill:none;stroke-width:1;stroke-linecap:round;stroke-linejoin:round;stroke:rgb(0%,0%,0%);stroke-opacity:1;stroke-miterlimit:3;" d="M 0.00100719 53.020084 L 4.809333 53.020084 " transform="matrix(1.325825,1.325825,-1.325825,1.325825,89.004977,14.371258)"/>
<path style="fill:none;stroke-width:1;stroke-linecap:round;stroke-linejoin:round;stroke:rgb(0%,0%,0%);stroke-opacity:1;stroke-miterlimit:3;" d="M 0.0000891261 53.019649 L 4.809888 53.021122 " transform="matrix(-1.325825,1.325825,-1.325825,-1.325825,101.724604,158.767336)"/>
<path style="fill:none;stroke-width:1;stroke-linecap:round;stroke-linejoin:round;stroke:rgb(0%,0%,0%);stroke-opacity:1;stroke-miterlimit:3;" d="M -0.000217025 53.018942 L 4.809582 53.020415 " transform="matrix(-1.325825,1.325825,-1.325825,-1.325825,102.164667,154.598836)"/>
<path style="fill:none;stroke-width:1;stroke-linecap:round;stroke-linejoin:round;stroke:rgb(0%,0%,0%);stroke-opacity:1;stroke-miterlimit:3;" d="M 8.500931 53.020825 L 8.500931 36.020828 L 8.482181 19.010414 " transform="matrix(1.875,0,0,1.875,9.322471,-1.875)"/>
</g>
</svg>
