<?xml version="1.0" encoding="UTF-8"?>
<!--
/*******************************************************************************
* Copyright (c) 2010-2016 ITER Organization.
* All rights reserved. This program and the accompanying materials
* are made available under the terms of the Eclipse Public License v1.0
* which accompanies this distribution, and is available at
* http://www.eclipse.org/legal/epl-v10.html
******************************************************************************/
-->
<svg xmlns="http://www.w3.org/2000/svg" xmlns:xlink="http://www.w3.org/1999/xlink" width="51pt" height="99pt" viewBox="0 0 51 99" version="1.1">
<g id="surface1">
<path style=" stroke:none;fill-rule:evenodd;fill:rgb(100%,100%,100%);fill-opacity:1;" d="M 1.875 1.875 L 1.90625 1.875 L 1.90625 1.933594 L 1.875 1.933594 Z "/>
<path style=" stroke:none;fill-rule:evenodd;fill:rgb(100%,100%,100%);fill-opacity:1;" d="M 49.679688 97.484375 L 49.710938 97.484375 L 49.710938 97.542969 L 49.679688 97.542969 Z "/>
<path style="fill:none;stroke-width:1;stroke-linecap:round;stroke-linejoin:round;stroke:rgb(0%,0%,0%);stroke-opacity:1;stroke-miterlimit:3;" d="M -0.000000150876 53.019451 L 17.010414 53.019451 " transform="matrix(0.000000000000000115,1.875,-1.875,0.000000000000000115,101.294299,1.875)"/>
<path style="fill:none;stroke-width:1;stroke-linecap:round;stroke-linejoin:round;stroke:rgb(0%,0%,0%);stroke-opacity:1;stroke-miterlimit:3;" d="M -0.000000150876 53.019286 L 17.010414 53.019286 " transform="matrix(0.000000000000000115,1.875,-1.875,0.000000000000000115,117.239301,1.875)"/>
<path style="fill:none;stroke-width:1;stroke-linecap:round;stroke-linejoin:round;stroke:rgb(0%,0%,0%);stroke-opacity:1;stroke-miterlimit:3;" d="M -0.000000150876 53.019021 L 17.010414 53.019021 " transform="matrix(0.000000000000000115,1.875,-1.875,0.000000000000000115,133.184116,1.875)"/>
<path style="fill:none;stroke-width:1;stroke-linecap:round;stroke-linejoin:round;stroke:rgb(0%,0%,0%);stroke-opacity:1;stroke-miterlimit:3;" d="M 0.00106973 53.019734 L 7.778825 67.603933 " transform="matrix(-0.964687,-1.607795,1.607795,-0.964687,-67.431352,116.805393)"/>
<path style="fill:none;stroke-width:1;stroke-linecap:round;stroke-linejoin:round;stroke:rgb(0%,0%,0%);stroke-opacity:1;stroke-miterlimit:3;" d="M 0.000961383 53.019286 L 17.009292 53.019286 " transform="matrix(0.000000000000000115,1.875,-1.875,0.000000000000000115,117.239301,65.654447)"/>
</g>
</svg>
