/* XPM */
static char * css48_xpm[] = {
"48 48 3 1",
" 	c None",
".	c #CDC8E6",
"+	c #302972",
"                                                ",
"                                                ",
"                     ........                   ",
"                 ................               ",
"               ....................             ",
"              ......................            ",
"            .........................           ",
"           ..........       ..........          ",
"          ........             ........         ",
"         ........               ........        ",
"         .......                 .......        ",
"        .......                   .......       ",
"        ++++++                    +++++++       ",
"       ++++++                      ++++++       ",
"       ++++++                      +++++++      ",
"      +++++++                       ++++        ",
"      ++++++                                    ",
"      ++++++                                    ",
"      ++++++                                    ",
"     ++++++                                     ",
"     ++++++                                     ",
"     ++++++                                     ",
"     ++++++                                     ",
"     ++++++                                     ",
"     ++++++                                     ",
"     ++++++                                     ",
"     ++++++                                     ",
"     ++++++                                     ",
"     ++++++                                     ",
"     ++++++                                     ",
"      ++++++                                    ",
"      ++++++                                    ",
"      ++++++                         +++        ",
"      ++++++                        +++++++     ",
"       ++++++                       +++++++     ",
"       ++++++                       ++++++      ",
"                                                ",
"                                        ++      ",
"                         +               +      ",
"                         +               +      ",
"     ++++   +++  ++ ++  +++ ++ ++  +++   +      ",
"    ++  +  ++ ++  ++  +  +   ++   ++ ++  +      ",
"    +      +   +  +   +  +   +    +   +  +      ",
"    +      +   +  +   +  +   +    +   +  +      ",
"    ++  +  ++ ++  +   +  +   +    ++ ++  +      ",
"     +++    +++  +++  ++ ++ +++    +++  +++     ",
"                                                ",
"                                                "};
