<?xml version="1.0" encoding="UTF-8"?>
<!--
/*******************************************************************************
* Copyright (c) 2010-2016 ITER Organization.
* All rights reserved. This program and the accompanying materials
* are made available under the terms of the Eclipse Public License v1.0
* which accompanies this distribution, and is available at
* http://www.eclipse.org/legal/epl-v10.html
******************************************************************************/
-->
<svg xmlns="http://www.w3.org/2000/svg" xmlns:xlink="http://www.w3.org/1999/xlink" width="51pt" height="51pt" viewBox="0 0 51 51" version="1.1">
<g id="surface1">
<path style=" stroke:none;fill-rule:evenodd;fill:rgb(100%,100%,100%);fill-opacity:1;" d="M 1.351563 1.351563 L 1.378906 1.351563 L 1.378906 1.378906 L 1.351563 1.378906 Z "/>
<path style=" stroke:none;fill-rule:evenodd;fill:rgb(100%,100%,100%);fill-opacity:1;" d="M 49.15625 49.15625 L 49.183594 49.15625 L 49.183594 49.183594 L 49.15625 49.183594 Z "/>
<path style=" stroke:none;fill-rule:evenodd;fill:rgb(65.098039%,65.098039%,65.098039%);fill-opacity:1;" d="M 26.160156 25.269531 C 26.160156 24.777344 25.761719 24.382813 25.273438 24.382813 C 24.785156 24.382813 24.386719 24.777344 24.386719 25.269531 C 24.386719 25.757813 24.785156 26.152344 25.273438 26.152344 C 25.761719 26.152344 26.160156 25.757813 26.160156 25.269531 Z M 9.324219 33.238281 L 41.214844 33.238281 L 41.214844 17.300781 L 9.324219 17.300781 Z "/>
<path style="fill:none;stroke-width:0.72;stroke-linecap:round;stroke-linejoin:round;stroke:rgb(0%,0%,0%);stroke-opacity:1;stroke-miterlimit:3;" d="M 8.980097 22.701007 C 8.980097 22.438508 8.767597 22.228091 8.507181 22.228091 C 8.246764 22.228091 8.034265 22.438508 8.034265 22.701007 C 8.034265 22.961424 8.246764 23.17184 8.507181 23.17184 C 8.767597 23.17184 8.980097 22.961424 8.980097 22.701007 " transform="matrix(1.875002,0,0,1.875002,9.322455,-17.294908)"/>
<path style="fill:none;stroke-width:0.72;stroke-linecap:round;stroke-linejoin:round;stroke:rgb(0%,0%,0%);stroke-opacity:1;stroke-miterlimit:3;" d="M 17.009254 18.451012 L 0.000940762 26.951002 " transform="matrix(1.875002,0,0,1.875002,9.322455,-17.294908)"/>
<path style="fill:none;stroke-width:0.72;stroke-linecap:round;stroke-linejoin:round;stroke:rgb(0%,0%,0%);stroke-opacity:1;stroke-miterlimit:3;" d="M 0.000940762 26.951002 L 17.009254 26.951002 L 17.009254 18.451012 L 0.000940762 18.451012 L 0.000940762 26.951002 " transform="matrix(1.875002,0,0,1.875002,9.322455,-17.294908)"/>
</g>
</svg>
