<?xml version="1.0" encoding="UTF-8"?>
<!--
/*******************************************************************************
* Copyright (c) 2010-2016 ITER Organization.
* All rights reserved. This program and the accompanying materials
* are made available under the terms of the Eclipse Public License v1.0
* which accompanies this distribution, and is available at
* http://www.eclipse.org/legal/epl-v10.html
******************************************************************************/
-->
<svg xmlns="http://www.w3.org/2000/svg" xmlns:xlink="http://www.w3.org/1999/xlink" width="66pt" height="51pt" viewBox="0 0 66 51" version="1.1">
<g id="surface1">
<path style=" stroke:none;fill-rule:evenodd;fill:rgb(100%,100%,100%);fill-opacity:1;" d="M 9.078125 1.351563 L 9.105469 1.351563 L 9.105469 1.378906 L 9.078125 1.378906 Z "/>
<path style=" stroke:none;fill-rule:evenodd;fill:rgb(100%,100%,100%);fill-opacity:1;" d="M 56.882813 49.15625 L 56.914063 49.15625 L 56.914063 49.183594 L 56.882813 49.183594 Z "/>
<path style="fill-rule:evenodd;fill:rgb(100%,100%,100%);fill-opacity:1;stroke-width:0.720001;stroke-linecap:round;stroke-linejoin:round;stroke:rgb(0%,0%,0%);stroke-opacity:1;stroke-miterlimit:3;" d="M 0.00047126 26.950614 L 0.00047126 18.450615 L 17.010885 26.950614 L 17.010885 18.450615 Z " transform="matrix(1.875,0,0,1.875,17.049898,-17.30194)"/>
<path style="fill:none;stroke-width:1.2;stroke-linecap:round;stroke-linejoin:round;stroke:rgb(0%,0%,0%);stroke-opacity:1;stroke-miterlimit:3;" d="M 0.000180551 26.948923 L 9.510609 26.9505 " transform="matrix(-1.53591,-1.075456,1.075456,-1.53591,11.306959,71.781948)"/>
<path style="fill:none;stroke-width:0.72;stroke-linecap:round;stroke-linejoin:round;stroke:rgb(0%,0%,0%);stroke-opacity:1;stroke-miterlimit:3;" d="M 0.000734346 26.950458 L 24.740028 26.949547 " transform="matrix(1.677051,-0.838527,0.838527,1.677051,-13.545232,-7.993539)"/>
<path style=" stroke:none;fill-rule:evenodd;fill:rgb(0%,0%,0%);fill-opacity:1;" d="M 47.828125 13.289063 L 56.882813 13.289063 L 51.503906 20.476563 C 51.488281 17.636719 50.148438 14.96875 47.882813 13.257813 "/>
</g>
</svg>
