<?xml version="1.0" encoding="UTF-8"?>
<!--
/*******************************************************************************
* Copyright (c) 2010-2016 ITER Organization.
* All rights reserved. This program and the accompanying materials
* are made available under the terms of the Eclipse Public License v1.0
* which accompanies this distribution, and is available at
* http://www.eclipse.org/legal/epl-v10.html
******************************************************************************/
-->
<svg xmlns="http://www.w3.org/2000/svg" xmlns:xlink="http://www.w3.org/1999/xlink" width="51pt" height="51pt" viewBox="0 0 51 51" version="1.1">
<g id="surface1">
<path style=" stroke:none;fill-rule:evenodd;fill:rgb(100%,100%,100%);fill-opacity:1;" d="M 1.351563 1.351563 L 1.378906 1.351563 L 1.378906 1.378906 L 1.351563 1.378906 Z "/>
<path style=" stroke:none;fill-rule:evenodd;fill:rgb(100%,100%,100%);fill-opacity:1;" d="M 49.15625 49.15625 L 49.183594 49.15625 L 49.183594 49.183594 L 49.15625 49.183594 Z "/>
<path style="fill-rule:evenodd;fill:rgb(65.098039%,65.098039%,65.098039%);fill-opacity:1;stroke-width:0.72;stroke-linecap:round;stroke-linejoin:round;stroke:rgb(0%,0%,0%);stroke-opacity:1;stroke-miterlimit:3;" d="M 4.700935 20.80101 L 0.000940762 18.451012 L 0.000940762 26.951002 L 4.700935 24.601005 C 4.103019 23.40309 4.103019 21.996842 4.700935 20.80101 Z M 12.759259 22.701007 C 12.759259 20.35101 10.855095 18.444762 8.505097 18.444762 C 6.1551 18.444762 4.250936 20.35101 4.250936 22.701007 C 4.250936 25.051005 6.1551 26.955169 8.505097 26.955169 C 10.855095 26.955169 12.759259 25.051005 12.759259 22.701007 Z M 12.309259 20.80101 C 12.907175 21.996842 12.907175 23.40309 12.309259 24.601005 L 17.009254 26.951002 L 17.009254 18.451012 Z " transform="matrix(1.875002,0,0,1.875002,9.322455,-17.294908)"/>
</g>
</svg>
