<?xml version="1.0" encoding="UTF-8"?>
<!--
/*******************************************************************************
* Copyright (c) 2010-2016 ITER Organization.
* All rights reserved. This program and the accompanying materials
* are made available under the terms of the Eclipse Public License v1.0
* which accompanies this distribution, and is available at
* http://www.eclipse.org/legal/epl-v10.html
******************************************************************************/
-->
<svg xmlns="http://www.w3.org/2000/svg" xmlns:xlink="http://www.w3.org/1999/xlink" width="51pt" height="51pt" viewBox="0 0 51 51" version="1.1">
<g id="surface1">
<path style=" stroke:none;fill-rule:evenodd;fill:rgb(100%,100%,100%);fill-opacity:1;" d="M 1.351563 1.351563 L 1.378906 1.351563 L 1.378906 1.378906 L 1.351563 1.378906 Z "/>
<path style=" stroke:none;fill-rule:evenodd;fill:rgb(100%,100%,100%);fill-opacity:1;" d="M 49.15625 49.15625 L 49.183594 49.15625 L 49.183594 49.183594 L 49.15625 49.183594 Z "/>
<path style="fill-rule:evenodd;fill:rgb(100%,100%,100%);fill-opacity:1;stroke-width:0.72;stroke-linecap:round;stroke-linejoin:round;stroke:rgb(0%,0%,0%);stroke-opacity:1;stroke-miterlimit:3;" d="M 8.500931 18.449037 L 0.000940762 14.199042 L 0.000940762 22.699032 Z M 8.500931 18.449037 L 4.250936 26.949027 L 12.759259 26.949027 Z M 8.500931 18.449037 L 17.009254 22.699032 L 17.009254 14.199042 Z " transform="matrix(1.875002,0,0,1.875002,9.322455,-9.322455)"/>
<path style="fill-rule:evenodd;fill:rgb(0%,0%,0%);fill-opacity:1;stroke-width:0.72;stroke-linecap:round;stroke-linejoin:round;stroke:rgb(0%,0%,0%);stroke-opacity:1;stroke-miterlimit:3;" d="M 3.780508 25.061124 C 3.780508 24.017375 2.932593 23.171543 1.888844 23.171543 C 0.845095 23.171543 -0.000737089 24.017375 -0.000737089 25.061124 C -0.000737089 26.104873 0.845095 26.952788 1.888844 26.952788 C 2.932593 26.952788 3.780508 26.104873 3.780508 25.061124 Z " transform="matrix(1.875002,0,0,1.875002,21.724038,-21.724038)"/>
</g>
</svg>
