<?xml version="1.0" encoding="UTF-8"?>
<!--
/*******************************************************************************
* Copyright (c) 2010-2015 ITER Organization.
* All rights reserved. This program and the accompanying materials
* are made available under the terms of the Eclipse Public License v1.0
* which accompanies this distribution, and is available at
* http://www.eclipse.org/legal/epl-v10.html
******************************************************************************/
-->
<svg xmlns="http://www.w3.org/2000/svg" xmlns:xlink="http://www.w3.org/1999/xlink" width="51pt" height="66pt" viewBox="0 0 51 66" version="1.1">
<g id="surface1">
<path style=" stroke:none;fill-rule:evenodd;fill:rgb(100%,100%,100%);fill-opacity:1;" d="M 1.351563 1.351563 L 1.402344 1.351563 L 1.402344 1.402344 L 1.351563 1.402344 Z "/>
<path style=" stroke:none;fill-rule:evenodd;fill:rgb(100%,100%,100%);fill-opacity:1;" d="M 49.183594 64.96875 L 49.238281 64.96875 L 49.238281 65.023438 L 49.183594 65.023438 Z "/>
<path style=" stroke:none;fill-rule:evenodd;fill:rgb(100%,100%,100%);fill-opacity:1;" d="M 25.285156 32.796875 L 9.347656 24.828125 L 9.347656 40.765625 Z M 25.285156 32.796875 L 41.242188 40.765625 L 41.242188 24.828125 Z "/>
<path style="fill:none;stroke-width:0.72;stroke-linecap:round;stroke-linejoin:round;stroke:rgb(0%,0%,0%);stroke-opacity:1;stroke-miterlimit:3;" d="M 8.499313 31.149472 L -0.000710029 26.899461 L -0.000710029 35.399483 L 8.499313 31.149472 " transform="matrix(1.874995,0,0,1.874995,9.348988,-25.608229)"/>
<path style="fill:none;stroke-width:0.72;stroke-linecap:round;stroke-linejoin:round;stroke:rgb(0%,0%,0%);stroke-opacity:1;stroke-miterlimit:3;" d="M 8.499313 16.649433 L 8.499313 18.770272 L 12.759741 20.899445 L 4.249301 25.149456 L 8.499313 27.280712 L 8.499313 31.149472 " transform="matrix(1.874995,0,0,1.874995,9.348988,-25.608229)"/>
<path style="fill:none;stroke-width:0.72;stroke-linecap:round;stroke-linejoin:round;stroke:rgb(0%,0%,0%);stroke-opacity:1;stroke-miterlimit:3;" d="M 8.499313 31.149472 L 17.009752 35.399483 L 17.009752 26.899461 L 8.499313 31.149472 " transform="matrix(1.874995,0,0,1.874995,9.348988,-25.608229)"/>
</g>
</svg>
