<?xml version="1.0" encoding="UTF-8"?>
<!--
/*******************************************************************************
* Copyright (c) 2010-2016 ITER Organization.
* All rights reserved. This program and the accompanying materials
* are made available under the terms of the Eclipse Public License v1.0
* which accompanies this distribution, and is available at
* http://www.eclipse.org/legal/epl-v10.html
******************************************************************************/
-->
<svg xmlns="http://www.w3.org/2000/svg" xmlns:xlink="http://www.w3.org/1999/xlink" width="68pt" height="131pt" viewBox="0 0 68 131" version="1.1">
<g id="surface1">
<path style=" stroke:none;fill-rule:evenodd;fill:rgb(100%,100%,100%);fill-opacity:1;" d="M 1.898438 1.355469 L 1.9375 1.355469 L 1.9375 1.433594 L 1.898438 1.433594 Z "/>
<path style=" stroke:none;fill-rule:evenodd;fill:rgb(100%,100%,100%);fill-opacity:1;" d="M 66.109375 129.324219 L 66.148438 129.324219 L 66.148438 129.402344 L 66.109375 129.402344 Z "/>
<path style="fill-rule:evenodd;fill:rgb(100%,100%,100%);fill-opacity:1;stroke-width:0.999999;stroke-linecap:round;stroke-linejoin:round;stroke:rgb(0%,0%,0%);stroke-opacity:1;stroke-miterlimit:3;" d="M 0.000921674 35.455782 L 34.01568 35.455782 L 34.01568 69.47134 L 0.000921674 69.47134 Z " transform="matrix(1.888886,0,0,1.882181,1.888884,-33.367011)"/>
<path style="fill:none;stroke-width:0.999999;stroke-linecap:round;stroke-linejoin:round;stroke:rgb(0%,0%,0%);stroke-opacity:1;stroke-miterlimit:3;" d="M 34.019816 60.960882 L 17.010369 69.46996 L 0.000921674 60.960882 " transform="matrix(1.888886,0,0,1.882181,1.888884,-81.372225)"/>
<path style="fill-rule:evenodd;fill:rgb(100%,100%,100%);fill-opacity:1;stroke-width:0.999999;stroke-linecap:round;stroke-linejoin:round;stroke:rgb(0%,0%,0%);stroke-opacity:1;stroke-miterlimit:3;" d="M 8.503616 65.219925 C 8.503616 62.870589 6.601039 60.967461 4.251771 60.967461 C 1.904571 60.967461 -0.0000739363 62.870589 -0.0000739363 65.219925 C -0.0000739363 67.567185 1.904571 69.472389 4.251771 69.472389 C 6.601039 69.472389 8.503616 67.567185 8.503616 65.219925 Z " transform="matrix(1.888886,0,0,1.882181,24.644671,-49.37289)"/>
<path style="fill:none;stroke-width:0.999999;stroke-linecap:round;stroke-linejoin:round;stroke:rgb(0%,0%,0%);stroke-opacity:1;stroke-miterlimit:3;" d="M 0.000122112 69.47031 L 7.089288 69.47031 " transform="matrix(-1.888886,0.00000000000000023,-0.000000000000000231,-1.882181,23.734606,204.79476)"/>
<path style="fill:none;stroke-width:0.999999;stroke-linecap:round;stroke-linejoin:round;stroke:rgb(0%,0%,0%);stroke-opacity:1;stroke-miterlimit:3;" d="M -0.000959238 69.470493 C 4.701714 70.091033 8.957694 68.466007 11.060869 65.24916 L 15.66014 65.209728 " transform="matrix(1.888886,0,0,1.882181,31.337749,-49.627135)"/>
</g>
</svg>
