<?xml version="1.0" encoding="UTF-8" standalone="no"?>
<!DOCTYPE svg PUBLIC "-//W3C//DTD SVG 1.0//EN" "C:\SeeVisioDTD\svg10.dtd">
<!-- Generated by Microsoft Visio 11.0, SVG Export, v1.0 FL_EF0416.svg Page-1 -->
<!--
/*******************************************************************************
* Copyright (c) 2010-2013 ITER Organization.
* All rights reserved. This program and the accompanying materials
* are made available under the terms of the Eclipse Public License v1.0
* which accompanies this distribution, and is available at
* http://www.eclipse.org/legal/epl-v10.html
******************************************************************************/
-->
<svg xmlns="http://www.w3.org/2000/svg" xmlns:v="http://schemas.microsoft.com/visio/2003/SVGExtensions/" width="0.500278in"
		height="0.386317in" viewBox="0 0 36.02 27.8148" xml:space="preserve" color-interpolation-filters="sRGB" class="st7">
	<v:documentProperties v:langID="1036" v:metric="true" v:viewMarkup="false"/>
	<style type="text/css">
	<![CDATA[
		.st1 {fill:#ffffff;stroke:none;stroke-width:1}
		.st2 {fill:none;stroke:none;stroke-width:1}
		.st3 {fill:none}
		.st4 {stroke:none;stroke-linecap:round;stroke-linejoin:round;stroke-width:0.720001}
		.st5 {fill:#ffffff;stroke:#000000;stroke-linecap:round;stroke-linejoin:round;stroke-width:0.72}
		.st6 {fill:#000000;stroke:#000000;stroke-linecap:round;stroke-linejoin:round;stroke-width:0.72}
		.st7 {fill:none;fill-rule:evenodd;font-size:12;overflow:visible;stroke-linecap:square;stroke-miterlimit:3}
	]]>
	</style>
	<g v:mID="0" v:index="1" v:groupContext="foregroundPage">
		<title>Page-1</title>
		<v:pageProperties v:drawingScale="0.0393701" v:pageScale="0.0393701" v:drawingUnits="24" v:shadowOffsetX="9.00001"
				v:shadowOffsetY="-9.00001"/>
		<g id="group10-1" transform="translate(1,-1)" v:mID="10" v:groupContext="group">
			<title>Sheet.10</title>
			<g id="shape1-2" v:mID="1" v:groupContext="shape" transform="translate(4.25001,3.55271E-015)">
				<title>Sheet.1</title>
				<path d="M25.51 14.91 A12.7559 12.7559 -180 1 0 0 14.91 A12.7559 12.7559 -180 1 0 25.51 14.91 Z" class="st1"/>
			</g>
			<g id="group2-4" transform="translate(-9.99201E-016,-0.164855)" v:mID="2" v:groupContext="group">
				<title>Sheet.2</title>
				<g id="shape3-5" v:mID="3" v:groupContext="shape">
					<title>Sheet.3</title>
					<path d="M0 2.3 L0 27.81 L0 2.3 Z" class="st2"/>
				</g>
				<g id="shape4-7" v:mID="4" v:groupContext="shape">
					<title>Sheet.4</title>
					<path d="M0 2.3 L0 27.81 L0 2.3 Z" class="st3"/>
					<path d="M0 2.3 L0 27.81" class="st4"/>
				</g>
			</g>
			<g id="group5-10" transform="translate(34.02,-0.164855)" v:mID="5" v:groupContext="group">
				<title>Sheet.5</title>
				<g id="shape6-11" v:mID="6" v:groupContext="shape">
					<title>Sheet.6</title>
					<path d="M0 27.81 L0 2.3 L0 27.81 Z" class="st2"/>
				</g>
				<g id="shape7-13" v:mID="7" v:groupContext="shape">
					<title>Sheet.7</title>
					<path d="M0 27.81 L0 2.3 L0 27.81 Z" class="st3"/>
					<path d="M0 27.81 L0 2.3" class="st4"/>
				</g>
			</g>
			<g id="shape8-16" v:mID="8" v:groupContext="shape" transform="translate(2.67729,-4.12127) rotate(-4.6)">
				<title>Sheet.8</title>
				<path d="M2.48 27.81 L23.03 12.4 A12.7559 12.7559 -180 0 0 0 20.11 A12.7559 12.7559 -180 0 0 2.48 27.81 Z"
						class="st5"/>
			</g>
			<g id="shape9-18" v:mID="9" v:groupContext="shape" transform="translate(5.51101,0.205408) rotate(-4.6)">
				<title>Sheet.9</title>
				<path d="M0 23.28 A12.7559 12.7559 -180 0 0 23.03 15.58 A12.7559 12.7559 -180 0 0 20.56 7.87 L0 23.28 Z"
						class="st6"/>
			</g>
		</g>
	</g>
</svg>
