<?xml version="1.0" encoding="UTF-8" standalone="no"?>
<!DOCTYPE svg PUBLIC "-//W3C//DTD SVG 1.0//EN" "C:\SeeVisioDTD\svg10.dtd">
<!-- Généré par Microsoft Visio 11.0, SVG Export, v1.0 FL_EF1503.svg Page-1 -->
<!--
/*******************************************************************************
* Copyright (c) 2010-2014 ITER Organization.
* All rights reserved. This program and the accompanying materials
* are made available under the terms of the Eclipse Public License v1.0
* which accompanies this distribution, and is available at
* http://www.eclipse.org/legal/epl-v10.html
******************************************************************************/
-->
<svg xmlns="http://www.w3.org/2000/svg" xmlns:v="http://schemas.microsoft.com/visio/2003/SVGExtensions/" width="0.610883in"
		height="0.729104in" viewBox="0 0 43.9836 52.4955" xml:space="preserve" color-interpolation-filters="sRGB" class="st2">
	<v:documentProperties v:langID="1036" v:metric="true" v:viewMarkup="false"/>
	<style type="text/css">
	<![CDATA[
		.st1 {fill:#ffffff;stroke:none;stroke-linecap:round;stroke-linejoin:round;stroke-width:0.72}
		.st2 {fill:none;fill-rule:evenodd;font-size:12;overflow:visible;stroke-linecap:square;stroke-miterlimit:3}
		.st3 {fill:#ffffff}
		.st4 {stroke:#000000;stroke-linecap:round;stroke-linejoin:round;stroke-width:0.72}
	]]>
	</style>
	<defs id="Masters">
		<symbol id="master5" v:mID="5" class="st2">
			<title>FL_EF1503</title>
			<g id="master-shape5-7" v:mID="5" v:groupContext="shape">
				<title>Feuille.5</title>
				<path d="M0 52.5 L25.51 52.5 L25.51 9.98 L0 9.98 L0 52.5 Z" class="st3"/>
				<path d="M0 52.5 L25.51 52.5 L25.51 9.98 L0 9.98 L0 52.5" class="st4"/>
				<path d="M0 45.41 L0 52.5 L25.51 52.5 L25.51 45.41" class="st4"/>
				<path d="M25.51 18.48 L25.51 17.06" class="st4"/>
				<path d="M0 43.99 L0 45.41" class="st4"/>
				<path d="M0 18.48 L0 43.99" class="st4"/>
				<path d="M4.25 43.99 L0 43.99" class="st4"/>
				<path d="M17.01 43.99 L8.5 43.99" class="st4"/>
				<path d="M17.01 18.48 L25.51 18.48" class="st4"/>
				<path d="M0 18.48 L8.5 18.48" class="st4"/>
				<path d="M0 17.06 L0 18.48" class="st4"/>
				<path d="M25.51 17.06 L25.51 9.98 L0 9.98 L0 17.06" class="st4"/>
				<path d="M8.5 18.48 L8.5 23.2" class="st4"/>
				<path d="M8.5 38.32 L8.5 33.6" class="st4"/>
				<path d="M8.5 38.32 L17.01 38.32" class="st4"/>
				<path d="M8.5 26.98 L8.5 30.45" class="st4"/>
				<path d="M17.01 38.32 L17.01 33.6" class="st4"/>
				<path d="M17.01 26.98 L17.01 30.53" class="st4"/>
				<path d="M17.01 18.48 L17.01 23.2" class="st4"/>
				<path d="M25.51 43.99 L21.26 43.99" class="st4"/>
				<path d="M25.51 45.41 L25.51 43.99" class="st4"/>
				<path d="M25.51 43.99 L25.51 18.48" class="st4"/>
			</g>
		</symbol>
	</defs>
	<g v:mID="0" v:index="1" v:groupContext="foregroundPage">
		<title>Page-1</title>
		<v:pageProperties v:drawingScale="0.0393701" v:pageScale="0.0393701" v:drawingUnits="24" v:shadowOffsetX="8.50394"
				v:shadowOffsetY="-8.50394"/>
		<g id="group3-1" transform="translate(0.72,-0.72)" v:mID="3" v:groupContext="group">
			<title>Feuille.3</title>
			<g id="shape1-2" v:mID="1" v:groupContext="shape" transform="translate(5.85469E-016,-51.0396)">
				<title>Feuille.1</title>
				<rect x="0" y="52.4796" width="0.0159449" height="0.0159449" class="st1"/>
			</g>
			<g id="shape2-4" v:mID="2" v:groupContext="shape" transform="translate(42.5277,0)">
				<title>Feuille.2</title>
				<rect x="0" y="52.4796" width="0.0159449" height="0.0159449" class="st1"/>
			</g>
		</g>
		<use id="shape4-6" v:mID="4" xlink:href="#master5" transform="translate(9.23191,-4.98791)">
			<title>FL_EF1503</title>
		</use>
	</g>
</svg>
