<?xml version="1.0" encoding="UTF-8" standalone="no"?>
<!DOCTYPE svg PUBLIC "-//W3C//DTD SVG 1.0//EN" "C:\SeeVisioDTD\svg10.dtd">
<!-- Généré par Microsoft Visio 11.0, SVG Export, v1.0 FL_EF1906.svg FL_EF0201 -->
<!--
/*******************************************************************************
* Copyright (c) 2010-2013 ITER Organization.
* All rights reserved. This program and the accompanying materials
* are made available under the terms of the Eclipse Public License v1.0
* which accompanies this distribution, and is available at
* http://www.eclipse.org/legal/epl-v10.html
******************************************************************************/
-->
<svg xmlns="http://www.w3.org/2000/svg" xmlns:v="http://schemas.microsoft.com/visio/2003/SVGExtensions/" width="0.492441in"
		height="0.728661in" viewBox="0 0 35.4557 52.4636" xml:space="preserve" color-interpolation-filters="sRGB" class="st1">
	<v:documentProperties v:langID="1036" v:metric="true" v:viewMarkup="false"/>
	<style type="text/css">
	<![CDATA[
		.st1 {fill:none;fill-rule:evenodd;font-size:12;overflow:visible;stroke-linecap:square;stroke-miterlimit:3}
		.st2 {fill:#ffffff;stroke:#000000;stroke-linecap:round;stroke-linejoin:round;stroke-width:0.72}
	]]>
	</style>
	<defs id="Masters">
		<symbol id="master195" v:mID="195" class="st1">
			<title>FL_EF1906</title>
			<g id="master-shape5-2" v:mID="5" v:groupContext="shape">
				<title>Feuille.5</title>
				<path d="M27.57 15.81 A2.68545 2.68545 -180 0 0 26.58 15.81 L27.57 15.81 Z M6.34 21.07 L7.53 21.07 A2.68545 2.68545
							 -180 0 0 7.43 15.81 A2.68545 2.68545 -180 0 0 6.34 21.07 Z M6.34 21.07 A2.68545 2.68545 -180 0 0 7.53
							 21.07 L6.34 21.07 Z M26.58 15.81 L7.43 15.81 A2.68545 2.68545 0 0 1 7.53 21.07 L26.48 21.07 A2.68545
							 2.68545 0 0 1 26.58 15.81 Z M27.57 15.81 L26.58 15.81 A2.68545 2.68545 -180 0 0 26.48 21.07 L27.67 21.07
							 A2.68545 2.68545 -180 0 0 27.57 15.81 Z M26.48 21.07 A2.68545 2.68545 -180 0 0 27.67 21.07 L26.48 21.07
							 Z M34.02 9.94 L29.76 1.44 L4.25 1.44 L0 9.94 L0 52.46 L34.02 52.46 L34.02 9.94 Z M27.57 15.81 A2.68545
							 2.68545 0 0 1 27.67 21.07 A2.68545 2.68545 0 0 1 26.48 21.07 L7.53 21.07 A2.68545 2.68545 0 0 1 6.34
							 21.07 A2.68545 2.68545 0 0 1 7.43 15.81 L26.58 15.81 A2.68545 2.68545 0 0 1 27.57 15.81 Z" class="st2"/>
			</g>
		</symbol>
	</defs>
	<g v:mID="0" v:index="1" v:groupContext="foregroundPage">
		<title>FL_EF0201</title>
		<v:pageProperties v:drawingScale="0.0393701" v:pageScale="0.0393701" v:drawingUnits="24" v:shadowOffsetX="9"
				v:shadowOffsetY="-9"/>
		<use id="shape22-1" v:mID="22" xlink:href="#master195" transform="translate(0.72,-0.72)">
			<title>FL_EF1906</title>
		</use>
	</g>
</svg>
