<?xml version="1.0" encoding="UTF-8"?>
<!--
/*******************************************************************************
* Copyright (c) 2010-2016 ITER Organization.
* All rights reserved. This program and the accompanying materials
* are made available under the terms of the Eclipse Public License v1.0
* which accompanies this distribution, and is available at
* http://www.eclipse.org/legal/epl-v10.html
******************************************************************************/
-->
<svg xmlns="http://www.w3.org/2000/svg" xmlns:xlink="http://www.w3.org/1999/xlink" width="33pt" height="99pt" viewBox="0 0 33 99" version="1.1">
<g id="surface1">
<path style="fill-rule:evenodd;fill:rgb(65.098039%,65.098039%,65.098039%);fill-opacity:1;stroke-width:0.720001;stroke-linecap:round;stroke-linejoin:round;stroke:rgb(0%,0%,0%);stroke-opacity:1;stroke-miterlimit:3;" d="M 0.347916 30.652049 L 0.347916 22.152058 L 17.358314 30.652049 L 17.358314 22.152058 Z " transform="matrix(1.875002,0,0,1.875002,0.00000000000000111,0)"/>
<path style=" stroke:none;fill-rule:evenodd;fill:rgb(100%,100%,100%);fill-opacity:1;" d="M 16.578125 16.933594 L 8.609375 16.933594 L 8.609375 32.890625 L 16.578125 32.890625 Z M 16.578125 16.933594 L 24.546875 16.933594 L 24.546875 0.996094 L 8.609375 0.996094 L 8.609375 16.933594 Z M 16.578125 16.933594 L 16.578125 32.890625 L 24.546875 32.890625 L 24.546875 16.933594 Z "/>
<path style="fill:none;stroke-width:0.719999;stroke-linecap:round;stroke-linejoin:round;stroke:rgb(0%,0%,0%);stroke-opacity:1;stroke-miterlimit:3;" d="M 8.841657 9.03124 L 4.591661 9.03124 L 4.591661 17.541647 L 8.841657 17.541647 L 8.841657 9.03124 " transform="matrix(1.875002,0,0,1.875002,0.00000000000000111,0)"/>
<path style="fill:none;stroke-width:0.719999;stroke-linecap:round;stroke-linejoin:round;stroke:rgb(0%,0%,0%);stroke-opacity:1;stroke-miterlimit:3;" d="M 8.841657 9.03124 L 13.091652 9.03124 L 13.091652 0.531249 L 4.591661 0.531249 L 4.591661 9.03124 L 8.841657 9.03124 " transform="matrix(1.875002,0,0,1.875002,0.00000000000000111,0)"/>
<path style="fill:none;stroke-width:0.719999;stroke-linecap:round;stroke-linejoin:round;stroke:rgb(0%,0%,0%);stroke-opacity:1;stroke-miterlimit:3;" d="M 8.841657 9.03124 L 8.841657 17.541647 L 13.091652 17.541647 L 13.091652 9.03124 L 8.841657 9.03124 " transform="matrix(1.875002,0,0,1.875002,0.00000000000000111,0)"/>
<path style="fill:none;stroke-width:0.719999;stroke-linecap:round;stroke-linejoin:round;stroke:rgb(0%,0%,0%);stroke-opacity:1;stroke-miterlimit:3;" d="M 8.841657 17.541647 L 8.841657 26.041637 " transform="matrix(1.875002,0,0,1.875002,0.00000000000000111,0)"/>
</g>
</svg>
