<?xml version="1.0" encoding="UTF-8"?>
<!--
/*******************************************************************************
* Copyright (c) 2010-2016 ITER Organization.
* All rights reserved. This program and the accompanying materials
* are made available under the terms of the Eclipse Public License v1.0
* which accompanies this distribution, and is available at
* http://www.eclipse.org/legal/epl-v10.html
******************************************************************************/
-->
<svg xmlns="http://www.w3.org/2000/svg" xmlns:xlink="http://www.w3.org/1999/xlink" width="33pt" height="66pt" viewBox="0 0 33 66" version="1.1">
<g id="surface1">
<path style="fill-rule:evenodd;fill:rgb(65.098039%,65.098039%,65.098039%);fill-opacity:1;stroke-width:0.720001;stroke-linecap:round;stroke-linejoin:round;stroke:rgb(0%,0%,0%);stroke-opacity:1;stroke-miterlimit:3;" d="M 4.972591 24.124055 L 4.972591 15.624064 L 21.982988 24.124055 L 21.982988 15.624064 Z " transform="matrix(1.875002,0,0,1.875002,-8.612681,-3.884997)"/>
<path style=" stroke:none;fill-rule:evenodd;fill:rgb(100%,100%,100%);fill-opacity:1;" d="M 16.632813 16.753906 L 32.589844 16.753906 C 32.589844 7.945313 25.449219 0.800781 16.640625 0.800781 C 7.832031 0.800781 0.691406 7.945313 0.695313 16.753906 Z "/>
<path style="fill:none;stroke-width:0.719999;stroke-linecap:round;stroke-linejoin:round;stroke:rgb(0%,0%,0%);stroke-opacity:1;stroke-miterlimit:3;" d="M 13.464248 11.007403 L 21.974655 11.007403 C 21.974655 6.309491 18.166326 2.499079 13.468415 2.499079 C 8.770503 2.499079 4.962174 6.309491 4.964258 11.007403 L 13.464248 11.007403 " transform="matrix(1.875002,0,0,1.875002,-8.612681,-3.884997)"/>
<path style="fill:none;stroke-width:0.719999;stroke-linecap:round;stroke-linejoin:round;stroke:rgb(0%,0%,0%);stroke-opacity:1;stroke-miterlimit:3;" d="M 13.464248 11.007403 L 13.464248 19.507393 " transform="matrix(1.875002,0,0,1.875002,-8.612681,-3.884997)"/>
<path style="fill-rule:evenodd;fill:rgb(100%,100%,100%);fill-opacity:1;stroke-width:0.749999;stroke-linecap:round;stroke-linejoin:round;stroke:rgb(0%,0%,0%);stroke-opacity:1;stroke-miterlimit:3;" d="M 21.970488 24.134471 L 13.470498 19.884476 L 21.960072 15.634481 Z " transform="matrix(1.875002,0,0,1.875002,-8.612681,-3.884997)"/>
</g>
</svg>
