<?xml version="1.0" encoding="UTF-8" standalone="no"?>
<!DOCTYPE svg PUBLIC "-//W3C//DTD SVG 1.0//EN" "C:\SeeVisioDTD\svg10.dtd">
<!-- Generated by Microsoft Visio 11.0, SVG Export, v1.0 FL_EF0702.svg Page-1 -->
<!--
/*******************************************************************************
* Copyright (c) 2010-2013 ITER Organization.
* All rights reserved. This program and the accompanying materials
* are made available under the terms of the Eclipse Public License v1.0
* which accompanies this distribution, and is available at
* http://www.eclipse.org/legal/epl-v10.html
******************************************************************************/
-->
<svg xmlns="http://www.w3.org/2000/svg" xmlns:v="http://schemas.microsoft.com/visio/2003/SVGExtensions/" width="0.488457in"
		height="1.17981in" viewBox="0 0 35.1689 84.9461" xml:space="preserve" color-interpolation-filters="sRGB" class="st2">
	<v:documentProperties v:langID="1036" v:metric="true" v:viewMarkup="false"/>

	<style type="text/css">
	<![CDATA[
		.st1 {fill:none;stroke:#ffffff;stroke-linecap:round;stroke-linejoin:round;stroke-width:0.01}
		.st2 {fill:none;fill-rule:evenodd;font-size:12;overflow:visible;stroke-linecap:square;stroke-miterlimit:3}
		.st3 {fill:#ffffff;stroke:none;stroke-width:1}
		.st4 {fill:none;stroke:#000000;stroke-linecap:round;stroke-linejoin:round;stroke-width:0.720001}
		.st5 {fill:none}
		.st6 {stroke:#000000;stroke-linecap:round;stroke-linejoin:round;stroke-width:0.720001}
		.st7 {marker-end:url(#mrkr5-27);stroke:#000000;stroke-linecap:round;stroke-linejoin:round;stroke-width:0.72}
		.st8 {fill:#000000;fill-opacity:1;stroke:#000000;stroke-opacity:1;stroke-width:0.3333333663139}
	]]>
	</style>

	<defs id="Masters">
		<symbol id="master0" v:mID="0" class="st2">
			<title>FL_EF0702</title>
			<g id="group4-8" v:mID="4" v:groupContext="group">
				<title>FL_EF0702.4</title>
				<g id="master-shape5-9" v:mID="5" v:groupContext="shape">
					<title>Sheet.5</title>
					<path d="M17.01 55.18 A8.72942 8.72942 -180 0 0 -0 55.18 L17.01 55.18 Z M0 84.95 L0 76.44 L17.01 84.95 L17.01
								 76.44 L0 84.95 Z" class="st3"/>
				</g>
				<g id="master-shape6-11" v:mID="6" v:groupContext="shape" transform="translate(1.07914E-013,-29.7701)">
					<title>Sheet.6</title>
					<path d="M17.01 84.95 A8.72942 8.72942 -180 0 0 0 84.95 L17.01 84.95 Z" class="st4"/>
				</g>
				<g id="master-shape7-13" v:mID="7" v:groupContext="shape">
					<title>Sheet.7</title>
					<path d="M0 84.95 L0 76.44 L17.01 84.95 L17.01 76.44 L0 84.95 Z" class="st4"/>
				</g>
				<g id="master-shape8-15" v:mID="8" v:groupContext="shape" transform="translate(8.50002,-4.26001)">
					<title>Sheet.8</title>
					<path d="M0 84.95 L0 59.44 L0 84.95 Z" class="st5"/>
					<path d="M0 84.95 L0 59.44" class="st6"/>
				</g>
				<g id="master-shape9-18" v:mID="9" v:groupContext="shape" transform="translate(8.50002,-4.26001)">
					<title>Sheet.9</title>
					<path d="M0 52.68 L0 44.18 L12.76 44.18 L12.76 65.44 L0 84.95 L0 52.68 Z" class="st5"/>
					<path d="M0 52.68 L0 44.18 L12.76 44.18 L12.76 65.44 L0 84.95" class="st6"/>
				</g>
			</g>
		</symbol>
	</defs>
	<defs id="Markers">
		<g id="lend5">
			<path d="M 2 1 L -0 0 L 1.98117 -0.993387 C 1.67173 -0.364515 1.67301 0.372641 1.98465 1.00043 " style="stroke:none"/>
		</g>
		<marker id="mrkr5-27" class="st8" v:arrowType="5" v:arrowSize="0" v:setback="5.25" refX="-5.2499994805562" orient="auto"
				markerUnits="strokeWidth">
			<use xlink:href="#lend5" transform="scale(-2.999999703175,-2.999999703175) "/>
		</marker>
	</defs>
	<g v:mID="0" v:index="1" v:groupContext="foregroundPage">
		<title>Page-1</title>
		<v:pageProperties v:drawingScale="0.0393701" v:pageScale="0.0393701" v:drawingUnits="24" v:shadowOffsetX="8.50396"
				v:shadowOffsetY="-8.50396"/>
		<g id="group1-1" transform="translate(0.738417,-0.01)" v:mID="1" v:groupContext="group">
			<title>Feuille.3</title>
			<g id="shape2-2" v:mID="2" v:groupContext="shape" transform="translate(33.9875,0)">
				<title>Feuille.1</title>
				<rect x="0" y="84.9178" width="0.0283466" height="0.0283466" class="st1"/>
			</g>
			<g id="shape3-4" v:mID="3" v:groupContext="shape" transform="translate(1.65883E-016,-84.8978)">
				<title>Feuille.2</title>
				<rect x="0" y="84.9178" width="0.0283466" height="0.0283466" class="st1"/>
			</g>
		</g>
		<g id="group11-6" transform="translate(4.82991,-36.0012)" v:mID="11" v:groupContext="group">
			<title>Sheet.11</title>
			<use id="shape4-7" v:mID="4" xlink:href="#master0" transform="translate(4.41247,-2.22873)">
				<title>FL_EF0702.4</title>
			</use>
			<g id="group10-21" transform="translate(-37.9891,8.96803) rotate(-26.5651)" v:mID="10" v:groupContext="group">
				<title>Sheet.10</title>
				<g id="shape10-22" v:mID="10" v:groupContext="groupContent">
					<path d="M0 84.95 L24.74 84.95 L24.74 84.95" class="st7"/>
				</g>
			</g>
		</g>
	</g>
</svg>
