<?xml version="1.0" encoding="UTF-8" standalone="no"?>
<!DOCTYPE svg PUBLIC "-//W3C//DTD SVG 1.0//EN" "C:\SeeVisioDTD\svg10.dtd">
<!-- Generated by Microsoft Visio 11.0, SVG Export, v1.0 FL_EF010110CF.svg Page-1 -->
<!--
/*******************************************************************************
* Copyright (c) 2010-2013 ITER Organization.
* All rights reserved. This program and the accompanying materials
* are made available under the terms of the Eclipse Public License v1.0
* which accompanies this distribution, and is available at
* http://www.eclipse.org/legal/epl-v10.html
******************************************************************************/
-->
<svg xmlns="http://www.w3.org/2000/svg" xmlns:v="http://schemas.microsoft.com/visio/2003/SVGExtensions/" width="0.374331in"
		height="0.374331in" viewBox="0 0 26.9519 26.9519" xml:space="preserve" color-interpolation-filters="sRGB" class="st10">
	<v:documentProperties v:langID="1036" v:metric="true" v:viewMarkup="false"/>

	<style type="text/css">
	<![CDATA[
		.st1 {fill:#ffffff;stroke:none;stroke-linecap:round;stroke-linejoin:round;stroke-width:0.720001}
		.st2 {fill:#ffffff;stroke:none;stroke-linecap:round;stroke-linejoin:round;stroke-width:0.72}
		.st3 {fill:none;stroke:none;stroke-width:1}
		.st4 {fill:none}
		.st5 {stroke:none;stroke-linecap:round;stroke-linejoin:round;stroke-width:0.72}
		.st6 {stroke:#000000;stroke-linecap:round;stroke-linejoin:round;stroke-width:0.72}
		.st7 {fill:#a6a6a6;stroke:none;stroke-width:1}
		.st8 {fill:none;stroke:#000000;stroke-linecap:round;stroke-linejoin:round;stroke-width:0.720001}
		.st9 {stroke:#000000;stroke-linecap:round;stroke-linejoin:round;stroke-width:0.720001}
		.st10 {fill:none;fill-rule:evenodd;font-size:12;overflow:visible;stroke-linecap:square;stroke-miterlimit:3}
	]]>
	</style>

	<g v:mID="0" v:index="1" v:groupContext="foregroundPage">
		<title>Page-1</title>
		<v:pageProperties v:drawingScale="0.0393701" v:pageScale="0.0393701" v:drawingUnits="24" v:shadowOffsetX="8.50395"
				v:shadowOffsetY="-8.50395"/>
		<g id="group1-1" transform="translate(0.720001,-0.720001)" v:mID="1" v:groupContext="group">
			<title>Feuille.1</title>
			<g id="shape2-2" v:mID="2" v:groupContext="shape" transform="translate(0,-25.4959)">
				<title>Feuille.2</title>
				<rect x="0" y="26.9359" width="0.0159449" height="0.0159449" class="st1"/>
			</g>
			<g id="shape3-4" v:mID="3" v:groupContext="shape" transform="translate(25.4959,3.55271E-015)">
				<title>Feuille.3</title>
				<rect x="0" y="26.9359" width="0.0159449" height="0.0159449" class="st1"/>
			</g>
		</g>
		<g id="group4-6" transform="translate(3.38841,-9.22574)" v:mID="4" v:groupContext="group">
			<title>Sheet.4</title>
			<g id="shape5-7" v:mID="5" v:groupContext="shape" transform="translate(-6.81281,26.9452) rotate(-90)">
				<title>Sheet.5</title>
				<rect x="0" y="25.3928" width="8.50394" height="1.55906" class="st2"/>
			</g>
			<g id="shape6-9" v:mID="6" v:groupContext="shape" transform="translate(-25.3819,26.9452) rotate(-90)">
				<title>Sheet.6</title>
				<rect x="0" y="25.3928" width="8.50394" height="1.55906" class="st2"/>
			</g>
			<g id="group7-11" transform="translate(1.57,45.3958) rotate(180)" v:mID="7" v:groupContext="group">
				<title>Sheet.7</title>
				<g id="shape8-12" v:mID="8" v:groupContext="shape">
					<title>Sheet.8</title>
					<path d="M0 26.95 L1.57 26.95 L0 26.95 Z" class="st3"/>
				</g>
				<g id="shape9-14" v:mID="9" v:groupContext="shape">
					<title>Sheet.9</title>
					<path d="M0 26.95 L1.57 26.95 L0 26.95 Z" class="st4"/>
					<path d="M0 26.95 L1.57 26.95" class="st5"/>
				</g>
			</g>
			<g id="group10-17" transform="translate(1.57,53.8959) rotate(180)" v:mID="10" v:groupContext="group">
				<title>Sheet.10</title>
				<g id="shape11-18" v:mID="11" v:groupContext="shape">
					<title>Sheet.11</title>
					<path d="M0 26.95 L1.57 26.95 L0 26.95 Z" class="st3"/>
				</g>
				<g id="shape12-20" v:mID="12" v:groupContext="shape">
					<title>Sheet.12</title>
					<path d="M0 26.95 L1.57 26.95 L0 26.95 Z" class="st4"/>
					<path d="M0 26.95 L1.57 26.95" class="st5"/>
				</g>
			</g>
			<g id="group13-23" transform="translate(20.1504,53.8959) rotate(180)" v:mID="13" v:groupContext="group">
				<title>Sheet.13</title>
				<g id="shape14-24" v:mID="14" v:groupContext="shape">
					<title>Sheet.14</title>
					<path d="M0 26.95 L1.57 26.95 L0 26.95 Z" class="st3"/>
				</g>
				<g id="shape15-26" v:mID="15" v:groupContext="shape">
					<title>Sheet.15</title>
					<path d="M0 26.95 L1.57 26.95 L0 26.95 Z" class="st4"/>
					<path d="M0 26.95 L1.57 26.95" class="st5"/>
				</g>
			</g>
			<g id="group16-29" transform="translate(20.1504,45.3958) rotate(180)" v:mID="16" v:groupContext="group">
				<title>Sheet.16</title>
				<g id="shape17-30" v:mID="17" v:groupContext="shape">
					<title>Sheet.17</title>
					<path d="M0 26.95 L1.57 26.95 L0 26.95 Z" class="st3"/>
				</g>
				<g id="shape18-32" v:mID="18" v:groupContext="shape">
					<title>Sheet.18</title>
					<path d="M0 26.95 L1.57 26.95 L0 26.95 Z" class="st4"/>
					<path d="M0 26.95 L1.57 26.95" class="st5"/>
				</g>
			</g>
			<g id="group19-35" transform="translate(26.9553,18.4402) rotate(90)" v:mID="19" v:groupContext="group">
				<title>Sheet.19</title>
				<g id="shape20-36" v:mID="20" v:groupContext="shape">
					<title>Sheet.20</title>
					<path d="M0 26.95 L8.5 26.95 L0 26.95 Z" class="st3"/>
				</g>
				<g id="shape21-38" v:mID="21" v:groupContext="shape">
					<title>Sheet.21</title>
					<path d="M0 26.95 L8.5 26.95 L0 26.95 Z" class="st4"/>
					<path d="M0 26.95 L8.5 26.95" class="st6"/>
				</g>
			</g>
			<g id="group22-41" transform="translate(47.1061,18.4402) rotate(90)" v:mID="22" v:groupContext="group">
				<title>Sheet.22</title>
				<g id="shape23-42" v:mID="23" v:groupContext="shape">
					<title>Sheet.23</title>
					<path d="M0 26.95 L8.5 26.95 L0 26.95 Z" class="st3"/>
				</g>
				<g id="shape24-44" v:mID="24" v:groupContext="shape">
					<title>Sheet.24</title>
					<path d="M0 26.95 L8.5 26.95 L0 26.95 Z" class="st4"/>
					<path d="M0 26.95 L8.5 26.95" class="st6"/>
				</g>
			</g>
			<g id="group25-47" transform="translate(1.58357,3.55271E-014)" v:mID="25" v:groupContext="group">
				<title>FL_EF010110.25</title>
				<g id="shape26-48" v:mID="26" v:groupContext="shape" transform="translate(0,-0.00191)">
					<title>Sheet.26</title>
					<path d="M8.98 22.7 a0.472442 0.472442 -180 1 0 -0.944883 0 a0.472442 0.472442 -180 1 0 0.944883 7.10543E-015
								 Z M0 26.95 L17.01 26.95 L17.01 18.45 L0 18.45 L0 26.95 Z" class="st7"/>
				</g>
				<g id="shape27-50" v:mID="27" v:groupContext="shape" transform="translate(8.03025,-3.77634)">
					<title>Sheet.27</title>
					<path d="M0.94 26.48 a0.472442 0.472442 -180 1 0 -0.944883 3.55271E-015 a0.472442 0.472442 -180 1 0 0.944883
								 3.55271E-015 Z" class="st8"/>
				</g>
				<g id="group28-52" transform="translate(0,-0.00191)" v:mID="28" v:groupContext="group">
					<title>Sheet.28</title>
					<g id="shape29-53" v:mID="29" v:groupContext="shape">
						<title>Sheet.29</title>
						<path d="M17.01 18.45 L0 26.95 L17.01 18.45 Z" class="st3"/>
					</g>
					<g id="shape30-55" v:mID="30" v:groupContext="shape">
						<title>Sheet.30</title>
						<path d="M17.01 18.45 L0 26.95 L17.01 18.45 Z" class="st4"/>
						<path d="M17.01 18.45 L0 26.95" class="st9"/>
					</g>
				</g>
				<g id="shape31-58" v:mID="31" v:groupContext="shape">
					<title>Sheet.31</title>
					<rect x="0" y="18.4518" width="17.01" height="8.50001" class="st8"/>
				</g>
			</g>
		</g>
	</g>
</svg>
