<?xml version="1.0" encoding="UTF-8" standalone="no"?>
<!DOCTYPE svg PUBLIC "-//W3C//DTD SVG 1.0//EN" "C:\SeeVisioDTD\svg10.dtd">
<!-- Generated by Microsoft Visio 11.0, SVG Export, v1.0 FL_EF010110F.svg Page-1 -->
<!--
/*******************************************************************************
* Copyright (c) 2010-2014 ITER Organization.
* All rights reserved. This program and the accompanying materials
* are made available under the terms of the Eclipse Public License v1.0
* which accompanies this distribution, and is available at
* http://www.eclipse.org/legal/epl-v10.html
******************************************************************************/
-->
<svg xmlns="http://www.w3.org/2000/svg" xmlns:v="http://schemas.microsoft.com/visio/2003/SVGExtensions/" width="0.374332in"
		height="0.374332in" viewBox="0 0 26.9519 26.9519" xml:space="preserve" color-interpolation-filters="sRGB" class="st6">
	<v:documentProperties v:langID="1036" v:metric="true" v:viewMarkup="false"/>
	<style type="text/css">
	<![CDATA[
		.st1 {fill:#ffffff;stroke:none;stroke-linecap:round;stroke-linejoin:round;stroke-width:0.720001}
		.st2 {fill:#ffffff;stroke:none;stroke-linecap:round;stroke-linejoin:round;stroke-width:0.72}
		.st3 {fill:none}
		.st4 {stroke:none;stroke-linecap:round;stroke-linejoin:round;stroke-width:0.72}
		.st5 {stroke:#000000;stroke-linecap:round;stroke-linejoin:round;stroke-width:0.72}
		.st6 {fill:none;fill-rule:evenodd;font-size:12;overflow:visible;stroke-linecap:square;stroke-miterlimit:3}
		.st7 {fill:#ffffff;stroke:none;stroke-width:1}
		.st8 {fill:none;stroke:#000000;stroke-linecap:round;stroke-linejoin:round;stroke-width:0.720001}
		.st9 {stroke:#000000;stroke-linecap:round;stroke-linejoin:round;stroke-width:0.720001}
	]]>
	</style>
	<defs id="Masters">
		<symbol id="master0" v:mID="0" class="st6">
			<title>FL_EF010110</title>
			<g id="group4-30" v:mID="4" v:groupContext="group">
				<title>FL_EF010110.4</title>
				<g id="master-shape5-31" v:mID="5" v:groupContext="shape">
					<title>Sheet.5</title>
					<path d="M8.98 22.7 a0.472442 0.472442 -180 1 0 -0.944883 0 a0.472442 0.472442 -180 1 0 0.944883 7.10543E-015
								 Z M0 26.95 L17.01 26.95 L17.01 18.45 L0 18.45 L0 26.95 Z" class="st7"/>
				</g>
				<g id="master-shape6-33" v:mID="6" v:groupContext="shape" transform="translate(8.03513,-3.77756)">
					<title>Sheet.6</title>
					<path d="M0.94 26.48 a0.472442 0.472442 -180 1 0 -0.944883 0 a0.472442 0.472442 -180 1 0 0.944883 3.55271E-015
								 Z" class="st8"/>
				</g>
				<g id="master-shape7-35" v:mID="7" v:groupContext="shape">
					<title>Sheet.7</title>
					<path d="M17.01 18.45 L0 26.95 L17.01 18.45 Z" class="st3"/>
					<path d="M17.01 18.45 L0 26.95" class="st9"/>
				</g>
				<g id="master-shape8-38" v:mID="8" v:groupContext="shape">
					<title>Sheet.8</title>
					<rect x="0" y="18.4519" width="17.01" height="8.50001" class="st8"/>
				</g>
			</g>
		</symbol>
	</defs>
	<g v:mID="0" v:index="1" v:groupContext="foregroundPage">
		<title>Page-1</title>
		<v:pageProperties v:drawingScale="0.0393701" v:pageScale="0.0393701" v:drawingUnits="24" v:shadowOffsetX="8.50395"
				v:shadowOffsetY="-8.50395"/>
		<g id="group1-1" transform="translate(0.720001,-0.720001)" v:mID="1" v:groupContext="group">
			<title>Feuille.1</title>
			<g id="shape2-2" v:mID="2" v:groupContext="shape" transform="translate(0,-25.4959)">
				<title>Feuille.2</title>
				<rect x="0" y="26.9359" width="0.0159449" height="0.0159449" class="st1"/>
			</g>
			<g id="shape3-4" v:mID="3" v:groupContext="shape" transform="translate(25.4959,3.55271E-015)">
				<title>Feuille.3</title>
				<rect x="0" y="26.9359" width="0.0159449" height="0.0159449" class="st1"/>
			</g>
		</g>
		<g id="group17-6" transform="translate(3.38841,-9.2258)" v:mID="17" v:groupContext="group">
			<title>Sheet.17</title>
			<g id="shape9-7" v:mID="9" v:groupContext="shape" transform="translate(-6.81282,26.9453) rotate(-90)">
				<title>Sheet.9</title>
				<rect x="0" y="25.3928" width="8.50394" height="1.55906" class="st2"/>
			</g>
			<g id="shape10-9" v:mID="10" v:groupContext="shape" transform="translate(-25.3819,26.9453) rotate(-90)">
				<title>Sheet.10</title>
				<rect x="0" y="25.3928" width="8.50394" height="1.55906" class="st2"/>
			</g>
			<g id="shape11-11" v:mID="11" v:groupContext="shape" transform="translate(1.57,45.394) rotate(180)">
				<title>Sheet.11</title>
				<path d="M0 26.95 L1.57 26.95 L0 26.95 Z" class="st3"/>
				<path d="M0 26.95 L1.57 26.95" class="st4"/>
			</g>
			<g id="shape12-14" v:mID="12" v:groupContext="shape" transform="translate(1.57,53.8941) rotate(180)">
				<title>Sheet.12</title>
				<path d="M0 26.95 L1.57 26.95 L0 26.95 Z" class="st3"/>
				<path d="M0 26.95 L1.57 26.95" class="st4"/>
			</g>
			<g id="shape13-17" v:mID="13" v:groupContext="shape" transform="translate(20.1504,53.8941) rotate(180)">
				<title>Sheet.13</title>
				<path d="M0 26.95 L1.57 26.95 L0 26.95 Z" class="st3"/>
				<path d="M0 26.95 L1.57 26.95" class="st4"/>
			</g>
			<g id="shape14-20" v:mID="14" v:groupContext="shape" transform="translate(20.1504,45.394) rotate(180)">
				<title>Sheet.14</title>
				<path d="M0 26.95 L1.57 26.95 L0 26.95 Z" class="st3"/>
				<path d="M0 26.95 L1.57 26.95" class="st4"/>
			</g>
			<g id="shape15-23" v:mID="15" v:groupContext="shape" transform="translate(26.9534,18.4403) rotate(90)">
				<title>Sheet.15</title>
				<path d="M0 26.95 L8.5 26.95 L0 26.95 Z" class="st3"/>
				<path d="M0 26.95 L8.5 26.95" class="st5"/>
			</g>
			<g id="shape16-26" v:mID="16" v:groupContext="shape" transform="translate(47.1042,18.4403) rotate(90)">
				<title>Sheet.16</title>
				<path d="M0 26.95 L8.5 26.95 L0 26.95 Z" class="st3"/>
				<path d="M0 26.95 L8.5 26.95" class="st5"/>
			</g>
			<use id="shape4-29" v:mID="4" xlink:href="#master0" transform="translate(1.58357,3.55271E-015)">
				<title>FL_EF010110.4</title>
			</use>
		</g>
	</g>
</svg>
