<?xml version="1.0" encoding="UTF-8"?>
<!--
/*******************************************************************************
* Copyright (c) 2010-2016 ITER Organization.
* All rights reserved. This program and the accompanying materials
* are made available under the terms of the Eclipse Public License v1.0
* which accompanies this distribution, and is available at
* http://www.eclipse.org/legal/epl-v10.html
******************************************************************************/
-->
<svg xmlns="http://www.w3.org/2000/svg" xmlns:xlink="http://www.w3.org/1999/xlink" width="51pt" height="82pt" viewBox="0 0 51 82" version="1.1">
<g id="surface1">
<path style="fill-rule:evenodd;fill:rgb(100%,100%,100%);fill-opacity:1;stroke-width:0.72;stroke-linecap:round;stroke-linejoin:round;stroke:rgb(0%,0%,0%);stroke-opacity:1;stroke-miterlimit:3;" d="M 0.000809209 31.200583 L 12.759151 43.959166 L 25.509159 31.200583 L 25.509159 1.441037 L 0.000809209 1.441037 Z M 14.879985 26.949819 C 14.902902 27.725353 14.502902 28.450582 13.836235 28.844637 C 13.169568 29.238692 12.3404 29.238692 11.673733 28.844637 C 11.007066 28.450582 10.607066 27.725353 10.629983 26.949819 C 10.607066 26.176381 11.007066 25.449055 11.673733 25.055 C 12.3404 24.660945 13.169568 24.660945 13.836235 25.055 C 14.502902 25.449055 14.902902 26.176381 14.879985 26.949819 Z M 14.879985 9.940471 C 14.902902 10.713909 14.502902 11.441234 13.836235 11.835289 C 13.169568 12.229344 12.3404 12.229344 11.673733 11.835289 C 11.007066 11.441234 10.607066 10.713909 10.629983 9.940471 C 10.607066 9.164937 11.007066 8.439708 11.673733 8.045653 C 12.3404 7.651597 13.169568 7.651597 13.836235 8.045653 C 14.502902 8.439708 14.902902 9.164937 14.879985 9.940471 Z " transform="matrix(1.874999,0,0,1.863635,1.350045,-1.341817)"/>
<path style="fill-rule:evenodd;fill:rgb(0%,0%,0%);fill-opacity:1;stroke-width:0.72;stroke-linecap:round;stroke-linejoin:round;stroke:rgb(0%,0%,0%);stroke-opacity:1;stroke-miterlimit:3;" d="M 4.252169 41.834463 C 4.252169 40.658586 3.300085 39.706984 2.125084 39.706984 C 0.952167 39.706984 0.0000826459 40.658586 0.0000826459 41.834463 C 0.0000826459 43.008244 0.952167 43.959845 2.125084 43.959845 C 3.300085 43.959845 4.252169 43.008244 4.252169 41.834463 Z " transform="matrix(1.874999,0,0,1.863635,21.281095,-60.77277)"/>
<path style="fill-rule:evenodd;fill:rgb(0%,0%,0%);fill-opacity:1;stroke-width:0.72;stroke-linecap:round;stroke-linejoin:round;stroke:rgb(0%,0%,0%);stroke-opacity:1;stroke-miterlimit:3;" d="M 4.252169 41.833815 C 4.252169 40.660033 3.300085 39.708432 2.125084 39.708432 C 0.952167 39.708432 0.0000826459 40.660033 0.0000826459 41.833815 C 0.0000826459 43.007596 0.952167 43.959197 2.125084 43.959197 C 3.300085 43.959197 4.252169 43.007596 4.252169 41.833815 Z " transform="matrix(1.874999,0,0,1.863635,21.281095,-29.07625)"/>
</g>
</svg>
