<?xml version="1.0" encoding="UTF-8"?>
<!--
/*******************************************************************************
* Copyright (c) 2010-2016 ITER Organization.
* All rights reserved. This program and the accompanying materials
* are made available under the terms of the Eclipse Public License v1.0
* which accompanies this distribution, and is available at
* http://www.eclipse.org/legal/epl-v10.html
******************************************************************************/
-->
<svg xmlns="http://www.w3.org/2000/svg" xmlns:xlink="http://www.w3.org/1999/xlink" width="51pt" height="84pt" viewBox="0 0 51 84" version="1.1">
<g id="surface1">
<path style=" stroke:none;fill-rule:evenodd;fill:rgb(100%,100%,100%);fill-opacity:1;" d="M 49.707031 1.875 L 1.875 1.875 L 1.875 57.675781 L 25.800781 81.601563 L 49.707031 57.675781 Z "/>
<path style="fill:none;stroke-width:0.72;stroke-linecap:round;stroke-linejoin:round;stroke:rgb(0%,0%,0%);stroke-opacity:1;stroke-miterlimit:3;" d="M 0.00000187241 44.519992 L 25.510441 44.519992 " transform="matrix(1.874998,0,0,1.874998,1.874996,-81.599913)"/>
<path style="fill:none;stroke-width:0.72;stroke-linecap:round;stroke-linejoin:round;stroke:rgb(0%,0%,0%);stroke-opacity:1;stroke-miterlimit:3;" d="M 25.510441 1.999992 L 0.00000187241 1.999992 L 0.00000187241 31.760435 L 12.76043 44.520863 L 25.510441 31.760435 Z " transform="matrix(1.874998,0,0,1.874998,1.874996,-1.874983)"/>
<path style="fill:none;stroke-width:0.72;stroke-linecap:round;stroke-linejoin:round;stroke:rgb(0%,0%,0%);stroke-opacity:1;stroke-miterlimit:3;" d="M 0.00000187241 1.999992 L 0.00000187241 31.760435 L 12.76043 44.520863 L 25.510441 31.760435 " transform="matrix(1.874998,0,0,1.874998,1.874996,-1.874983)"/>
<path style="fill:none;stroke-width:0.72;stroke-linecap:round;stroke-linejoin:round;stroke:rgb(0%,0%,0%);stroke-opacity:1;stroke-miterlimit:3;" d="M 0.000440795 14.759992 L 0.000440795 44.520435 " transform="matrix(1.874998,0,0,1.874998,49.706205,-25.799962)"/>
<path style="fill:none;stroke-width:0.72;stroke-linecap:round;stroke-linejoin:round;stroke:rgb(0%,0%,0%);stroke-opacity:1;stroke-miterlimit:3;" d="M 0.000255335 44.520181 L 4.539843 44.520181 " transform="matrix(1.874998,0,0,1.874998,9.315927,-49.709641)"/>
<path style="fill:none;stroke-width:0.72;stroke-linecap:round;stroke-linejoin:round;stroke:rgb(0%,0%,0%);stroke-opacity:1;stroke-miterlimit:3;" d="M -0.0000334616 44.519724 L 17.010398 44.519724 " transform="matrix(0.000000000000000115,1.874998,-1.874998,0.000000000000000115,101.294722,17.820375)"/>
<path style="fill:none;stroke-width:0.72;stroke-linecap:round;stroke-linejoin:round;stroke:rgb(0%,0%,0%);stroke-opacity:1;stroke-miterlimit:3;" d="M -0.0000334616 44.51955 L 17.010398 44.51955 " transform="matrix(0.000000000000000115,1.874998,-1.874998,0.000000000000000115,117.239708,17.820375)"/>
<path style="fill:none;stroke-width:0.72;stroke-linecap:round;stroke-linejoin:round;stroke:rgb(0%,0%,0%);stroke-opacity:1;stroke-miterlimit:3;" d="M 0.000450044 44.520181 L 4.540037 44.520181 " transform="matrix(1.874998,0,0,1.874998,33.764781,-49.709641)"/>
</g>
</svg>
