<?xml version="1.0" encoding="UTF-8"?>
<!--
/*******************************************************************************
* Copyright (c) 2010-2016 ITER Organization.
* All rights reserved. This program and the accompanying materials
* are made available under the terms of the Eclipse Public License v1.0
* which accompanies this distribution, and is available at
* http://www.eclipse.org/legal/epl-v10.html
******************************************************************************/
-->
<svg xmlns="http://www.w3.org/2000/svg" xmlns:xlink="http://www.w3.org/1999/xlink" width="162pt" height="131pt" viewBox="0 0 162 131" version="1.1">
<g id="surface1">
<path style=" stroke:none;fill-rule:evenodd;fill:rgb(100%,100%,100%);fill-opacity:1;" d="M 1.351563 1.355469 L 1.378906 1.355469 L 1.378906 1.386719 L 1.351563 1.386719 Z "/>
<path style=" stroke:none;fill-rule:evenodd;fill:rgb(100%,100%,100%);fill-opacity:1;" d="M 160.769531 129.371094 L 160.796875 129.371094 L 160.796875 129.402344 L 160.769531 129.402344 Z "/>
<path style=" stroke:none;fill-rule:evenodd;fill:rgb(100%,100%,100%);fill-opacity:1;" d="M 25.261719 41.902344 L 145.710938 41.902344 C 155.1875 56.496094 155.1875 75.328125 145.710938 89.917969 L 16.429688 89.917969 C 11.792969 82.78125 9.324219 74.441406 9.324219 65.921875 C 9.320313 57.394531 11.789063 49.046875 16.429688 41.902344 Z M 22.617188 59.632813 L 22.617188 56.453125 L 20.085938 58.261719 Z "/>
<path style="fill:none;stroke-width:0.72;stroke-linecap:round;stroke-linejoin:round;stroke:rgb(0%,0%,0%);stroke-opacity:1;stroke-miterlimit:3;" d="M 8.500978 43.958988 L 72.74071 43.958988 C 77.794888 51.712632 77.794888 61.718071 72.74071 69.469639 L 3.79055 69.469639 C 1.317628 65.677908 0.000958168 61.246958 0.000958168 56.72054 C -0.00112517 52.189971 1.315545 47.75487 3.79055 43.958988 L 8.500978 43.958988 " transform="matrix(1.874996,0,0,1.88218,9.322422,-40.836366)"/>
<path style="fill:none;stroke-width:0.72;stroke-linecap:round;stroke-linejoin:round;stroke:rgb(0%,0%,0%);stroke-opacity:1;stroke-miterlimit:3;" d="M 8.500978 43.958988 L 8.500978 69.469639 " transform="matrix(1.874996,0,0,1.88218,9.322422,-40.836366)"/>
<path style="fill:none;stroke-width:0.72;stroke-linecap:round;stroke-linejoin:round;stroke:rgb(0%,0%,0%);stroke-opacity:1;stroke-miterlimit:3;" d="M 8.500978 49.240847 L 59.530263 49.240847 C 62.628186 50.317973 64.703191 53.240117 64.703191 56.519227 C 64.703191 59.800413 62.628186 62.720482 59.530263 63.799683 L 8.500978 63.799683 " transform="matrix(1.874996,0,0,1.88218,9.322422,-40.836366)"/>
<path style="fill:none;stroke-width:0.72;stroke-linecap:round;stroke-linejoin:round;stroke:rgb(0%,0%,0%);stroke-opacity:1;stroke-miterlimit:3;" d="M 7.090558 53.379168 L 7.090558 51.689803 L 5.740555 52.650707 L 7.090558 53.379168 " transform="matrix(1.874996,0,0,1.88218,9.322422,-40.836366)"/>
<path style="fill:none;stroke-width:0.72;stroke-linecap:round;stroke-linejoin:round;stroke:rgb(0%,0%,0%);stroke-opacity:1;stroke-miterlimit:3;" d="M 7.090558 51.689803 L 3.400966 58.490845 L 3.400966 54.750998 L 1.419711 60.190586 " transform="matrix(1.874996,0,0,1.88218,9.322422,-40.836366)"/>
</g>
</svg>
