<?xml version="1.0" encoding="UTF-8"?>
<!--
/*******************************************************************************
* Copyright (c) 2010-2016 ITER Organization.
* All rights reserved. This program and the accompanying materials
* are made available under the terms of the Eclipse Public License v1.0
* which accompanies this distribution, and is available at
* http://www.eclipse.org/legal/epl-v10.html
******************************************************************************/
-->
<svg xmlns="http://www.w3.org/2000/svg" xmlns:xlink="http://www.w3.org/1999/xlink" width="99pt" height="145pt" viewBox="0 0 99 145" version="1.1">
<g id="surface1">
<path style=" stroke:none;fill-rule:evenodd;fill:rgb(100%,100%,100%);fill-opacity:1;" d="M 4.007813 61.613281 L 15.28125 50.378906 L 26.558594 61.613281 L 15.28125 72.851563 Z "/>
<path style=" stroke:none;fill-rule:evenodd;fill:rgb(100%,100%,100%);fill-opacity:1;" d="M 54.554688 59.554688 L 65.074219 49.070313 L 81.34375 65.28125 L 70.820313 75.765625 Z "/>
<path style=" stroke:none;fill-rule:evenodd;fill:rgb(100%,100%,100%);fill-opacity:1;" d="M 17.296875 1.34375 L 65.128906 1.34375 L 65.128906 64.90625 L 17.296875 64.90625 Z "/>
<path style=" stroke:none;fill-rule:evenodd;fill:rgb(100%,100%,100%);fill-opacity:1;" d="M 1.351563 64.90625 L 97.019531 64.90625 L 97.019531 144.355469 L 1.351563 144.355469 Z "/>
<path style=" stroke:none;fill-rule:evenodd;fill:rgb(100%,100%,100%);fill-opacity:1;" d="M 92.738281 73.285156 C 92.78125 72.097656 92.171875 70.980469 91.148438 70.375 C 90.121094 69.765625 88.847656 69.765625 87.820313 70.375 C 86.796875 70.980469 86.1875 72.097656 86.230469 73.285156 C 86.1875 74.472656 86.796875 75.589844 87.820313 76.195313 C 88.847656 76.800781 90.121094 76.800781 91.148438 76.195313 C 92.171875 75.589844 92.78125 74.472656 92.738281 73.285156 Z M 92.738281 89.1875 C 92.78125 88 92.171875 86.882813 91.148438 86.273438 C 90.121094 85.667969 88.847656 85.667969 87.820313 86.273438 C 86.796875 86.882813 86.1875 88 86.230469 89.1875 C 86.1875 90.375 86.796875 91.488281 87.820313 92.097656 C 88.847656 92.703125 90.121094 92.703125 91.148438 92.097656 C 92.171875 91.488281 92.78125 90.375 92.738281 89.1875 Z M 92.867188 120.523438 C 92.914063 119.335938 92.304688 118.21875 91.277344 117.609375 C 90.253906 117.003906 88.976563 117.003906 87.953125 117.609375 C 86.929688 118.21875 86.316406 119.335938 86.363281 120.523438 C 86.316406 121.707031 86.929688 122.824219 87.953125 123.433594 C 88.976563 124.039063 90.253906 124.039063 91.277344 123.433594 C 92.304688 122.824219 92.914063 121.707031 92.867188 120.523438 Z M 93 104.621094 C 93.042969 103.433594 92.433594 102.316406 91.410156 101.710938 C 90.382813 101.101563 89.109375 101.101563 88.085938 101.710938 C 87.058594 102.316406 86.449219 103.433594 86.492188 104.621094 C 86.449219 105.808594 87.058594 106.925781 88.085938 107.53125 C 89.109375 108.136719 90.382813 108.136719 91.410156 107.53125 C 92.433594 106.925781 93.042969 105.808594 93 104.621094 Z M 92.867188 135.882813 C 92.914063 134.695313 92.304688 133.578125 91.277344 132.96875 C 90.253906 132.363281 88.976563 132.363281 87.953125 132.96875 C 86.929688 133.578125 86.316406 134.695313 86.363281 135.882813 C 86.316406 137.070313 86.929688 138.183594 87.953125 138.792969 C 88.976563 139.398438 90.253906 139.398438 91.277344 138.792969 C 92.304688 138.183594 92.914063 137.070313 92.867188 135.882813 Z "/>
<path style="fill:none;stroke-width:0.72;stroke-linecap:round;stroke-linejoin:round;stroke:rgb(0%,0%,0%);stroke-opacity:1;stroke-miterlimit:3;" d="M 8.500811 1.439139 L 8.500811 26.94976 " transform="matrix(1.874997,0,0,1.868554,1.350066,-1.345359)"/>
<path style="fill:none;stroke-width:0.72;stroke-linecap:round;stroke-linejoin:round;stroke:rgb(0%,0%,0%);stroke-opacity:1;stroke-miterlimit:3;" d="M 34.0196 1.439139 L 34.0196 26.94976 " transform="matrix(1.874997,0,0,1.868554,1.350066,-1.345359)"/>
<path style="fill:none;stroke-width:0.72;stroke-linecap:round;stroke-linejoin:round;stroke:rgb(0%,0%,0%);stroke-opacity:1;stroke-miterlimit:3;" d="M 0.000798073 43.960325 L 8.500811 43.960325 " transform="matrix(1.874997,0,0,1.868554,1.350066,-1.345359)"/>
<path style="fill:none;stroke-width:0.72;stroke-linecap:round;stroke-linejoin:round;stroke:rgb(0%,0%,0%);stroke-opacity:1;stroke-miterlimit:3;" d="M 8.500811 26.94976 L 0.000798073 35.460269 " transform="matrix(1.874997,0,0,1.868554,1.350066,-1.345359)"/>
<path style="fill:none;stroke-width:0.72;stroke-linecap:round;stroke-linejoin:round;stroke:rgb(0%,0%,0%);stroke-opacity:1;stroke-miterlimit:3;" d="M 48.740456 39.940254 C 48.763373 39.304736 48.438373 38.706847 47.892538 38.382817 C 47.344621 38.056695 46.665453 38.056695 46.117536 38.382817 C 45.571702 38.706847 45.246701 39.304736 45.269618 39.940254 C 45.246701 40.575773 45.571702 41.173661 46.117536 41.497692 C 46.665453 41.821723 47.344621 41.821723 47.892538 41.497692 C 48.438373 41.173661 48.763373 40.575773 48.740456 39.940254 " transform="matrix(1.874997,0,0,1.868554,1.350066,-1.345359)"/>
<path style="fill:none;stroke-width:0.72;stroke-linecap:round;stroke-linejoin:round;stroke:rgb(0%,0%,0%);stroke-opacity:1;stroke-miterlimit:3;" d="M 48.140455 38.629498 L 49.319624 37.439992 " transform="matrix(1.874997,0,0,1.868554,1.350066,-1.345359)"/>
<path style="fill:none;stroke-width:0.72;stroke-linecap:round;stroke-linejoin:round;stroke:rgb(0%,0%,0%);stroke-opacity:1;stroke-miterlimit:3;" d="M 8.219561 48.641 L 13.319569 43.529678 " transform="matrix(1.874997,0,0,1.868554,1.350066,-1.345359)"/>
<path style="fill:none;stroke-width:0.72;stroke-linecap:round;stroke-linejoin:round;stroke:rgb(0%,0%,0%);stroke-opacity:1;stroke-miterlimit:3;" d="M 11.619566 52.040187 L 16.719574 46.939317 " transform="matrix(1.874997,0,0,1.868554,1.350066,-1.345359)"/>
<path style="fill:none;stroke-width:0.72;stroke-linecap:round;stroke-linejoin:round;stroke:rgb(0%,0%,0%);stroke-opacity:1;stroke-miterlimit:3;" d="M 14.740404 55.159243 L 19.840412 50.050011 " transform="matrix(1.874997,0,0,1.868554,1.350066,-1.345359)"/>
<path style="fill:none;stroke-width:0.72;stroke-linecap:round;stroke-linejoin:round;stroke:rgb(0%,0%,0%);stroke-opacity:1;stroke-miterlimit:3;" d="M 45.880035 49.769882 L 44.650867 50.999108 " transform="matrix(1.874997,0,0,1.868554,1.350066,-1.345359)"/>
<path style="fill:none;stroke-width:0.72;stroke-linecap:round;stroke-linejoin:round;stroke:rgb(0%,0%,0%);stroke-opacity:1;stroke-miterlimit:3;" d="M 42.519614 35.460269 L 34.0196 26.94976 " transform="matrix(1.874997,0,0,1.868554,1.350066,-1.345359)"/>
<path style="fill:none;stroke-width:0.72;stroke-linecap:round;stroke-linejoin:round;stroke:rgb(0%,0%,0%);stroke-opacity:1;stroke-miterlimit:3;" d="M 45.880035 41.269825 L 44.650867 42.499051 " transform="matrix(1.874997,0,0,1.868554,1.350066,-1.345359)"/>
<path style="fill:none;stroke-width:0.72;stroke-linecap:round;stroke-linejoin:round;stroke:rgb(0%,0%,0%);stroke-opacity:1;stroke-miterlimit:3;" d="M 48.740456 48.450763 C 48.763373 47.815245 48.438373 47.217356 47.892538 46.891235 C 47.344621 46.567204 46.665453 46.567204 46.117536 46.891235 C 45.571702 47.217356 45.246701 47.815245 45.269618 48.450763 C 45.246701 49.086281 45.571702 49.68208 46.117536 50.008201 C 46.665453 50.332232 47.344621 50.332232 47.892538 50.008201 C 48.438373 49.68208 48.763373 49.086281 48.740456 48.450763 " transform="matrix(1.874997,0,0,1.868554,1.350066,-1.345359)"/>
<path style="fill:none;stroke-width:0.72;stroke-linecap:round;stroke-linejoin:round;stroke:rgb(0%,0%,0%);stroke-opacity:1;stroke-miterlimit:3;" d="M 48.140455 47.129554 L 49.319624 45.940048 " transform="matrix(1.874997,0,0,1.868554,1.350066,-1.345359)"/>
<path style="fill:none;stroke-width:0.72;stroke-linecap:round;stroke-linejoin:round;stroke:rgb(0%,0%,0%);stroke-opacity:1;stroke-miterlimit:3;" d="M 48.269622 55.389201 L 49.459208 54.210147 " transform="matrix(1.874997,0,0,1.868554,1.350066,-1.345359)"/>
<path style="fill:none;stroke-width:0.72;stroke-linecap:round;stroke-linejoin:round;stroke:rgb(0%,0%,0%);stroke-opacity:1;stroke-miterlimit:3;" d="M 28.909176 70.039568 L 34.0196 64.940788 " transform="matrix(1.874997,0,0,1.868554,1.350066,-1.345359)"/>
<path style="fill:none;stroke-width:0.72;stroke-linecap:round;stroke-linejoin:round;stroke:rgb(0%,0%,0%);stroke-opacity:1;stroke-miterlimit:3;" d="M 45.950869 66.540037 L 44.719617 67.769263 " transform="matrix(1.874997,0,0,1.868554,1.350066,-1.345359)"/>
<path style="fill:none;stroke-width:0.72;stroke-linecap:round;stroke-linejoin:round;stroke:rgb(0%,0%,0%);stroke-opacity:1;stroke-miterlimit:3;" d="M 46.019619 58.029528 L 44.79045 59.269206 " transform="matrix(1.874997,0,0,1.868554,1.350066,-1.345359)"/>
<path style="fill:none;stroke-width:0.72;stroke-linecap:round;stroke-linejoin:round;stroke:rgb(0%,0%,0%);stroke-opacity:1;stroke-miterlimit:3;" d="M 48.809207 65.220918 C 48.834207 64.5854 48.509206 63.987511 47.961289 63.66139 C 47.415454 63.337359 46.734203 63.337359 46.188369 63.66139 C 45.642535 63.987511 45.315451 64.5854 45.340451 65.220918 C 45.315451 65.854346 45.642535 66.452235 46.188369 66.778356 C 46.734203 67.102387 47.415454 67.102387 47.961289 66.778356 C 48.509206 66.452235 48.834207 65.854346 48.809207 65.220918 " transform="matrix(1.874997,0,0,1.868554,1.350066,-1.345359)"/>
<path style="fill:none;stroke-width:0.72;stroke-linecap:round;stroke-linejoin:round;stroke:rgb(0%,0%,0%);stroke-opacity:1;stroke-miterlimit:3;" d="M 48.88004 56.710409 C 48.902957 56.074891 48.577956 55.477002 48.032122 55.152972 C 47.484204 54.826851 46.805037 54.826851 46.259203 55.152972 C 45.711285 55.477002 45.386285 56.074891 45.409201 56.710409 C 45.386285 57.345928 45.711285 57.943817 46.259203 58.267847 C 46.805037 58.591878 47.484204 58.591878 48.032122 58.267847 C 48.577956 57.943817 48.902957 57.345928 48.88004 56.710409 " transform="matrix(1.874997,0,0,1.868554,1.350066,-1.345359)"/>
<path style="fill:none;stroke-width:0.72;stroke-linecap:round;stroke-linejoin:round;stroke:rgb(0%,0%,0%);stroke-opacity:1;stroke-miterlimit:3;" d="M 48.209206 72.119636 L 49.390457 70.93013 " transform="matrix(1.874997,0,0,1.868554,1.350066,-1.345359)"/>
<path style="fill:none;stroke-width:0.72;stroke-linecap:round;stroke-linejoin:round;stroke:rgb(0%,0%,0%);stroke-opacity:1;stroke-miterlimit:3;" d="M 48.209206 63.899709 L 49.390457 62.710203 " transform="matrix(1.874997,0,0,1.868554,1.350066,-1.345359)"/>
<path style="fill:none;stroke-width:0.72;stroke-linecap:round;stroke-linejoin:round;stroke:rgb(0%,0%,0%);stroke-opacity:1;stroke-miterlimit:3;" d="M 0.000798073 35.460269 L 0.000798073 77.979365 " transform="matrix(1.874997,0,0,1.868554,1.350066,-1.345359)"/>
<path style="fill:none;stroke-width:0.72;stroke-linecap:round;stroke-linejoin:round;stroke:rgb(0%,0%,0%);stroke-opacity:1;stroke-miterlimit:3;" d="M 0.000798073 77.979365 L 42.519614 77.979365 " transform="matrix(1.874997,0,0,1.868554,1.350066,-1.345359)"/>
<path style="fill:none;stroke-width:0.72;stroke-linecap:round;stroke-linejoin:round;stroke:rgb(0%,0%,0%);stroke-opacity:1;stroke-miterlimit:3;" d="M 34.0196 69.470946 L 8.500811 43.960325 " transform="matrix(1.874997,0,0,1.868554,1.350066,-1.345359)"/>
<path style="fill:none;stroke-width:0.72;stroke-linecap:round;stroke-linejoin:round;stroke:rgb(0%,0%,0%);stroke-opacity:1;stroke-miterlimit:3;" d="M 17.569575 58.269938 L 22.68 53.169068 " transform="matrix(1.874997,0,0,1.868554,1.350066,-1.345359)"/>
<path style="fill:none;stroke-width:0.72;stroke-linecap:round;stroke-linejoin:round;stroke:rgb(0%,0%,0%);stroke-opacity:1;stroke-miterlimit:3;" d="M 20.409163 61.110955 L 25.509171 56.010085 " transform="matrix(1.874997,0,0,1.868554,1.350066,-1.345359)"/>
<path style="fill:none;stroke-width:0.72;stroke-linecap:round;stroke-linejoin:round;stroke:rgb(0%,0%,0%);stroke-opacity:1;stroke-miterlimit:3;" d="M 23.240417 64.230012 L 28.350842 59.129142 " transform="matrix(1.874997,0,0,1.868554,1.350066,-1.345359)"/>
<path style="fill:none;stroke-width:0.72;stroke-linecap:round;stroke-linejoin:round;stroke:rgb(0%,0%,0%);stroke-opacity:1;stroke-miterlimit:3;" d="M 26.080005 66.920511 L 31.180013 61.819641 " transform="matrix(1.874997,0,0,1.868554,1.350066,-1.345359)"/>
<path style="fill:none;stroke-width:0.72;stroke-linecap:round;stroke-linejoin:round;stroke:rgb(0%,0%,0%);stroke-opacity:1;stroke-miterlimit:3;" d="M 34.0196 77.979365 L 34.0196 69.470946 " transform="matrix(1.874997,0,0,1.868554,1.350066,-1.345359)"/>
<path style="fill:none;stroke-width:0.72;stroke-linecap:round;stroke-linejoin:round;stroke:rgb(0%,0%,0%);stroke-opacity:1;stroke-miterlimit:3;" d="M 51.019627 35.460269 L 42.519614 35.460269 L 42.519614 77.979365 " transform="matrix(1.874997,0,0,1.868554,1.350066,-1.345359)"/>
<path style="fill:none;stroke-width:0.72;stroke-linecap:round;stroke-linejoin:round;stroke:rgb(0%,0%,0%);stroke-opacity:1;stroke-miterlimit:3;" d="M 51.019627 35.460269 L 51.019627 77.979365 L 42.519614 77.979365 " transform="matrix(1.874997,0,0,1.868554,1.350066,-1.345359)"/>
<path style="fill:none;stroke-width:0.72;stroke-linecap:round;stroke-linejoin:round;stroke:rgb(0%,0%,0%);stroke-opacity:1;stroke-miterlimit:3;" d="M 45.950869 74.759963 L 44.719617 75.989189 " transform="matrix(1.874997,0,0,1.868554,1.350066,-1.345359)"/>
<path style="fill:none;stroke-width:0.72;stroke-linecap:round;stroke-linejoin:round;stroke:rgb(0%,0%,0%);stroke-opacity:1;stroke-miterlimit:3;" d="M 48.809207 73.440845 C 48.834207 72.805326 48.509206 72.207438 47.961289 71.881316 C 47.415454 71.557286 46.734203 71.557286 46.188369 71.881316 C 45.642535 72.207438 45.315451 72.805326 45.340451 73.440845 C 45.315451 74.076363 45.642535 74.672161 46.188369 74.998282 C 46.734203 75.322313 47.415454 75.322313 47.961289 74.998282 C 48.509206 74.672161 48.834207 74.076363 48.809207 73.440845 " transform="matrix(1.874997,0,0,1.868554,1.350066,-1.345359)"/>
</g>
</svg>
