<?xml version="1.0" encoding="UTF-8"?>
<!--
/*******************************************************************************
* Copyright (c) 2010-2016 ITER Organization.
* All rights reserved. This program and the accompanying materials
* are made available under the terms of the Eclipse Public License v1.0
* which accompanies this distribution, and is available at
* http://www.eclipse.org/legal/epl-v10.html
******************************************************************************/
-->
<svg xmlns="http://www.w3.org/2000/svg" xmlns:xlink="http://www.w3.org/1999/xlink" width="162pt" height="131pt" viewBox="0 0 162 131" version="1.1">
<g id="surface1">
<path style=" stroke:none;fill-rule:evenodd;fill:rgb(100%,100%,100%);fill-opacity:1;" d="M 1.351563 1.355469 L 1.378906 1.355469 L 1.378906 1.386719 L 1.351563 1.386719 Z "/>
<path style=" stroke:none;fill-rule:evenodd;fill:rgb(100%,100%,100%);fill-opacity:1;" d="M 160.769531 129.371094 L 160.796875 129.371094 L 160.796875 129.402344 L 160.769531 129.402344 Z "/>
<path style=" stroke:none;fill-rule:evenodd;fill:rgb(100%,100%,100%);fill-opacity:1;" d="M 9.324219 89.386719 L 152.835938 89.386719 L 152.835938 41.371094 L 9.324219 41.371094 Z "/>
<path style="fill:none;stroke-width:0.72;stroke-linecap:round;stroke-linejoin:round;stroke:rgb(0%,0%,0%);stroke-opacity:1;stroke-miterlimit:3;" d="M 0.000958168 69.470786 L 76.540719 69.470786 L 76.540719 43.960136 L 0.000958168 43.960136 L 0.000958168 69.470786 " transform="matrix(1.874996,0,0,1.88218,9.322422,-41.369775)"/>
<path style="fill:none;stroke-width:0.72;stroke-linecap:round;stroke-linejoin:round;stroke:rgb(0%,0%,0%);stroke-opacity:1;stroke-miterlimit:3;" d="M 0.000958168 56.719612 L 76.540719 56.719612 " transform="matrix(1.874996,0,0,1.88218,9.322422,-41.369775)"/>
<path style="fill:none;stroke-width:0.72;stroke-linecap:round;stroke-linejoin:round;stroke:rgb(0%,0%,0%);stroke-opacity:1;stroke-miterlimit:3;" d="M 25.50935 52.460919 L 25.50935 60.970003 " transform="matrix(1.874996,0,0,1.88218,9.322422,-41.369775)"/>
<path style="fill:none;stroke-width:0.72;stroke-linecap:round;stroke-linejoin:round;stroke:rgb(0%,0%,0%);stroke-opacity:1;stroke-miterlimit:3;" d="M 34.019787 52.460919 L 34.019787 60.970003 " transform="matrix(1.874996,0,0,1.88218,9.322422,-41.369775)"/>
<path style="fill:none;stroke-width:0.72;stroke-linecap:round;stroke-linejoin:round;stroke:rgb(0%,0%,0%);stroke-opacity:1;stroke-miterlimit:3;" d="M 42.519807 52.460919 L 42.519807 60.970003 " transform="matrix(1.874996,0,0,1.88218,9.322422,-41.369775)"/>
<path style="fill:none;stroke-width:0.72;stroke-linecap:round;stroke-linejoin:round;stroke:rgb(0%,0%,0%);stroke-opacity:1;stroke-miterlimit:3;" d="M 51.019826 52.460919 L 51.019826 60.970003 " transform="matrix(1.874996,0,0,1.88218,9.322422,-41.369775)"/>
</g>
</svg>
