<?xml version="1.0" encoding="UTF-8"?>
<!--
/*******************************************************************************
* Copyright (c) 2010-2016 ITER Organization.
* All rights reserved. This program and the accompanying materials
* are made available under the terms of the Eclipse Public License v1.0
* which accompanies this distribution, and is available at
* http://www.eclipse.org/legal/epl-v10.html
******************************************************************************/
-->
<svg xmlns="http://www.w3.org/2000/svg" xmlns:xlink="http://www.w3.org/1999/xlink" width="162pt" height="131pt" viewBox="0 0 162 131" version="1.1">
<g id="surface1">
<path style=" stroke:none;fill-rule:evenodd;fill:rgb(100%,100%,100%);fill-opacity:1;" d="M 1.351563 1.355469 L 1.378906 1.355469 L 1.378906 1.386719 L 1.351563 1.386719 Z "/>
<path style=" stroke:none;fill-rule:evenodd;fill:rgb(100%,100%,100%);fill-opacity:1;" d="M 160.769531 129.371094 L 160.796875 129.371094 L 160.796875 129.402344 L 160.769531 129.402344 Z "/>
<path style=" stroke:none;fill-rule:evenodd;fill:rgb(100%,100%,100%);fill-opacity:1;" d="M 25.261719 89.386719 L 136.878906 89.386719 L 136.878906 41.371094 L 25.261719 41.371094 L 25.261719 51.308594 L 104.984375 51.308594 L 120.941406 51.234375 L 120.941406 78.714844 L 25.261719 78.714844 Z M 104.984375 65.386719 L 25.261719 65.386719 L 25.261719 78.714844 L 104.984375 78.714844 Z M 104.984375 51.308594 L 25.261719 51.308594 L 25.261719 65.386719 L 104.984375 65.386719 L 104.984375 51.234375 Z M 104.984375 51.234375 L 104.984375 78.714844 L 120.941406 78.714844 L 120.941406 51.234375 Z M 136.878906 89.386719 L 145.710938 89.386719 C 155.1875 74.792969 155.1875 55.960938 145.710938 41.371094 L 136.878906 41.371094 Z M 25.261719 89.386719 L 25.261719 41.371094 L 16.429688 41.371094 C 6.949219 55.960938 6.949219 74.792969 16.429688 89.386719 Z "/>
<path style="fill:none;stroke-width:0.72;stroke-linecap:round;stroke-linejoin:round;stroke:rgb(0%,0%,0%);stroke-opacity:1;stroke-miterlimit:3;" d="M 8.500978 69.470786 L 68.030282 69.470786 L 68.030282 43.960136 L 8.500978 43.960136 L 8.500978 49.239919 L 51.019826 49.239919 L 59.530263 49.200487 L 59.530263 63.800831 L 8.500978 63.800831 L 8.500978 69.470786 M 51.019826 56.719612 L 8.500978 56.719612 L 8.500978 63.800831 L 51.019826 63.800831 L 51.019826 56.719612 M 51.019826 49.239919 L 8.500978 49.239919 L 8.500978 56.719612 L 51.019826 56.719612 L 51.019826 49.200487 M 51.019826 49.200487 L 51.019826 63.800831 L 59.530263 63.800831 L 59.530263 49.200487 L 51.019826 49.200487 M 68.030282 69.470786 L 72.74071 69.470786 C 77.794888 61.717143 77.794888 51.711704 72.74071 43.960136 L 68.030282 43.960136 L 68.030282 69.470786 M 8.500978 69.470786 L 8.500978 43.960136 L 3.79055 43.960136 C -1.265711 51.711704 -1.265711 61.717143 3.79055 69.470786 L 8.500978 69.470786 " transform="matrix(1.874996,0,0,1.88218,9.322422,-41.369775)"/>
</g>
</svg>
