<?xml version="1.0" encoding="UTF-8"?>
<!--
/*******************************************************************************
* Copyright (c) 2010-2016 ITER Organization.
* All rights reserved. This program and the accompanying materials
* are made available under the terms of the Eclipse Public License v1.0
* which accompanies this distribution, and is available at
* http://www.eclipse.org/legal/epl-v10.html
******************************************************************************/
-->
<svg xmlns="http://www.w3.org/2000/svg" xmlns:xlink="http://www.w3.org/1999/xlink" width="162pt" height="131pt" viewBox="0 0 162 131" version="1.1">
<g id="surface1">
<path style=" stroke:none;fill-rule:evenodd;fill:rgb(100%,100%,100%);fill-opacity:1;" d="M 1.351563 1.355469 L 1.378906 1.355469 L 1.378906 1.386719 L 1.351563 1.386719 Z "/>
<path style=" stroke:none;fill-rule:evenodd;fill:rgb(100%,100%,100%);fill-opacity:1;" d="M 160.769531 129.371094 L 160.796875 129.371094 L 160.796875 129.402344 L 160.769531 129.402344 Z "/>
<path style="fill-rule:evenodd;fill:rgb(100%,100%,100%);fill-opacity:1;stroke-width:0.72;stroke-linecap:round;stroke-linejoin:round;stroke:rgb(0%,0%,0%);stroke-opacity:1;stroke-miterlimit:3;" d="M 17.270477 52.209797 C 14.778805 49.719333 10.741295 49.719333 8.249623 52.209797 L 12.76005 56.719612 Z M 17.270477 61.229427 C 19.760066 58.738963 19.760066 54.700261 17.270477 52.209797 L 12.76005 56.719612 Z M 3.739196 65.739242 L 5.989201 63.479146 C 2.253776 59.74345 2.253776 53.685397 5.989201 49.949701 L 3.739196 47.699982 C -1.242066 52.68091 -1.242066 60.758314 3.739196 65.739242 Z M 5.989201 63.479146 L 8.249623 61.229427 C 5.760034 58.738963 5.760034 54.700261 8.249623 52.209797 L 5.989201 49.949701 C 2.253776 53.685397 2.253776 59.74345 5.989201 63.479146 Z M 5.989201 63.479146 C 9.72671 67.216917 15.782974 67.216917 19.520482 63.479146 L 17.270477 61.229427 C 14.778805 63.719891 10.741295 63.719891 8.249623 61.229427 Z M 21.780904 47.699982 C 16.797559 42.719055 8.722541 42.719055 3.739196 47.699982 L 5.989201 49.949701 C 9.72671 46.214006 15.782974 46.214006 19.520482 49.949701 Z M 19.520482 49.949701 C 15.782974 46.214006 9.72671 46.214006 5.989201 49.949701 L 8.249623 52.209797 C 10.741295 49.719333 14.778805 49.719333 17.270477 52.209797 Z M 12.76005 56.719612 L 8.249623 52.209797 C 5.760034 54.700261 5.760034 58.738963 8.249623 61.229427 Z M 17.270477 61.229427 L 12.76005 56.719612 L 8.249623 61.229427 C 10.741295 63.719891 14.778805 63.719891 17.270477 61.229427 Z M 19.520482 63.479146 C 23.255908 59.74345 23.255908 53.685397 19.520482 49.949701 L 17.270477 52.209797 C 19.760066 54.700261 19.760066 58.738963 17.270477 61.229427 Z M 21.780904 65.739242 C 26.762166 60.758314 26.762166 52.68091 21.780904 47.699982 L 19.520482 49.949701 C 23.255908 53.685397 23.255908 59.74345 19.520482 63.479146 Z M 3.739196 65.739242 C 8.722541 70.722245 16.797559 70.722245 21.780904 65.739242 L 19.520482 63.479146 C 15.782974 67.216917 9.72671 67.216917 5.989201 63.479146 Z " transform="matrix(1.874996,0,0,1.88218,57.156993,-41.369775)"/>
</g>
</svg>
