<?xml version="1.0" encoding="UTF-8"?>
<!--
/*******************************************************************************
* Copyright (c) 2010-2016 ITER Organization.
* All rights reserved. This program and the accompanying materials
* are made available under the terms of the Eclipse Public License v1.0
* which accompanies this distribution, and is available at
* http://www.eclipse.org/legal/epl-v10.html
******************************************************************************/
-->
<svg xmlns="http://www.w3.org/2000/svg" xmlns:xlink="http://www.w3.org/1999/xlink" width="162pt" height="131pt" viewBox="0 0 162 131" version="1.1">
<g id="surface1">
<path style=" stroke:none;fill-rule:evenodd;fill:rgb(100%,100%,100%);fill-opacity:1;" d="M 1.351563 1.355469 L 1.378906 1.355469 L 1.378906 1.386719 L 1.351563 1.386719 Z "/>
<path style=" stroke:none;fill-rule:evenodd;fill:rgb(100%,100%,100%);fill-opacity:1;" d="M 160.769531 129.371094 L 160.796875 129.371094 L 160.796875 129.402344 L 160.769531 129.402344 Z "/>
<path style="fill-rule:evenodd;fill:rgb(100%,100%,100%);fill-opacity:1;stroke-width:0.72;stroke-linecap:round;stroke-linejoin:round;stroke:rgb(0%,0%,0%);stroke-opacity:1;stroke-miterlimit:3;" d="M -0.001002 56.72054 L 8.940685 56.72054 L 8.940685 43.958988 L 3.990674 43.958988 C 1.386501 47.75487 -0.001002 52.187896 -0.001002 56.72054 Z M 8.940685 64.000996 L 62.590809 64.000996 C 65.847067 62.921795 68.030405 59.999651 68.030405 56.72054 C 68.030405 53.439354 65.847067 50.519285 62.590809 49.440084 L 8.940685 49.440084 Z M 8.940685 63.799683 L 8.940685 56.72054 L -0.001002 56.72054 C 0.00108133 61.249033 1.388585 65.677908 3.990674 69.469639 L 8.940685 69.469639 Z " transform="matrix(1.874996,0,0,1.88218,17.294848,-40.836366)"/>
</g>
</svg>
