<?xml version="1.0" encoding="UTF-8"?>
<!--
/*******************************************************************************
* Copyright (c) 2010-2016 ITER Organization.
* All rights reserved. This program and the accompanying materials
* are made available under the terms of the Eclipse Public License v1.0
* which accompanies this distribution, and is available at
* http://www.eclipse.org/legal/epl-v10.html
******************************************************************************/
-->
<svg xmlns="http://www.w3.org/2000/svg" xmlns:xlink="http://www.w3.org/1999/xlink" width="194pt" height="194pt" viewBox="0 0 194 194" version="1.1">
<g id="surface1">
<path style="fill-rule:evenodd;fill:rgb(100%,100%,100%);fill-opacity:1;stroke-width:0.72;stroke-linecap:round;stroke-linejoin:round;stroke:rgb(0%,0%,0%);stroke-opacity:1;stroke-miterlimit:3;" d="M 17.009181 103.489822 L 85.039616 103.489822 L 85.039616 1.438975 L 17.009181 1.438975 Z M 17.009181 77.980747 C 17.009181 73.282472 13.202353 69.475644 8.504078 69.475644 C 3.807882 69.475644 -0.00102476 73.282472 -0.00102476 77.980747 C -0.00102476 82.676943 3.807882 86.48585 8.504078 86.48585 C 13.202353 86.48585 17.009181 82.676943 17.009181 77.980747 Z M 17.009181 43.960334 C 17.009181 39.26206 13.202353 35.455231 8.504078 35.455231 C 3.807882 35.455231 -0.00102476 39.26206 -0.00102476 43.960334 C -0.00102476 48.656531 3.807882 52.465437 8.504078 52.465437 C 13.202353 52.465437 17.009181 48.656531 17.009181 43.960334 Z M 102.049822 60.970541 C 102.049822 56.272266 98.242993 52.465437 93.544719 52.465437 C 88.848522 52.465437 85.039616 56.272266 85.039616 60.970541 C 85.039616 65.666737 88.848522 69.475644 93.544719 69.475644 C 98.242993 69.475644 102.049822 65.666737 102.049822 60.970541 Z M 102.049822 26.950128 C 102.049822 22.251854 98.242993 18.445025 93.544719 18.445025 C 88.848522 18.445025 85.039616 22.251854 85.039616 26.950128 C 85.039616 31.646325 88.848522 35.455231 93.544719 35.455231 C 98.242993 35.455231 102.049822 31.646325 102.049822 26.950128 Z " transform="matrix(1.879846,0,0,1.879846,1.353489,-1.353489)"/>
</g>
</svg>
