<?xml version="1.0" encoding="UTF-8" standalone="no"?>
<!DOCTYPE svg PUBLIC "-//W3C//DTD SVG 1.0//EN" "C:\SeeVisioDTD\svg10.dtd">
<!-- Généré par Microsoft Visio 11.0, SVG Export, v1.0 FL_EF0204.svg FL_EF0201 -->
<!--
/*******************************************************************************
* Copyright (c) 2010-2014 ITER Organization.
* All rights reserved. This program and the accompanying materials
* are made available under the terms of the Eclipse Public License v1.0
* which accompanies this distribution, and is available at
* http://www.eclipse.org/legal/epl-v10.html
******************************************************************************/
-->
<svg xmlns="http://www.w3.org/2000/svg" xmlns:v="http://schemas.microsoft.com/visio/2003/SVGExtensions/" width="0.374331in"
		height="0.374331in" viewBox="0 0 26.9518 26.9518" xml:space="preserve" color-interpolation-filters="sRGB" class="st1">
	<v:documentProperties v:langID="1036" v:metric="true" v:viewMarkup="false"/>
	<style type="text/css">
	<![CDATA[
		.st1 {fill:none;fill-rule:evenodd;font-size:12;overflow:visible;stroke-linecap:square;stroke-miterlimit:3}
		.st2 {fill:#ffffff}
		.st3 {stroke:#000000;stroke-linecap:round;stroke-linejoin:round;stroke-width:0.72}
	]]>
	</style>
	<defs id="Masters">
		<symbol id="master37" v:mID="37" class="st1">
			<title>FL_EF0204</title>
			<g id="master-shape5-2" v:mID="5" v:groupContext="shape">
				<title>Feuille.5</title>
				<path d="M12.76 11.01 A3.18898 3.18898 -180 1 0 6.38 11.01 A3.18898 3.18898 -180 1 0 12.76 11.01 Z M12.76 17.38 A3.18898
							 3.18898 -180 1 0 6.38 17.38 A3.18898 3.18898 -180 1 0 12.76 17.38 Z M25.51 14.2 A12.7559 12.7559 -180
							 1 0 0 14.2 A12.7559 12.7559 -180 1 0 25.51 14.2 Z M12.76 17.38 A3.18898 3.18898 -180 1 0 6.38 17.38
							 A3.18898 3.18898 -180 1 0 12.76 17.38 Z M12.76 11.01 A3.18898 3.18898 -180 1 0 6.38 11.01 A3.18898 3.18898
							 -180 1 0 12.76 11.01 Z" class="st2"/>
				<path d="M12.76 11.01 A3.18898 3.18898 -180 1 0 6.38 11.01 A3.18898 3.18898 -180 1 0 12.76 11.01" class="st3"/>
				<path d="M12.76 17.38 A3.18898 3.18898 -180 1 0 6.38 17.38 A3.18898 3.18898 -180 1 0 12.76 17.38" class="st3"/>
				<path d="M25.51 14.2 A12.7559 12.7559 -180 1 0 0 14.2 A12.7559 12.7559 -180 1 0 25.51 14.2" class="st3"/>
				<path d="M12.76 17.38 A3.18898 3.18898 -180 1 0 6.38 17.38 A3.18898 3.18898 -180 1 0 12.76 17.38" class="st3"/>
				<path d="M12.76 11.01 A3.18898 3.18898 -180 1 0 6.38 11.01 A3.18898 3.18898 -180 1 0 12.76 11.01" class="st3"/>
				<path d="M12.76 1.44 L25.51 14.2" class="st3"/>
				<path d="M12.76 26.95 L25.51 14.2" class="st3"/>
			</g>
		</symbol>
	</defs>
	<g v:mID="0" v:index="1" v:groupContext="foregroundPage">
		<title>FL_EF0201</title>
		<v:pageProperties v:drawingScale="0.0393701" v:pageScale="0.0393701" v:drawingUnits="24" v:shadowOffsetX="9"
				v:shadowOffsetY="-9"/>
		<use id="shape3-1" v:mID="3" xlink:href="#master37" transform="translate(0.72,-0.72)">
			<title>FL_EF0204</title>
		</use>
	</g>
</svg>
