<?xml version="1.0" encoding="UTF-8" standalone="no"?>
<!DOCTYPE svg PUBLIC "-//W3C//DTD SVG 1.0//EN" "C:\SeeVisioDTD\svg10.dtd">
<!-- Generated by Microsoft Visio 11.0, SVG Export, v1.0 FL_EF020305.svg Page-1 -->
<!--
/*******************************************************************************
* Copyright (c) 2010-2013 ITER Organization.
* All rights reserved. This program and the accompanying materials
* are made available under the terms of the Eclipse Public License v1.0
* which accompanies this distribution, and is available at
* http://www.eclipse.org/legal/epl-v10.html
******************************************************************************/
-->
<svg xmlns="http://www.w3.org/2000/svg" xmlns:v="http://schemas.microsoft.com/visio/2003/SVGExtensions/" width="0.374331in"
		height="0.374331in" viewBox="0 0 26.9518 26.9518" xml:space="preserve" color-interpolation-filters="sRGB" class="st3">
	<v:documentProperties v:langID="1036" v:metric="true" v:viewMarkup="false"/>
	<style type="text/css">
	<![CDATA[
		.st1 {fill:#ffffff;stroke:none;stroke-linecap:round;stroke-linejoin:round;stroke-width:0.72}
		.st2 {stroke:#000000;stroke-linecap:round;stroke-linejoin:round;stroke-width:0.72}
		.st3 {fill:none;fill-rule:evenodd;font-size:12;overflow:visible;stroke-linecap:square;stroke-miterlimit:3}
	]]>
	</style>
	<g v:mID="0" v:index="1" v:groupContext="foregroundPage">
		<title>Page-1</title>
		<v:pageProperties v:drawingScale="0.0393701" v:pageScale="0.0393701" v:drawingUnits="24" v:shadowOffsetX="9.00001"
				v:shadowOffsetY="-9.00001"/>
		<g id="group6-1" transform="translate(0.72,-0.72)" v:mID="6" v:groupContext="group">
			<title>Sheet.6</title>
			<g id="shape7-2" v:mID="7" v:groupContext="shape">
				<title>Sheet.7</title>
				<ellipse cx="12.7559" cy="14.1959" rx="12.7559" ry="12.7559" class="st1"/>
			</g>
			<g id="shape8-4" v:mID="8" v:groupContext="shape">
				<title>Sheet.8</title>
				<path d="M19.13 20.57 A14.8064 14.8064 -45 0 0 1.71 20.57" class="st2"/>
				<path d="M19.13 7.82 A14.8064 14.8064 135 0 1 1.71 7.82" class="st2"/>
				<path d="M12.76 26.95 A12.7559 12.7559 -90 0 0 25.51 14.2 A12.7559 12.7559 -82.91 0 0 12.76 1.44 A12.7559 12.7559
							 -150.26 0 0 1.71 7.82 A12.7559 12.7559 -37.74 0 0 -0 14.2 A12.7559 12.7559 -144.73 0 0 1.71 20.57 A12.7559
							 12.7559 -12.05 0 0 12.76 26.95 L19.13 20.57 L25.51 14.2 L19.13 7.82 L12.76 1.44" class="st2"/>
			</g>
		</g>
	</g>
</svg>
