<?xml version="1.0" encoding="UTF-8" standalone="no"?>
<!DOCTYPE svg PUBLIC "-//W3C//DTD SVG 1.0//EN" "C:\SeeVisioDTD\svg10.dtd">
<!-- Generated by Microsoft Visio 11.0, SVG Export, v1.0 FL_EF110202.svg Page-1 -->
<!--
/*******************************************************************************
* Copyright (c) 2010-2014 ITER Organization.
* All rights reserved. This program and the accompanying materials
* are made available under the terms of the Eclipse Public License v1.0
* which accompanies this distribution, and is available at
* http://www.eclipse.org/legal/epl-v10.html
******************************************************************************/
-->
<svg xmlns="http://www.w3.org/2000/svg" xmlns:v="http://schemas.microsoft.com/visio/2003/SVGExtensions/" width="0.384316in"
		height="0.497077in" viewBox="0 0 27.6707 35.7895" xml:space="preserve" color-interpolation-filters="sRGB" class="st11">
	<v:documentProperties v:langID="1036" v:metric="true" v:viewMarkup="false"/>
	<style type="text/css">
	<![CDATA[
		.st1 {fill:#ffffff;stroke:none;stroke-linecap:round;stroke-linejoin:round;stroke-width:0.719996}
		.st2 {fill:#ffffff;stroke:none;stroke-width:0.999994}
		.st3 {fill:none;stroke:#000000;stroke-linecap:round;stroke-linejoin:round;stroke-width:0.719996}
		.st4 {fill:none;stroke:none;stroke-width:0.999997}
		.st5 {fill:none;stroke:none;stroke-width:0.999999}
		.st6 {fill:none}
		.st7 {stroke:#000000;stroke-linecap:round;stroke-linejoin:round;stroke-width:0.719996}
		.st8 {fill:#ffffff;stroke:none;stroke-linecap:round;stroke-linejoin:round;stroke-width:0.719997}
		.st9 {fill:none;stroke:none;stroke-width:0.999998}
		.st10 {stroke:#000000;stroke-linecap:round;stroke-linejoin:round;stroke-width:0.719997}
		.st11 {fill:none;fill-rule:evenodd;font-size:12;overflow:visible;stroke-linecap:square;stroke-miterlimit:3}
	]]>
	</style>
	<g v:mID="0" v:index="1" v:groupContext="foregroundPage">
		<title>Page-1</title>
		<v:pageProperties v:drawingScale="0.0393701" v:pageScale="0.0393701" v:drawingUnits="24" v:shadowOffsetX="8.99999"
				v:shadowOffsetY="-8.99999"/>
		<g id="group31-1" transform="translate(0.986718,-0.719997)" v:mID="31" v:groupContext="group">
			<title>Sheet.31</title>
			<g id="group6-2" transform="translate(0,-0.390734)" v:mID="6" v:groupContext="group">
				<title>Sheet.6</title>
				<g id="shape7-3" v:mID="7" v:groupContext="shape" transform="translate(0,-33.9305)">
					<title>Feuille.4</title>
					<rect x="0" y="35.7612" width="0.0283464" height="0.0283464" class="st1"/>
				</g>
				<g id="shape8-5" v:mID="8" v:groupContext="shape" transform="translate(25.5117,0)">
					<title>Feuille.5</title>
					<rect x="0" y="35.7612" width="0.0283464" height="0.0283464" class="st1"/>
				</g>
				<g id="group9-7" transform="translate(0.014176,-4.04979)" v:mID="9" v:groupContext="group">
					<title>Sheet.9</title>
					<g id="shape19-8" v:mID="19" v:groupContext="shape">
						<title>Sheet.19</title>
						<path d="M25.51 22.88 A12.7559 12.7559 -180 1 0 0 22.88 A12.7559 12.7559 -180 1 0 25.51 22.88 Z"
								class="st2"/>
					</g>
					<g id="shape20-10" v:mID="20" v:groupContext="shape">
						<title>Sheet.20</title>
						<path d="M25.51 22.88 A12.7559 12.7559 -180 1 0 0 22.88 A12.7559 12.7559 -180 1 0 25.51 22.88 Z"
								class="st3"/>
					</g>
					<g id="group21-12" transform="translate(6.37996,-1.85226)" v:mID="21" v:groupContext="group">
						<title>Sheet.21</title>
						<g id="shape22-13" v:mID="22" v:groupContext="shape">
							<title>Sheet.22</title>
							<path d="M0 35.79 L17.42 31.12 L0 35.79 Z" class="st4"/>
						</g>
						<g id="group23-15" v:mID="23" v:groupContext="group">
							<title>Sheet.23</title>
							<g id="shape24-16" v:mID="24" v:groupContext="shape">
								<title>Sheet.24</title>
								<path d="M0 35.79 L17.42 31.12 L0 35.79 Z" class="st5"/>
							</g>
							<g id="shape25-18" v:mID="25" v:groupContext="shape">
								<title>Sheet.25</title>
								<path d="M0 35.79 L17.42 31.12 L0 35.79 Z" class="st6"/>
								<path d="M0 35.79 L17.42 31.12" class="st7"/>
							</g>
						</g>
					</g>
					<g id="group26-21" transform="translate(6.37996,-19.2722)" v:mID="26" v:groupContext="group">
						<title>Sheet.26</title>
						<g id="shape27-22" v:mID="27" v:groupContext="shape">
							<title>Sheet.27</title>
							<path d="M0 31.12 L17.42 35.79 L0 31.12 Z" class="st4"/>
						</g>
						<g id="group28-24" v:mID="28" v:groupContext="group">
							<title>Sheet.28</title>
							<g id="shape29-25" v:mID="29" v:groupContext="shape">
								<title>Sheet.29</title>
								<path d="M0 31.12 L17.42 35.79 L0 31.12 Z" class="st5"/>
							</g>
							<g id="shape30-27" v:mID="30" v:groupContext="shape">
								<title>Sheet.30</title>
								<path d="M0 31.12 L17.42 35.79 L0 31.12 Z" class="st6"/>
								<path d="M0 31.12 L17.42 35.79" class="st7"/>
							</g>
						</g>
					</g>
				</g>
			</g>
			<g id="group3-30" transform="translate(0.424022,0)" v:mID="3" v:groupContext="group">
				<title>Feuille.6</title>
				<g id="shape4-31" v:mID="4" v:groupContext="shape" transform="translate(0,-33.9305)">
					<title>Feuille.4</title>
					<rect x="0" y="35.7612" width="0.0283464" height="0.0283464" class="st8"/>
				</g>
				<g id="shape5-33" v:mID="5" v:groupContext="shape" transform="translate(25.5117,0)">
					<title>Feuille.5</title>
					<rect x="0" y="35.7612" width="0.0283464" height="0.0283464" class="st8"/>
				</g>
			</g>
			<g id="group10-35" transform="translate(-31.0974,24.0316) rotate(-90)" v:mID="10" v:groupContext="group">
				<title>Feuille.9</title>
				<g id="shape11-36" v:mID="11" v:groupContext="shape" transform="translate(10.39,-7.10543E-014) scale(-1,1)">
					<title>Sheet.11</title>
					<path d="M0 35.79 L10.39 35.79 L0 35.79 Z" class="st9"/>
				</g>
				<g id="shape12-38" v:mID="12" v:groupContext="shape" transform="translate(10.39,-7.10543E-014) scale(-1,1)">
					<title>Sheet.12</title>
					<path d="M0 35.79 L10.39 35.79 L0 35.79 Z" class="st6"/>
					<path d="M0 35.79 L10.39 35.79" class="st10"/>
				</g>
			</g>
			<g id="group13-41" transform="translate(-20.6168,-10.7205) rotate(-45)" v:mID="13" v:groupContext="group">
				<title>Feuille.10</title>
				<g id="shape14-42" v:mID="14" v:groupContext="shape">
					<title>Sheet.14</title>
					<path d="M0 35.79 L2.67 35.79 L0 35.79 Z" class="st9"/>
				</g>
				<g id="shape15-44" v:mID="15" v:groupContext="shape">
					<title>Sheet.15</title>
					<path d="M0 35.79 L2.67 35.79 L0 35.79 Z" class="st6"/>
					<path d="M0 35.79 L2.67 35.79" class="st10"/>
				</g>
			</g>
			<g id="group16-47" transform="translate(29.9971,-2.21659) rotate(45)" v:mID="16" v:groupContext="group">
				<title>Feuille.11</title>
				<g id="shape17-48" v:mID="17" v:groupContext="shape">
					<title>Sheet.17</title>
					<path d="M0 35.79 L2.67 35.79 L0 35.79 Z" class="st9"/>
				</g>
				<g id="shape18-50" v:mID="18" v:groupContext="shape">
					<title>Sheet.18</title>
					<path d="M0 35.79 L2.67 35.79 L0 35.79 Z" class="st6"/>
					<path d="M0 35.79 L2.67 35.79" class="st10"/>
				</g>
			</g>
		</g>
	</g>
</svg>
