<?xml version="1.0" encoding="UTF-8" standalone="no"?>
<!-- Généré par Microsoft Visio 11.0, SVG Export, v1.0 FL_EF110201.svg Page 1 -->

<!--
/*******************************************************************************
* Copyright (c) 2010-2013 ITER Organization.
* All rights reserved. This program and the accompanying materials
* are made available under the terms of the Eclipse Public License v1.0
* which accompanies this distribution, and is available at
* http://www.eclipse.org/legal/epl-v10.html
******************************************************************************/
-->
<svg
   xmlns:v="http://schemas.microsoft.com/visio/2003/SVGExtensions/"
   xmlns:dc="http://purl.org/dc/elements/1.1/"
   xmlns:cc="http://creativecommons.org/ns#"
   xmlns:rdf="http://www.w3.org/1999/02/22-rdf-syntax-ns#"
   xmlns:svg="http://www.w3.org/2000/svg"
   xmlns="http://www.w3.org/2000/svg"
   xmlns:sodipodi="http://sodipodi.sourceforge.net/DTD/sodipodi-0.dtd"
   xmlns:inkscape="http://www.inkscape.org/namespaces/inkscape"
   width="0.382088in"
   height="0.492441in"
   viewBox="0 0 27.5103 35.4557"
   xml:space="preserve"
   color-interpolation-filters="sRGB"
   class="st3"
   id="svg2"
   version="1.1"
   inkscape:version="0.48.2 r9819"
   sodipodi:docname="FL_EF110201.svg"><metadata
   id="metadata92"><rdf:RDF><cc:Work
       rdf:about=""><dc:format>image/svg+xml</dc:format><dc:type
         rdf:resource="http://purl.org/dc/dcmitype/StillImage" /></cc:Work></rdf:RDF></metadata><sodipodi:namedview
   pagecolor="#ffffff"
   bordercolor="#666666"
   borderopacity="1"
   objecttolerance="10"
   gridtolerance="10"
   guidetolerance="10"
   inkscape:pageopacity="0"
   inkscape:pageshadow="2"
   inkscape:window-width="1366"
   inkscape:window-height="706"
   id="namedview90"
   showgrid="false"
   inkscape:zoom="5.3249469"
   inkscape:cx="-12.102107"
   inkscape:cy="22.159845"
   inkscape:window-x="-8"
   inkscape:window-y="-8"
   inkscape:window-maximized="1"
   inkscape:current-layer="svg2" />
	<v:documentProperties
   v:langID="1036"
   v:metric="true"
   v:viewMarkup="false" />
	<style
   type="text/css"
   id="style4">
	
		.st1 {fill:#ffffff;stroke:none;stroke-linecap:round;stroke-linejoin:round;stroke-width:0.72}
		.st2 {fill:#ffffff;stroke:none;stroke-linecap:round;stroke-linejoin:round;stroke-width:0.719998}
		.st3 {fill:none;fill-rule:evenodd;font-size:12;overflow:visible;stroke-linecap:square;stroke-miterlimit:3}
		.st4 {fill:#ffffff;stroke:none;stroke-width:0.999997}
		.st5 {fill:none;stroke:#000000;stroke-linecap:round;stroke-linejoin:round;stroke-width:0.719998}
		.st6 {fill:none}
		.st7 {stroke:#000000;stroke-linecap:round;stroke-linejoin:round;stroke-width:0.719998}
	
	</style>
	<defs
   id="Masters">
		<symbol
   id="master8"
   v:mID="8"
   class="st3">
			
		</symbol>
	
		
		<v:pageProperties
   v:shadowOffsetY="-8.50394"
   v:shadowOffsetX="8.50394"
   v:drawingUnits="24"
   v:pageScale="0.0393701"
   v:drawingScale="0.0393701" />
		
		
	
			
			
		
			
			
			
		
				
				
			
				
				
			
				
				
				
			
					
			
				
					
					
					
				
						
						
					
						
						
					
				
				
				
				
				
				
				
			</defs>
	<g
   id="g4018"><rect
     x="0.98620498"
     y="0.72000164"
     width="0.0159449"
     height="0.0212598"
     class="st1"
     id="rect18"
     style="fill:#ffffff;stroke:none" /><rect
     x="26.482105"
     y="34.7145"
     width="0.0159449"
     height="0.0212598"
     class="st1"
     id="rect23"
     style="fill:#ffffff;stroke:none" /><rect
     x="0.98620498"
     y="0.7200067"
     width="0.028346401"
     height="0.028346401"
     class="st2"
     id="rect37"
     style="fill:#ffffff;stroke:none" /><rect
     x="26.497906"
     y="34.650608"
     width="0.028346401"
     height="0.028346401"
     class="st2"
     id="rect42"
     style="fill:#ffffff;stroke:none" /><g
     style="fill:#a6a6a6;fill-opacity:1"
     transform="translate(0.999997,-4.971062)"
     id="master-shape10-15"
     v:mID="10"
     v:groupContext="shape">
					<title
   id="title53">Feuille.10</title>
					<path
   d="m 22.71,30.68 a 12.7559,12.7559 0 0 1 -9.95,4.78 12.7559,12.7559 0 0 1 -6.38,-1.71 12.7559,12.7559 0 0 1 -3.58,-3.07 12.7559,12.7559 0 0 1 0,-15.95 12.7559,12.7559 0 0 1 3.58,-3.07 12.7559,12.7559 0 0 1 6.38,-1.71 12.7559,12.7559 0 0 1 9.95,4.78 12.7559,12.7559 0 0 1 1.09,1.6 12.7559,12.7559 0 0 1 1.71,6.37 12.7559,12.7559 0 0 1 -1.71,6.38 12.7559,12.7559 0 0 1 -1.09,1.6 z"
   class="st4"
   id="path55"
   inkscape:connector-curvature="0"
   style="fill:#a6a6a6;stroke:none;fill-opacity:1" />
				</g><g
     transform="translate(0.999997,-4.971062)"
     id="master-shape11-17"
     v:mID="11"
     v:groupContext="shape">
					<title
   id="title58">Feuille.11</title>
					<path
   d="m 22.71,30.68 a 12.7559,12.7559 0 0 1 -9.95,4.78 12.7559,12.7559 0 0 1 -6.38,-1.71 12.7559,12.7559 0 0 1 -3.58,-3.07 12.7559,12.7559 0 0 1 0,-15.95 12.7559,12.7559 0 0 1 3.58,-3.07 12.7559,12.7559 0 0 1 6.38,-1.71 12.7559,12.7559 0 0 1 9.95,4.78 12.7559,12.7559 0 0 1 1.09,1.6 12.7559,12.7559 0 0 1 1.71,6.37 12.7559,12.7559 0 0 1 -1.71,6.38 12.7559,12.7559 0 0 1 -1.09,1.6 z"
   class="st5"
   id="path60"
   inkscape:connector-curvature="0"
   style="fill:none;stroke:#000000;stroke-width:0.719998;stroke-linecap:round;stroke-linejoin:round" />
				</g><g
     id="master-shape12-19"
     v:mID="12"
     v:groupContext="shape"
     transform="translate(7.380357,-6.681062)">
					<title
   id="title63">Feuille.12</title>
					<path
   d="M 0,35.46 11.04,32.5 15.39,31.34 17.42,30.79 0,35.46 z"
   class="st6"
   id="path65"
   inkscape:connector-curvature="0"
   style="fill:none" />
					<path
   d="m 0,35.46 11.04,-2.96 4.35,-1.16 2.03,-0.55"
   class="st7"
   id="path67"
   inkscape:connector-curvature="0"
   style="stroke:#000000;stroke-width:0.719998;stroke-linecap:round;stroke-linejoin:round" />
				</g><g
     id="master-shape13-22"
     v:mID="13"
     v:groupContext="shape"
     transform="translate(3.800367,-9.751052)">
					<title
   id="title70">Feuille.13</title>
					<path
   d="m 0,35.46 a 12.7559,12.7559 0 0 1 17.24,-2.5 12.7559,12.7559 0 0 1 1.73,1.45 L 0,35.46 z"
   class="st6"
   id="path72"
   inkscape:connector-curvature="0"
   style="fill:none" />
					<path
   d="m 0,35.46 a 12.7559,12.7559 0 0 1 17.24,-2.5 12.7559,12.7559 0 0 1 1.73,1.45"
   class="st7"
   id="path74"
   inkscape:connector-curvature="0"
   style="stroke:#000000;stroke-width:0.719998;stroke-linecap:round;stroke-linejoin:round" />
				</g><g
     id="master-shape14-25"
     v:mID="14"
     v:groupContext="shape"
     transform="translate(3.800367,-21.049862)">
					<title
   id="title77">Feuille.14</title>
					<path
   d="m 0,30.8 a 12.7559,12.7559 -180 0 0 17.24,2.5 12.7559,12.7559 -180 0 0 1.73,-1.45 L 21,32.4 0,30.8 z"
   class="st6"
   id="path79"
   inkscape:connector-curvature="0"
   style="fill:none" />
					<path
   d="m 0,30.8 a 12.7559,12.7559 -180 0 0 17.24,2.5 12.7559,12.7559 -180 0 0 1.73,-1.45 L 21,32.4"
   class="st7"
   id="path81"
   inkscape:connector-curvature="0"
   style="stroke:#000000;stroke-width:0.719998;stroke-linecap:round;stroke-linejoin:round" />
				</g><g
     id="master-shape15-28"
     v:mID="15"
     v:groupContext="shape"
     transform="translate(7.380357,-24.650962)">
					<title
   id="title84">Feuille.15</title>
					<path
   d="M 15.39,35.46 11.04,34.3 0,31.34 15.39,35.46 z"
   class="st6"
   id="path86"
   inkscape:connector-curvature="0"
   style="fill:none" />
					<path
   d="M 15.39,35.46 11.04,34.3 0,31.34"
   class="st7"
   id="path88"
   inkscape:connector-curvature="0"
   style="stroke:#000000;stroke-width:0.719998;stroke-linecap:round;stroke-linejoin:round" />
				</g></g>
</svg>