<?xml version="1.0" encoding="UTF-8" standalone="no"?>
<!DOCTYPE svg PUBLIC "-//W3C//DTD SVG 1.0//EN" "C:\SeeVisioDTD\svg10.dtd">
<!-- Generated by Microsoft Visio 11.0, SVG Export, v1.0 FL_EF110109.svg Page-1 -->
<!--
/*******************************************************************************
* Copyright (c) 2010-2013 ITER Organization.
* All rights reserved. This program and the accompanying materials
* are made available under the terms of the Eclipse Public License v1.0
* which accompanies this distribution, and is available at
* http://www.eclipse.org/legal/epl-v10.html
******************************************************************************/
-->
<svg xmlns="http://www.w3.org/2000/svg" xmlns:v="http://schemas.microsoft.com/visio/2003/SVGExtensions/" width="0.382083in"
		height="0.49244in" viewBox="0 0 27.51 35.4557" xml:space="preserve" color-interpolation-filters="sRGB" class="st8">
	<v:documentProperties v:langID="1036" v:metric="true" v:viewMarkup="false"/>
	<style type="text/css">
	<![CDATA[
		.st1 {fill:#ffffff;stroke:none;stroke-linecap:round;stroke-linejoin:round;stroke-width:0.719999}
		.st2 {fill:#ffffff;stroke:none;stroke-width:0.999999}
		.st3 {fill:none;stroke:none;stroke-width:0.999999}
		.st4 {fill:none}
		.st5 {stroke:#000000;stroke-linecap:round;stroke-linejoin:round;stroke-width:0.72}
		.st6 {fill:none;stroke:none;stroke-linecap:round;stroke-linejoin:round;stroke-width:0.24}
		.st7 {fill:none;stroke:#000000;stroke-linecap:round;stroke-linejoin:round;stroke-width:0.72}
		.st8 {fill:none;fill-rule:evenodd;font-size:12;overflow:visible;stroke-linecap:square;stroke-miterlimit:3}
	]]>
	</style>
	<g v:mID="0" v:index="1" v:groupContext="foregroundPage">
		<title>Page-1</title>
		<v:pageProperties v:drawingScale="0.0393701" v:pageScale="0.0393701" v:drawingUnits="24" v:shadowOffsetX="8.50393"
				v:shadowOffsetY="-8.50393"/>
		<g id="group1-1" transform="translate(0.966214,-0.719999)" v:mID="1" v:groupContext="group">
			<title>Feuille.1</title>
			<g id="shape2-2" v:mID="2" v:groupContext="shape" transform="translate(0,-33.9945)">
				<title>Feuille.2</title>
				<rect x="0" y="35.4345" width="0.0159449" height="0.0212598" class="st1"/>
			</g>
			<g id="shape3-4" v:mID="3" v:groupContext="shape" transform="translate(25.4959,0)">
				<title>Feuille.3</title>
				<rect x="0" y="35.4345" width="0.0159449" height="0.0212598" class="st1"/>
			</g>
		</g>
		<g id="group4-6" transform="translate(0.952078,-0.720026)" v:mID="4" v:groupContext="group">
			<title>Sheet.4</title>
			<g id="shape5-7" v:mID="5" v:groupContext="shape" transform="translate(0.0479214,-4.15135)">
				<title>Sheet.5</title>
				<path d="M23.8 29.08 A12.7568 12.7568 -180 0 0 25.51 22.7 A12.7568 12.7568 -180 0 0 23.8 16.32 A12.7568 12.7568 -180
							 0 0 12.76 9.94 A12.7568 12.7568 -180 0 0 7.44 11.1 A12.7568 12.7568 -180 0 0 -0 22.7 A12.7568 12.7568
							 -180 0 0 7.44 34.3 A12.7568 12.7568 -180 0 0 12.76 35.46 A12.7568 12.7568 -180 0 0 23.8 29.08 Z"
						class="st2"/>
			</g>
			<g id="group13-9" transform="translate(8.2985,-19.9224)" v:mID="13" v:groupContext="group">
				<title>Sheet.13</title>
				<g id="shape14-10" v:mID="14" v:groupContext="shape">
					<title>Sheet.14</title>
					<path d="M0 33.97 L1.51 35.46 L0 33.97 Z" class="st3"/>
				</g>
				<g id="shape15-12" v:mID="15" v:groupContext="shape">
					<title>Sheet.15</title>
					<path d="M0 33.97 L1.51 35.46 L0 33.97 Z" class="st4"/>
					<path d="M0 33.97 L1.51 35.46" class="st5"/>
				</g>
			</g>
			<g id="group16-15" transform="translate(6.42836,-16.9022)" v:mID="16" v:groupContext="group">
				<title>Sheet.16</title>
				<g id="shape17-16" v:mID="17" v:groupContext="shape">
					<title>Sheet.17</title>
					<path d="M0 35.46 L2.12 35.46 L0 35.46 Z" class="st3"/>
				</g>
				<g id="shape18-18" v:mID="18" v:groupContext="shape">
					<title>Sheet.18</title>
					<path d="M0 35.46 L2.12 35.46 L0 35.46 Z" class="st4"/>
					<path d="M0 35.46 L2.12 35.46" class="st5"/>
				</g>
			</g>
			<g id="group19-21" transform="translate(8.2985,-12.3919)" v:mID="19" v:groupContext="group">
				<title>Sheet.19</title>
				<g id="shape20-22" v:mID="20" v:groupContext="shape">
					<title>Sheet.20</title>
					<path d="M0 35.46 L1.55 34 L0 35.46 Z" class="st3"/>
				</g>
				<g id="shape21-24" v:mID="21" v:groupContext="shape">
					<title>Sheet.21</title>
					<path d="M0 35.46 L1.55 34 L0 35.46 Z" class="st4"/>
					<path d="M0 35.46 L1.55 34" class="st5"/>
				</g>
			</g>
			<g id="group22-27" transform="translate(15.819,-12.3919)" v:mID="22" v:groupContext="group">
				<title>Sheet.22</title>
				<g id="shape23-28" v:mID="23" v:groupContext="shape">
					<title>Sheet.23</title>
					<path d="M1.5 35.46 L0 33.94 L1.5 35.46 Z" class="st3"/>
				</g>
				<g id="shape24-30" v:mID="24" v:groupContext="shape">
					<title>Sheet.24</title>
					<path d="M1.5 35.46 L0 33.94 L1.5 35.46 Z" class="st4"/>
					<path d="M1.5 35.46 L0 33.94" class="st5"/>
				</g>
			</g>
			<g id="group25-33" transform="translate(17.1091,-16.9022)" v:mID="25" v:groupContext="group">
				<title>Sheet.25</title>
				<g id="shape26-34" v:mID="26" v:groupContext="shape">
					<title>Sheet.26</title>
					<path d="M2.07 35.46 L0 35.46 L2.07 35.46 Z" class="st3"/>
				</g>
				<g id="shape27-36" v:mID="27" v:groupContext="shape">
					<title>Sheet.27</title>
					<path d="M2.07 35.46 L0 35.46 L2.07 35.46 Z" class="st4"/>
					<path d="M2.07 35.46 L0 35.46" class="st5"/>
				</g>
			</g>
			<g id="shape31-39" v:mID="31" v:groupContext="shape">
				<title>Sheet.31</title>
				<rect x="0" y="1.43996" width="25.5118" height="34.0157" class="st6"/>
			</g>
			<g id="group32-41" transform="translate(0.0479214,-4.15135)" v:mID="32" v:groupContext="group">
				<title>Sheet.32</title>
				<g id="group6-42" transform="translate(7.44052,-1.16009)" v:mID="6" v:groupContext="group">
					<title>Sheet.6</title>
					<g id="shape7-43" v:mID="7" v:groupContext="shape">
						<title>Sheet.7</title>
						<path d="M16.36 30.24 L0 35.46 L16.36 30.24 Z" class="st3"/>
					</g>
					<g id="shape8-45" v:mID="8" v:groupContext="shape">
						<title>Sheet.8</title>
						<path d="M16.36 30.24 L0 35.46 L16.36 30.24 Z" class="st4"/>
						<path d="M16.36 30.24 L0 35.46" class="st5"/>
					</g>
				</g>
				<g id="shape9-48" v:mID="9" v:groupContext="shape">
					<title>Sheet.9</title>
					<path d="M23.8 29.08 A12.7568 12.7568 -180 0 0 25.51 22.7 A12.7568 12.7568 -180 0 0 23.8 16.32 A12.7568 12.7568
								 -180 0 0 12.76 9.94 A12.7568 12.7568 -180 0 0 7.44 11.1 A12.7568 12.7568 -180 0 0 -0 22.7 A12.7568
								 12.7568 -180 0 0 7.44 34.3 A12.7568 12.7568 -180 0 0 12.76 35.46 A12.7568 12.7568 -180 0 0 23.8
								 29.08 Z" class="st7"/>
				</g>
				<g id="group10-50" transform="translate(7.44052,-19.1314)" v:mID="10" v:groupContext="group">
					<title>Sheet.10</title>
					<g id="shape11-51" v:mID="11" v:groupContext="shape">
						<title>Sheet.11</title>
						<path d="M16.36 35.46 L0 30.24 L16.36 35.46 Z" class="st3"/>
					</g>
					<g id="shape12-53" v:mID="12" v:groupContext="shape">
						<title>Sheet.12</title>
						<path d="M16.36 35.46 L0 30.24 L16.36 35.46 Z" class="st4"/>
						<path d="M16.36 35.46 L0 30.24" class="st5"/>
					</g>
				</g>
				<g id="group28-56" transform="translate(8.50059,-8.50058)" v:mID="28" v:groupContext="group">
					<title>Sheet.28</title>
					<g id="shape29-57" v:mID="29" v:groupContext="shape">
						<title>Sheet.29</title>
						<path d="M8.77 26.7 L7.29 28.23 A4.25226 4.25226 0 0 1 8.51 31.21 A4.25226 4.25226 0 0 1 7.26 34.21 A4.25226
									 4.25226 0 0 1 5.87 35.14 A4.25226 4.25226 0 0 1 4.26 35.46 A4.25226 4.25226 0 0 1 1.25 34.21
									 A4.25226 4.25226 0 0 1 0 31.21 A4.25226 4.25226 0 0 1 1.25 28.2 A4.25226 4.25226 0 0 1 2.64
									 27.27 A4.25226 4.25226 0 0 1 4.26 26.95 A4.25226 4.25226 0 0 1 7.26 28.2 L8.77 26.7 Z"
								class="st3"/>
					</g>
					<g id="shape30-59" v:mID="30" v:groupContext="shape">
						<title>Sheet.30</title>
						<path d="M8.77 26.7 L7.29 28.23 A4.25226 4.25226 0 0 1 8.51 31.21 A4.25226 4.25226 0 0 1 7.26 34.21 A4.25226
									 4.25226 0 0 1 5.87 35.14 A4.25226 4.25226 0 0 1 4.26 35.46 A4.25226 4.25226 0 0 1 1.25 34.21
									 A4.25226 4.25226 0 0 1 0 31.21 A4.25226 4.25226 0 0 1 1.25 28.2 A4.25226 4.25226 0 0 1 2.64
									 27.27 A4.25226 4.25226 0 0 1 4.26 26.95 A4.25226 4.25226 0 0 1 7.26 28.2 L8.77 26.7 Z"
								class="st4"/>
						<path d="M8.77 26.7 L7.29 28.23 A4.25226 4.25226 0 0 1 8.51 31.21 A4.25226 4.25226 0 0 1 7.26 34.21 A4.25226
									 4.25226 0 0 1 5.87 35.14 A4.25226 4.25226 0 0 1 4.26 35.46 A4.25226 4.25226 0 0 1 1.25 34.21
									 A4.25226 4.25226 0 0 1 0 31.21 A4.25226 4.25226 0 0 1 1.25 28.2 A4.25226 4.25226 0 0 1 2.64
									 27.27 A4.25226 4.25226 0 0 1 4.26 26.95 A4.25226 4.25226 0 0 1 7.26 28.2" class="st5"/>
					</g>
				</g>
			</g>
		</g>
	</g>
</svg>
