<?xml version="1.0" encoding="UTF-8" standalone="no"?>
<!-- Generated by Microsoft Visio 11.0, SVG Export, v1.0 FL_EF110109.svg Page-1 -->

<!--
/*******************************************************************************
* Copyright (c) 2010-2013 ITER Organization.
* All rights reserved. This program and the accompanying materials
* are made available under the terms of the Eclipse Public License v1.0
* which accompanies this distribution, and is available at
* http://www.eclipse.org/legal/epl-v10.html
******************************************************************************/
-->
<svg
   xmlns:v="http://schemas.microsoft.com/visio/2003/SVGExtensions/"
   xmlns:dc="http://purl.org/dc/elements/1.1/"
   xmlns:cc="http://creativecommons.org/ns#"
   xmlns:rdf="http://www.w3.org/1999/02/22-rdf-syntax-ns#"
   xmlns:svg="http://www.w3.org/2000/svg"
   xmlns="http://www.w3.org/2000/svg"
   xmlns:sodipodi="http://sodipodi.sourceforge.net/DTD/sodipodi-0.dtd"
   xmlns:inkscape="http://www.inkscape.org/namespaces/inkscape"
   width="0.382083in"
   height="0.49244in"
   viewBox="0 0 27.51 35.4557"
   xml:space="preserve"
   color-interpolation-filters="sRGB"
   class="st8"
   id="svg2"
   version="1.1"
   inkscape:version="0.48.2 r9819"
   sodipodi:docname="FL_EF110109.svg"><metadata
   id="metadata168"><rdf:RDF><cc:Work
       rdf:about=""><dc:format>image/svg+xml</dc:format><dc:type
         rdf:resource="http://purl.org/dc/dcmitype/StillImage" /></cc:Work></rdf:RDF></metadata><defs
   id="defs166">
		
		<v:pageProperties
   v:shadowOffsetY="-8.50393"
   v:shadowOffsetX="8.50393"
   v:drawingUnits="24"
   v:pageScale="0.0393701"
   v:drawingScale="0.0393701" />
		
		
	
			
			
			
			
			
			
			
			
			
		
			
			
			
		
				
				
			
				
				
			
				
				
				
				
				
			
				
				
			
				
				
				
			
				
				
				
			
				
				
				
			
				
				
				
			
				
				
				
			
				
				
			
					
					
					
				
					
					
				
					
					
					
				
					
					
				
					
					
					
				
					
					
				
					
					
					
				
					
					
				
					
					
					
				
					
					
				
					
					
					
				
					
					
					
				
					
					
				
					
					
					
				
						
						
						
					
						
						
					
						
						
						
					
						
						
					
						
						
						
					
						
						
					</defs><sodipodi:namedview
   pagecolor="#ffffff"
   bordercolor="#666666"
   borderopacity="1"
   objecttolerance="10"
   gridtolerance="10"
   guidetolerance="10"
   inkscape:pageopacity="0"
   inkscape:pageshadow="2"
   inkscape:window-width="1366"
   inkscape:window-height="706"
   id="namedview164"
   showgrid="false"
   inkscape:zoom="5.3249579"
   inkscape:cx="-12.102271"
   inkscape:cy="22.1598"
   inkscape:window-x="-8"
   inkscape:window-y="-8"
   inkscape:window-maximized="1"
   inkscape:current-layer="svg2" />
	<v:documentProperties
   v:langID="1036"
   v:metric="true"
   v:viewMarkup="false" />
	<style
   type="text/css"
   id="style4">
	
		.st1 {fill:#ffffff;stroke:none;stroke-linecap:round;stroke-linejoin:round;stroke-width:0.719999}
		.st2 {fill:#ffffff;stroke:none;stroke-width:0.999999}
		.st3 {fill:none;stroke:none;stroke-width:0.999999}
		.st4 {fill:none}
		.st5 {stroke:#000000;stroke-linecap:round;stroke-linejoin:round;stroke-width:0.72}
		.st6 {fill:none;stroke:none;stroke-linecap:round;stroke-linejoin:round;stroke-width:0.24}
		.st7 {fill:none;stroke:#000000;stroke-linecap:round;stroke-linejoin:round;stroke-width:0.72}
		.st8 {fill:none;fill-rule:evenodd;font-size:12;overflow:visible;stroke-linecap:square;stroke-miterlimit:3}
	
	</style>
	<g
   id="g4210"><rect
     x="0.966214"
     y="0.72000265"
     width="0.0159449"
     height="0.0212598"
     class="st1"
     id="rect16"
     style="fill:#ffffff;stroke:none" /><rect
     x="26.462114"
     y="34.714504"
     width="0.0159449"
     height="0.0212598"
     class="st1"
     id="rect21"
     style="fill:#ffffff;stroke:none" /><path
     d="m 24.799999,24.208624 a 12.7568,12.7568 0 0 0 1.71,-6.38 12.7568,12.7568 0 0 0 -1.71,-6.38 12.7568,12.7568 0 0 0 -11.04,-6.38 12.7568,12.7568 0 0 0 -5.3199996,1.16 12.7568,12.7568 0 0 0 -7.44,11.6 12.7568,12.7568 0 0 0 7.44,11.6 12.7568,12.7568 0 0 0 5.3199996,1.16 12.7568,12.7568 0 0 0 11.04,-6.38 z"
     class="st2"
     id="path29"
     inkscape:connector-curvature="0"
     style="fill:#a6a6a6;stroke:none;fill-opacity:1" /><path
     style="fill:none;stroke:none"
     inkscape:connector-curvature="0"
     id="path37"
     class="st3"
     d="m 9.250578,13.327574 1.51,1.49 -1.51,-1.49 z" /><path
     style="fill:none"
     inkscape:connector-curvature="0"
     id="path42"
     class="st4"
     d="m 9.250578,13.327574 1.51,1.49 -1.51,-1.49 z" /><path
     style="stroke:#000000;stroke-width:0.72000003;stroke-linecap:round;stroke-linejoin:round"
     inkscape:connector-curvature="0"
     id="path44"
     class="st5"
     d="m 9.250578,13.327574 1.51,1.49" /><path
     style="fill:none;stroke:none"
     inkscape:connector-curvature="0"
     id="path52"
     class="st3"
     d="m 7.380438,17.837774 2.12,0 -2.12,0 z" /><path
     style="fill:none"
     inkscape:connector-curvature="0"
     id="path57"
     class="st4"
     d="m 7.380438,17.837774 2.12,0 -2.12,0 z" /><path
     style="stroke:#000000;stroke-width:0.72000003;stroke-linecap:round;stroke-linejoin:round"
     inkscape:connector-curvature="0"
     id="path59"
     class="st5"
     d="m 7.380438,17.837774 2.12,0" /><path
     style="fill:none;stroke:none"
     inkscape:connector-curvature="0"
     id="path67"
     class="st3"
     d="m 9.250578,22.348074 1.55,-1.46 -1.55,1.46 z" /><path
     style="fill:none"
     inkscape:connector-curvature="0"
     id="path72"
     class="st4"
     d="m 9.250578,22.348074 1.55,-1.46 -1.55,1.46 z" /><path
     style="stroke:#000000;stroke-width:0.72000003;stroke-linecap:round;stroke-linejoin:round"
     inkscape:connector-curvature="0"
     id="path74"
     class="st5"
     d="m 9.250578,22.348074 1.55,-1.46" /><path
     style="fill:none;stroke:none"
     inkscape:connector-curvature="0"
     id="path82"
     class="st3"
     d="m 18.271078,22.348074 -1.5,-1.52 1.5,1.52 z" /><path
     style="fill:none"
     inkscape:connector-curvature="0"
     id="path87"
     class="st4"
     d="m 18.271078,22.348074 -1.5,-1.52 1.5,1.52 z" /><path
     style="stroke:#000000;stroke-width:0.72000003;stroke-linecap:round;stroke-linejoin:round"
     inkscape:connector-curvature="0"
     id="path89"
     class="st5"
     d="m 18.271078,22.348074 -1.5,-1.52" /><path
     style="fill:none;stroke:none"
     inkscape:connector-curvature="0"
     id="path97"
     class="st3"
     d="m 20.131178,17.837774 -2.07,0 2.07,0 z" /><path
     style="fill:none"
     inkscape:connector-curvature="0"
     id="path102"
     class="st4"
     d="m 20.131178,17.837774 -2.07,0 2.07,0 z" /><path
     style="stroke:#000000;stroke-width:0.72000003;stroke-linecap:round;stroke-linejoin:round"
     inkscape:connector-curvature="0"
     id="path104"
     class="st5"
     d="m 20.131178,17.837774 -2.07,0" /><rect
     x="0.95207798"
     y="0.71993399"
     width="25.511801"
     height="34.015701"
     class="st6"
     id="rect109"
     style="fill:none;stroke:none" /><path
     d="m 24.800519,24.208534 -16.3599996,5.22 16.3599996,-5.22 z"
     class="st3"
     id="path120"
     inkscape:connector-curvature="0"
     style="fill:none;stroke:none" /><path
     d="m 24.800519,24.208534 -16.3599996,5.22 16.3599996,-5.22 z"
     class="st4"
     id="path125"
     inkscape:connector-curvature="0"
     style="fill:none" /><path
     d="m 24.800519,24.208534 -16.3599996,5.22"
     class="st5"
     id="path127"
     inkscape:connector-curvature="0"
     style="stroke:#000000;stroke-width:0.72000003;stroke-linecap:round;stroke-linejoin:round" /><path
     style="fill:none;stroke:#000000;stroke-width:0.72000003;stroke-linecap:round;stroke-linejoin:round"
     inkscape:connector-curvature="0"
     id="path132"
     class="st7"
     d="m 24.799999,24.208624 a 12.7568,12.7568 0 0 0 1.71,-6.38 12.7568,12.7568 0 0 0 -1.71,-6.38 12.7568,12.7568 0 0 0 -11.04,-6.38 12.7568,12.7568 0 0 0 -5.3199996,1.16 12.7568,12.7568 0 0 0 -7.44,11.6 12.7568,12.7568 0 0 0 7.44,11.6 12.7568,12.7568 0 0 0 5.3199996,1.16 12.7568,12.7568 0 0 0 11.04,-6.38 z" /><path
     d="m 24.800519,11.457224 -16.3599996,-5.22 16.3599996,5.22 z"
     class="st3"
     id="path140"
     inkscape:connector-curvature="0"
     style="fill:none;stroke:none" /><path
     d="m 24.800519,11.457224 -16.3599996,-5.22 16.3599996,5.22 z"
     class="st4"
     id="path145"
     inkscape:connector-curvature="0"
     style="fill:none" /><path
     d="m 24.800519,11.457224 -16.3599996,-5.22"
     class="st5"
     id="path147"
     inkscape:connector-curvature="0"
     style="stroke:#000000;stroke-width:0.72000003;stroke-linecap:round;stroke-linejoin:round" /><path
     d="m 18.270589,13.328044 -1.48,1.53 a 4.25226,4.25226 0 0 1 1.22,2.98 4.25226,4.25226 0 0 1 -1.25,3 4.25226,4.25226 0 0 1 -1.39,0.93 4.25226,4.25226 0 0 1 -1.61,0.32 4.25226,4.25226 0 0 1 -3.01,-1.25 4.25226,4.25226 0 0 1 -1.2499996,-3 4.25226,4.25226 0 0 1 1.2499996,-3.01 4.25226,4.25226 0 0 1 1.39,-0.93 4.25226,4.25226 0 0 1 1.62,-0.32 4.25226,4.25226 0 0 1 3,1.25 l 1.51,-1.5 z"
     class="st3"
     id="path155"
     inkscape:connector-curvature="0"
     style="fill:none;stroke:none" /><path
     d="m 18.270589,13.328044 -1.48,1.53 a 4.25226,4.25226 0 0 1 1.22,2.98 4.25226,4.25226 0 0 1 -1.25,3 4.25226,4.25226 0 0 1 -1.39,0.93 4.25226,4.25226 0 0 1 -1.61,0.32 4.25226,4.25226 0 0 1 -3.01,-1.25 4.25226,4.25226 0 0 1 -1.2499996,-3 4.25226,4.25226 0 0 1 1.2499996,-3.01 4.25226,4.25226 0 0 1 1.39,-0.93 4.25226,4.25226 0 0 1 1.62,-0.32 4.25226,4.25226 0 0 1 3,1.25 l 1.51,-1.5 z"
     class="st4"
     id="path160"
     inkscape:connector-curvature="0"
     style="fill:none" /><path
     d="m 18.270589,13.328044 -1.48,1.53 a 4.25226,4.25226 0 0 1 1.22,2.98 4.25226,4.25226 0 0 1 -1.25,3 4.25226,4.25226 0 0 1 -1.39,0.93 4.25226,4.25226 0 0 1 -1.61,0.32 4.25226,4.25226 0 0 1 -3.01,-1.25 4.25226,4.25226 0 0 1 -1.2499996,-3 4.25226,4.25226 0 0 1 1.2499996,-3.01 4.25226,4.25226 0 0 1 1.39,-0.93 4.25226,4.25226 0 0 1 1.62,-0.32 4.25226,4.25226 0 0 1 3,1.25"
     class="st5"
     id="path162"
     inkscape:connector-curvature="0"
     style="stroke:#000000;stroke-width:0.72000003;stroke-linecap:round;stroke-linejoin:round" /></g>
</svg>