<?xml version="1.0" encoding="UTF-8" standalone="no"?>
<!DOCTYPE svg PUBLIC "-//W3C//DTD SVG 1.0//EN" "C:\SeeVisioDTD\svg10.dtd">
<!-- Généré par Microsoft Visio 11.0, SVG Export, v1.0 FL_EF110104.svg Page 1 -->
<!--
/*******************************************************************************
* Copyright (c) 2010-2014 ITER Organization.
* All rights reserved. This program and the accompanying materials
* are made available under the terms of the Eclipse Public License v1.0
* which accompanies this distribution, and is available at
* http://www.eclipse.org/legal/epl-v10.html
******************************************************************************/
-->
<svg xmlns="http://www.w3.org/2000/svg" xmlns:v="http://schemas.microsoft.com/visio/2003/SVGExtensions/" width="0.382107in"
		height="0.491652in" viewBox="0 0 27.5117 35.399" xml:space="preserve" color-interpolation-filters="sRGB" class="st2">
	<v:documentProperties v:langID="1036" v:metric="true" v:viewMarkup="false"/>
	<style type="text/css">
	<![CDATA[
		.st1 {fill:#ffffff;stroke:none;stroke-linecap:round;stroke-linejoin:round;stroke-width:0.719998}
		.st2 {fill:none;fill-rule:evenodd;font-size:12;overflow:visible;stroke-linecap:square;stroke-miterlimit:3}
		.st3 {fill:#ffffff;stroke:none;stroke-width:0.999997}
		.st4 {fill:none}
		.st5 {stroke:#000000;stroke-linecap:round;stroke-linejoin:round;stroke-width:0.719998}
		.st6 {fill:none;stroke:#000000;stroke-linecap:round;stroke-linejoin:round;stroke-width:0.719998}
	]]>
	</style>
	<defs id="Masters">
		<symbol id="master12" v:mID="12" class="st2">
			<title>FL_EF1107</title>
			<g id="group6-9" v:mID="6" v:groupContext="group">
				<title>FL_EF1107.6</title>
				<g id="master-shape7-10" v:mID="7" v:groupContext="shape">
					<title>Feuille.7</title>
					<path d="M12.91 9.89 A12.7559 12.7559 -180 1 0 12.91 35.4 A12.7559 12.7559 -180 1 0 12.91 9.89 Z" class="st3"/>
				</g>
				<g id="master-shape8-12" v:mID="8" v:groupContext="shape" transform="translate(8.1474,-17.01)">
					<title>Feuille.8</title>
					<path d="M4.76 33.28 A6.37793 6.37793 -180 0 0 0 35.4 L4.76 33.28 Z" class="st4"/>
					<path d="M4.76 33.28 A6.37793 6.37793 -180 0 0 0 35.4" class="st5"/>
				</g>
				<g id="master-shape9-15" v:mID="9" v:groupContext="shape" transform="translate(12.9074,-17.01)">
					<title>Feuille.9</title>
					<path d="M4.75 35.4 A6.37793 6.37793 -180 0 0 -0 33.28 L4.75 35.4 Z" class="st4"/>
					<path d="M4.75 35.4 A6.37793 6.37793 -180 0 0 -0 33.28" class="st5"/>
				</g>
				<g id="master-shape10-18" v:mID="10" v:groupContext="shape" transform="translate(8.1474,-6.37998)">
					<title>Feuille.10</title>
					<path d="M0 33.28 A6.37793 6.37793 -180 0 0 4.76 35.4 L0 33.28 Z" class="st4"/>
					<path d="M0 33.28 A6.37793 6.37793 -180 0 0 4.76 35.4" class="st5"/>
				</g>
				<g id="master-shape11-21" v:mID="11" v:groupContext="shape" transform="translate(12.9074,-6.37998)">
					<title>Feuille.11</title>
					<path d="M-0 35.4 A6.37793 6.37793 -180 0 0 4.75 33.28 L0 35.4 Z" class="st4"/>
					<path d="M-0 35.4 A6.37793 6.37793 -180 0 0 4.75 33.28" class="st5"/>
				</g>
				<g id="master-shape12-24" v:mID="12" v:groupContext="shape" transform="translate(12.9074,-6.37998)">
					<title>Feuille.12</title>
					<path d="M0 22.65 L0 35.4 L0 22.65 Z" class="st4"/>
					<path d="M0 22.65 L0 35.4" class="st5"/>
				</g>
				<g id="master-shape13-27" v:mID="13" v:groupContext="shape">
					<title>Feuille.13</title>
					<path d="M12.91 9.89 A12.7559 12.7559 -180 1 0 12.91 35.4 A12.7559 12.7559 -180 1 0 12.91 9.89 Z" class="st6"/>
				</g>
				<g id="master-shape14-29" v:mID="14" v:groupContext="shape" transform="translate(1.85742,-6.37998)">
					<title>Feuille.14</title>
					<path d="M0 35.4 L4.67 17.98 L0 35.4 Z" class="st4"/>
					<path d="M0 35.4 L4.67 17.98" class="st5"/>
				</g>
				<g id="master-shape15-32" v:mID="15" v:groupContext="shape" transform="translate(19.2774,-6.37998)">
					<title>Feuille.15</title>
					<path d="M4.67 35.4 L0 17.98 L4.67 35.4 Z" class="st4"/>
					<path d="M4.67 35.4 L0 17.98" class="st5"/>
				</g>
			</g>
		</symbol>
	</defs>
	<g v:mID="0" v:index="1" v:groupContext="foregroundPage">
		<title>Page 1</title>
		<v:pageProperties v:drawingScale="0.0393701" v:pageScale="0.0393701" v:drawingUnits="24" v:shadowOffsetX="9"
				v:shadowOffsetY="-9"/>
		<g id="group1-1" transform="translate(0.987739,-0.719998)" v:mID="1" v:groupContext="group">
			<title>Feuille.1</title>
			<g id="group2-2" v:mID="2" v:groupContext="group">
				<title>Page-1</title>
				<g id="group3-3" v:mID="3" v:groupContext="group">
					<title>Feuille.6</title>
					<g id="shape4-4" v:mID="4" v:groupContext="shape" transform="translate(2.57606E-016,-33.9306)">
						<title>Feuille.4</title>
						<rect x="0" y="35.3706" width="0.0283464" height="0.0283464" class="st1"/>
					</g>
					<g id="shape5-6" v:mID="5" v:groupContext="shape" transform="translate(25.5117,0)">
						<title>Feuille.5</title>
						<rect x="0" y="35.3706" width="0.0283464" height="0.0283464" class="st1"/>
					</g>
				</g>
				<use id="shape6-8" v:mID="6" xlink:href="#master12" transform="translate(35.4121,5.54453) rotate(90)">
					<title>FL_EF1107.6</title>
				</use>
			</g>
		</g>
	</g>
</svg>
