<?xml version="1.0" encoding="UTF-8" standalone="no"?>
<!DOCTYPE svg PUBLIC "-//W3C//DTD SVG 1.0//EN" "C:\SeeVisioDTD\svg10.dtd">
<!-- Generated by Microsoft Visio 11.0, SVG Export, v1.0 FL_EF110106.svg Page-1 -->
<!--
/*******************************************************************************
* Copyright (c) 2010-2014 ITER Organization.
* All rights reserved. This program and the accompanying materials
* are made available under the terms of the Eclipse Public License v1.0
* which accompanies this distribution, and is available at
* http://www.eclipse.org/legal/epl-v10.html
******************************************************************************/
-->
<svg xmlns="http://www.w3.org/2000/svg" xmlns:v="http://schemas.microsoft.com/visio/2003/SVGExtensions/" width="0.382108in"
		height="0.49165in" viewBox="0 0 27.5118 35.3988" xml:space="preserve" color-interpolation-filters="sRGB" class="st9">
	<v:documentProperties v:langID="1036" v:metric="true" v:viewMarkup="false"/>
	<style type="text/css">
	<![CDATA[
		.st1 {fill:#ffffff;stroke:none;stroke-linecap:round;stroke-linejoin:round;stroke-width:0.719996}
		.st2 {fill:#ffffff;stroke:none;stroke-width:0.999994}
		.st3 {fill:none;stroke:#000000;stroke-linecap:round;stroke-linejoin:round;stroke-width:0.719996}
		.st4 {fill:none;stroke:none;stroke-width:0.999997}
		.st5 {fill:none;stroke:none;stroke-width:0.999999}
		.st6 {fill:none}
		.st7 {stroke:#000000;stroke-linecap:round;stroke-linejoin:round;stroke-width:0.719996}
		.st8 {stroke:#000000;stroke-linecap:butt;stroke-width:0.749999}
		.st9 {fill:none;fill-rule:evenodd;font-size:12;overflow:visible;stroke-linecap:square;stroke-miterlimit:3}
	]]>
	</style>
	<g v:mID="0" v:index="1" v:groupContext="foregroundPage">
		<title>Page-1</title>
		<v:pageProperties v:drawingScale="0.0393701" v:pageScale="0.0393701" v:drawingUnits="24" v:shadowOffsetX="8.5039"
				v:shadowOffsetY="-8.5039"/>
		<g id="group1-1" transform="translate(0.986718,-0.719996)" v:mID="1" v:groupContext="group">
			<title>Sheet.1</title>
			<g id="shape2-2" v:mID="2" v:groupContext="shape" transform="translate(0,-33.9305)">
				<title>Feuille.4</title>
				<rect x="0" y="35.3705" width="0.0283464" height="0.0283464" class="st1"/>
			</g>
			<g id="shape3-4" v:mID="3" v:groupContext="shape" transform="translate(25.5117,0)">
				<title>Feuille.5</title>
				<rect x="0" y="35.3705" width="0.0283464" height="0.0283464" class="st1"/>
			</g>
			<g id="group4-6" transform="translate(0.014176,-4.04979)" v:mID="4" v:groupContext="group">
				<title>Sheet.4</title>
				<g id="shape5-7" v:mID="5" v:groupContext="shape">
					<title>Sheet.5</title>
					<path d="M25.51 22.49 A12.7559 12.7559 -180 1 0 0 22.49 A12.7559 12.7559 -180 1 0 25.51 22.49 Z" class="st2"/>
				</g>
				<g id="shape6-9" v:mID="6" v:groupContext="shape">
					<title>Sheet.6</title>
					<path d="M25.51 22.49 A12.7559 12.7559 -180 1 0 0 22.49 A12.7559 12.7559 -180 1 0 25.51 22.49 Z" class="st3"/>
				</g>
				<g id="group7-11" transform="translate(6.37996,-1.85226)" v:mID="7" v:groupContext="group">
					<title>Sheet.7</title>
					<g id="shape8-12" v:mID="8" v:groupContext="shape">
						<title>Sheet.8</title>
						<path d="M0 35.4 L17.42 30.73 L0 35.4 Z" class="st4"/>
					</g>
					<g id="group9-14" v:mID="9" v:groupContext="group">
						<title>Sheet.9</title>
						<g id="shape10-15" v:mID="10" v:groupContext="shape">
							<title>Sheet.10</title>
							<path d="M0 35.4 L17.42 30.73 L0 35.4 Z" class="st5"/>
						</g>
						<g id="shape11-17" v:mID="11" v:groupContext="shape">
							<title>Sheet.11</title>
							<path d="M0 35.4 L17.42 30.73 L0 35.4 Z" class="st6"/>
							<path d="M0 35.4 L17.42 30.73" class="st7"/>
						</g>
					</g>
				</g>
				<g id="group12-20" transform="translate(6.37996,-19.2722)" v:mID="12" v:groupContext="group">
					<title>Sheet.12</title>
					<g id="shape13-21" v:mID="13" v:groupContext="shape">
						<title>Sheet.13</title>
						<path d="M0 30.73 L17.42 35.4 L0 30.73 Z" class="st4"/>
					</g>
					<g id="group14-23" v:mID="14" v:groupContext="group">
						<title>Sheet.14</title>
						<g id="shape15-24" v:mID="15" v:groupContext="shape">
							<title>Sheet.15</title>
							<path d="M0 30.73 L17.42 35.4 L0 30.73 Z" class="st5"/>
						</g>
						<g id="shape16-26" v:mID="16" v:groupContext="shape">
							<title>Sheet.16</title>
							<path d="M0 30.73 L17.42 35.4 L0 30.73 Z" class="st6"/>
							<path d="M0 30.73 L17.42 35.4" class="st7"/>
						</g>
					</g>
				</g>
				<g id="group17-29" transform="translate(5.51879,-6.68457)" v:mID="17" v:groupContext="group">
					<title>Sheet.17</title>
					<g id="shape18-30" v:mID="18" v:groupContext="shape" transform="translate(0,57.8741) scale(1,-1)">
						<title>Sheet.18</title>
						<path d="M6.46 28.3 C6.49 28.3 6.51 28.28 6.54 28.28 C6.57 28.27 6.58 28.25 6.61 28.24 C6.63 28.22 6.64 28.19
									 6.66 28.16 C6.68 28.13 6.69 28.1 6.69 28.07 C6.69 28.04 6.69 27.99 6.68 27.96 C6.68 27.92 6.66
									 27.89 6.64 27.85 C6.63 27.81 6.6 27.78 6.57 27.75 C6.54 27.7 6.49 27.67 6.46 27.66 C6.42 27.63
									 6.37 27.6 6.32 27.58 C6.26 27.57 6.2 27.55 6.16 27.55 C6.1 27.55 6.02 27.55 5.97 27.57 C5.9
									 27.57 5.84 27.6 5.78 27.61 C5.72 27.64 5.64 27.67 5.59 27.72 C5.53 27.75 5.47 27.81 5.43 27.87
									 C5.36 27.92 5.32 27.99 5.27 28.05 C5.24 28.13 5.2 28.22 5.17 28.3 C5.15 28.37 5.12 28.48 5.12
									 28.56 C5.11 28.65 5.11 28.75 5.12 28.85 C5.14 28.94 5.15 29.06 5.18 29.15 C5.23 29.24 5.27 29.35
									 5.32 29.42 C5.38 29.52 5.46 29.62 5.52 29.7 C5.59 29.78 5.68 29.87 5.78 29.93 C5.88 30 5.99
									 30.06 6.1 30.11 C6.2 30.16 6.34 30.2 6.46 30.22 C6.58 30.25 6.72 30.26 6.86 30.26 C6.98 30.26
									 7.13 30.25 7.25 30.23 C7.39 30.2 7.54 30.16 7.67 30.1 C7.79 30.05 7.94 29.97 8.05 29.88 C8.17
									 29.81 8.29 29.7 8.4 29.59 C8.5 29.49 8.61 29.35 8.69 29.21 C8.76 29.09 8.85 28.92 8.9 28.78
									 C8.96 28.63 9.01 28.45 9.04 28.3 C9.05 28.13 9.07 27.95 9.07 27.78 C9.05 27.61 9.02 27.41 8.99
									 27.25 C8.95 27.08 8.87 26.89 8.79 26.73 C8.72 26.57 8.61 26.39 8.5 26.25 C8.4 26.1 8.24 25.95
									 8.11 25.83 C7.97 25.69 7.79 25.57 7.64 25.48 C7.45 25.37 7.25 25.28 7.07 25.22 C6.89 25.16 6.66
									 25.1 6.46 25.08 C6.25 25.05 6.02 25.05 5.82 25.07 C5.61 25.08 5.36 25.11 5.17 25.17 C4.95 25.23
									 4.72 25.33 4.54 25.42 C4.34 25.52 4.13 25.66 3.96 25.8 C3.78 25.93 3.6 26.12 3.44 26.29 C3.31
									 26.45 3.15 26.68 3.05 26.88 C2.93 27.08 2.82 27.34 2.76 27.55 C2.68 27.78 2.62 28.05 2.61 28.3
									 C2.58 28.54 2.58 28.82 2.59 29.06 C2.62 29.32 2.67 29.59 2.74 29.84 C2.82 30.08 2.93 30.35 3.05
									 30.57 C3.17 30.8 3.34 31.06 3.51 31.25 C3.67 31.45 3.89 31.67 4.08 31.83 C4.3 32.02 4.56 32.18
									 4.8 32.31 C5.04 32.44 5.33 32.55 5.59 32.63 C5.87 32.72 6.19 32.78 6.46 32.79 C6.74 32.82 7.07
									 32.82 7.36 32.79 C7.64 32.76 7.97 32.69 8.24 32.61 C8.52 32.52 8.84 32.38 9.1 32.24 C9.36 32.09
									 9.65 31.89 9.88 31.71 C10.1 31.51 10.35 31.25 10.53 31.02 C10.73 30.78 10.93 30.48 11.06 30.2
									 C11.22 29.93 11.34 29.59 11.43 29.29 C11.52 28.98 11.58 28.62 11.61 28.3 C11.63 27.98 11.63
									 27.6 11.58 27.28 C11.55 26.94 11.46 26.57 11.37 26.27 C11.26 25.95 11.11 25.6 10.94 25.29 C10.77
									 25.01 10.55 24.69 10.33 24.43 C10.1 24.17 9.81 23.89 9.54 23.68 C9.27 23.47 8.93 23.25 8.61
									 23.1 C8.29 22.93 7.91 22.8 7.57 22.69 C7.22 22.6 6.81 22.54 6.46 22.51 C6.1 22.48 5.67 22.49
									 5.32 22.54 C4.95 22.58 4.53 22.67 4.18 22.8 C3.83 22.92 3.43 23.1 3.11 23.28 C2.77 23.47 2.42
									 23.72 2.13 23.97 C1.84 24.23 1.54 24.55 1.31 24.85 C1.07 25.16 0.84 25.54 0.67 25.89 C0.49 26.25
									 0.34 26.68 0.23 27.06 C0.12 27.44 0.05 27.9 0.03 28.3 C0 28.69 0.02 29.17 0.08 29.56 C0.12 29.97
									 0.23 30.43 0.37 30.81 C0.5 31.21 0.7 31.65 0.91 32 C1.13 32.37 1.4 32.76 1.68 33.07 C1.97 33.39
									 2.32 33.72 2.67 33.98 C3 34.24 3.43 34.5 3.81 34.68 C4.21 34.88 4.68 35.05 5.09 35.15 C5.52
									 35.26 6.02 35.35 6.46 35.37 C6.9 35.4 7.42 35.38 7.85 35.31 C8.31 35.25 8.81 35.12 9.24 34.99
									 C9.66 34.83 10.13 34.61 10.53 34.38 C10.93 34.15 11.35 33.83 11.69 33.52 C12.04 33.22 12.41
									 32.82 12.68 32.44 C12.95 32.08 13.24 31.6 13.44 31.19 C13.66 30.77 13.84 30.25 13.94 29.79 C14.07
									 29.32 14.16 28.77 14.17 28.3 L6.46 28.3 Z" class="st5"/>
					</g>
					<g id="shape19-32" v:mID="19" v:groupContext="shape" transform="translate(0.566929,57.8741) scale(1,-1)">
						<title>Sheet.19</title>
						<path d="M6.46 28.3 C6.49 28.3 6.51 28.28 6.54 28.28 C6.57 28.27 6.58 28.25 6.61 28.24 C6.63 28.22 6.64 28.19
									 6.66 28.16 C6.68 28.13 6.69 28.1 6.69 28.07 C6.69 28.04 6.69 27.99 6.68 27.96 C6.68 27.92 6.66
									 27.89 6.64 27.85 C6.63 27.81 6.6 27.78 6.57 27.75 C6.54 27.7 6.49 27.67 6.46 27.66 C6.42 27.63
									 6.37 27.6 6.32 27.58 C6.26 27.57 6.2 27.55 6.16 27.55 C6.1 27.55 6.02 27.55 5.97 27.57 C5.9
									 27.57 5.84 27.6 5.78 27.61 C5.72 27.64 5.64 27.67 5.59 27.72 C5.53 27.75 5.47 27.81 5.43 27.87
									 C5.36 27.92 5.32 27.99 5.27 28.05 C5.24 28.13 5.2 28.22 5.17 28.3 C5.15 28.37 5.12 28.48 5.12
									 28.56 C5.11 28.65 5.11 28.75 5.12 28.85 C5.14 28.94 5.15 29.06 5.18 29.15 C5.23 29.24 5.27 29.35
									 5.32 29.42 C5.38 29.52 5.46 29.62 5.52 29.7 C5.59 29.78 5.68 29.87 5.78 29.93 C5.88 30 5.99
									 30.06 6.1 30.11 C6.2 30.16 6.34 30.2 6.46 30.22 C6.58 30.25 6.72 30.26 6.86 30.26 C6.98 30.26
									 7.13 30.25 7.25 30.23 C7.39 30.2 7.54 30.16 7.67 30.1 C7.79 30.05 7.94 29.97 8.05 29.88 C8.17
									 29.81 8.29 29.7 8.4 29.59 C8.5 29.49 8.61 29.35 8.69 29.21 C8.76 29.09 8.85 28.92 8.9 28.78
									 C8.96 28.63 9.01 28.45 9.04 28.3 C9.05 28.13 9.07 27.95 9.07 27.78 C9.05 27.61 9.02 27.41 8.99
									 27.25 C8.95 27.08 8.87 26.89 8.79 26.73 C8.72 26.57 8.61 26.39 8.5 26.25 C8.4 26.1 8.24 25.95
									 8.11 25.83 C7.97 25.69 7.79 25.57 7.64 25.48 C7.45 25.37 7.25 25.28 7.07 25.22 C6.89 25.16 6.66
									 25.1 6.46 25.08 C6.25 25.05 6.02 25.05 5.82 25.07 C5.61 25.08 5.36 25.11 5.17 25.17 C4.95 25.23
									 4.72 25.33 4.54 25.42 C4.34 25.52 4.13 25.66 3.96 25.8 C3.78 25.93 3.6 26.12 3.44 26.29 C3.31
									 26.45 3.15 26.68 3.05 26.88 C2.93 27.08 2.82 27.34 2.76 27.55 C2.68 27.78 2.62 28.05 2.61 28.3
									 C2.58 28.54 2.58 28.82 2.59 29.06 C2.62 29.32 2.67 29.59 2.74 29.84 C2.82 30.08 2.93 30.35 3.05
									 30.57 C3.17 30.8 3.34 31.06 3.51 31.25 C3.67 31.45 3.89 31.67 4.08 31.83 C4.3 32.02 4.56 32.18
									 4.8 32.31 C5.04 32.44 5.33 32.55 5.59 32.63 C5.87 32.72 6.19 32.78 6.46 32.79 C6.74 32.82 7.07
									 32.82 7.36 32.79 C7.64 32.76 7.97 32.69 8.24 32.61 C8.52 32.52 8.84 32.38 9.1 32.24 C9.36 32.09
									 9.65 31.89 9.88 31.71 C10.1 31.51 10.35 31.25 10.53 31.02 C10.73 30.78 10.93 30.48 11.06 30.2
									 C11.22 29.93 11.34 29.59 11.43 29.29 C11.52 28.98 11.58 28.62 11.61 28.3 C11.63 27.98 11.63
									 27.6 11.58 27.28 C11.55 26.94 11.46 26.57 11.37 26.27 C11.26 25.95 11.11 25.6 10.94 25.29 C10.77
									 25.01 10.55 24.69 10.33 24.43 C10.1 24.17 9.81 23.89 9.54 23.68 C9.27 23.47 8.93 23.25 8.61
									 23.1 C8.29 22.93 7.91 22.8 7.57 22.69 C7.22 22.6 6.81 22.54 6.46 22.51 C6.1 22.48 5.67 22.49
									 5.32 22.54 C4.95 22.58 4.53 22.67 4.18 22.8 C3.83 22.92 3.43 23.1 3.11 23.28 C2.77 23.47 2.42
									 23.72 2.13 23.97 C1.84 24.23 1.54 24.55 1.31 24.85 C1.07 25.16 0.84 25.54 0.67 25.89 C0.49 26.25
									 0.34 26.68 0.23 27.06 C0.12 27.44 0.05 27.9 0.03 28.3 C0 28.69 0.02 29.17 0.08 29.56 C0.12 29.97
									 0.23 30.43 0.37 30.81 C0.5 31.21 0.7 31.65 0.91 32 C1.13 32.37 1.4 32.76 1.68 33.07 C1.97 33.39
									 2.32 33.72 2.67 33.98 C3 34.24 3.43 34.5 3.81 34.68 C4.21 34.88 4.68 35.05 5.09 35.15 C5.52
									 35.26 6.02 35.35 6.46 35.37 C6.9 35.4 7.42 35.38 7.85 35.31 C8.31 35.25 8.81 35.12 9.24 34.99
									 C9.66 34.83 10.13 34.61 10.53 34.38 C10.93 34.15 11.35 33.83 11.69 33.52 C12.04 33.22 12.41
									 32.82 12.68 32.44 C12.95 32.08 13.24 31.6 13.44 31.19 C13.66 30.77 13.84 30.25 13.94 29.79 C14.07
									 29.32 14.16 28.77 14.17 28.3 L6.46 28.3 Z" class="st6"/>
						<path d="M6.46 28.3 C6.49 28.3 6.51 28.28 6.54 28.28 C6.57 28.27 6.58 28.25 6.61 28.24 C6.63 28.22 6.64 28.19
									 6.66 28.16 C6.68 28.13 6.69 28.1 6.69 28.07 C6.69 28.04 6.69 27.99 6.68 27.96 C6.68 27.92 6.66
									 27.89 6.64 27.85 C6.63 27.81 6.6 27.78 6.57 27.75 C6.54 27.7 6.49 27.67 6.46 27.66 C6.42 27.63
									 6.37 27.6 6.32 27.58 C6.26 27.57 6.2 27.55 6.16 27.55 C6.1 27.55 6.02 27.55 5.97 27.57 C5.9
									 27.57 5.84 27.6 5.78 27.61 C5.72 27.64 5.64 27.67 5.59 27.72 C5.53 27.75 5.47 27.81 5.43 27.87
									 C5.36 27.92 5.32 27.99 5.27 28.05 C5.24 28.13 5.2 28.22 5.17 28.3 C5.15 28.37 5.12 28.48 5.12
									 28.56 C5.11 28.65 5.11 28.75 5.12 28.85 C5.14 28.94 5.15 29.06 5.18 29.15 C5.23 29.24 5.27 29.35
									 5.32 29.42 C5.38 29.52 5.46 29.62 5.52 29.7 C5.59 29.78 5.68 29.87 5.78 29.93 C5.88 30 5.99
									 30.06 6.1 30.11 C6.2 30.16 6.34 30.2 6.46 30.22 C6.58 30.25 6.72 30.26 6.86 30.26 C6.98 30.26
									 7.13 30.25 7.25 30.23 C7.39 30.2 7.54 30.16 7.67 30.1 C7.79 30.05 7.94 29.97 8.05 29.88 C8.17
									 29.81 8.29 29.7 8.4 29.59 C8.5 29.49 8.61 29.35 8.69 29.21 C8.76 29.09 8.85 28.92 8.9 28.78
									 C8.96 28.63 9.01 28.45 9.04 28.3 C9.05 28.13 9.07 27.95 9.07 27.78 C9.05 27.61 9.02 27.41 8.99
									 27.25 C8.95 27.08 8.87 26.89 8.79 26.73 C8.72 26.57 8.61 26.39 8.5 26.25 C8.4 26.1 8.24 25.95
									 8.11 25.83 C7.97 25.69 7.79 25.57 7.64 25.48 C7.45 25.37 7.25 25.28 7.07 25.22 C6.89 25.16 6.66
									 25.1 6.46 25.08 C6.25 25.05 6.02 25.05 5.82 25.07 C5.61 25.08 5.36 25.11 5.17 25.17 C4.95 25.23
									 4.72 25.33 4.54 25.42 C4.34 25.52 4.13 25.66 3.96 25.8 C3.78 25.93 3.6 26.12 3.44 26.29 C3.31
									 26.45 3.15 26.68 3.05 26.88 C2.93 27.08 2.82 27.34 2.76 27.55 C2.68 27.78 2.62 28.05 2.61 28.3
									 C2.58 28.54 2.58 28.82 2.59 29.06 C2.62 29.32 2.67 29.59 2.74 29.84 C2.82 30.08 2.93 30.35 3.05
									 30.57 C3.17 30.8 3.34 31.06 3.51 31.25 C3.67 31.45 3.89 31.67 4.08 31.83 C4.3 32.02 4.56 32.18
									 4.8 32.31 C5.04 32.44 5.33 32.55 5.59 32.63 C5.87 32.72 6.19 32.78 6.46 32.79 C6.74 32.82 7.07
									 32.82 7.36 32.79 C7.64 32.76 7.97 32.69 8.24 32.61 C8.52 32.52 8.84 32.38 9.1 32.24 C9.36 32.09
									 9.65 31.89 9.88 31.71 C10.1 31.51 10.35 31.25 10.53 31.02 C10.73 30.78 10.93 30.48 11.06 30.2
									 C11.22 29.93 11.34 29.59 11.43 29.29 C11.52 28.98 11.58 28.62 11.61 28.3 C11.63 27.98 11.63
									 27.6 11.58 27.28 C11.55 26.94 11.46 26.57 11.37 26.27 C11.26 25.95 11.11 25.6 10.94 25.29 C10.77
									 25.01 10.55 24.69 10.33 24.43 C10.1 24.17 9.81 23.89 9.54 23.68 C9.27 23.47 8.93 23.25 8.61
									 23.1 C8.29 22.93 7.91 22.8 7.57 22.69 C7.22 22.6 6.81 22.54 6.46 22.51 C6.1 22.48 5.67 22.49
									 5.32 22.54 C4.95 22.58 4.53 22.67 4.18 22.8 C3.83 22.92 3.43 23.1 3.11 23.28 C2.77 23.47 2.42
									 23.72 2.13 23.97 C1.84 24.23 1.54 24.55 1.31 24.85 C1.07 25.16 0.84 25.54 0.67 25.89 C0.49 26.25
									 0.34 26.68 0.23 27.06 C0.12 27.44 0.05 27.9 0.03 28.3 C0 28.69 0.02 29.17 0.08 29.56 C0.12 29.97
									 0.23 30.43 0.37 30.81 C0.5 31.21 0.7 31.65 0.91 32 C1.13 32.37 1.4 32.76 1.68 33.07 C1.97 33.39
									 2.32 33.72 2.67 33.98 C3 34.24 3.43 34.5 3.81 34.68 C4.21 34.88 4.68 35.05 5.09 35.15 C5.52
									 35.26 6.02 35.35 6.46 35.37 C6.9 35.4 7.42 35.38 7.85 35.31 C8.31 35.25 8.81 35.12 9.24 34.99
									 C9.66 34.83 10.13 34.61 10.53 34.38 C10.93 34.15 11.35 33.83 11.69 33.52 C12.04 33.22 12.41
									 32.82 12.68 32.44 C12.95 32.08 13.24 31.6 13.44 31.19 C13.66 30.77 13.84 30.25 13.94 29.79 C14.07
									 29.32 14.16 28.77 14.17 28.3" class="st8"/>
					</g>
				</g>
			</g>
		</g>
	</g>
</svg>
