<?xml version="1.0" encoding="UTF-8" standalone="no"?>
<!DOCTYPE svg PUBLIC "-//W3C//DTD SVG 1.0//EN" "C:\SeeVisioDTD\svg10.dtd">
<!-- Généré par Microsoft Visio 11.0, SVG Export, v1.0 FL_EF110107.svg Page 1 -->
<!--
/*******************************************************************************
* Copyright (c) 2010-2013 ITER Organization.
* All rights reserved. This program and the accompanying materials
* are made available under the terms of the Eclipse Public License v1.0
* which accompanies this distribution, and is available at
* http://www.eclipse.org/legal/epl-v10.html
******************************************************************************/
-->
<svg xmlns="http://www.w3.org/2000/svg" xmlns:v="http://schemas.microsoft.com/visio/2003/SVGExtensions/" width="0.382108in"
		height="0.491651in" viewBox="0 0 27.5118 35.3989" xml:space="preserve" color-interpolation-filters="sRGB" class="st8">
	<v:documentProperties v:langID="1036" v:metric="true" v:viewMarkup="false"/>
	<style type="text/css">
	<![CDATA[
		.st1 {fill:#ffffff;stroke:none;stroke-linecap:round;stroke-linejoin:round;stroke-width:0.719997}
		.st2 {fill:#ffffff;stroke:none;stroke-width:0.999995}
		.st3 {fill:none;stroke:#000000;stroke-linecap:round;stroke-linejoin:round;stroke-width:0.719997}
		.st4 {fill:none;stroke:none;stroke-width:0.999998}
		.st5 {fill:none}
		.st6 {stroke:#000000;stroke-linecap:round;stroke-linejoin:round;stroke-width:0.719997}
		.st7 {stroke:#000000;stroke-linecap:round;stroke-linejoin:round;stroke-width:0.719999}
		.st8 {fill:none;fill-rule:evenodd;font-size:12;overflow:visible;stroke-linecap:square;stroke-miterlimit:3}
	]]>
	</style>
	<g v:mID="0" v:index="1" v:groupContext="foregroundPage">
		<title>Page 1</title>
		<v:pageProperties v:drawingScale="0.0393701" v:pageScale="0.0393701" v:drawingUnits="24" v:shadowOffsetX="9"
				v:shadowOffsetY="-9"/>
		<g id="group1-1" transform="translate(0.986719,-0.719997)" v:mID="1" v:groupContext="group">
			<title>Feuille.1</title>
			<g id="group2-2" v:mID="2" v:groupContext="group">
				<title>Page-1</title>
				<g id="group3-3" v:mID="3" v:groupContext="group">
					<title>Feuille.6</title>
					<g id="shape4-4" v:mID="4" v:groupContext="shape" transform="translate(0,-33.9305)">
						<title>Feuille.4</title>
						<rect x="0" y="35.3705" width="0.0283464" height="0.0283464" class="st1"/>
					</g>
					<g id="shape5-6" v:mID="5" v:groupContext="shape" transform="translate(25.5117,0)">
						<title>Feuille.5</title>
						<rect x="0" y="35.3705" width="0.0283464" height="0.0283464" class="st1"/>
					</g>
				</g>
				<g id="group6-8" transform="translate(0.014176,-4.04837)" v:mID="6" v:groupContext="group">
					<title>Feuille.6</title>
					<g id="shape7-9" v:mID="7" v:groupContext="shape">
						<title>Feuille.7</title>
						<path d="M25.51 22.49 A12.7559 12.7559 -180 1 0 -0 22.49 A12.7559 12.7559 -180 1 0 25.51 22.49 Z"
								class="st2"/>
					</g>
					<g id="shape8-11" v:mID="8" v:groupContext="shape">
						<title>Feuille.8</title>
						<path d="M25.51 22.49 A12.7559 12.7559 -180 1 0 -0 22.49 A12.7559 12.7559 -180 1 0 25.51 22.49 Z"
								class="st3"/>
					</g>
					<g id="group9-13" transform="translate(6.37997,-1.85484)" v:mID="9" v:groupContext="group">
						<title>Feuille.9</title>
						<g id="shape10-14" v:mID="10" v:groupContext="shape">
							<title>Feuille.10</title>
							<path d="M0 35.4 L17.42 30.73 L0 35.4 Z" class="st4"/>
						</g>
						<g id="shape11-16" v:mID="11" v:groupContext="shape">
							<title>Feuille.11</title>
							<path d="M0 35.4 L17.42 30.73 L0 35.4 Z" class="st5"/>
							<path d="M0 35.4 L17.42 30.73" class="st6"/>
						</g>
					</g>
					<g id="group12-19" transform="translate(6.37997,-19.2748)" v:mID="12" v:groupContext="group">
						<title>Feuille.12</title>
						<g id="shape13-20" v:mID="13" v:groupContext="shape">
							<title>Feuille.13</title>
							<path d="M0 30.73 L17.42 35.4 L0 30.73 Z" class="st4"/>
						</g>
						<g id="shape14-22" v:mID="14" v:groupContext="shape">
							<title>Feuille.14</title>
							<path d="M0 30.73 L17.42 35.4 L0 30.73 Z" class="st5"/>
							<path d="M0 30.73 L17.42 35.4" class="st6"/>
						</g>
					</g>
					<g id="shape15-25" v:mID="15" v:groupContext="shape" transform="translate(-13.3271,43.532) rotate(-126.467)">
						<title>Feuille.15</title>
						<path d="M0 35.4 L7.63 35.4 L0 35.4 Z" class="st5"/>
						<path d="M0 35.4 L7.63 35.4" class="st7"/>
					</g>
					<g id="shape16-28" v:mID="16" v:groupContext="shape"
							transform="translate(-13.3271,1.45403) rotate(-53.5331) scale(-1,1)">
						<title>Feuille.16</title>
						<path d="M0 35.4 L7.63 35.4 L0 35.4 Z" class="st5"/>
						<path d="M0 35.4 L7.63 35.4" class="st7"/>
					</g>
					<g id="shape17-31" v:mID="17" v:groupContext="shape" transform="translate(-18.146,43.5076) rotate(-126.467)">
						<title>Feuille.17</title>
						<path d="M0 35.4 L7.63 35.4 L0 35.4 Z" class="st5"/>
						<path d="M0 35.4 L7.63 35.4" class="st7"/>
					</g>
					<g id="shape18-34" v:mID="18" v:groupContext="shape"
							transform="translate(-18.146,1.42954) rotate(-53.5331) scale(-1,1)">
						<title>Feuille.18</title>
						<path d="M0 35.4 L7.63 35.4 L0 35.4 Z" class="st5"/>
						<path d="M0 35.4 L7.63 35.4" class="st7"/>
					</g>
				</g>
			</g>
		</g>
	</g>
</svg>
