<?xml version="1.0" encoding="UTF-8" standalone="no"?>
<!-- Generated by Microsoft Visio 11.0, SVG Export, v1.0 FL_EF110106.svg Page-1 -->

<!--
/*******************************************************************************
* Copyright (c) 2010-2013 ITER Organization.
* All rights reserved. This program and the accompanying materials
* are made available under the terms of the Eclipse Public License v1.0
* which accompanies this distribution, and is available at
* http://www.eclipse.org/legal/epl-v10.html
******************************************************************************/
-->
<svg
   xmlns:v="http://schemas.microsoft.com/visio/2003/SVGExtensions/"
   xmlns:dc="http://purl.org/dc/elements/1.1/"
   xmlns:cc="http://creativecommons.org/ns#"
   xmlns:rdf="http://www.w3.org/1999/02/22-rdf-syntax-ns#"
   xmlns:svg="http://www.w3.org/2000/svg"
   xmlns="http://www.w3.org/2000/svg"
   xmlns:sodipodi="http://sodipodi.sourceforge.net/DTD/sodipodi-0.dtd"
   xmlns:inkscape="http://www.inkscape.org/namespaces/inkscape"
   width="0.382108in"
   height="0.49165in"
   viewBox="0 0 27.5118 35.3988"
   xml:space="preserve"
   color-interpolation-filters="sRGB"
   class="st9"
   id="svg2"
   version="1.1"
   inkscape:version="0.48.2 r9819"
   sodipodi:docname="FL_EF110106.svg"><metadata
   id="metadata101"><rdf:RDF><cc:Work
       rdf:about=""><dc:format>image/svg+xml</dc:format><dc:type
         rdf:resource="http://purl.org/dc/dcmitype/StillImage" /></cc:Work></rdf:RDF></metadata><defs
   id="defs99">
		
		<v:pageProperties
   v:shadowOffsetY="-8.5039"
   v:shadowOffsetX="8.5039"
   v:drawingUnits="24"
   v:pageScale="0.0393701"
   v:drawingScale="0.0393701" />
		
	
			
			
			
			
		
				
				
				
				
				
				
			
				
				
			
				
				
			
					
					
					
				
					
					
					
				
					
					
					
				
					
					
				
					
					
				
						
						
						
					
						
						
					
						
						
						
					
						
						
					
						
						
						
					
						
						
					</defs><sodipodi:namedview
   pagecolor="#ffffff"
   bordercolor="#666666"
   borderopacity="1"
   objecttolerance="10"
   gridtolerance="10"
   guidetolerance="10"
   inkscape:pageopacity="0"
   inkscape:pageshadow="2"
   inkscape:window-width="1366"
   inkscape:window-height="706"
   id="namedview97"
   showgrid="false"
   inkscape:zoom="5.3335145"
   inkscape:cx="-12.054146"
   inkscape:cy="22.124249"
   inkscape:window-x="-8"
   inkscape:window-y="-8"
   inkscape:window-maximized="1"
   inkscape:current-layer="svg2" />
	<v:documentProperties
   v:langID="1036"
   v:metric="true"
   v:viewMarkup="false" />
	<style
   type="text/css"
   id="style4">
	
		.st1 {fill:#ffffff;stroke:none;stroke-linecap:round;stroke-linejoin:round;stroke-width:0.719996}
		.st2 {fill:#ffffff;stroke:none;stroke-width:0.999994}
		.st3 {fill:none;stroke:#000000;stroke-linecap:round;stroke-linejoin:round;stroke-width:0.719996}
		.st4 {fill:none;stroke:none;stroke-width:0.999997}
		.st5 {fill:none;stroke:none;stroke-width:0.999999}
		.st6 {fill:none}
		.st7 {stroke:#000000;stroke-linecap:round;stroke-linejoin:round;stroke-width:0.719996}
		.st8 {stroke:#000000;stroke-linecap:butt;stroke-width:0.749999}
		.st9 {fill:none;fill-rule:evenodd;font-size:12;overflow:visible;stroke-linecap:square;stroke-miterlimit:3}
	
	</style>
	<g
   id="g4047"><rect
     x="0.986718"
     y="0.72000265"
     width="0.028346401"
     height="0.028346401"
     class="st1"
     id="rect16"
     style="fill:#ffffff;stroke:none" /><rect
     x="26.498419"
     y="34.650501"
     width="0.028346401"
     height="0.028346401"
     class="st1"
     id="rect21"
     style="fill:#ffffff;stroke:none" /><path
     style="fill:#a6a6a6;stroke:none;fill-opacity:1"
     inkscape:connector-curvature="0"
     id="path29"
     class="st2"
     d="m 26.510894,17.720214 a 12.7559,12.7559 0 1 0 -25.51,0 12.7559,12.7559 0 1 0 25.51,0 z" /><path
     style="fill:none;stroke:#000000;stroke-width:0.71999598;stroke-linecap:round;stroke-linejoin:round"
     inkscape:connector-curvature="0"
     id="path34"
     class="st3"
     d="m 26.510894,17.720214 a 12.7559,12.7559 0 1 0 -25.51,0 12.7559,12.7559 0 1 0 25.51,0 z" /><path
     d="m 7.380854,28.777954 17.42,-4.67 -17.42,4.67 z"
     class="st4"
     id="path42"
     inkscape:connector-curvature="0"
     style="fill:none;stroke:none" /><g
     transform="translate(7.380854,-6.622046)"
     id="shape10-15"
     v:mID="10"
     v:groupContext="shape">
							<title
   id="title48">Sheet.10</title>
							<path
   d="M 0,35.4 17.42,30.73 0,35.4 z"
   class="st5"
   id="path50"
   inkscape:connector-curvature="0"
   style="fill:none;stroke:none" />
						</g><g
     transform="translate(7.380854,-6.622046)"
     id="shape11-17"
     v:mID="11"
     v:groupContext="shape">
							<title
   id="title53">Sheet.11</title>
							<path
   d="M 0,35.4 17.42,30.73 0,35.4 z"
   class="st6"
   id="path55"
   inkscape:connector-curvature="0"
   style="fill:none" />
							<path
   d="M 0,35.4 17.42,30.73"
   class="st7"
   id="path57"
   inkscape:connector-curvature="0"
   style="stroke:#000000;stroke-width:0.71999598;stroke-linecap:round;stroke-linejoin:round" />
						</g><path
     d="m 7.380854,6.688014 17.42,4.67 -17.42,-4.67 z"
     class="st4"
     id="path65"
     inkscape:connector-curvature="0"
     style="fill:none;stroke:none" /><g
     transform="translate(7.380854,-24.041986)"
     id="shape15-24"
     v:mID="15"
     v:groupContext="shape">
							<title
   id="title71">Sheet.15</title>
							<path
   d="M 0,30.73 17.42,35.4 0,30.73 z"
   class="st5"
   id="path73"
   inkscape:connector-curvature="0"
   style="fill:none;stroke:none" />
						</g><g
     transform="translate(7.380854,-24.041986)"
     id="shape16-26"
     v:mID="16"
     v:groupContext="shape">
							<title
   id="title76">Sheet.16</title>
							<path
   d="M 0,30.73 17.42,35.4 0,30.73 z"
   class="st6"
   id="path78"
   inkscape:connector-curvature="0"
   style="fill:none" />
							<path
   d="M 0,30.73 17.42,35.4"
   class="st7"
   id="path80"
   inkscape:connector-curvature="0"
   style="stroke:#000000;stroke-width:0.71999598;stroke-linecap:round;stroke-linejoin:round" />
						</g><path
     d="m 12.979684,18.119744 c 0.03,0 0.05,0.02 0.08,0.02 0.03,0.01 0.04,0.03 0.07,0.04 0.02,0.02 0.03,0.05 0.05,0.08 0.02,0.03 0.03,0.06 0.03,0.09 0,0.03 0,0.08 -0.01,0.11 0,0.04 -0.02,0.07 -0.04,0.11 -0.01,0.04 -0.04,0.07 -0.07,0.1 -0.03,0.05 -0.08,0.08 -0.11,0.09 -0.04,0.03 -0.09,0.06 -0.14,0.08 -0.06,0.01 -0.12,0.03 -0.16,0.03 -0.06,0 -0.14,0 -0.19,-0.02 -0.07,0 -0.13,-0.03 -0.19,-0.04 -0.06,-0.03 -0.14,-0.06 -0.19,-0.11 -0.06,-0.03 -0.12,-0.09 -0.16,-0.15 -0.07,-0.05 -0.11,-0.12 -0.16,-0.18 -0.03,-0.08 -0.07,-0.17 -0.1,-0.25 -0.02,-0.07 -0.05,-0.18 -0.05,-0.26 -0.01,-0.09 -0.01,-0.19 0,-0.29 0.02,-0.09 0.03,-0.21 0.06,-0.3 0.05,-0.09 0.09,-0.2 0.14,-0.27 0.06,-0.1 0.14,-0.2 0.2,-0.28 0.07,-0.08 0.16,-0.17 0.26,-0.23 0.1,-0.07 0.21,-0.13 0.32,-0.18 0.1,-0.05 0.24,-0.09 0.36,-0.11 0.12,-0.03 0.26,-0.04 0.4,-0.04 0.12,0 0.27,0.01 0.39,0.03 0.14,0.03 0.29,0.07 0.42,0.13 0.12,0.05 0.27,0.13 0.38,0.22 0.12,0.07 0.24,0.18 0.35,0.29 0.1,0.1 0.21,0.24 0.29,0.38 0.07,0.12 0.16,0.29 0.21,0.43 0.06,0.15 0.11,0.33 0.14,0.48 0.01,0.17 0.03,0.35 0.03,0.52 -0.02,0.17 -0.05,0.37 -0.08,0.53 -0.04,0.17 -0.12,0.36 -0.2,0.52 -0.07,0.16 -0.18,0.34 -0.29,0.48 -0.1,0.15 -0.26,0.3 -0.39,0.42 -0.14,0.14 -0.32,0.26 -0.47,0.35 -0.19,0.11 -0.39,0.2 -0.57,0.26 -0.18,0.06 -0.41,0.12 -0.61,0.14 -0.21,0.03 -0.44,0.03 -0.64,0.01 -0.21,-0.01 -0.46,-0.04 -0.65,-0.1 -0.22,-0.06 -0.45,-0.16 -0.63,-0.25 -0.2,-0.1 -0.41,-0.24 -0.58,-0.38 -0.18,-0.13 -0.36,-0.32 -0.52,-0.49 -0.13,-0.16 -0.29,-0.39 -0.39,-0.59 -0.12,-0.2 -0.23,-0.46 -0.29,-0.67 -0.08,-0.23 -0.14,-0.5 -0.15,-0.75 -0.03,-0.24 -0.03,-0.52 -0.02,-0.76 0.03,-0.26 0.08,-0.53 0.15,-0.78 0.08,-0.24 0.19,-0.51 0.31,-0.73 0.12,-0.23 0.29,-0.49 0.46,-0.68 0.16,-0.2 0.38,-0.42 0.57,-0.58 0.22,-0.19 0.48,-0.35 0.72,-0.48 0.24,-0.13 0.53,-0.24 0.79,-0.32 0.28,-0.09 0.6,-0.15 0.87,-0.16 0.28,-0.03 0.61,-0.03 0.9,0 0.28,0.03 0.61,0.1 0.88,0.18 0.28,0.09 0.6,0.23 0.86,0.37 0.26,0.15 0.55,0.35 0.78,0.53 0.22,0.2 0.47,0.46 0.65,0.69 0.2,0.24 0.4,0.54 0.53,0.82 0.16,0.27 0.28,0.61 0.37,0.91 0.09,0.31 0.15,0.67 0.18,0.99 0.02,0.32 0.02,0.7 -0.03,1.02 -0.03,0.34 -0.12,0.71 -0.21,1.01 -0.11,0.32 -0.26,0.67 -0.43,0.98 -0.17,0.28 -0.39,0.6 -0.61,0.86 -0.23,0.26 -0.52,0.54 -0.79,0.75 -0.27,0.21 -0.61,0.43 -0.93,0.58 -0.32,0.17 -0.7,0.3 -1.04,0.41 -0.35,0.09 -0.76,0.15 -1.11,0.18 -0.36,0.03 -0.79,0.02 -1.14,-0.03 -0.37,-0.04 -0.79,-0.13 -1.14,-0.26 -0.35,-0.12 -0.75,-0.3 -1.07,-0.48 -0.34,-0.19 -0.69,-0.44 -0.98,-0.69 -0.29,-0.26 -0.59,-0.58 -0.82,-0.88 -0.24,-0.31 -0.47,-0.69 -0.64,-1.04 -0.18,-0.36 -0.33,-0.79 -0.44,-1.17 -0.11,-0.38 -0.18,-0.84 -0.2,-1.24 -0.03,-0.39 -0.01,-0.87 0.05,-1.26 0.04,-0.41 0.15,-0.87 0.29,-1.25 0.13,-0.4 0.33,-0.84 0.54,-1.19 0.22,-0.37 0.49,-0.76 0.77,-1.07 0.29,-0.32 0.64,-0.65 0.99,-0.91 0.33,-0.26 0.76,-0.52 1.14,-0.7 0.4,-0.2 0.87,-0.37 1.28,-0.47 0.43,-0.11 0.93,-0.2 1.37,-0.22 0.44,-0.03 0.96,-0.01 1.39,0.06 0.46,0.06 0.96,0.19 1.39,0.32 0.42,0.16 0.89,0.38 1.29,0.61 0.4,0.23 0.82,0.55 1.16,0.86 0.35,0.3 0.72,0.7 0.99,1.08 0.27,0.36 0.56,0.84 0.76,1.25 0.22,0.42 0.4,0.94 0.5,1.4 0.13,0.47 0.22,1.02 0.23,1.49 l -7.71,0 z"
     class="st5"
     id="path88"
     inkscape:connector-curvature="0"
     style="fill:none;stroke:none" /><path
     d="m 13.546613,18.119744 c 0.03,0 0.05,0.02 0.08,0.02 0.03,0.01 0.04,0.03 0.07,0.04 0.02,0.02 0.03,0.05 0.05,0.08 0.02,0.03 0.03,0.06 0.03,0.09 0,0.03 0,0.08 -0.01,0.11 0,0.04 -0.02,0.07 -0.04,0.11 -0.01,0.04 -0.04,0.07 -0.07,0.1 -0.03,0.05 -0.08,0.08 -0.11,0.09 -0.04,0.03 -0.09,0.06 -0.14,0.08 -0.06,0.01 -0.12,0.03 -0.16,0.03 -0.06,0 -0.14,0 -0.19,-0.02 -0.07,0 -0.13,-0.03 -0.19,-0.04 -0.06,-0.03 -0.14,-0.06 -0.19,-0.11 -0.06,-0.03 -0.12,-0.09 -0.16,-0.15 -0.07,-0.05 -0.11,-0.12 -0.16,-0.18 -0.03,-0.08 -0.07,-0.17 -0.1,-0.25 -0.02,-0.07 -0.05,-0.18 -0.05,-0.26 -0.01,-0.09 -0.01,-0.19 0,-0.29 0.02,-0.09 0.03,-0.21 0.06,-0.3 0.05,-0.09 0.09,-0.2 0.14,-0.27 0.06,-0.1 0.14,-0.2 0.2,-0.28 0.07,-0.08 0.16,-0.17 0.26,-0.23 0.1,-0.07 0.21,-0.13 0.32,-0.18 0.1,-0.05 0.24,-0.09 0.36,-0.11 0.12,-0.03 0.26,-0.04 0.4,-0.04 0.12,0 0.27,0.01 0.39,0.03 0.14,0.03 0.29,0.07 0.42,0.13 0.12,0.05 0.27,0.13 0.38,0.22 0.12,0.07 0.24,0.18 0.35,0.29 0.1,0.1 0.21,0.24 0.29,0.38 0.07,0.12 0.16,0.29 0.21,0.43 0.06,0.15 0.11,0.33 0.14,0.48 0.01,0.17 0.03,0.35 0.03,0.52 -0.02,0.17 -0.05,0.37 -0.08,0.53 -0.04,0.17 -0.12,0.36 -0.2,0.52 -0.07,0.16 -0.18,0.34 -0.29,0.48 -0.1,0.15 -0.26,0.3 -0.39,0.42 -0.14,0.14 -0.32,0.26 -0.47,0.35 -0.19,0.11 -0.39,0.2 -0.57,0.26 -0.18,0.06 -0.41,0.12 -0.61,0.14 -0.21,0.03 -0.44,0.03 -0.64,0.01 -0.21,-0.01 -0.46,-0.04 -0.65,-0.1 -0.22,-0.06 -0.45,-0.16 -0.63,-0.25 -0.2,-0.1 -0.41,-0.24 -0.58,-0.38 -0.18,-0.13 -0.36,-0.32 -0.52,-0.49 -0.13,-0.16 -0.29,-0.39 -0.39,-0.59 -0.12,-0.2 -0.23,-0.46 -0.29,-0.67 -0.08,-0.23 -0.14,-0.5 -0.15,-0.75 -0.03,-0.24 -0.03,-0.52 -0.02,-0.76 0.03,-0.26 0.08,-0.53 0.15,-0.78 0.08,-0.24 0.19,-0.51 0.31,-0.73 0.12,-0.23 0.29,-0.49 0.46,-0.68 0.16,-0.2 0.38,-0.42 0.57,-0.58 0.22,-0.19 0.48,-0.35 0.72,-0.48 0.24,-0.13 0.53,-0.24 0.79,-0.32 0.28,-0.09 0.6,-0.15 0.87,-0.16 0.28,-0.03 0.61,-0.03 0.9,0 0.28,0.03 0.61,0.1 0.88,0.18 0.28,0.09 0.6,0.23 0.86,0.37 0.26,0.15 0.55,0.35 0.78,0.53 0.22,0.2 0.47,0.46 0.65,0.69 0.2,0.24 0.4,0.54 0.53,0.82 0.16,0.27 0.28,0.61 0.37,0.91 0.09,0.31 0.15,0.67 0.18,0.99 0.02,0.32 0.02,0.7 -0.03,1.02 -0.03,0.34 -0.12,0.71 -0.21,1.01 -0.11,0.32 -0.26,0.67 -0.43,0.98 -0.17,0.28 -0.39,0.6 -0.61,0.86 -0.23,0.26 -0.52,0.54 -0.79,0.75 -0.27,0.21 -0.61,0.43 -0.93,0.58 -0.32,0.17 -0.7,0.3 -1.04,0.41 -0.35,0.09 -0.76,0.15 -1.11,0.18 -0.36,0.03 -0.79,0.02 -1.14,-0.03 -0.37,-0.04 -0.79,-0.13 -1.14,-0.26 -0.35,-0.12 -0.75,-0.3 -1.07,-0.48 -0.34,-0.19 -0.69,-0.44 -0.98,-0.69 -0.29,-0.26 -0.59,-0.58 -0.82,-0.88 -0.24,-0.31 -0.47,-0.69 -0.64,-1.04 -0.18,-0.36 -0.33,-0.79 -0.44,-1.17 -0.11,-0.38 -0.18,-0.84 -0.2,-1.24 -0.03,-0.39 -0.01,-0.87 0.05,-1.26 0.04,-0.41 0.15,-0.87 0.29,-1.25 0.13,-0.4 0.33,-0.84 0.54,-1.19 0.22,-0.37 0.49,-0.76 0.77,-1.07 0.29,-0.32 0.64,-0.65 0.99,-0.91 0.33,-0.26 0.76,-0.52 1.14,-0.7 0.4,-0.2 0.87,-0.37 1.28,-0.47 0.43,-0.11 0.93,-0.2 1.37,-0.22 0.44,-0.03 0.96,-0.01 1.39,0.06 0.46,0.06 0.96,0.19 1.39,0.32 0.42,0.16 0.89,0.38 1.29,0.61 0.4,0.23 0.82,0.55 1.16,0.86 0.35,0.3 0.72,0.7 0.99,1.08 0.27,0.36 0.56,0.84 0.76,1.25 0.22,0.42 0.4,0.94 0.5,1.4 0.13,0.47 0.22,1.02 0.23,1.49 l -7.71,0 z"
     class="st6"
     id="path93"
     inkscape:connector-curvature="0"
     style="fill:none" /><path
     d="m 13.546613,18.119744 c 0.03,0 0.05,0.02 0.08,0.02 0.03,0.01 0.04,0.03 0.07,0.04 0.02,0.02 0.03,0.05 0.05,0.08 0.02,0.03 0.03,0.06 0.03,0.09 0,0.03 0,0.08 -0.01,0.11 0,0.04 -0.02,0.07 -0.04,0.11 -0.01,0.04 -0.04,0.07 -0.07,0.1 -0.03,0.05 -0.08,0.08 -0.11,0.09 -0.04,0.03 -0.09,0.06 -0.14,0.08 -0.06,0.01 -0.12,0.03 -0.16,0.03 -0.06,0 -0.14,0 -0.19,-0.02 -0.07,0 -0.13,-0.03 -0.19,-0.04 -0.06,-0.03 -0.14,-0.06 -0.19,-0.11 -0.06,-0.03 -0.12,-0.09 -0.16,-0.15 -0.07,-0.05 -0.11,-0.12 -0.16,-0.18 -0.03,-0.08 -0.07,-0.17 -0.1,-0.25 -0.02,-0.07 -0.05,-0.18 -0.05,-0.26 -0.01,-0.09 -0.01,-0.19 0,-0.29 0.02,-0.09 0.03,-0.21 0.06,-0.3 0.05,-0.09 0.09,-0.2 0.14,-0.27 0.06,-0.1 0.14,-0.2 0.2,-0.28 0.07,-0.08 0.16,-0.17 0.26,-0.23 0.1,-0.07 0.21,-0.13 0.32,-0.18 0.1,-0.05 0.24,-0.09 0.36,-0.11 0.12,-0.03 0.26,-0.04 0.4,-0.04 0.12,0 0.27,0.01 0.39,0.03 0.14,0.03 0.29,0.07 0.42,0.13 0.12,0.05 0.27,0.13 0.38,0.22 0.12,0.07 0.24,0.18 0.35,0.29 0.1,0.1 0.21,0.24 0.29,0.38 0.07,0.12 0.16,0.29 0.21,0.43 0.06,0.15 0.11,0.33 0.14,0.48 0.01,0.17 0.03,0.35 0.03,0.52 -0.02,0.17 -0.05,0.37 -0.08,0.53 -0.04,0.17 -0.12,0.36 -0.2,0.52 -0.07,0.16 -0.18,0.34 -0.29,0.48 -0.1,0.15 -0.26,0.3 -0.39,0.42 -0.14,0.14 -0.32,0.26 -0.47,0.35 -0.19,0.11 -0.39,0.2 -0.57,0.26 -0.18,0.06 -0.41,0.12 -0.61,0.14 -0.21,0.03 -0.44,0.03 -0.64,0.01 -0.21,-0.01 -0.46,-0.04 -0.65,-0.1 -0.22,-0.06 -0.45,-0.16 -0.63,-0.25 -0.2,-0.1 -0.41,-0.24 -0.58,-0.38 -0.18,-0.13 -0.36,-0.32 -0.52,-0.49 -0.13,-0.16 -0.29,-0.39 -0.39,-0.59 -0.12,-0.2 -0.23,-0.46 -0.29,-0.67 -0.08,-0.23 -0.14,-0.5 -0.15,-0.75 -0.03,-0.24 -0.03,-0.52 -0.02,-0.76 0.03,-0.26 0.08,-0.53 0.15,-0.78 0.08,-0.24 0.19,-0.51 0.31,-0.73 0.12,-0.23 0.29,-0.49 0.46,-0.68 0.16,-0.2 0.38,-0.42 0.57,-0.58 0.22,-0.19 0.48,-0.35 0.72,-0.48 0.24,-0.13 0.53,-0.24 0.79,-0.32 0.28,-0.09 0.6,-0.15 0.87,-0.16 0.28,-0.03 0.61,-0.03 0.9,0 0.28,0.03 0.61,0.1 0.88,0.18 0.28,0.09 0.6,0.23 0.86,0.37 0.26,0.15 0.55,0.35 0.78,0.53 0.22,0.2 0.47,0.46 0.65,0.69 0.2,0.24 0.4,0.54 0.53,0.82 0.16,0.27 0.28,0.61 0.37,0.91 0.09,0.31 0.15,0.67 0.18,0.99 0.02,0.32 0.02,0.7 -0.03,1.02 -0.03,0.34 -0.12,0.71 -0.21,1.01 -0.11,0.32 -0.26,0.67 -0.43,0.98 -0.17,0.28 -0.39,0.6 -0.61,0.86 -0.23,0.26 -0.52,0.54 -0.79,0.75 -0.27,0.21 -0.61,0.43 -0.93,0.58 -0.32,0.17 -0.7,0.3 -1.04,0.41 -0.35,0.09 -0.76,0.15 -1.11,0.18 -0.36,0.03 -0.79,0.02 -1.14,-0.03 -0.37,-0.04 -0.79,-0.13 -1.14,-0.26 -0.35,-0.12 -0.75,-0.3 -1.07,-0.48 -0.34,-0.19 -0.69,-0.44 -0.98,-0.69 -0.29,-0.26 -0.59,-0.58 -0.82,-0.88 -0.24,-0.31 -0.47,-0.69 -0.64,-1.04 -0.18,-0.36 -0.33,-0.79 -0.44,-1.17 -0.11,-0.38 -0.18,-0.84 -0.2,-1.24 -0.03,-0.39 -0.01,-0.87 0.05,-1.26 0.04,-0.41 0.15,-0.87 0.29,-1.25 0.13,-0.4 0.33,-0.84 0.54,-1.19 0.22,-0.37 0.49,-0.76 0.77,-1.07 0.29,-0.32 0.64,-0.65 0.99,-0.91 0.33,-0.26 0.76,-0.52 1.14,-0.7 0.4,-0.2 0.87,-0.37 1.28,-0.47 0.43,-0.11 0.93,-0.2 1.37,-0.22 0.44,-0.03 0.96,-0.01 1.39,0.06 0.46,0.06 0.96,0.19 1.39,0.32 0.42,0.16 0.89,0.38 1.29,0.61 0.4,0.23 0.82,0.55 1.16,0.86 0.35,0.3 0.72,0.7 0.99,1.08 0.27,0.36 0.56,0.84 0.76,1.25 0.22,0.42 0.4,0.94 0.5,1.4 0.13,0.47 0.22,1.02 0.23,1.49"
     class="st8"
     id="path95"
     inkscape:connector-curvature="0"
     style="stroke:#000000;stroke-width:0.74999899;stroke-linecap:butt" /></g>
</svg>