<?xml version="1.0" encoding="UTF-8"?>
<!--
/*******************************************************************************
* Copyright (c) 2010-2016 ITER Organization.
* All rights reserved. This program and the accompanying materials
* are made available under the terms of the Eclipse Public License v1.0
* which accompanies this distribution, and is available at
* http://www.eclipse.org/legal/epl-v10.html
******************************************************************************/
-->
<svg xmlns="http://www.w3.org/2000/svg" xmlns:xlink="http://www.w3.org/1999/xlink" width="66pt" height="51pt" viewBox="0 0 66 51" version="1.1">
<g id="surface1">
<path style=" stroke:none;fill-rule:evenodd;fill:rgb(100%,100%,100%);fill-opacity:1;" d="M 1.351563 1.351563 L 1.378906 1.351563 L 1.378906 1.378906 L 1.351563 1.378906 Z "/>
<path style=" stroke:none;fill-rule:evenodd;fill:rgb(100%,100%,100%);fill-opacity:1;" d="M 65.097656 49.066406 L 65.128906 49.066406 L 65.128906 49.097656 L 65.097656 49.097656 Z "/>
<path style="fill:none;stroke-width:0.72;stroke-linecap:round;stroke-linejoin:round;stroke:rgb(0%,0%,0%);stroke-opacity:1;stroke-miterlimit:3;" d="M 25.510241 18.390139 L -0.000190535 18.390139 L -0.000190535 26.900561 " transform="matrix(1.874999,0,0,1.874999,9.301139,-9.305711)"/>
<path style="fill:none;stroke-width:0.72;stroke-linecap:round;stroke-linejoin:round;stroke:rgb(0%,0%,0%);stroke-opacity:1;stroke-miterlimit:3;" d="M 0.000240521 9.890135 L 0.000240521 26.900561 " transform="matrix(1.874999,0,0,1.874999,57.132362,-9.305711)"/>
<path style="fill:none;stroke-width:0.72;stroke-linecap:round;stroke-linejoin:round;stroke:rgb(0%,0%,0%);stroke-opacity:1;stroke-miterlimit:3;" d="M 4.25982 19.539309 L -0.000598747 26.899729 " transform="matrix(1.874999,0,0,1.874999,37.407373,-2.780714)"/>
<path style="fill:none;stroke-width:0.72;stroke-linecap:round;stroke-linejoin:round;stroke:rgb(0%,0%,0%);stroke-opacity:1;stroke-miterlimit:3;" d="M -0.00102233 18.590139 L 14.390652 26.900561 " transform="matrix(1.874999,0,0,1.874999,14.419886,-9.68071)"/>
<path style="fill:none;stroke-width:0.72;stroke-linecap:round;stroke-linejoin:round;stroke:rgb(0%,0%,0%);stroke-opacity:1;stroke-miterlimit:3;" d="M -0.000190535 26.900139 L -0.000190535 18.400135 " transform="matrix(1.874999,0,0,1.874999,9.301139,-25.261952)"/>
</g>
</svg>
