<?xml version="1.0" encoding="UTF-8" standalone="no"?>
<!DOCTYPE svg PUBLIC "-//W3C//DTD SVG 1.0//EN" "C:\SeeVisioDTD\svg10.dtd">
<!-- Généré par Microsoft Visio 11.0, SVG Export, v1.0 OL_EE0605.svg Page-1 -->
<!--
/*******************************************************************************
* Copyright (c) 2010-2013 ITER Organization.
* All rights reserved. This program and the accompanying materials
* are made available under the terms of the Eclipse Public License v1.0
* which accompanies this distribution, and is available at
* http://www.eclipse.org/legal/epl-v10.html
******************************************************************************/
-->
<svg xmlns="http://www.w3.org/2000/svg" xmlns:v="http://schemas.microsoft.com/visio/2003/SVGExtensions/" width="0.500219in"
		height="0.500219in" viewBox="0 0 36.0157 36.0157" xml:space="preserve" color-interpolation-filters="sRGB" class="st8">
	<v:documentProperties v:langID="1036" v:metric="true" v:viewMarkup="false"/>
	<style type="text/css">
	<![CDATA[
		.st1 {fill:#ffffff;stroke:#000000;stroke-linecap:round;stroke-linejoin:round;stroke-width:1}
		.st2 {fill:#000000;font-family:Arial;font-size:0.666664em}
		.st3 {fill:none;stroke:#ffffff;stroke-width:0.75}
		.st4 {fill:none;stroke:#000000;stroke-width:0.75}
		.st5 {fill:none}
		.st6 {stroke:#000000;stroke-linecap:round;stroke-linejoin:round;stroke-width:0.75}
		.st7 {fill:none;stroke:#000000;stroke-linecap:round;stroke-linejoin:round;stroke-width:0.75}
		.st8 {fill:none;fill-rule:evenodd;font-size:12;overflow:visible;stroke-linecap:square;stroke-miterlimit:3}
	]]>
	</style>
	<g v:mID="0" v:index="1" v:groupContext="foregroundPage">
		<title>Page-1</title>
		<v:pageProperties v:drawingScale="0.0393701" v:pageScale="0.0393701" v:drawingUnits="24" v:shadowOffsetX="8.50394"
				v:shadowOffsetY="-8.50394"/>
		<v:layer v:name="EQ" v:index="0"/>
		<g id="shape1-1" v:mID="1" v:groupContext="shape" transform="translate(1,-1)">
			<title>Feuille.1</title>
			<desc>cos</desc>
			<v:textBlock v:margins="rect(4,4,4,4)" v:tabSpace="42.5197"/>
			<v:textRect cx="17.0079" cy="19.0079" width="34.02" height="34.0157"/>
			<ellipse cx="17.0079" cy="19.0079" rx="17.0079" ry="17.0079" class="st1"/>
			<text x="6.83" y="21.41" class="st2" v:langID="1036"><v:paragraph v:indentLeft="2.83"/><v:tabList/>cos  </text>		</g>
		<g id="group2-4" transform="translate(22.5433,-15.4125)" v:mID="2" v:groupContext="group" v:layerMember="0">
			<title>Feuille.8</title>
			<g id="shape3-5" v:mID="3" v:groupContext="shape" v:layerMember="0" transform="translate(2.90542,-5.01166)">
				<title>Feuille.7</title>
				<path d="M0 35.97 L0.04 36.02 L0 35.97 Z" class="st3"/>
			</g>
			<g id="group4-7" v:mID="4" v:groupContext="group" v:layerMember="0">
				<title>Feuille.8</title>
				<g id="shape5-8" v:mID="5" v:groupContext="shape" v:layerMember="0">
					<title>Feuille.9</title>
					<path d="M0.28 31.31 L0.22 31.43 L0.16 31.55 L0.13 31.67 L0.09 31.8 L0.06 31.94 L0.03 32.07 L0.01 32.21 L0 32.34
								 L0 32.48 L0 32.61 L0.01 32.75 L0.03 32.88 L0.06 33.02 L0.09 33.15 L0.13 33.27 L0.18 33.41 L0.22
								 33.53 L0.28 33.65 L0.36 33.75 L0.43 33.86 L0.49 33.95 L0.58 34.05 L0.67 34.13 L0.76 34.22 L0.85
								 34.29 L0.94 34.35 L1.06 34.41 L1.15 34.46 L1.27 34.5 L1.38 34.53 L1.48 34.55 L1.6 34.56 L1.71 34.58
								 L1.81 34.56 L1.93 34.55 L2.04 34.53 L2.16 34.5 L2.26 34.46 L2.37 34.41 L2.47 34.37 L2.56 34.29 L2.67
								 34.22 L2.74 34.14 L2.85 34.07 L2.92 33.96 L3 33.86 L3.07 33.77 L3.13 33.65 L3.19 33.53 L3.25 33.41
								 L3.3 33.29 L3.34 33.17 L3.37 33.03 L3.4 32.9 L3.42 32.76 L3.43 32.63 L3.43 32.49 L3.43 32.36 L3.43
								 32.21 L3.4 32.09 L3.37 31.95 L3.34 31.82 L3.31 31.7 L3.25 31.56 L3.21 31.44 L3.16 31.32 L3.09 31.22
								 L3.01 31.1 L2.91 30.96 L2.86 30.92 L2.8 30.86 L2.79 30.84 L2.74 30.8 L2.73 30.78 L2.68 30.74 L2.67
								 30.74 L2.62 30.71 L2.61 30.69 L2.56 30.66 L2.53 30.65 L2.49 30.63 L2.47 30.63 L2.41 30.62 L2.4 30.62
								 L2.35 30.6 L2.32 30.6 L2.28 30.6 L2.26 30.59 L2.2 30.59 L2.19 30.59 L2.14 30.59 L2.11 30.6 L2.07
								 30.6 L2.04 30.6 L1.99 30.62 L1.98 30.62 L1.93 30.65 L1.92 30.65 L1.87 30.68 L1.86 30.68 L1.81 30.72
								 L1.8 30.74 L1.75 30.8 L1.72 30.81 L1.69 30.87 L1.69 30.89 L1.68 30.95 L1.66 30.98 L1.65 31.04 L1.65
								 31.05 L1.63 31.13 L1.63 31.16 L1.63 31.19 L1.63 31.25 L1.63 31.28 L1.63 31.34 L1.63 34.56 L1.63
								 34.58 L1.63 36.02 L0.28 31.31 Z" class="st3"/>
				</g>
				<g id="group6-10" v:mID="6" v:groupContext="group" v:layerMember="0">
					<title>Feuille.10</title>
					<g id="shape7-11" v:mID="7" v:groupContext="shape" v:layerMember="0">
						<title>Feuille.7</title>
						<path d="M0.28 31.31 L0.22 31.43 L0.16 31.55 L0.13 31.67 L0.09 31.8 L0.06 31.94 L0.03 32.07 L0.01 32.21 L0
									 32.34 L0 32.48 L0 32.61 L0.01 32.75 L0.03 32.88 L0.06 33.02 L0.09 33.15 L0.13 33.27 L0.18 33.41
									 L0.22 33.53 L0.28 33.65 L0.36 33.75 L0.43 33.86 L0.49 33.95 L0.58 34.05 L0.67 34.13 L0.76 34.22
									 L0.85 34.29 L0.94 34.35 L1.06 34.41 L1.15 34.46 L1.27 34.5 L1.38 34.53 L1.48 34.55 L1.6 34.56
									 L1.71 34.58 L1.81 34.56 L1.93 34.55 L2.04 34.53 L2.16 34.5 L2.26 34.46 L2.37 34.41 L2.47 34.37
									 L2.56 34.29 L2.67 34.22 L2.74 34.14 L2.85 34.07 L2.92 33.96 L3 33.86 L3.07 33.77 L3.13 33.65
									 L3.19 33.53 L3.25 33.41 L3.3 33.29 L3.34 33.17 L3.37 33.03 L3.4 32.9 L3.42 32.76 L3.43 32.63
									 L3.43 32.49 L3.43 32.36 L3.43 32.21 L3.4 32.09 L3.37 31.95 L3.34 31.82 L3.31 31.7 L3.25 31.56
									 L3.21 31.44 L3.16 31.32 L3.09 31.22 L3.01 31.1 L2.91 30.96 L2.86 30.92 L2.8 30.86 L2.79 30.84
									 L2.74 30.8 L2.73 30.78 L2.68 30.74 L2.67 30.74 L2.62 30.71 L2.61 30.69 L2.56 30.66 L2.53 30.65
									 L2.49 30.63 L2.47 30.63 L2.41 30.62 L2.4 30.62 L2.35 30.6 L2.32 30.6 L2.28 30.6 L2.26 30.59
									 L2.2 30.59 L2.19 30.59 L2.14 30.59 L2.11 30.6 L2.07 30.6 L2.04 30.6 L1.99 30.62 L1.98 30.62
									 L1.93 30.65 L1.92 30.65 L1.87 30.68 L1.86 30.68 L1.81 30.72 L1.8 30.74 L1.75 30.8 L1.72 30.81
									 L1.69 30.87 L1.69 30.89 L1.68 30.95 L1.66 30.98 L1.65 31.04 L1.65 31.05 L1.63 31.13 L1.63 31.16
									 L1.63 31.19 L1.63 31.25 L1.63 31.28 L1.63 31.34 L1.63 34.56 L1.63 34.58 L1.63 36.02 L0.28 31.31
									 Z" class="st4"/>
					</g>
					<g id="shape8-13" v:mID="8" v:groupContext="shape" v:layerMember="0">
						<title>Feuille.8</title>
						<path d="M0.28 31.31 L0.22 31.43 L0.16 31.55 L0.13 31.67 L0.09 31.8 L0.06 31.94 L0.03 32.07 L0.01 32.21 L0
									 32.34 L0 32.48 L0 32.61 L0.01 32.75 L0.03 32.88 L0.06 33.02 L0.09 33.15 L0.13 33.27 L0.18 33.41
									 L0.22 33.53 L0.28 33.65 L0.36 33.75 L0.43 33.86 L0.49 33.95 L0.58 34.05 L0.67 34.13 L0.76 34.22
									 L0.85 34.29 L0.94 34.35 L1.06 34.41 L1.15 34.46 L1.27 34.5 L1.38 34.53 L1.48 34.55 L1.6 34.56
									 L1.71 34.58 L1.81 34.56 L1.93 34.55 L2.04 34.53 L2.16 34.5 L2.26 34.46 L2.37 34.41 L2.47 34.37
									 L2.56 34.29 L2.67 34.22 L2.74 34.14 L2.85 34.07 L2.92 33.96 L3 33.86 L3.07 33.77 L3.13 33.65
									 L3.19 33.53 L3.25 33.41 L3.3 33.29 L3.34 33.17 L3.37 33.03 L3.4 32.9 L3.42 32.76 L3.43 32.63
									 L3.43 32.49 L3.43 32.36 L3.43 32.21 L3.4 32.09 L3.37 31.95 L3.34 31.82 L3.31 31.7 L3.25 31.56
									 L3.21 31.44 L3.16 31.32 L3.09 31.22 L3.01 31.1 L2.91 30.96 L2.86 30.92 L2.8 30.86 L2.79 30.84
									 L2.74 30.8 L2.73 30.78 L2.68 30.74 L2.67 30.74 L2.62 30.71 L2.61 30.69 L2.56 30.66 L2.53 30.65
									 L2.49 30.63 L2.47 30.63 L2.41 30.62 L2.4 30.62 L2.35 30.6 L2.32 30.6 L2.28 30.6 L2.26 30.59
									 L2.2 30.59 L2.19 30.59 L2.14 30.59 L2.11 30.6 L2.07 30.6 L2.04 30.6 L1.99 30.62 L1.98 30.62
									 L1.93 30.65 L1.92 30.65 L1.87 30.68 L1.86 30.68 L1.81 30.72 L1.8 30.74 L1.75 30.8 L1.72 30.81
									 L1.69 30.87 L1.69 30.89 L1.68 30.95 L1.66 30.98 L1.65 31.04 L1.65 31.05 L1.63 31.13 L1.63 31.16
									 L1.63 31.19 L1.63 31.25 L1.63 31.28 L1.63 31.34 L1.63 34.56 L1.63 34.58 L1.63 36.02 L0.28 31.31
									 Z" class="st5"/>
						<path d="M0.28 31.31 L0.22 31.43 L0.16 31.55 L0.13 31.67 L0.09 31.8 L0.06 31.94 L0.03 32.07 L0.01 32.21 L0
									 32.34 L0 32.48 L0 32.61 L0.01 32.75 L0.03 32.88 L0.06 33.02 L0.09 33.15 L0.13 33.27 L0.18 33.41
									 L0.22 33.53 L0.28 33.65 L0.36 33.75 L0.43 33.86 L0.49 33.95 L0.58 34.05 L0.67 34.13 L0.76 34.22
									 L0.85 34.29 L0.94 34.35 L1.06 34.41 L1.15 34.46 L1.27 34.5 L1.38 34.53 L1.48 34.55 L1.6 34.56
									 L1.71 34.58 L1.81 34.56 L1.93 34.55 L2.04 34.53 L2.16 34.5 L2.26 34.46 L2.37 34.41 L2.47 34.37
									 L2.56 34.29 L2.67 34.22 L2.74 34.14 L2.85 34.07 L2.92 33.96 L3 33.86 L3.07 33.77 L3.13 33.65
									 L3.19 33.53 L3.25 33.41 L3.3 33.29 L3.34 33.17 L3.37 33.03 L3.4 32.9 L3.42 32.76 L3.43 32.63
									 L3.43 32.49 L3.43 32.36 L3.43 32.21 L3.4 32.09 L3.37 31.95 L3.34 31.82 L3.31 31.7 L3.25 31.56
									 L3.21 31.44 L3.16 31.32 L3.09 31.22 L3.01 31.1 L2.91 30.96 L2.86 30.92 L2.8 30.86 L2.79 30.84
									 L2.74 30.8 L2.73 30.78 L2.68 30.74 L2.67 30.74 L2.62 30.71 L2.61 30.69 L2.56 30.66 L2.53 30.65
									 L2.49 30.63 L2.47 30.63 L2.41 30.62 L2.4 30.62 L2.35 30.6 L2.32 30.6 L2.28 30.6 L2.26 30.59
									 L2.2 30.59 L2.19 30.59 L2.14 30.59 L2.11 30.6 L2.07 30.6 L2.04 30.6 L1.99 30.62 L1.98 30.62
									 L1.93 30.65 L1.92 30.65 L1.87 30.68 L1.86 30.68 L1.81 30.72 L1.8 30.74 L1.75 30.8 L1.72 30.81
									 L1.69 30.87 L1.69 30.89 L1.68 30.95 L1.66 30.98 L1.65 31.04 L1.65 31.05 L1.63 31.13 L1.63 31.16
									 L1.63 31.19 L1.63 31.25 L1.63 31.28 L1.63 31.34 L1.63 34.56 L1.63 34.58 L1.63 36.02"
								class="st6"/>
					</g>
				</g>
			</g>
			<g id="group9-16" v:mID="9" v:groupContext="group" v:layerMember="0">
				<title>Feuille.9</title>
				<g id="shape10-17" v:mID="10" v:groupContext="shape" v:layerMember="0">
					<title>Feuille.12</title>
					<path d="M1.63 36.02 L1.63 34.58 L1.63 34.56 L1.63 31.34 L1.63 31.28 L1.63 31.25 L1.63 31.19 L1.63 31.16 L1.63
								 31.13 L1.65 31.05 L1.65 31.04 L1.66 30.98 L1.68 30.95 L1.69 30.89 L1.69 30.87 L1.72 30.81 L1.75
								 30.8 L1.8 30.74 L1.81 30.72 L1.86 30.68 L1.87 30.68 L1.92 30.65 L1.93 30.65 L1.98 30.62 L1.99 30.62
								 L2.04 30.6 L2.07 30.6 L2.11 30.6 L2.14 30.59 L2.19 30.59 L2.2 30.59 L2.26 30.59 L2.28 30.6 L2.32
								 30.6 L2.35 30.6 L2.4 30.62 L2.41 30.62 L2.47 30.63 L2.49 30.63 L2.53 30.65 L2.56 30.66 L2.61 30.69
								 L2.62 30.71 L2.67 30.74 L2.68 30.74 L2.73 30.78 L2.74 30.8 L2.79 30.84 L2.8 30.86 L2.86 30.92 L2.91
								 30.96 L3.01 31.1 L3.09 31.22 L3.16 31.32 L3.21 31.44 L3.25 31.56 L3.31 31.7 L3.34 31.82 L3.37 31.95
								 L3.4 32.09 L3.43 32.21 L3.43 32.36 L3.43 32.49 L3.43 32.63 L3.42 32.76 L3.4 32.9 L3.37 33.03 L3.34
								 33.17 L3.3 33.29 L3.25 33.41 L3.19 33.53 L3.13 33.65 L3.07 33.77 L3 33.86 L2.92 33.96 L2.85 34.07
								 L2.74 34.14 L2.67 34.22 L2.56 34.29 L2.47 34.37 L2.37 34.41 L2.26 34.46 L2.16 34.5 L2.04 34.53 L1.93
								 34.55 L1.81 34.56 L1.71 34.58 L1.6 34.56 L1.48 34.55 L1.38 34.53 L1.27 34.5 L1.15 34.46 L1.06 34.41
								 L0.94 34.35 L0.85 34.29 L0.76 34.22 L0.67 34.13 L0.58 34.05 L0.49 33.95 L0.43 33.86 L0.36 33.75
								 L0.28 33.65 L0.22 33.53 L0.18 33.41 L0.13 33.27 L0.09 33.15 L0.06 33.02 L0.03 32.88 L0.01 32.75
								 L0 32.61 L0 32.48 L0 32.34 L0.01 32.21 L0.03 32.07 L0.06 31.94 L0.09 31.8 L0.13 31.67 L0.16 31.55
								 L0.22 31.43 L0.28 31.31 L1.63 36.02 Z" class="st3"/>
				</g>
				<g id="group11-19" v:mID="11" v:groupContext="group" v:layerMember="0">
					<title>Feuille.13</title>
					<g id="shape12-20" v:mID="12" v:groupContext="shape" v:layerMember="0">
						<title>Feuille.12</title>
						<path d="M1.63 36.02 L1.63 34.58 L1.63 34.56 L1.63 31.34 L1.63 31.28 L1.63 31.25 L1.63 31.19 L1.63 31.16
									 L1.63 31.13 L1.65 31.05 L1.65 31.04 L1.66 30.98 L1.68 30.95 L1.69 30.89 L1.69 30.87 L1.72 30.81
									 L1.75 30.8 L1.8 30.74 L1.81 30.72 L1.86 30.68 L1.87 30.68 L1.92 30.65 L1.93 30.65 L1.98 30.62
									 L1.99 30.62 L2.04 30.6 L2.07 30.6 L2.11 30.6 L2.14 30.59 L2.19 30.59 L2.2 30.59 L2.26 30.59
									 L2.28 30.6 L2.32 30.6 L2.35 30.6 L2.4 30.62 L2.41 30.62 L2.47 30.63 L2.49 30.63 L2.53 30.65
									 L2.56 30.66 L2.61 30.69 L2.62 30.71 L2.67 30.74 L2.68 30.74 L2.73 30.78 L2.74 30.8 L2.79 30.84
									 L2.8 30.86 L2.86 30.92 L2.91 30.96 L3.01 31.1 L3.09 31.22 L3.16 31.32 L3.21 31.44 L3.25 31.56
									 L3.31 31.7 L3.34 31.82 L3.37 31.95 L3.4 32.09 L3.43 32.21 L3.43 32.36 L3.43 32.49 L3.43 32.63
									 L3.42 32.76 L3.4 32.9 L3.37 33.03 L3.34 33.17 L3.3 33.29 L3.25 33.41 L3.19 33.53 L3.13 33.65
									 L3.07 33.77 L3 33.86 L2.92 33.96 L2.85 34.07 L2.74 34.14 L2.67 34.22 L2.56 34.29 L2.47 34.37
									 L2.37 34.41 L2.26 34.46 L2.16 34.5 L2.04 34.53 L1.93 34.55 L1.81 34.56 L1.71 34.58 L1.6 34.56
									 L1.48 34.55 L1.38 34.53 L1.27 34.5 L1.15 34.46 L1.06 34.41 L0.94 34.35 L0.85 34.29 L0.76 34.22
									 L0.67 34.13 L0.58 34.05 L0.49 33.95 L0.43 33.86 L0.36 33.75 L0.28 33.65 L0.22 33.53 L0.18 33.41
									 L0.13 33.27 L0.09 33.15 L0.06 33.02 L0.03 32.88 L0.01 32.75 L0 32.61 L0 32.48 L0 32.34 L0.01
									 32.21 L0.03 32.07 L0.06 31.94 L0.09 31.8 L0.13 31.67 L0.16 31.55 L0.22 31.43 L0.28 31.31 L1.63
									 36.02 Z" class="st4"/>
					</g>
					<g id="shape13-22" v:mID="13" v:groupContext="shape" v:layerMember="0">
						<title>Feuille.13</title>
						<path d="M1.63 36.02 L1.63 34.58 L1.63 34.56 L1.63 31.34 L1.63 31.28 L1.63 31.25 L1.63 31.19 L1.63 31.16
									 L1.63 31.13 L1.65 31.05 L1.65 31.04 L1.66 30.98 L1.68 30.95 L1.69 30.89 L1.69 30.87 L1.72 30.81
									 L1.75 30.8 L1.8 30.74 L1.81 30.72 L1.86 30.68 L1.87 30.68 L1.92 30.65 L1.93 30.65 L1.98 30.62
									 L1.99 30.62 L2.04 30.6 L2.07 30.6 L2.11 30.6 L2.14 30.59 L2.19 30.59 L2.2 30.59 L2.26 30.59
									 L2.28 30.6 L2.32 30.6 L2.35 30.6 L2.4 30.62 L2.41 30.62 L2.47 30.63 L2.49 30.63 L2.53 30.65
									 L2.56 30.66 L2.61 30.69 L2.62 30.71 L2.67 30.74 L2.68 30.74 L2.73 30.78 L2.74 30.8 L2.79 30.84
									 L2.8 30.86 L2.86 30.92 L2.91 30.96 L3.01 31.1 L3.09 31.22 L3.16 31.32 L3.21 31.44 L3.25 31.56
									 L3.31 31.7 L3.34 31.82 L3.37 31.95 L3.4 32.09 L3.43 32.21 L3.43 32.36 L3.43 32.49 L3.43 32.63
									 L3.42 32.76 L3.4 32.9 L3.37 33.03 L3.34 33.17 L3.3 33.29 L3.25 33.41 L3.19 33.53 L3.13 33.65
									 L3.07 33.77 L3 33.86 L2.92 33.96 L2.85 34.07 L2.74 34.14 L2.67 34.22 L2.56 34.29 L2.47 34.37
									 L2.37 34.41 L2.26 34.46 L2.16 34.5 L2.04 34.53 L1.93 34.55 L1.81 34.56 L1.71 34.58 L1.6 34.56
									 L1.48 34.55 L1.38 34.53 L1.27 34.5 L1.15 34.46 L1.06 34.41 L0.94 34.35 L0.85 34.29 L0.76 34.22
									 L0.67 34.13 L0.58 34.05 L0.49 33.95 L0.43 33.86 L0.36 33.75 L0.28 33.65 L0.22 33.53 L0.18 33.41
									 L0.13 33.27 L0.09 33.15 L0.06 33.02 L0.03 32.88 L0.01 32.75 L0 32.61 L0 32.48 L0 32.34 L0.01
									 32.21 L0.03 32.07 L0.06 31.94 L0.09 31.8 L0.13 31.67 L0.16 31.55 L0.22 31.43 L0.28 31.31 L1.63
									 36.02 Z" class="st5"/>
						<path d="M1.63 36.02 L1.63 34.58 L1.63 34.56 L1.63 31.34 L1.63 31.28 L1.63 31.25 L1.63 31.19 L1.63 31.16
									 L1.63 31.13 L1.65 31.05 L1.65 31.04 L1.66 30.98 L1.68 30.95 L1.69 30.89 L1.69 30.87 L1.72 30.81
									 L1.75 30.8 L1.8 30.74 L1.81 30.72 L1.86 30.68 L1.87 30.68 L1.92 30.65 L1.93 30.65 L1.98 30.62
									 L1.99 30.62 L2.04 30.6 L2.07 30.6 L2.11 30.6 L2.14 30.59 L2.19 30.59 L2.2 30.59 L2.26 30.59
									 L2.28 30.6 L2.32 30.6 L2.35 30.6 L2.4 30.62 L2.41 30.62 L2.47 30.63 L2.49 30.63 L2.53 30.65
									 L2.56 30.66 L2.61 30.69 L2.62 30.71 L2.67 30.74 L2.68 30.74 L2.73 30.78 L2.74 30.8 L2.79 30.84
									 L2.8 30.86 L2.86 30.92 L2.91 30.96 L3.01 31.1 L3.09 31.22 L3.16 31.32 L3.21 31.44 L3.25 31.56
									 L3.31 31.7 L3.34 31.82 L3.37 31.95 L3.4 32.09 L3.43 32.21 L3.43 32.36 L3.43 32.49 L3.43 32.63
									 L3.42 32.76 L3.4 32.9 L3.37 33.03 L3.34 33.17 L3.3 33.29 L3.25 33.41 L3.19 33.53 L3.13 33.65
									 L3.07 33.77 L3 33.86 L2.92 33.96 L2.85 34.07 L2.74 34.14 L2.67 34.22 L2.56 34.29 L2.47 34.37
									 L2.37 34.41 L2.26 34.46 L2.16 34.5 L2.04 34.53 L1.93 34.55 L1.81 34.56 L1.71 34.58 L1.6 34.56
									 L1.48 34.55 L1.38 34.53 L1.27 34.5 L1.15 34.46 L1.06 34.41 L0.94 34.35 L0.85 34.29 L0.76 34.22
									 L0.67 34.13 L0.58 34.05 L0.49 33.95 L0.43 33.86 L0.36 33.75 L0.28 33.65 L0.22 33.53 L0.18 33.41
									 L0.13 33.27 L0.09 33.15 L0.06 33.02 L0.03 32.88 L0.01 32.75 L0 32.61 L0 32.48 L0 32.34 L0.01
									 32.21 L0.03 32.07 L0.06 31.94 L0.09 31.8 L0.13 31.67 L0.16 31.55 L0.22 31.43 L0.28 31.31"
								class="st6"/>
					</g>
				</g>
			</g>
			<g id="shape14-25" v:mID="14" v:groupContext="shape" v:layerMember="0" transform="translate(2.90542,-5.01166)">
				<title>Feuille.10</title>
				<path d="M0 35.97 L0.04 36.02 L0 35.97 Z" class="st7"/>
			</g>
		</g>
	</g>
</svg>
