<?xml version="1.0" encoding="UTF-8" standalone="no"?>
<!DOCTYPE svg PUBLIC "-//W3C//DTD SVG 1.0//EN" "C:\SeeVisioDTD\svg10.dtd">
<!-- Generated by Microsoft Visio 11.0, SVG Export, v1.0 FL_EF0320.svg Page-1 -->
<!--
/*******************************************************************************
* Copyright (c) 2010-2014 ITER Organization.
* All rights reserved. This program and the accompanying materials
* are made available under the terms of the Eclipse Public License v1.0
* which accompanies this distribution, and is available at
* http://www.eclipse.org/legal/epl-v10.html
******************************************************************************/
-->
<svg xmlns="http://www.w3.org/2000/svg" xmlns:v="http://schemas.microsoft.com/visio/2003/SVGExtensions/" width="0.728661in"
		height="1.08299in" viewBox="0 0 52.4636 77.9754" xml:space="preserve" color-interpolation-filters="sRGB" class="st4">
	<title>document de base</title>
	<v:documentProperties v:langID="1036" v:metric="true" v:viewMarkup="false"/>
	<style type="text/css">
	<![CDATA[
		.st1 {fill:#ffffff;stroke:none;stroke-linecap:round;stroke-linejoin:round;stroke-width:0.72}
		.st2 {fill:#ffffff}
		.st3 {stroke:#000000;stroke-linecap:round;stroke-linejoin:round;stroke-width:0.72}
		.st4 {fill:none;fill-rule:evenodd;font-size:12;overflow:visible;stroke-linecap:square;stroke-miterlimit:3}
	]]>
	</style>
	<g v:mID="0" v:index="1" v:groupContext="foregroundPage">
		<title>Page-1</title>
		<v:pageProperties v:drawingScale="0.0393701" v:pageScale="0.0393701" v:drawingUnits="24" v:shadowOffsetX="8.50394"
				v:shadowOffsetY="-8.50394"/>
		<g id="group156-1" transform="translate(0.72,-0.72)" v:mID="156" v:groupContext="group">
			<v:userDefs>
				<v:ud v:nameU="guid" v:prompt="" v:val="VT4({D74133B6-B735-4DA0-8F29-D0C29C46DCF0})"/>
				<v:ud v:nameU="GUID_M" v:prompt="" v:val="VT4({D74133B6-B735-4DA0-8F29-D0C29C46DCF0})"/>
				<v:ud v:nameU="Bob_Guid" v:prompt="" v:val="VT4()"/>
				<v:ud v:nameU="Xpo_Guid" v:prompt="" v:val="VT4({D74133B6-B735-4DA0-8F29-D0C29C46DCF0})"/>
			</v:userDefs>
			<title>SV_GROUP</title>
			<g id="shape157-2" v:mID="157" v:groupContext="shape" transform="translate(-47.7064,-15.4292) rotate(-45)">
				<title>Sheet.157</title>
				<v:userDefs>
					<v:ud v:nameU="guid" v:prompt="" v:val="VT4({A7AC7F8B-DF82-4D67-9685-F891EEC45BCD})"/>
					<v:ud v:nameU="GUID_M" v:prompt="" v:val="VT4({A7AC7F8B-DF82-4D67-9685-F891EEC45BCD})"/>
					<v:ud v:nameU="Bob_Guid" v:prompt="" v:val="VT4()"/>
				</v:userDefs>
				<rect x="0" y="69.4715" width="8.50394" height="8.50394" class="st1"/>
			</g>
			<g id="shape158-4" v:mID="158" v:groupContext="shape" transform="translate(-18.0861,-13.8685) rotate(-45)">
				<title>Sheet.158</title>
				<v:userDefs>
					<v:ud v:nameU="guid" v:prompt="" v:val="VT4({7BA8BDC7-E3D0-48E1-B42C-812656B14A6B})"/>
					<v:ud v:nameU="GUID_M" v:prompt="" v:val="VT4({7BA8BDC7-E3D0-48E1-B42C-812656B14A6B})"/>
					<v:ud v:nameU="Bob_Guid" v:prompt="" v:val="VT4()"/>
				</v:userDefs>
				<rect x="0" y="65.7059" width="7.93701" height="12.2696" class="st1"/>
			</g>
			<g id="shape159-6" v:mID="159" v:groupContext="shape" transform="translate(8.50394,-42.5197)">
				<title>Sheet.159</title>
				<v:userDefs>
					<v:ud v:nameU="guid" v:prompt="" v:val="VT4({32F00416-F782-45D8-BCBB-A2C0A87FE5B3})"/>
					<v:ud v:nameU="GUID_M" v:prompt="" v:val="VT4({32F00416-F782-45D8-BCBB-A2C0A87FE5B3})"/>
					<v:ud v:nameU="Bob_Guid" v:prompt="" v:val="VT4()"/>
				</v:userDefs>
				<rect x="0" y="43.9597" width="25.5118" height="34.0157" class="st1"/>
			</g>
			<g id="shape160-8" v:mID="160" v:groupContext="shape">
				<title>Sheet.160</title>
				<v:userDefs>
					<v:ud v:nameU="guid" v:prompt="" v:val="VT4({2169D598-1CC5-40C7-B0CE-A212F9CB3955})"/>
					<v:ud v:nameU="GUID_M" v:prompt="" v:val="VT4({2169D598-1CC5-40C7-B0CE-A212F9CB3955})"/>
					<v:ud v:nameU="Bob_Guid" v:prompt="" v:val="VT4()"/>
				</v:userDefs>
				<rect x="0" y="35.4557" width="51.0236" height="42.5197" class="st1"/>
			</g>
			<g id="shape161-10" v:mID="161" v:groupContext="shape">
				<title>Sheet.161</title>
				<v:userDefs>
					<v:ud v:nameU="guid" v:prompt="" v:val="VT4({C5FCB271-829B-4166-B92A-FBA495880931})"/>
					<v:ud v:nameU="GUID_M" v:prompt="" v:val="VT4({C5FCB271-829B-4166-B92A-FBA495880931})"/>
					<v:ud v:nameU="Bob_Guid" v:prompt="" v:val="VT4()"/>
				</v:userDefs>
				<path d="M48.74 39.94 A1.73622 1.73622 -180 1 0 45.27 39.94 A1.73622 1.73622 -180 1 0 48.74 39.94 Z M48.74 48.45
							 A1.73622 1.73622 -180 1 0 45.27 48.45 A1.73622 1.73622 -180 1 0 48.74 48.45 Z M48.81 65.22 A1.73622
							 1.73622 -180 1 0 45.34 65.22 A1.73622 1.73622 -180 1 0 48.81 65.22 Z M48.88 56.71 A1.73622 1.73622 -180
							 1 0 45.41 56.71 A1.73622 1.73622 -180 1 0 48.88 56.71 Z M48.81 73.44 A1.73622 1.73622 -180 1 0 45.34
							 73.44 A1.73622 1.73622 -180 1 0 48.81 73.44 Z" class="st2"/>
				<path d="M8.5 1.44 L8.5 26.95" class="st3"/>
				<path d="M34.02 1.44 L34.02 26.95" class="st3"/>
				<path d="M0 43.96 L8.5 43.96" class="st3"/>
				<path d="M8.5 26.95 L0 35.46" class="st3"/>
				<path d="M48.74 39.94 A1.73622 1.73622 -180 1 0 45.27 39.94 A1.73622 1.73622 -180 1 0 48.74 39.94" class="st3"/>
				<path d="M48.14 38.63 L49.32 37.44" class="st3"/>
				<path d="M8.22 48.64 L13.32 43.53" class="st3"/>
				<path d="M11.62 52.04 L16.72 46.94" class="st3"/>
				<path d="M14.74 55.16 L19.84 50.05" class="st3"/>
				<path d="M45.88 49.77 L44.65 51" class="st3"/>
				<path d="M42.52 35.46 L34.02 26.95" class="st3"/>
				<path d="M45.88 41.27 L44.65 42.5" class="st3"/>
				<path d="M48.74 48.45 A1.73622 1.73622 -180 1 0 45.27 48.45 A1.73622 1.73622 -180 1 0 48.74 48.45" class="st3"/>
				<path d="M48.14 47.13 L49.32 45.94" class="st3"/>
				<path d="M48.27 55.39 L49.46 54.21" class="st3"/>
				<path d="M28.91 70.04 L34.02 64.94" class="st3"/>
				<path d="M45.95 66.54 L44.72 67.77" class="st3"/>
				<path d="M46.02 58.03 L44.79 59.27" class="st3"/>
				<path d="M48.81 65.22 A1.73622 1.73622 -180 1 0 45.34 65.22 A1.73622 1.73622 -180 1 0 48.81 65.22" class="st3"/>
				<path d="M48.88 56.71 A1.73622 1.73622 -180 1 0 45.41 56.71 A1.73622 1.73622 -180 1 0 48.88 56.71" class="st3"/>
				<path d="M48.21 72.12 L49.39 70.93" class="st3"/>
				<path d="M48.21 63.9 L49.39 62.71" class="st3"/>
				<path d="M0 35.46 L0 77.98" class="st3"/>
				<path d="M0 77.98 L42.52 77.98" class="st3"/>
				<path d="M34.02 69.47 L8.5 43.96" class="st3"/>
				<path d="M17.57 58.27 L22.68 53.17" class="st3"/>
				<path d="M20.41 61.11 L25.51 56.01" class="st3"/>
				<path d="M23.24 64.23 L28.35 59.13" class="st3"/>
				<path d="M26.08 66.92 L31.18 61.82" class="st3"/>
				<path d="M34.02 77.98 L34.02 69.47" class="st3"/>
				<path d="M51.02 35.46 L42.52 35.46 L42.52 77.98" class="st3"/>
				<path d="M51.02 35.46 L51.02 77.98 L42.52 77.98" class="st3"/>
				<path d="M45.95 74.76 L44.72 75.99" class="st3"/>
				<path d="M48.81 73.44 A1.73622 1.73622 -180 1 0 45.34 73.44 A1.73622 1.73622 -180 1 0 48.81 73.44" class="st3"/>
			</g>
		</g>
	</g>
</svg>
