<?xml version="1.0" encoding="UTF-8" standalone="no"?>
<!DOCTYPE svg PUBLIC "-//W3C//DTD SVG 1.0//EN" "C:\SeeVisioDTD\svg10.dtd">
<!-- Generated by Microsoft Visio 11.0, SVG Export, v1.0 FL_EF0306.svg Page-1 -->
<!--
/*******************************************************************************
* Copyright (c) 2010-2014 ITER Organization.
* All rights reserved. This program and the accompanying materials
* are made available under the terms of the Eclipse Public License v1.0
* which accompanies this distribution, and is available at
* http://www.eclipse.org/legal/epl-v10.html
******************************************************************************/
-->
<svg xmlns="http://www.w3.org/2000/svg" xmlns:v="http://schemas.microsoft.com/visio/2003/SVGExtensions/" width="1.2011in"
		height="0.96488in" viewBox="0 0 86.4791 69.4714" xml:space="preserve" color-interpolation-filters="sRGB" class="st6">
	<v:documentProperties v:langID="1036" v:metric="true" v:viewMarkup="false"/>

	<style type="text/css">
	<![CDATA[
		.st1 {fill:#ffffff;stroke:none;stroke-linecap:round;stroke-linejoin:round;stroke-width:0.719998}
		.st2 {fill:#ffffff;stroke:none;stroke-width:0.999998}
		.st3 {fill:none;stroke:#000000;stroke-linecap:round;stroke-linejoin:round;stroke-width:0.719998}
		.st4 {fill:none}
		.st5 {stroke:#000000;stroke-linecap:round;stroke-linejoin:round;stroke-width:0.719998}
		.st6 {fill:none;fill-rule:evenodd;font-size:12;overflow:visible;stroke-linecap:square;stroke-miterlimit:3}
	]]>
	</style>

	<g v:mID="0" v:index="1" v:groupContext="foregroundPage">
		<title>Page-1</title>
		<v:pageProperties v:drawingScale="0.0393701" v:pageScale="0.0393701" v:drawingUnits="24" v:shadowOffsetX="8.50392"
				v:shadowOffsetY="-8.50392"/>
		<g id="group1-1" transform="translate(0.719998,-0.719998)" v:mID="1" v:groupContext="group">
			<title>Feuille.3</title>
			<g id="shape2-2" v:mID="2" v:groupContext="shape" transform="translate(-8.58688E-017,-68.0154)">
				<title>Feuille.1</title>
				<rect x="0" y="69.4554" width="0.0159449" height="0.0159449" class="st1"/>
			</g>
			<g id="shape3-4" v:mID="3" v:groupContext="shape" transform="translate(85.0232,0)">
				<title>Feuille.2</title>
				<rect x="0" y="69.4554" width="0.0159449" height="0.0159449" class="st1"/>
			</g>
		</g>
		<g id="group4-6" transform="translate(4.97059,-21.6978)" v:mID="4" v:groupContext="group">
			<title>FL_EF0306.4</title>
			<g id="shape5-7" v:mID="5" v:groupContext="shape">
				<title>Sheet.5</title>
				<path d="M68.03 69.47 L72.74 69.47 A23.3509 23.3509 -180 0 0 72.74 43.96 L68.03 43.96 L63.28 43.96 L8.5 43.96 L3.79
							 43.96 A23.3509 23.3509 -180 0 0 3.79 69.47 L8.5 69.47 L68.03 69.47 Z" class="st2"/>
			</g>
			<g id="shape6-9" v:mID="6" v:groupContext="shape">
				<title>Sheet.6</title>
				<path d="M68.03 69.47 L72.74 69.47 A23.3509 23.3509 -180 0 0 72.74 43.96 L68.03 43.96 L63.28 43.96 L8.5 43.96 L3.79
							 43.96 A23.3509 23.3509 -180 0 0 3.79 69.47 L8.5 69.47 L68.03 69.47 Z" class="st3"/>
			</g>
			<g id="shape7-11" v:mID="7" v:groupContext="shape" transform="translate(20.5412,-5.66999)">
				<title>Sheet.7</title>
				<path d="M0 54.91 L0 62.39 L0 69.47 L40.1 69.47 A6.05739 7.70875 -180 0 0 40.1 54.91 L0 54.91 L0 49.63 L0 54.91 Z"
						class="st4"/>
				<path d="M0 54.91 L0 62.39 L0 69.47 L40.1 69.47 A6.05739 7.70875 -180 0 0 40.1 54.91 L0 54.91 L0 49.63" class="st5"/>
			</g>
			<g id="shape8-14" v:mID="8" v:groupContext="shape" transform="translate(20.5412,1.27898E-013)">
				<title>Sheet.8</title>
				<path d="M0 63.8 L0 69.47 L0 63.8 Z" class="st4"/>
				<path d="M0 63.8 L0 69.47" class="st5"/>
			</g>
		</g>
	</g>
</svg>
