<?xml version="1.0" encoding="UTF-8"?>
<!--
/*******************************************************************************
* Copyright (c) 2010-2016 ITER Organization.
* All rights reserved. This program and the accompanying materials
* are made available under the terms of the Eclipse Public License v1.0
* which accompanies this distribution, and is available at
* http://www.eclipse.org/legal/epl-v10.html
******************************************************************************/
-->
<svg xmlns="http://www.w3.org/2000/svg" xmlns:xlink="http://www.w3.org/1999/xlink" width="162pt" height="226pt" viewBox="0 0 162 226" version="1.1">
<g id="surface1">
<path style=" stroke:none;fill-rule:evenodd;fill:rgb(100%,100%,100%);fill-opacity:1;" d="M 1.351563 1.875 L 1.449219 1.875 L 1.449219 2.011719 L 1.351563 2.011719 Z "/>
<path style=" stroke:none;fill-rule:evenodd;fill:rgb(100%,100%,100%);fill-opacity:1;" d="M 160.699219 224.46875 L 160.796875 224.46875 L 160.796875 224.609375 L 160.699219 224.609375 Z "/>
<path style="fill:none;stroke-width:0.999998;stroke-linecap:round;stroke-linejoin:round;stroke:rgb(0%,0%,0%);stroke-opacity:1;stroke-miterlimit:3;" d="M 51.024375 95.546602 C 51.024375 81.457125 39.601424 70.036045 25.511799 70.036045 C 11.422174 70.036045 -0.000776711 81.457125 -0.000776711 95.546602 C -0.000776711 109.63608 11.422174 121.059247 25.511799 121.059247 C 39.601424 121.059247 51.024375 109.63608 51.024375 95.546602 Z " transform="matrix(1.874994,0,0,1.870855,32.708488,-97.331999)"/>
<path style="fill:none;stroke-width:0.999998;stroke-linecap:round;stroke-linejoin:round;stroke:rgb(0%,0%,0%);stroke-opacity:1;stroke-miterlimit:3;" d="M 51.024375 95.547862 C 51.024375 81.458385 39.601424 70.035217 25.511799 70.035217 C 11.422174 70.035217 -0.000776711 81.458385 -0.000776711 95.547862 C -0.000776711 109.63734 11.422174 121.058419 25.511799 121.058419 C 39.601424 121.058419 51.024375 109.63734 51.024375 95.547862 Z " transform="matrix(1.874994,0,0,1.870855,32.708488,-33.693731)"/>
<path style="fill:none;stroke-width:0.999998;stroke-linecap:round;stroke-linejoin:round;stroke:rgb(0%,0%,0%);stroke-opacity:1;stroke-miterlimit:3;" d="M -0.000645373 121.059617 L 17.009873 121.059617 " transform="matrix(0.000000000000000115,-1.870855,1.874994,0.000000000000000115,-145.931419,33.694105)"/>
<path style="fill:none;stroke-width:0.999998;stroke-linecap:round;stroke-linejoin:round;stroke:rgb(0%,0%,0%);stroke-opacity:1;stroke-miterlimit:3;" d="M -0.000380505 121.059967 L 17.010137 121.059967 " transform="matrix(0.000000000000000115,1.870855,-1.874994,0.000000000000000115,308.037544,192.789774)"/>
</g>
</svg>
