<?xml version="1.0" encoding="UTF-8"?>
<!--
/*******************************************************************************
* Copyright (c) 2010-2016 ITER Organization.
* All rights reserved. This program and the accompanying materials
* are made available under the terms of the Eclipse Public License v1.0
* which accompanies this distribution, and is available at
* http://www.eclipse.org/legal/epl-v10.html
******************************************************************************/
-->
<svg xmlns="http://www.w3.org/2000/svg" xmlns:xlink="http://www.w3.org/1999/xlink" width="84pt" height="96pt" viewBox="0 0 84 96" version="1.1">
<g id="surface1">
<path style=" stroke:none;fill-rule:evenodd;fill:rgb(100%,100%,100%);fill-opacity:1;" d="M 10.242188 47.835938 C 10.242188 47.585938 10.0625 47.382813 9.84375 47.382813 C 9.621094 47.382813 9.445313 47.585938 9.445313 47.835938 C 9.445313 48.085938 9.621094 48.289063 9.84375 48.289063 C 10.0625 48.289063 10.242188 48.085938 10.242188 47.835938 Z M 74.027344 47.835938 C 74.027344 47.585938 73.851563 47.382813 73.628906 47.382813 C 73.410156 47.382813 73.230469 47.585938 73.230469 47.835938 C 73.230469 48.085938 73.410156 48.289063 73.628906 48.289063 C 73.851563 48.289063 74.027344 48.085938 74.027344 47.835938 Z M 17.816406 47.835938 C 17.90625 44.542969 16.40625 41.457031 13.902344 39.78125 C 11.402344 38.105469 8.292969 38.105469 5.792969 39.78125 C 3.289063 41.457031 1.789063 44.542969 1.878906 47.835938 C 1.789063 51.128906 3.289063 54.214844 5.792969 55.890625 C 8.292969 57.566406 11.402344 57.566406 13.902344 55.890625 C 16.40625 54.214844 17.90625 51.128906 17.816406 47.835938 Z M 81.605469 47.835938 C 81.691406 44.542969 80.191406 41.457031 77.691406 39.78125 C 75.1875 38.105469 72.082031 38.105469 69.578125 39.78125 C 67.078125 41.457031 65.578125 44.542969 65.667969 47.835938 C 65.578125 51.128906 67.078125 54.214844 69.578125 55.890625 C 72.082031 57.566406 75.1875 57.566406 77.691406 55.890625 C 80.191406 54.214844 81.691406 51.128906 81.605469 47.835938 Z M 17.816406 2.648438 L 17.816406 93.003906 L 65.667969 93.003906 L 65.667969 2.648438 Z "/>
<path style="fill:none;stroke-width:0.72;stroke-linecap:round;stroke-linejoin:round;stroke:rgb(0%,0%,0%);stroke-opacity:1;stroke-miterlimit:3;" d="M 0.429243 50.770087 C 0.429243 50.628421 0.335493 50.515921 0.216743 50.515921 C 0.100076 50.515921 0.00424263 50.628421 0.00424263 50.770087 C 0.00424263 50.911754 0.100076 51.024254 0.216743 51.024254 C 0.335493 51.024254 0.429243 50.911754 0.429243 50.770087 Z " transform="matrix(1.875,0,0,1.875,9.452983,-47.354055)"/>
<path style="fill:none;stroke-width:0.72;stroke-linecap:round;stroke-linejoin:round;stroke:rgb(0%,0%,0%);stroke-opacity:1;stroke-miterlimit:3;" d="M 0.430081 50.770087 C 0.430081 50.628421 0.334248 50.515921 0.217581 50.515921 C 0.100915 50.515921 0.0050813 50.628421 0.0050813 50.770087 C 0.0050813 50.911754 0.100915 51.024254 0.217581 51.024254 C 0.334248 51.024254 0.430081 50.911754 0.430081 50.770087 Z " transform="matrix(1.875,0,0,1.875,73.240473,-47.354055)"/>
<path style="fill:none;stroke-width:0.72;stroke-linecap:round;stroke-linejoin:round;stroke:rgb(0%,0%,0%);stroke-opacity:1;stroke-miterlimit:3;" d="M 8.500093 45.770871 C 8.54801 43.910454 7.74801 42.168787 6.412593 41.222953 C 5.079259 40.275036 3.420926 40.275036 2.087592 41.222953 C 0.752175 42.168787 -0.0478247 43.910454 0.000092 45.770871 C -0.0478247 47.629204 0.752175 49.370871 2.087592 50.318788 C 3.420926 51.264622 5.079259 51.264622 6.412593 50.318788 C 7.74801 49.370871 8.54801 47.629204 8.500093 45.770871 Z " transform="matrix(1.875,0,0,1.875,1.878734,-37.976619)"/>
<path style="fill:none;stroke-width:0.72;stroke-linecap:round;stroke-linejoin:round;stroke:rgb(0%,0%,0%);stroke-opacity:1;stroke-miterlimit:3;" d="M 34.020931 51.020155 L 0.0000926663 51.020155 " transform="matrix(1.875,0,0,1.875,9.847483,-38.276056)"/>
<path style="fill:none;stroke-width:0.72;stroke-linecap:round;stroke-linejoin:round;stroke:rgb(0%,0%,0%);stroke-opacity:1;stroke-miterlimit:3;" d="M 8.500932 45.770871 C 8.546765 43.910454 7.746765 42.168787 6.413432 41.222953 C 5.078015 40.275036 3.421765 40.275036 2.086348 41.222953 C 0.753014 42.168787 -0.046986 43.910454 0.000930667 45.770871 C -0.046986 47.629204 0.753014 49.370871 2.086348 50.318788 C 3.421765 51.264622 5.078015 51.264622 6.413432 50.318788 C 7.746765 49.370871 8.546765 47.629204 8.500932 45.770871 Z " transform="matrix(1.875,0,0,1.875,65.666224,-37.976619)"/>
<path style="fill:none;stroke-width:0.72;stroke-linecap:round;stroke-linejoin:round;stroke:rgb(0%,0%,0%);stroke-opacity:1;stroke-miterlimit:3;" d="M 0.000103333 2.833987 L 25.520941 2.833987 L 25.520941 51.023578 L 0.000103333 51.023578 Z " transform="matrix(1.875,0,0,1.875,17.816213,-2.657475)"/>
<path style="fill:none;stroke-width:0.72;stroke-linecap:round;stroke-linejoin:round;stroke:rgb(0%,0%,0%);stroke-opacity:1;stroke-miterlimit:3;" d="M 0.000103333 35.730139 L 12.760522 51.019724 " transform="matrix(1.875,0,0,1.875,17.816213,-3.204937)"/>
<path style="fill:none;stroke-width:0.72;stroke-linecap:round;stroke-linejoin:round;stroke:rgb(0%,0%,0%);stroke-opacity:1;stroke-miterlimit:3;" d="M 12.760931 35.730139 L 0.000512 51.019724 " transform="matrix(1.875,0,0,1.875,41.741227,-3.204937)"/>
<path style="fill:none;stroke-width:0.72;stroke-linecap:round;stroke-linejoin:round;stroke:rgb(0%,0%,0%);stroke-opacity:1;stroke-dasharray:10.8,6.48;stroke-miterlimit:3;" d="M -0.000123964 51.019186 L 34.020715 51.019186 " transform="matrix(1.875,0,0,1.875,10.285389,-59.305491)"/>
</g>
</svg>
