<?xml version="1.0" encoding="UTF-8"?>
<!--
/*******************************************************************************
* Copyright (c) 2010-2016 ITER Organization.
* All rights reserved. This program and the accompanying materials
* are made available under the terms of the Eclipse Public License v1.0
* which accompanies this distribution, and is available at
* http://www.eclipse.org/legal/epl-v10.html
******************************************************************************/
-->
<svg xmlns="http://www.w3.org/2000/svg" xmlns:xlink="http://www.w3.org/1999/xlink" width="83pt" height="99pt" viewBox="0 0 83 99" version="1.1">
<g id="surface1">
<path style=" stroke:none;fill-rule:evenodd;fill:rgb(100%,100%,100%);fill-opacity:1;" d="M 1.359375 1.351563 L 1.386719 1.351563 L 1.386719 1.378906 L 1.359375 1.378906 Z "/>
<path style=" stroke:none;fill-rule:evenodd;fill:rgb(100%,100%,100%);fill-opacity:1;" d="M 81.582031 97.050781 L 81.609375 97.050781 L 81.609375 97.078125 L 81.582031 97.078125 Z "/>
<path style="fill-rule:evenodd;fill:rgb(100%,100%,100%);fill-opacity:1;stroke-width:0.72;stroke-linecap:round;stroke-linejoin:round;stroke:rgb(0%,0%,0%);stroke-opacity:1;stroke-miterlimit:3;" d="M 0.0000309242 9.976724 L 25.512085 9.976724 L 25.512085 52.495484 L 0.0000309242 52.495484 Z " transform="matrix(1.886363,0,0,1.875,16.499942,-9.339167)"/>
<path style="fill:none;stroke-width:0.72;stroke-linecap:round;stroke-linejoin:round;stroke:rgb(0%,0%,0%);stroke-opacity:1;stroke-dasharray:5.04,3.6;stroke-miterlimit:3;" d="M 0.0000309242 52.50076 L 25.510014 52.50076 " transform="matrix(1.886363,0,0,1.875,16.499942,-73.11859)"/>
<path style="fill:none;stroke-width:0.72;stroke-linecap:round;stroke-linejoin:round;stroke:rgb(0%,0%,0%);stroke-opacity:1;stroke-dasharray:5.04,3.6;stroke-miterlimit:3;" d="M 0.0000309242 52.499422 L 25.510014 52.499422 " transform="matrix(1.886363,0,0,1.875,16.499942,-25.28405)"/>
<path style="fill:none;stroke-width:0.72;stroke-linecap:round;stroke-linejoin:round;stroke:rgb(0%,0%,0%);stroke-opacity:1;stroke-miterlimit:3;" d="M 0.0000309242 52.501028 L 25.510014 52.501028 " transform="matrix(1.886363,0,0,1.875,16.499942,-57.173781)"/>
<path style="fill:none;stroke-width:0.72;stroke-linecap:round;stroke-linejoin:round;stroke:rgb(0%,0%,0%);stroke-opacity:1;stroke-miterlimit:3;" d="M 0.0000309242 52.499214 L 25.510014 52.499214 " transform="matrix(1.886363,0,0,1.875,16.499942,-41.228972)"/>
</g>
</svg>
